<svg width="1467" height="327" viewBox="0 0 1467 327" fill="none" xmlns="http://www.w3.org/2000/svg">
<path fill-rule="evenodd" clip-rule="evenodd" d="M464.887 7.25957V7.74041C461.898 7.96697 459.504 11.0943 459.331 15H459.311C459.131 10.9439 456.556 7.72726 453.406 7.72726H453.406V7.71413C456.511 7.47879 458.973 4.11504 458.973 8.58307e-06V0H459.331C459.504 3.90568 461.898 7.03302 464.887 7.25957Z" fill="#D9D9D9"/>
<path fill-rule="evenodd" clip-rule="evenodd" d="M407.481 78.2596V78.7404C404.492 78.967 402.098 82.0943 401.925 86H401.905C401.724 81.9439 399.15 78.7273 396 78.7273H396V78.7141C399.105 78.4788 401.567 75.115 401.567 71V71H401.925C402.098 74.9057 404.492 78.033 407.481 78.2596Z" fill="#D9D9D9"/>
<path fill-rule="evenodd" clip-rule="evenodd" d="M543.169 80.1282L543.169 79.8718C545.343 79.751 547.084 78.0831 547.21 76L547.225 76C547.356 78.1632 549.228 79.8787 551.519 79.8788L551.519 79.8858C549.261 80.0112 547.47 81.8053 547.47 84L547.21 84C547.084 81.9169 545.343 80.249 543.169 80.1282Z" fill="#D9D9D9"/>
<path fill-rule="evenodd" clip-rule="evenodd" d="M509.263 40.7084L509.263 40.2916C511.297 40.0952 512.926 37.3849 513.044 34L513.057 34C513.18 37.5153 514.932 40.303 517.075 40.303L517.075 40.303L517.075 40.3144C514.962 40.5182 513.287 43.4335 513.287 47L513.287 47L513.044 47C512.926 43.6151 511.297 40.9048 509.263 40.7084Z" fill="#D9D9D9"/>
<path fill-rule="evenodd" clip-rule="evenodd" d="M730.631 137.74L730.631 137.26C733.621 137.033 736.015 133.906 736.188 130L736.208 130C736.388 134.056 738.963 137.273 742.113 137.273L742.113 137.273L742.113 137.286C739.008 137.521 736.546 140.885 736.546 145L736.546 145L736.188 145C736.015 141.094 733.621 137.967 730.631 137.74Z" fill="#D9D9D9"/>
<path fill-rule="evenodd" clip-rule="evenodd" d="M788.038 66.7404L788.038 66.2596C791.027 66.033 793.421 62.9057 793.594 59L793.614 59C793.794 63.0561 796.369 66.2727 799.519 66.2727L799.519 66.2727L799.519 66.2859C796.414 66.5212 793.952 69.885 793.952 74L793.952 74L793.594 74C793.421 70.0943 791.027 66.967 788.038 66.7404Z" fill="#D9D9D9"/>
<path fill-rule="evenodd" clip-rule="evenodd" d="M652.35 64.8718L652.35 65.1282C650.176 65.249 648.435 66.9169 648.309 69L648.294 69C648.163 66.8368 646.291 65.1213 644 65.1212L644 65.1142C646.258 64.9888 648.049 63.1947 648.049 61L648.309 61C648.435 63.0831 650.176 64.751 652.35 64.8718Z" fill="#D9D9D9"/>
<path fill-rule="evenodd" clip-rule="evenodd" d="M686.256 104.292L686.256 104.708C684.222 104.905 682.593 107.615 682.475 111L682.462 111C682.339 107.485 680.587 104.697 678.444 104.697L678.444 104.697L678.444 104.686C680.556 104.482 682.232 101.566 682.232 98V98L682.475 98C682.593 101.385 684.222 104.095 686.256 104.292Z" fill="#D9D9D9"/>
<path fill-rule="evenodd" clip-rule="evenodd" d="M17.4849 266.708L17.4849 266.292C15.536 266.095 13.9755 263.385 13.8624 260L13.8493 260C13.7319 263.515 12.0534 266.303 10 266.303L10 266.314C12.024 266.518 13.629 269.434 13.629 273L13.8624 273C13.9755 269.615 15.536 266.905 17.4849 266.708Z" fill="#D9D9D9"/>
<path fill-rule="evenodd" clip-rule="evenodd" d="M175 283.904V284.096C176.302 284.187 177.344 285.438 177.42 287H177.429C177.507 285.378 178.628 284.091 180 284.091H180V284.086C178.648 283.992 177.576 282.646 177.576 281V281H177.42C177.344 282.562 176.302 283.813 175 283.904Z" fill="#D9D9D9"/>
<path fill-rule="evenodd" clip-rule="evenodd" d="M0 60.9038V61.0962C1.30189 61.1868 2.34434 62.4377 2.41986 64H2.42862C2.50704 62.3776 3.6283 61.0909 4.99999 61.0909H5V61.0857C3.64798 60.9915 2.57577 59.646 2.57577 58V58H2.41986C2.34434 59.5623 1.30189 60.8132 0 60.9038Z" fill="#D9D9D9"/>
<path fill-rule="evenodd" clip-rule="evenodd" d="M254 68.2596V68.7404C256.864 68.967 259.158 72.0943 259.324 76H259.343C259.516 71.9439 261.982 68.7273 265 68.7273V68.7141C262.026 68.4788 259.667 65.1151 259.667 61L259.324 61C259.158 64.9057 256.864 68.033 254 68.2596Z" fill="#D9D9D9"/>
<path fill-rule="evenodd" clip-rule="evenodd" d="M58 101.292V101.708C60.8642 101.905 63.1576 104.615 63.3237 108H63.343C63.5155 104.485 65.9823 101.697 69 101.697V101.686C66.0255 101.482 63.6667 98.5664 63.6667 95V95H63.3237C63.1576 98.3849 60.8642 101.095 58 101.292Z" fill="#D9D9D9"/>
<path fill-rule="evenodd" clip-rule="evenodd" d="M179 141.128L179 140.872C176.917 140.751 175.249 139.083 175.128 137L175.114 137C174.989 139.163 173.195 140.879 171 140.879L171 140.886C173.163 141.011 174.879 142.805 174.879 145L175.128 145C175.249 142.917 176.917 141.249 179 141.128Z" fill="#D9D9D9"/>
<path fill-rule="evenodd" clip-rule="evenodd" d="M211.485 101.708L211.485 101.292C209.536 101.095 207.975 98.3849 207.862 95L207.849 95C207.732 98.5153 206.053 101.303 204 101.303L204 101.314C206.024 101.518 207.629 104.434 207.629 108L207.862 108C207.975 104.615 209.536 101.905 211.485 101.708Z" fill="#D9D9D9"/>
<path fill-rule="evenodd" clip-rule="evenodd" d="M1200.75 234.708L1200.75 234.292C1202.78 234.095 1204.41 231.385 1204.53 228L1204.54 228C1204.67 231.515 1206.42 234.303 1208.56 234.303L1208.56 234.303L1208.56 234.314C1206.45 234.518 1204.77 237.434 1204.77 241L1204.53 241C1204.41 237.615 1202.78 234.905 1200.75 234.708Z" fill="#D9D9D9"/>
<path fill-rule="evenodd" clip-rule="evenodd" d="M1031.12 252.086C1032.54 251.992 1033.66 250.646 1033.66 249L1031.12 252.086Z" fill="#D9D9D9"/>
<path fill-rule="evenodd" clip-rule="evenodd" d="M1213.78 29.0857C1215.19 28.9916 1216.31 27.6461 1216.31 26L1213.78 29.0857Z" fill="#D9D9D9"/>
<path fill-rule="evenodd" clip-rule="evenodd" d="M1037.39 14.0857C1038.8 13.9916 1039.92 12.6461 1039.92 11L1037.39 14.0857Z" fill="#D9D9D9"/>
<path fill-rule="evenodd" clip-rule="evenodd" d="M953.887 36.2596V36.7404C950.898 36.967 948.504 40.0943 948.331 44H948.311C948.131 39.9439 945.556 36.7273 942.406 36.7273H942.406V36.7141C945.511 36.4788 947.973 33.115 947.973 29V29H948.331C948.504 32.9057 950.898 36.033 953.887 36.2596Z" fill="#D9D9D9"/>
<path fill-rule="evenodd" clip-rule="evenodd" d="M896.481 107.26V107.74C893.492 107.967 891.098 111.094 890.925 115H890.905C890.724 110.944 888.15 107.727 885 107.727H885V107.714C888.105 107.479 890.567 104.115 890.567 100V100H890.925C891.098 103.906 893.492 107.033 896.481 107.26Z" fill="#D9D9D9"/>
<path fill-rule="evenodd" clip-rule="evenodd" d="M1158.46 69.2916V69.7084C1155.47 69.9047 1153.08 72.6151 1152.91 76H1152.89C1152.71 72.4847 1150.13 69.697 1146.98 69.697H1146.98V69.6856C1150.09 69.4816 1152.55 66.5664 1152.55 63V63H1152.91C1153.08 66.3849 1155.47 69.0953 1158.46 69.2916Z" fill="#D9D9D9"/>
<path fill-rule="evenodd" clip-rule="evenodd" d="M1032.17 109.128L1032.17 108.872C1034.34 108.751 1036.08 107.083 1036.21 105L1036.22 105C1036.36 107.163 1038.23 108.879 1040.52 108.879L1040.52 108.886C1038.26 109.011 1036.47 110.805 1036.47 113L1036.21 113C1036.08 110.917 1034.34 109.249 1032.17 109.128Z" fill="#D9D9D9"/>
<path fill-rule="evenodd" clip-rule="evenodd" d="M998.263 69.7084L998.263 69.2916C1000.3 69.0952 1001.93 66.3849 1002.04 63L1002.06 63C1002.18 66.5153 1003.93 69.303 1006.07 69.303L1006.08 69.303L1006.08 69.3144C1003.96 69.5182 1002.29 72.4335 1002.29 76L1002.29 76L1002.04 76C1001.93 72.6151 1000.3 69.9048 998.263 69.7084Z" fill="#D9D9D9"/>
<path fill-rule="evenodd" clip-rule="evenodd" d="M1379.89 248.26V248.74C1376.9 248.967 1374.5 252.094 1374.33 256H1374.31C1374.13 251.944 1371.56 248.727 1368.41 248.727H1368.41V248.714C1371.51 248.479 1373.97 245.115 1373.97 241V241H1374.33C1374.5 244.906 1376.9 248.033 1379.89 248.26Z" fill="#D9D9D9"/>
<path fill-rule="evenodd" clip-rule="evenodd" d="M1322.48 319.26V319.74C1319.49 319.967 1317.1 323.094 1316.92 327H1316.9C1316.72 322.944 1314.15 319.727 1311 319.727H1311V319.714C1314.1 319.479 1316.57 316.115 1316.57 312V312H1316.92C1317.1 315.906 1319.49 319.033 1322.48 319.26Z" fill="#D9D9D9"/>
<path fill-rule="evenodd" clip-rule="evenodd" d="M1458.17 321.128L1458.17 320.872C1460.34 320.751 1462.08 319.083 1462.21 317L1462.22 317C1462.36 319.163 1464.23 320.879 1466.52 320.879L1466.52 320.886C1464.26 321.011 1462.47 322.805 1462.47 325L1462.21 325C1462.08 322.917 1460.34 321.249 1458.17 321.128Z" fill="#D9D9D9"/>
<path fill-rule="evenodd" clip-rule="evenodd" d="M1424.26 281.708L1424.26 281.292C1426.3 281.095 1427.93 278.385 1428.04 275L1428.06 275C1428.18 278.515 1429.93 281.303 1432.07 281.303L1432.08 281.303L1432.08 281.314C1429.96 281.518 1428.29 284.434 1428.29 288L1428.29 288L1428.04 288C1427.93 284.615 1426.3 281.905 1424.26 281.708Z" fill="#D9D9D9"/>
</svg>
