<svg width="1728" height="138" viewBox="0 0 1728 138" fill="none" xmlns="http://www.w3.org/2000/svg">
<mask id="path-1-inside-1_27_9896" fill="white">
<path fill-rule="evenodd" clip-rule="evenodd" d="M1609.15 605.978C1605.36 623.896 1589.46 637.345 1570.41 637.345C1561.72 637.345 1553.68 634.542 1547.15 629.791C1539.9 637.898 1529.36 643 1517.63 643C1495.77 643 1478.05 625.277 1478.05 603.414C1478.05 599.998 1478.48 596.682 1479.29 593.52C1472.35 599.52 1463.31 603.149 1453.41 603.149C1451.51 603.149 1449.63 603.015 1447.8 602.754C1440.88 614.284 1428.25 622 1413.83 622C1406.62 622 1399.86 620.072 1394.03 616.704C1388.21 620.072 1381.45 622 1374.24 622C1355.76 622 1340.23 609.333 1335.88 592.206C1334.84 592.141 1333.81 592.035 1332.8 591.891C1325.88 603.421 1313.25 611.137 1298.83 611.137C1291.62 611.137 1284.86 609.209 1279.03 605.841C1273.21 609.209 1266.45 611.137 1259.24 611.137C1250.86 611.137 1243.08 608.531 1236.68 604.085C1235.93 604.128 1235.18 604.149 1234.41 604.149C1232.51 604.149 1230.63 604.015 1228.8 603.754C1221.88 615.284 1209.25 623 1194.83 623C1187.62 623 1180.86 621.072 1175.03 617.704C1169.21 621.072 1162.45 623 1155.24 623C1139.69 623 1126.23 614.033 1119.76 600.987C1118.01 601.223 1116.23 601.345 1114.41 601.345C1109.12 601.345 1104.06 600.304 1099.44 598.417C1093.01 603.535 1084.94 606.691 1076.15 606.978C1072.36 624.896 1056.46 638.345 1037.41 638.345C1028.72 638.345 1020.68 635.542 1014.15 630.791C1006.9 638.898 996.363 644 984.632 644C962.769 644 945.046 626.277 945.046 604.414C945.046 600.998 945.479 597.682 946.292 594.52C939.353 600.52 930.307 604.149 920.414 604.149C918.507 604.149 916.631 604.015 914.796 603.754C907.877 615.284 895.253 623 880.828 623C873.617 623 866.857 621.072 861.034 617.704C855.212 621.072 848.452 623 841.241 623C823.174 623 807.934 610.897 803.187 594.356C796.567 599.335 788.335 602.286 779.414 602.286C777.507 602.286 775.631 602.151 773.796 601.891C766.876 613.421 754.253 621.137 739.828 621.137C732.617 621.137 725.857 619.209 720.034 615.841C714.212 619.209 707.452 621.137 700.241 621.137C691.858 621.137 684.084 618.531 677.684 614.085C676.933 614.128 676.176 614.149 675.414 614.149C673.507 614.149 671.631 614.015 669.796 613.754C662.877 625.284 650.253 633 635.828 633C628.617 633 621.857 631.072 616.034 627.704C610.212 631.072 603.452 633 596.241 633C580.69 633 567.233 624.033 560.76 610.987C559.011 611.223 557.227 611.345 555.414 611.345C550.117 611.345 545.063 610.304 540.445 608.417C534.007 613.535 525.939 616.691 517.146 616.978C513.362 634.896 497.458 648.345 478.414 648.345C469.72 648.345 461.681 645.542 455.15 640.791C447.901 648.898 437.363 654 425.632 654C403.769 654 386.046 636.277 386.046 614.414C386.046 610.998 386.479 607.682 387.292 604.52C380.353 610.52 371.307 614.149 361.414 614.149C359.507 614.149 357.631 614.015 355.796 613.754C348.877 625.284 336.253 633 321.828 633C314.617 633 307.857 631.072 302.034 627.704C296.212 631.072 289.452 633 282.241 633C263.758 633 248.234 620.333 243.876 603.206C242.838 603.141 241.81 603.035 240.796 602.891C233.877 614.421 221.253 622.137 206.828 622.137C199.617 622.137 192.857 620.209 187.034 616.841C181.212 620.209 174.452 622.137 167.241 622.137C158.858 622.137 151.084 619.531 144.684 615.085C143.933 615.128 143.176 615.149 142.414 615.149C140.507 615.149 138.631 615.015 136.796 614.754C129.877 626.284 117.253 634 102.828 634C95.6172 634 88.8571 632.072 83.0345 628.704C77.2119 632.072 70.4518 634 63.2414 634C47.6902 634 34.2334 625.033 27.7597 611.987C26.0114 612.223 24.2268 612.345 22.4138 612.345C17.1167 612.345 12.0626 611.304 7.4447 609.417C1.00711 614.535 -7.061 617.691 -15.8545 617.978C-19.6384 635.896 -35.5418 649.345 -54.5862 649.345C-63.28 649.345 -71.3192 646.542 -77.8497 641.791C-85.0986 649.898 -95.6373 655 -107.368 655C-129.231 655 -146.954 637.277 -146.954 615.414C-146.954 611.998 -146.521 608.682 -145.708 605.52C-152.647 611.52 -161.693 615.149 -171.586 615.149C-173.493 615.149 -175.369 615.015 -177.204 614.754C-184.123 626.284 -196.747 634 -211.172 634C-218.383 634 -225.143 632.072 -230.966 628.704C-236.788 632.072 -243.548 634 -250.759 634C-272.621 634 -290.345 616.277 -290.345 594.414C-290.345 585.72 -287.542 577.681 -282.791 571.15C-290.898 563.901 -296 553.363 -296 541.632C-296 532.888 -293.165 524.806 -288.363 518.255C-293.374 511.623 -296.345 503.366 -296.345 494.414C-296.345 485.72 -293.542 477.681 -288.791 471.15C-296.898 463.901 -302 453.363 -302 441.632C-302 430.327 -297.261 420.129 -289.662 412.916C-304.138 407.029 -314.345 392.822 -314.345 376.231C-314.345 372.374 -313.793 368.645 -312.764 365.12C-317.322 358.671 -320 350.798 -320 342.3C-320 322.521 -305.494 306.13 -286.541 303.185C-288.98 298.046 -290.345 292.298 -290.345 286.231C-290.345 282.401 -289.801 278.698 -288.786 275.195C-307.297 271.879 -321.345 255.695 -321.345 236.231C-321.345 232.374 -320.793 228.645 -319.764 225.12C-324.322 218.671 -327 210.798 -327 202.3C-327 187.458 -318.832 174.523 -306.745 167.747C-309.056 162.72 -310.345 157.126 -310.345 151.231C-310.345 147.374 -309.793 143.645 -308.764 140.12C-313.322 133.671 -316 125.798 -316 117.3C-316 95.437 -298.277 77.7136 -276.414 77.7136C-274.507 77.7136 -272.631 77.8485 -270.796 78.1092C-263.877 66.5791 -251.253 58.863 -236.828 58.863C-229.617 58.863 -222.857 60.7908 -217.034 64.159C-211.212 60.7908 -204.452 58.863 -197.241 58.863C-188.858 58.863 -181.084 61.4688 -174.684 65.9146C-173.933 65.8721 -173.176 65.8506 -172.414 65.8506C-170.507 65.8506 -168.631 65.9855 -166.796 66.2462C-159.877 54.7161 -147.253 47 -132.828 47C-125.617 47 -118.857 48.9277 -113.034 52.2959C-107.212 48.9277 -100.452 47 -93.2414 47C-77.6902 47 -64.2334 55.9673 -57.7597 69.0131C-56.0114 68.7771 -54.2268 68.6552 -52.4138 68.6552C-47.1167 68.6552 -42.0626 69.6956 -37.4447 71.5833C-30.6868 66.2101 -22.1321 63 -12.8276 63C-3.52307 63.0001 5.03168 66.2101 11.7896 71.5833C16.4075 69.6956 21.4615 68.6552 26.7586 68.6552C38.3897 68.6552 48.8492 73.6714 56.0917 81.6583C64.5915 81.7647 72.446 84.5499 78.8497 89.2086C86.0986 81.1023 96.6373 76 108.368 76C110.484 76 112.561 76.166 114.588 76.4858C121.66 69.888 131.151 65.8506 141.586 65.8506C143.493 65.8506 145.369 65.9855 147.204 66.2462C154.123 54.7161 166.747 47 181.172 47C188.383 47 195.143 48.9277 200.966 52.2959C206.788 48.9277 213.548 47 220.759 47C239.242 47 254.766 59.6671 259.124 76.7937C260.162 76.8594 261.19 76.965 262.204 77.1092C269.123 65.5791 281.747 57.863 296.172 57.863C303.383 57.863 310.143 59.7908 315.966 63.159C321.788 59.7908 328.548 57.863 335.759 57.863C344.142 57.863 351.916 60.4688 358.316 64.9146C359.067 64.8721 359.824 64.8506 360.586 64.8506C362.493 64.8506 364.369 64.9855 366.204 65.2462C373.123 53.7161 385.747 46 400.172 46C407.383 46 414.143 47.9277 419.966 51.2959C425.788 47.9277 432.548 46 439.759 46C455.31 46 468.767 54.9673 475.24 68.0131C476.989 67.7771 478.773 67.6552 480.586 67.6552C485.883 67.6552 490.937 68.6956 495.555 70.5833C502.313 65.2101 510.868 62 520.172 62C529.477 62.0001 538.032 65.2101 544.79 70.5833C549.407 68.6956 554.462 67.6552 559.759 67.6552C571.39 67.6552 581.849 72.6714 589.092 80.6583C597.592 80.7647 605.446 83.5499 611.85 88.2086C619.099 80.1023 629.637 75 641.368 75C643.484 75 645.561 75.166 647.588 75.4858C654.66 68.888 664.151 64.8506 674.586 64.8506C676.493 64.8506 678.369 64.9855 680.204 65.2462C687.123 53.7161 699.747 46 714.172 46C721.383 46 728.143 47.9277 733.966 51.2959C739.788 47.9277 746.548 46 753.759 46C771.826 46 787.066 58.1033 791.813 74.644C798.433 69.6647 806.665 66.7136 815.586 66.7136C817.493 66.7136 819.369 66.8485 821.204 67.1092C828.123 55.5791 840.747 47.863 855.172 47.863C862.383 47.863 869.143 49.7908 874.966 53.159C880.788 49.7908 887.548 47.863 894.759 47.863C903.142 47.863 910.916 50.4688 917.316 54.9146C918.067 54.8721 918.824 54.8506 919.586 54.8506C921.493 54.8506 923.369 54.9855 925.204 55.2462C932.123 43.7161 944.747 36 959.172 36C966.383 36 973.143 37.9277 978.966 41.2959C984.788 37.9277 991.548 36 998.759 36C1014.31 36 1027.77 44.9673 1034.24 58.0131C1035.99 57.7771 1037.77 57.6552 1039.59 57.6552C1044.88 57.6552 1049.94 58.6956 1054.56 60.5833C1061.31 55.2101 1069.87 52 1079.17 52C1088.48 52.0001 1097.03 55.2101 1103.79 60.5833C1108.41 58.6956 1113.46 57.6552 1118.76 57.6552C1130.39 57.6552 1140.85 62.6714 1148.09 70.6583C1156.59 70.7647 1164.45 73.5499 1170.85 78.2086C1178.1 70.1023 1188.64 65 1200.37 65C1202.48 65 1204.56 65.166 1206.59 65.4858C1213.66 58.888 1223.15 54.8506 1233.59 54.8506C1235.49 54.8506 1237.37 54.9855 1239.2 55.2462C1246.12 43.7161 1258.75 36 1273.17 36C1280.38 36 1287.14 37.9277 1292.97 41.2959C1298.79 37.9277 1305.55 36 1312.76 36C1331.24 36 1346.77 48.6671 1351.12 65.7937C1352.16 65.8594 1353.19 65.9651 1354.2 66.1092C1361.12 54.5791 1373.75 46.863 1388.17 46.863C1395.38 46.863 1402.14 48.7908 1407.97 52.159C1413.79 48.7908 1420.55 46.863 1427.76 46.863C1436.14 46.863 1443.92 49.4688 1450.32 53.9146C1451.07 53.8721 1451.82 53.8506 1452.59 53.8506C1454.49 53.8506 1456.37 53.9855 1458.2 54.2462C1465.12 42.7161 1477.75 35 1492.17 35C1499.38 35 1506.14 36.9277 1511.97 40.2959C1517.79 36.9277 1524.55 35 1531.76 35C1547.31 35 1560.77 43.9673 1567.24 57.0131C1568.99 56.7771 1570.77 56.6552 1572.59 56.6552C1577.88 56.6552 1582.94 57.6956 1587.56 59.5833C1594.31 54.2101 1602.87 51 1612.17 51C1621.48 51.0001 1630.03 54.2101 1636.79 59.5833C1641.41 57.6956 1646.46 56.6552 1651.76 56.6552C1663.39 56.6552 1673.85 61.6714 1681.09 69.6583C1689.59 69.7647 1697.45 72.5499 1703.85 77.2086C1711.1 69.1023 1721.64 64 1733.37 64C1735.48 64 1737.56 64.166 1739.59 64.4858C1746.66 57.888 1756.15 53.8506 1766.59 53.8506C1768.49 53.8506 1770.37 53.9855 1772.2 54.2462C1779.12 42.7161 1791.75 35 1806.17 35C1813.38 35 1820.14 36.9277 1825.97 40.2959C1831.79 36.9277 1838.55 35 1845.76 35C1867.62 35 1885.34 52.7233 1885.34 74.5862C1885.34 83.28 1882.54 91.3192 1877.79 97.8497C1885.9 105.099 1891 115.637 1891 127.368C1891 140.684 1884.43 152.464 1874.34 159.64C1874.34 163.451 1873.8 167.135 1872.79 170.622C1891.3 173.938 1905.34 190.122 1905.34 209.586C1905.34 218.28 1902.54 226.319 1897.79 232.85C1905.9 240.099 1911 250.637 1911 262.368C1911 280.807 1898.39 296.301 1881.33 300.702C1881.1 308.967 1878.34 316.599 1873.79 322.85C1881.9 330.099 1887 340.637 1887 352.368C1887 363.673 1882.26 373.871 1874.66 381.084C1889.14 386.971 1899.34 401.178 1899.34 417.769C1899.34 421.626 1898.79 425.355 1897.76 428.88C1902.32 435.329 1905 443.202 1905 451.7C1905 465.425 1898.01 477.519 1887.41 484.621C1898.21 491.689 1905.34 503.896 1905.34 517.769C1905.34 521.626 1904.79 525.355 1903.76 528.88C1908.32 535.329 1911 543.202 1911 551.7C1911 573.563 1893.28 591.286 1871.41 591.286C1869.51 591.286 1867.63 591.151 1865.8 590.891C1858.88 602.421 1846.25 610.137 1831.83 610.137C1824.62 610.137 1817.86 608.209 1812.03 604.841C1806.21 608.209 1799.45 610.137 1792.24 610.137C1783.86 610.137 1776.08 607.531 1769.68 603.085C1768.93 603.128 1768.18 603.149 1767.41 603.149C1765.51 603.149 1763.63 603.015 1761.8 602.754C1754.88 614.284 1742.25 622 1727.83 622C1720.62 622 1713.86 620.072 1708.03 616.704C1702.21 620.072 1695.45 622 1688.24 622C1672.69 622 1659.23 613.033 1652.76 599.987C1651.01 600.223 1649.23 600.345 1647.41 600.345C1642.12 600.345 1637.06 599.304 1632.44 597.417C1626.01 602.535 1617.94 605.691 1609.15 605.978ZM785.582 389C784.664 390.079 783.689 391.109 782.662 392.084C789.356 394.806 795.137 399.307 799.418 405C800.336 403.921 801.311 402.891 802.338 401.916C795.644 399.194 789.863 394.693 785.582 389ZM797.187 494.356C796.605 494.793 796.011 495.215 795.406 495.621C796.41 496.278 797.382 496.979 798.32 497.722C797.894 496.623 797.515 495.5 797.187 494.356Z"/>
</mask>
<path fill-rule="evenodd" clip-rule="evenodd" d="M1609.15 605.978C1605.36 623.896 1589.46 637.345 1570.41 637.345C1561.72 637.345 1553.68 634.542 1547.15 629.791C1539.9 637.898 1529.36 643 1517.63 643C1495.77 643 1478.05 625.277 1478.05 603.414C1478.05 599.998 1478.48 596.682 1479.29 593.52C1472.35 599.52 1463.31 603.149 1453.41 603.149C1451.51 603.149 1449.63 603.015 1447.8 602.754C1440.88 614.284 1428.25 622 1413.83 622C1406.62 622 1399.86 620.072 1394.03 616.704C1388.21 620.072 1381.45 622 1374.24 622C1355.76 622 1340.23 609.333 1335.88 592.206C1334.84 592.141 1333.81 592.035 1332.8 591.891C1325.88 603.421 1313.25 611.137 1298.83 611.137C1291.62 611.137 1284.86 609.209 1279.03 605.841C1273.21 609.209 1266.45 611.137 1259.24 611.137C1250.86 611.137 1243.08 608.531 1236.68 604.085C1235.93 604.128 1235.18 604.149 1234.41 604.149C1232.51 604.149 1230.63 604.015 1228.8 603.754C1221.88 615.284 1209.25 623 1194.83 623C1187.62 623 1180.86 621.072 1175.03 617.704C1169.21 621.072 1162.45 623 1155.24 623C1139.69 623 1126.23 614.033 1119.76 600.987C1118.01 601.223 1116.23 601.345 1114.41 601.345C1109.12 601.345 1104.06 600.304 1099.44 598.417C1093.01 603.535 1084.94 606.691 1076.15 606.978C1072.36 624.896 1056.46 638.345 1037.41 638.345C1028.72 638.345 1020.68 635.542 1014.15 630.791C1006.9 638.898 996.363 644 984.632 644C962.769 644 945.046 626.277 945.046 604.414C945.046 600.998 945.479 597.682 946.292 594.52C939.353 600.52 930.307 604.149 920.414 604.149C918.507 604.149 916.631 604.015 914.796 603.754C907.877 615.284 895.253 623 880.828 623C873.617 623 866.857 621.072 861.034 617.704C855.212 621.072 848.452 623 841.241 623C823.174 623 807.934 610.897 803.187 594.356C796.567 599.335 788.335 602.286 779.414 602.286C777.507 602.286 775.631 602.151 773.796 601.891C766.876 613.421 754.253 621.137 739.828 621.137C732.617 621.137 725.857 619.209 720.034 615.841C714.212 619.209 707.452 621.137 700.241 621.137C691.858 621.137 684.084 618.531 677.684 614.085C676.933 614.128 676.176 614.149 675.414 614.149C673.507 614.149 671.631 614.015 669.796 613.754C662.877 625.284 650.253 633 635.828 633C628.617 633 621.857 631.072 616.034 627.704C610.212 631.072 603.452 633 596.241 633C580.69 633 567.233 624.033 560.76 610.987C559.011 611.223 557.227 611.345 555.414 611.345C550.117 611.345 545.063 610.304 540.445 608.417C534.007 613.535 525.939 616.691 517.146 616.978C513.362 634.896 497.458 648.345 478.414 648.345C469.72 648.345 461.681 645.542 455.15 640.791C447.901 648.898 437.363 654 425.632 654C403.769 654 386.046 636.277 386.046 614.414C386.046 610.998 386.479 607.682 387.292 604.52C380.353 610.52 371.307 614.149 361.414 614.149C359.507 614.149 357.631 614.015 355.796 613.754C348.877 625.284 336.253 633 321.828 633C314.617 633 307.857 631.072 302.034 627.704C296.212 631.072 289.452 633 282.241 633C263.758 633 248.234 620.333 243.876 603.206C242.838 603.141 241.81 603.035 240.796 602.891C233.877 614.421 221.253 622.137 206.828 622.137C199.617 622.137 192.857 620.209 187.034 616.841C181.212 620.209 174.452 622.137 167.241 622.137C158.858 622.137 151.084 619.531 144.684 615.085C143.933 615.128 143.176 615.149 142.414 615.149C140.507 615.149 138.631 615.015 136.796 614.754C129.877 626.284 117.253 634 102.828 634C95.6172 634 88.8571 632.072 83.0345 628.704C77.2119 632.072 70.4518 634 63.2414 634C47.6902 634 34.2334 625.033 27.7597 611.987C26.0114 612.223 24.2268 612.345 22.4138 612.345C17.1167 612.345 12.0626 611.304 7.4447 609.417C1.00711 614.535 -7.061 617.691 -15.8545 617.978C-19.6384 635.896 -35.5418 649.345 -54.5862 649.345C-63.28 649.345 -71.3192 646.542 -77.8497 641.791C-85.0986 649.898 -95.6373 655 -107.368 655C-129.231 655 -146.954 637.277 -146.954 615.414C-146.954 611.998 -146.521 608.682 -145.708 605.52C-152.647 611.52 -161.693 615.149 -171.586 615.149C-173.493 615.149 -175.369 615.015 -177.204 614.754C-184.123 626.284 -196.747 634 -211.172 634C-218.383 634 -225.143 632.072 -230.966 628.704C-236.788 632.072 -243.548 634 -250.759 634C-272.621 634 -290.345 616.277 -290.345 594.414C-290.345 585.72 -287.542 577.681 -282.791 571.15C-290.898 563.901 -296 553.363 -296 541.632C-296 532.888 -293.165 524.806 -288.363 518.255C-293.374 511.623 -296.345 503.366 -296.345 494.414C-296.345 485.72 -293.542 477.681 -288.791 471.15C-296.898 463.901 -302 453.363 -302 441.632C-302 430.327 -297.261 420.129 -289.662 412.916C-304.138 407.029 -314.345 392.822 -314.345 376.231C-314.345 372.374 -313.793 368.645 -312.764 365.12C-317.322 358.671 -320 350.798 -320 342.3C-320 322.521 -305.494 306.13 -286.541 303.185C-288.98 298.046 -290.345 292.298 -290.345 286.231C-290.345 282.401 -289.801 278.698 -288.786 275.195C-307.297 271.879 -321.345 255.695 -321.345 236.231C-321.345 232.374 -320.793 228.645 -319.764 225.12C-324.322 218.671 -327 210.798 -327 202.3C-327 187.458 -318.832 174.523 -306.745 167.747C-309.056 162.72 -310.345 157.126 -310.345 151.231C-310.345 147.374 -309.793 143.645 -308.764 140.12C-313.322 133.671 -316 125.798 -316 117.3C-316 95.437 -298.277 77.7136 -276.414 77.7136C-274.507 77.7136 -272.631 77.8485 -270.796 78.1092C-263.877 66.5791 -251.253 58.863 -236.828 58.863C-229.617 58.863 -222.857 60.7908 -217.034 64.159C-211.212 60.7908 -204.452 58.863 -197.241 58.863C-188.858 58.863 -181.084 61.4688 -174.684 65.9146C-173.933 65.8721 -173.176 65.8506 -172.414 65.8506C-170.507 65.8506 -168.631 65.9855 -166.796 66.2462C-159.877 54.7161 -147.253 47 -132.828 47C-125.617 47 -118.857 48.9277 -113.034 52.2959C-107.212 48.9277 -100.452 47 -93.2414 47C-77.6902 47 -64.2334 55.9673 -57.7597 69.0131C-56.0114 68.7771 -54.2268 68.6552 -52.4138 68.6552C-47.1167 68.6552 -42.0626 69.6956 -37.4447 71.5833C-30.6868 66.2101 -22.1321 63 -12.8276 63C-3.52307 63.0001 5.03168 66.2101 11.7896 71.5833C16.4075 69.6956 21.4615 68.6552 26.7586 68.6552C38.3897 68.6552 48.8492 73.6714 56.0917 81.6583C64.5915 81.7647 72.446 84.5499 78.8497 89.2086C86.0986 81.1023 96.6373 76 108.368 76C110.484 76 112.561 76.166 114.588 76.4858C121.66 69.888 131.151 65.8506 141.586 65.8506C143.493 65.8506 145.369 65.9855 147.204 66.2462C154.123 54.7161 166.747 47 181.172 47C188.383 47 195.143 48.9277 200.966 52.2959C206.788 48.9277 213.548 47 220.759 47C239.242 47 254.766 59.6671 259.124 76.7937C260.162 76.8594 261.19 76.965 262.204 77.1092C269.123 65.5791 281.747 57.863 296.172 57.863C303.383 57.863 310.143 59.7908 315.966 63.159C321.788 59.7908 328.548 57.863 335.759 57.863C344.142 57.863 351.916 60.4688 358.316 64.9146C359.067 64.8721 359.824 64.8506 360.586 64.8506C362.493 64.8506 364.369 64.9855 366.204 65.2462C373.123 53.7161 385.747 46 400.172 46C407.383 46 414.143 47.9277 419.966 51.2959C425.788 47.9277 432.548 46 439.759 46C455.31 46 468.767 54.9673 475.24 68.0131C476.989 67.7771 478.773 67.6552 480.586 67.6552C485.883 67.6552 490.937 68.6956 495.555 70.5833C502.313 65.2101 510.868 62 520.172 62C529.477 62.0001 538.032 65.2101 544.79 70.5833C549.407 68.6956 554.462 67.6552 559.759 67.6552C571.39 67.6552 581.849 72.6714 589.092 80.6583C597.592 80.7647 605.446 83.5499 611.85 88.2086C619.099 80.1023 629.637 75 641.368 75C643.484 75 645.561 75.166 647.588 75.4858C654.66 68.888 664.151 64.8506 674.586 64.8506C676.493 64.8506 678.369 64.9855 680.204 65.2462C687.123 53.7161 699.747 46 714.172 46C721.383 46 728.143 47.9277 733.966 51.2959C739.788 47.9277 746.548 46 753.759 46C771.826 46 787.066 58.1033 791.813 74.644C798.433 69.6647 806.665 66.7136 815.586 66.7136C817.493 66.7136 819.369 66.8485 821.204 67.1092C828.123 55.5791 840.747 47.863 855.172 47.863C862.383 47.863 869.143 49.7908 874.966 53.159C880.788 49.7908 887.548 47.863 894.759 47.863C903.142 47.863 910.916 50.4688 917.316 54.9146C918.067 54.8721 918.824 54.8506 919.586 54.8506C921.493 54.8506 923.369 54.9855 925.204 55.2462C932.123 43.7161 944.747 36 959.172 36C966.383 36 973.143 37.9277 978.966 41.2959C984.788 37.9277 991.548 36 998.759 36C1014.31 36 1027.77 44.9673 1034.24 58.0131C1035.99 57.7771 1037.77 57.6552 1039.59 57.6552C1044.88 57.6552 1049.94 58.6956 1054.56 60.5833C1061.31 55.2101 1069.87 52 1079.17 52C1088.48 52.0001 1097.03 55.2101 1103.79 60.5833C1108.41 58.6956 1113.46 57.6552 1118.76 57.6552C1130.39 57.6552 1140.85 62.6714 1148.09 70.6583C1156.59 70.7647 1164.45 73.5499 1170.85 78.2086C1178.1 70.1023 1188.64 65 1200.37 65C1202.48 65 1204.56 65.166 1206.59 65.4858C1213.66 58.888 1223.15 54.8506 1233.59 54.8506C1235.49 54.8506 1237.37 54.9855 1239.2 55.2462C1246.12 43.7161 1258.75 36 1273.17 36C1280.38 36 1287.14 37.9277 1292.97 41.2959C1298.79 37.9277 1305.55 36 1312.76 36C1331.24 36 1346.77 48.6671 1351.12 65.7937C1352.16 65.8594 1353.19 65.9651 1354.2 66.1092C1361.12 54.5791 1373.75 46.863 1388.17 46.863C1395.38 46.863 1402.14 48.7908 1407.97 52.159C1413.79 48.7908 1420.55 46.863 1427.76 46.863C1436.14 46.863 1443.92 49.4688 1450.32 53.9146C1451.07 53.8721 1451.82 53.8506 1452.59 53.8506C1454.49 53.8506 1456.37 53.9855 1458.2 54.2462C1465.12 42.7161 1477.75 35 1492.17 35C1499.38 35 1506.14 36.9277 1511.97 40.2959C1517.79 36.9277 1524.55 35 1531.76 35C1547.31 35 1560.77 43.9673 1567.24 57.0131C1568.99 56.7771 1570.77 56.6552 1572.59 56.6552C1577.88 56.6552 1582.94 57.6956 1587.56 59.5833C1594.31 54.2101 1602.87 51 1612.17 51C1621.48 51.0001 1630.03 54.2101 1636.79 59.5833C1641.41 57.6956 1646.46 56.6552 1651.76 56.6552C1663.39 56.6552 1673.85 61.6714 1681.09 69.6583C1689.59 69.7647 1697.45 72.5499 1703.85 77.2086C1711.1 69.1023 1721.64 64 1733.37 64C1735.48 64 1737.56 64.166 1739.59 64.4858C1746.66 57.888 1756.15 53.8506 1766.59 53.8506C1768.49 53.8506 1770.37 53.9855 1772.2 54.2462C1779.12 42.7161 1791.75 35 1806.17 35C1813.38 35 1820.14 36.9277 1825.97 40.2959C1831.79 36.9277 1838.55 35 1845.76 35C1867.62 35 1885.34 52.7233 1885.34 74.5862C1885.34 83.28 1882.54 91.3192 1877.79 97.8497C1885.9 105.099 1891 115.637 1891 127.368C1891 140.684 1884.43 152.464 1874.34 159.64C1874.34 163.451 1873.8 167.135 1872.79 170.622C1891.3 173.938 1905.34 190.122 1905.34 209.586C1905.34 218.28 1902.54 226.319 1897.79 232.85C1905.9 240.099 1911 250.637 1911 262.368C1911 280.807 1898.39 296.301 1881.33 300.702C1881.1 308.967 1878.34 316.599 1873.79 322.85C1881.9 330.099 1887 340.637 1887 352.368C1887 363.673 1882.26 373.871 1874.66 381.084C1889.14 386.971 1899.34 401.178 1899.34 417.769C1899.34 421.626 1898.79 425.355 1897.76 428.88C1902.32 435.329 1905 443.202 1905 451.7C1905 465.425 1898.01 477.519 1887.41 484.621C1898.21 491.689 1905.34 503.896 1905.34 517.769C1905.34 521.626 1904.79 525.355 1903.76 528.88C1908.32 535.329 1911 543.202 1911 551.7C1911 573.563 1893.28 591.286 1871.41 591.286C1869.51 591.286 1867.63 591.151 1865.8 590.891C1858.88 602.421 1846.25 610.137 1831.83 610.137C1824.62 610.137 1817.86 608.209 1812.03 604.841C1806.21 608.209 1799.45 610.137 1792.24 610.137C1783.86 610.137 1776.08 607.531 1769.68 603.085C1768.93 603.128 1768.18 603.149 1767.41 603.149C1765.51 603.149 1763.63 603.015 1761.8 602.754C1754.88 614.284 1742.25 622 1727.83 622C1720.62 622 1713.86 620.072 1708.03 616.704C1702.21 620.072 1695.45 622 1688.24 622C1672.69 622 1659.23 613.033 1652.76 599.987C1651.01 600.223 1649.23 600.345 1647.41 600.345C1642.12 600.345 1637.06 599.304 1632.44 597.417C1626.01 602.535 1617.94 605.691 1609.15 605.978ZM785.582 389C784.664 390.079 783.689 391.109 782.662 392.084C789.356 394.806 795.137 399.307 799.418 405C800.336 403.921 801.311 402.891 802.338 401.916C795.644 399.194 789.863 394.693 785.582 389ZM797.187 494.356C796.605 494.793 796.011 495.215 795.406 495.621C796.41 496.278 797.382 496.979 798.32 497.722C797.894 496.623 797.515 495.5 797.187 494.356Z" fill="#EFEFEF"/>
<path d="M1609.15 605.978L1609.01 601.981L1605.88 602.083L1605.23 605.152L1609.15 605.978ZM1547.15 629.791L1549.5 626.557L1546.58 624.429L1544.17 627.125L1547.15 629.791ZM1479.29 593.52L1483.17 594.517L1486.35 582.127L1476.68 590.494L1479.29 593.52ZM1447.8 602.754L1448.36 598.794L1445.73 598.42L1444.37 600.696L1447.8 602.754ZM1394.03 616.704L1396.04 613.242L1394.03 612.083L1392.03 613.242L1394.03 616.704ZM1335.88 592.206L1339.75 591.22L1339.03 588.398L1336.13 588.214L1335.88 592.206ZM1332.8 591.891L1333.36 587.931L1330.73 587.557L1329.37 589.833L1332.8 591.891ZM1279.03 605.841L1281.04 602.379L1279.03 601.22L1277.03 602.379L1279.03 605.841ZM1236.68 604.085L1238.97 600.8L1237.83 600.014L1236.46 600.092L1236.68 604.085ZM1228.8 603.754L1229.36 599.794L1226.73 599.42L1225.37 601.696L1228.8 603.754ZM1175.03 617.704L1177.04 614.242L1175.03 613.083L1173.03 614.242L1175.03 617.704ZM1119.76 600.987L1123.34 599.209L1122.07 596.639L1119.22 597.023L1119.76 600.987ZM1099.44 598.417L1100.96 594.714L1098.79 593.828L1096.96 595.286L1099.44 598.417ZM1076.15 606.978L1076.01 602.981L1072.88 603.083L1072.23 606.152L1076.15 606.978ZM1014.15 630.791L1016.5 627.557L1013.58 625.429L1011.17 628.125L1014.15 630.791ZM946.292 594.52L950.166 595.517L953.354 583.127L943.676 591.494L946.292 594.52ZM914.796 603.754L915.358 599.794L912.731 599.42L911.366 601.696L914.796 603.754ZM861.034 617.704L863.037 614.242L861.034 613.083L859.031 614.242L861.034 617.704ZM803.187 594.356L807.032 593.252L805.428 587.665L800.782 591.159L803.187 594.356ZM773.796 601.891L774.358 597.931L771.731 597.557L770.366 599.833L773.796 601.891ZM720.034 615.841L722.037 612.379L720.034 611.22L718.031 612.379L720.034 615.841ZM677.684 614.085L679.966 610.8L678.834 610.014L677.458 610.092L677.684 614.085ZM669.796 613.754L670.358 609.794L667.731 609.42L666.366 611.696L669.796 613.754ZM616.034 627.704L618.037 624.242L616.034 623.083L614.032 624.242L616.034 627.704ZM560.76 610.987L564.343 609.209L563.068 606.639L560.225 607.023L560.76 610.987ZM540.445 608.417L541.958 604.714L539.789 603.828L537.955 605.286L540.445 608.417ZM517.146 616.978L517.015 612.981L513.88 613.083L513.232 616.152L517.146 616.978ZM455.15 640.791L457.503 637.557L454.579 635.429L452.169 638.125L455.15 640.791ZM387.292 604.52L391.166 605.517L394.354 593.126L384.676 601.494L387.292 604.52ZM355.796 613.754L356.358 609.794L353.731 609.42L352.366 611.696L355.796 613.754ZM302.034 627.704L304.037 624.242L302.034 623.083L300.032 624.242L302.034 627.704ZM243.876 603.206L247.752 602.22L247.034 599.398L244.128 599.214L243.876 603.206ZM240.796 602.891L241.358 598.931L238.731 598.557L237.366 600.833L240.796 602.891ZM187.034 616.841L189.037 613.379L187.034 612.22L185.032 613.379L187.034 616.841ZM144.684 615.085L146.966 611.8L145.834 611.014L144.458 611.092L144.684 615.085ZM136.796 614.754L137.358 610.794L134.731 610.42L133.366 612.696L136.796 614.754ZM83.0345 628.704L85.0374 625.242L83.0345 624.083L81.0316 625.242L83.0345 628.704ZM27.7597 611.987L31.3428 610.209L30.0676 607.639L27.2246 608.023L27.7597 611.987ZM7.4447 609.417L8.9582 605.714L6.78934 604.828L4.95532 606.286L7.4447 609.417ZM-15.8545 617.978L-15.9853 613.981L-19.1201 614.083L-19.7682 617.152L-15.8545 617.978ZM-77.8497 641.791L-75.4965 638.557L-78.4209 636.429L-80.8314 639.125L-77.8497 641.791ZM-145.708 605.52L-141.834 606.517L-138.646 594.127L-148.324 602.494L-145.708 605.52ZM-177.204 614.754L-176.642 610.794L-179.269 610.42L-180.634 612.696L-177.204 614.754ZM-230.966 628.704L-228.963 625.242L-230.966 624.083L-232.968 625.242L-230.966 628.704ZM-290.345 594.414L-286.345 594.414V594.414H-290.345ZM-282.791 571.15L-279.557 573.503L-277.429 570.579L-280.125 568.169L-282.791 571.15ZM-288.363 518.255L-285.137 520.619L-283.377 518.218L-285.172 515.843L-288.363 518.255ZM-288.791 471.15L-285.557 473.503L-283.429 470.579L-286.125 468.169L-288.791 471.15ZM-289.662 412.916L-286.908 415.817L-282.409 411.547L-288.155 409.211L-289.662 412.916ZM-312.764 365.12L-308.925 366.241L-308.384 364.388L-309.498 362.812L-312.764 365.12ZM-286.541 303.185L-285.927 307.137L-280.628 306.314L-282.927 301.47L-286.541 303.185ZM-288.786 275.195L-284.944 276.308L-283.708 272.041L-288.081 271.258L-288.786 275.195ZM-319.764 225.12L-315.925 226.241L-315.384 224.388L-316.498 222.812L-319.764 225.12ZM-306.745 167.747L-304.789 171.236L-301.569 169.43L-303.111 166.076L-306.745 167.747ZM-308.764 140.12L-304.925 141.241L-304.384 139.388L-305.498 137.812L-308.764 140.12ZM-270.796 78.1092L-271.358 82.0695L-268.731 82.4427L-267.366 80.1674L-270.796 78.1092ZM-217.034 64.159L-219.037 67.6214L-217.034 68.78L-215.032 67.6214L-217.034 64.159ZM-174.684 65.9146L-176.966 69.1997L-175.834 69.986L-174.458 69.9082L-174.684 65.9146ZM-166.796 66.2462L-167.358 70.2064L-164.731 70.5797L-163.366 68.3044L-166.796 66.2462ZM-113.034 52.2959L-115.037 55.7584L-113.034 56.917L-111.032 55.7584L-113.034 52.2959ZM-57.7597 69.0131L-61.3428 70.7911L-60.0676 73.3609L-57.2246 72.9772L-57.7597 69.0131ZM-37.4447 71.5833L-38.9582 75.2859L-36.7894 76.1724L-34.9553 74.7142L-37.4447 71.5833ZM-12.8276 63L-12.8276 59H-12.8276V63ZM11.7896 71.5833L9.3002 74.7142L11.1342 76.1724L13.3031 75.2859L11.7896 71.5833ZM56.0917 81.6583L53.1286 84.3453L54.2992 85.6362L56.0417 85.658L56.0917 81.6583ZM78.8497 89.2086L76.4965 92.4432L79.4209 94.5706L81.8314 91.8749L78.8497 89.2086ZM114.588 76.4858L113.964 80.4369L115.89 80.7409L117.316 79.4106L114.588 76.4858ZM147.204 66.2462L146.642 70.2064L149.269 70.5797L150.634 68.3044L147.204 66.2462ZM200.966 52.2959L198.963 55.7583L200.966 56.917L202.968 55.7584L200.966 52.2959ZM259.124 76.7937L255.248 77.7801L255.966 80.6018L258.872 80.7857L259.124 76.7937ZM262.204 77.1092L261.642 81.0695L264.269 81.4427L265.634 79.1674L262.204 77.1092ZM315.966 63.159L313.963 66.6214L315.966 67.78L317.968 66.6214L315.966 63.159ZM358.316 64.9146L356.034 68.1997L357.166 68.986L358.542 68.9082L358.316 64.9146ZM366.204 65.2462L365.642 69.2064L368.269 69.5797L369.634 67.3044L366.204 65.2462ZM419.966 51.2959L417.963 54.7583L419.966 55.917L421.968 54.7583L419.966 51.2959ZM475.24 68.0131L471.657 69.7911L472.932 72.3609L475.775 71.9772L475.24 68.0131ZM495.555 70.5833L494.042 74.2859L496.211 75.1724L498.045 73.7142L495.555 70.5833ZM520.172 62L520.172 58H520.172V62ZM544.79 70.5833L542.3 73.7142L544.134 75.1724L546.303 74.2859L544.79 70.5833ZM589.092 80.6583L586.129 83.3453L587.299 84.6362L589.042 84.658L589.092 80.6583ZM611.85 88.2086L609.497 91.4432L612.421 93.5706L614.831 90.8749L611.85 88.2086ZM647.588 75.4858L646.964 79.4369L648.89 79.7409L650.316 78.4106L647.588 75.4858ZM680.204 65.2462L679.642 69.2064L682.269 69.5797L683.634 67.3044L680.204 65.2462ZM733.966 51.2959L731.963 54.7584L733.966 55.917L735.969 54.7583L733.966 51.2959ZM791.813 74.644L787.968 75.7475L789.572 81.335L794.218 77.8406L791.813 74.644ZM821.204 67.1092L820.642 71.0695L823.269 71.4427L824.634 69.1674L821.204 67.1092ZM874.966 53.159L872.963 56.6214L874.966 57.78L876.969 56.6214L874.966 53.159ZM917.316 54.9146L915.034 58.1997L916.166 58.986L917.542 58.9082L917.316 54.9146ZM925.204 55.2462L924.642 59.2064L927.269 59.5797L928.634 57.3044L925.204 55.2462ZM978.966 41.2959L976.963 44.7584L978.966 45.917L980.969 44.7583L978.966 41.2959ZM1034.24 58.0131L1030.66 59.7911L1031.93 62.3609L1034.78 61.9772L1034.24 58.0131ZM1039.59 57.6552L1039.59 53.6552H1039.59V57.6552ZM1054.56 60.5833L1053.04 64.2859L1055.21 65.1724L1057.04 63.7142L1054.56 60.5833ZM1079.17 52L1079.17 48H1079.17V52ZM1103.79 60.5833L1101.3 63.7142L1103.13 65.1724L1105.3 64.2859L1103.79 60.5833ZM1148.09 70.6583L1145.13 73.3453L1146.3 74.6362L1148.04 74.658L1148.09 70.6583ZM1170.85 78.2086L1168.5 81.4432L1171.42 83.5706L1173.83 80.8749L1170.85 78.2086ZM1206.59 65.4858L1205.96 69.4369L1207.89 69.7409L1209.32 68.4106L1206.59 65.4858ZM1239.2 55.2462L1238.64 59.2064L1241.27 59.5797L1242.63 57.3044L1239.2 55.2462ZM1292.97 41.2959L1290.96 44.7584L1292.97 45.917L1294.97 44.7583L1292.97 41.2959ZM1351.12 65.7937L1347.25 66.7801L1347.97 69.6018L1350.87 69.7857L1351.12 65.7937ZM1354.2 66.1092L1353.64 70.0695L1356.27 70.4427L1357.63 68.1674L1354.2 66.1092ZM1407.97 52.159L1405.96 55.6214L1407.97 56.78L1409.97 55.6214L1407.97 52.159ZM1450.32 53.9146L1448.03 57.1997L1449.17 57.986L1450.54 57.9082L1450.32 53.9146ZM1458.2 54.2462L1457.64 58.2064L1460.27 58.5797L1461.63 56.3044L1458.2 54.2462ZM1511.97 40.2959L1509.96 43.7584L1511.97 44.917L1513.97 43.7583L1511.97 40.2959ZM1567.24 57.0131L1563.66 58.7911L1564.93 61.3609L1567.78 60.9772L1567.24 57.0131ZM1572.59 56.6552L1572.59 52.6552H1572.59V56.6552ZM1587.56 59.5833L1586.04 63.2859L1588.21 64.1724L1590.04 62.7142L1587.56 59.5833ZM1612.17 51L1612.17 47H1612.17V51ZM1636.79 59.5833L1634.3 62.7142L1636.13 64.1724L1638.3 63.2859L1636.79 59.5833ZM1681.09 69.6583L1678.13 72.3453L1679.3 73.6362L1681.04 73.658L1681.09 69.6583ZM1703.85 77.2086L1701.5 80.4432L1704.42 82.5706L1706.83 79.8749L1703.85 77.2086ZM1739.59 64.4858L1738.96 68.4369L1740.89 68.7409L1742.32 67.4106L1739.59 64.4858ZM1772.2 54.2462L1771.64 58.2064L1774.27 58.5797L1775.63 56.3044L1772.2 54.2462ZM1825.97 40.2959L1823.96 43.7583L1825.97 44.917L1827.97 43.7583L1825.97 40.2959ZM1877.79 97.8497L1874.56 95.4966L1872.43 98.4209L1875.13 100.831L1877.79 97.8497ZM1874.34 159.64L1872.03 156.381L1870.35 157.575L1870.34 159.635L1874.34 159.64ZM1872.79 170.622L1868.94 169.509L1867.71 173.776L1872.08 174.559L1872.79 170.622ZM1897.79 232.85L1894.56 230.497L1892.43 233.421L1895.13 235.831L1897.79 232.85ZM1881.33 300.702L1880.33 296.829L1877.41 297.581L1877.33 300.591L1881.33 300.702ZM1873.79 322.85L1870.56 320.497L1868.43 323.421L1871.13 325.831L1873.79 322.85ZM1874.66 381.084L1871.91 378.183L1867.41 382.453L1873.15 384.789L1874.66 381.084ZM1897.76 428.88L1893.92 427.759L1893.38 429.612L1894.5 431.188L1897.76 428.88ZM1887.41 484.621L1885.18 481.296L1880.16 484.658L1885.22 487.968L1887.41 484.621ZM1903.76 528.88L1899.92 527.759L1899.38 529.612L1900.5 531.188L1903.76 528.88ZM1865.8 590.891L1866.36 586.931L1863.73 586.557L1862.37 588.833L1865.8 590.891ZM1812.03 604.841L1814.04 601.379L1812.03 600.22L1810.03 601.379L1812.03 604.841ZM1769.68 603.085L1771.97 599.8L1770.83 599.014L1769.46 599.092L1769.68 603.085ZM1761.8 602.754L1762.36 598.794L1759.73 598.42L1758.37 600.696L1761.8 602.754ZM1708.03 616.704L1710.04 613.242L1708.03 612.083L1706.03 613.242L1708.03 616.704ZM1652.76 599.987L1656.34 598.209L1655.07 595.639L1652.22 596.023L1652.76 599.987ZM1632.44 597.417L1633.96 593.714L1631.79 592.828L1629.96 594.286L1632.44 597.417ZM782.662 392.084L779.908 389.183L775.409 393.453L781.155 395.789L782.662 392.084ZM785.582 389L788.779 386.596L785.774 382.6L782.535 386.408L785.582 389ZM799.418 405L796.221 407.404L799.226 411.401L802.465 407.592L799.418 405ZM802.338 401.916L805.092 404.817L809.591 400.547L803.845 398.211L802.338 401.916ZM795.406 495.621L793.181 492.297L788.158 495.658L793.216 498.968L795.406 495.621ZM797.187 494.356L801.032 493.252L799.428 487.665L794.782 491.159L797.187 494.356ZM798.32 497.722L795.836 500.857L807.368 509.992L802.049 496.276L798.32 497.722ZM1570.41 641.345C1591.39 641.345 1608.89 626.535 1613.06 606.805L1605.23 605.152C1601.83 621.258 1587.53 633.345 1570.41 633.345V641.345ZM1544.8 633.026C1551.99 638.258 1560.85 641.345 1570.41 641.345V633.345C1562.59 633.345 1555.37 630.827 1549.5 626.557L1544.8 633.026ZM1517.63 647C1530.55 647 1542.16 641.377 1550.13 632.458L1544.17 627.125C1537.65 634.419 1528.18 639 1517.63 639V647ZM1474.05 603.414C1474.05 627.486 1493.56 647 1517.63 647V639C1497.98 639 1482.05 623.068 1482.05 603.414H1474.05ZM1475.42 592.524C1474.52 596.009 1474.05 599.658 1474.05 603.414H1482.05C1482.05 600.337 1482.44 597.356 1483.17 594.517L1475.42 592.524ZM1453.41 607.149C1464.3 607.149 1474.27 603.15 1481.91 596.546L1476.68 590.494C1470.44 595.89 1462.31 599.149 1453.41 599.149V607.149ZM1447.23 606.714C1449.25 607.001 1451.32 607.149 1453.41 607.149V599.149C1451.7 599.149 1450.01 599.028 1448.36 598.794L1447.23 606.714ZM1413.83 626C1429.72 626 1443.61 617.497 1451.23 604.812L1444.37 600.696C1438.14 611.071 1426.79 618 1413.83 618V626ZM1392.03 620.166C1398.45 623.877 1405.9 626 1413.83 626V618C1407.34 618 1401.27 616.267 1396.04 613.242L1392.03 620.166ZM1374.24 626C1382.17 626 1389.62 623.877 1396.04 620.166L1392.03 613.242C1386.8 616.267 1380.73 618 1374.24 618V626ZM1332 593.193C1336.8 612.049 1353.89 626 1374.24 626V618C1357.63 618 1343.67 606.617 1339.75 591.22L1332 593.193ZM1332.23 595.851C1333.35 596.01 1334.48 596.126 1335.62 596.198L1336.13 588.214C1335.19 588.155 1334.27 588.06 1333.36 587.931L1332.23 595.851ZM1298.83 615.137C1314.72 615.137 1328.61 606.634 1336.23 593.949L1329.37 589.833C1323.14 600.208 1311.79 607.137 1298.83 607.137V615.137ZM1277.03 609.303C1283.45 613.014 1290.9 615.137 1298.83 615.137V607.137C1292.34 607.137 1286.27 605.404 1281.04 602.379L1277.03 609.303ZM1259.24 615.137C1267.17 615.137 1274.62 613.014 1281.04 609.303L1277.03 602.379C1271.8 605.404 1265.73 607.137 1259.24 607.137V615.137ZM1234.4 607.371C1241.45 612.267 1250.02 615.137 1259.24 615.137V607.137C1251.7 607.137 1244.72 604.796 1238.97 600.8L1234.4 607.371ZM1234.41 608.149C1235.25 608.149 1236.08 608.126 1236.91 608.079L1236.46 600.092C1235.78 600.13 1235.1 600.149 1234.41 600.149V608.149ZM1228.23 607.714C1230.25 608.001 1232.32 608.149 1234.41 608.149V600.149C1232.7 600.149 1231.01 600.028 1229.36 599.794L1228.23 607.714ZM1194.83 627C1210.72 627 1224.61 618.497 1232.23 605.812L1225.37 601.696C1219.14 612.071 1207.79 619 1194.83 619V627ZM1173.03 621.166C1179.45 624.877 1186.9 627 1194.83 627V619C1188.34 619 1182.27 617.267 1177.04 614.242L1173.03 621.166ZM1155.24 627C1163.17 627 1170.62 624.877 1177.04 621.166L1173.03 614.242C1167.8 617.267 1161.73 619 1155.24 619V627ZM1116.18 602.765C1123.3 617.119 1138.11 627 1155.24 627V619C1141.27 619 1129.17 610.946 1123.34 599.209L1116.18 602.765ZM1114.41 605.345C1116.41 605.345 1118.37 605.211 1120.29 604.951L1119.22 597.023C1117.65 597.235 1116.05 597.345 1114.41 597.345V605.345ZM1097.93 602.119C1103.02 604.2 1108.59 605.345 1114.41 605.345V597.345C1109.64 597.345 1105.1 596.409 1100.96 594.714L1097.93 602.119ZM1076.28 610.976C1085.96 610.66 1094.85 607.182 1101.93 601.548L1096.96 595.286C1091.17 599.888 1083.92 602.722 1076.01 602.981L1076.28 610.976ZM1037.41 642.345C1058.39 642.345 1075.89 627.535 1080.06 607.805L1072.23 606.152C1068.83 622.258 1054.53 634.345 1037.41 634.345V642.345ZM1011.8 634.026C1018.99 639.258 1027.85 642.345 1037.41 642.345V634.345C1029.59 634.345 1022.37 631.827 1016.5 627.557L1011.8 634.026ZM984.632 648C997.548 648 1009.16 642.377 1017.13 633.458L1011.17 628.125C1004.65 635.419 995.177 640 984.632 640V648ZM941.046 604.414C941.046 628.486 960.56 648 984.632 648V640C964.978 640 949.046 624.068 949.046 604.414H941.046ZM942.419 593.524C941.522 597.009 941.046 600.658 941.046 604.414H949.046C949.046 601.337 949.436 598.356 950.166 595.517L942.419 593.524ZM920.414 608.149C931.304 608.149 941.27 604.15 948.909 597.546L943.676 591.494C937.436 596.89 929.311 600.149 920.414 600.149V608.149ZM914.233 607.714C916.254 608.001 918.318 608.149 920.414 608.149V600.149C918.695 600.149 917.008 600.028 915.358 599.794L914.233 607.714ZM880.828 627C896.716 627 910.614 618.497 918.225 605.812L911.366 601.696C905.14 612.071 893.791 619 880.828 619V627ZM859.032 621.166C865.447 624.877 872.895 627 880.828 627V619C874.339 619 868.268 617.267 863.037 614.242L859.032 621.166ZM841.241 627C849.174 627 856.622 624.877 863.037 621.166L859.031 614.242C853.801 617.267 847.73 619 841.241 619V627ZM799.342 595.459C804.569 613.669 821.343 627 841.241 627V619C825.006 619 811.3 608.124 807.032 593.252L799.342 595.459ZM779.414 606.286C789.232 606.286 798.302 603.035 805.591 597.553L800.782 591.159C794.832 595.635 787.438 598.286 779.414 598.286V606.286ZM773.233 605.851C775.254 606.138 777.318 606.286 779.414 606.286V598.286C777.695 598.286 776.008 598.165 774.358 597.931L773.233 605.851ZM739.828 625.137C755.716 625.137 769.613 616.634 777.225 603.949L770.366 599.833C764.139 610.208 752.791 617.137 739.828 617.137V625.137ZM718.032 619.303C724.447 623.014 731.895 625.137 739.828 625.137V617.137C733.339 617.137 727.268 615.404 722.037 612.379L718.032 619.303ZM700.241 625.137C708.174 625.137 715.622 623.014 722.037 619.303L718.031 612.379C712.801 615.404 706.73 617.137 700.241 617.137V625.137ZM675.402 617.371C682.45 622.267 691.017 625.137 700.241 625.137V617.137C692.7 617.137 685.718 614.796 679.966 610.8L675.402 617.371ZM675.414 618.149C676.251 618.149 677.083 618.126 677.91 618.079L677.458 610.092C676.782 610.13 676.1 610.149 675.414 610.149V618.149ZM669.233 617.714C671.254 618.001 673.318 618.149 675.414 618.149V610.149C673.695 610.149 672.008 610.028 670.358 609.794L669.233 617.714ZM635.828 637C651.716 637 665.614 628.497 673.225 615.812L666.366 611.696C660.14 622.071 648.791 629 635.828 629V637ZM614.032 631.166C620.447 634.877 627.895 637 635.828 637V629C629.339 629 623.268 627.267 618.037 624.242L614.032 631.166ZM596.241 637C604.174 637 611.622 634.877 618.037 631.166L614.032 624.242C608.801 627.267 602.73 629 596.241 629V637ZM557.177 612.765C564.3 627.119 579.113 637 596.241 637V629C582.267 629 570.167 620.946 564.343 609.209L557.177 612.765ZM555.414 615.345C557.406 615.345 559.37 615.211 561.295 614.951L560.225 607.023C558.653 607.235 557.047 607.345 555.414 607.345V615.345ZM538.931 612.119C544.021 614.2 549.589 615.345 555.414 615.345V607.345C550.645 607.345 546.104 606.409 541.958 604.714L538.931 612.119ZM517.276 620.976C526.958 620.66 535.847 617.182 542.934 611.548L537.955 605.286C532.167 609.888 524.92 612.722 517.015 612.981L517.276 620.976ZM478.414 652.345C499.387 652.345 516.893 637.535 521.059 617.805L513.232 616.152C509.831 632.258 495.529 644.345 478.414 644.345V652.345ZM452.797 644.026C459.988 649.258 468.846 652.345 478.414 652.345V644.345C470.594 644.345 463.373 641.827 457.503 637.557L452.797 644.026ZM425.632 658C438.548 658 450.156 652.377 458.132 643.458L452.169 638.125C445.646 645.419 436.177 650 425.632 650V658ZM382.046 614.414C382.046 638.486 401.56 658 425.632 658V650C405.978 650 390.046 634.068 390.046 614.414H382.046ZM383.419 603.523C382.522 607.009 382.046 610.659 382.046 614.414H390.046C390.046 611.337 390.436 608.356 391.166 605.517L383.419 603.523ZM361.414 618.149C372.304 618.149 382.27 614.15 389.909 607.546L384.676 601.494C378.436 606.89 370.311 610.149 361.414 610.149V618.149ZM355.233 617.714C357.254 618.001 359.318 618.149 361.414 618.149V610.149C359.695 610.149 358.008 610.028 356.358 609.794L355.233 617.714ZM321.828 637C337.716 637 351.614 628.497 359.225 615.812L352.366 611.696C346.14 622.071 334.791 629 321.828 629V637ZM300.032 631.166C306.447 634.877 313.895 637 321.828 637V629C315.339 629 309.268 627.267 304.037 624.242L300.032 631.166ZM282.241 637C290.174 637 297.622 634.877 304.037 631.166L300.032 624.242C294.801 627.267 288.73 629 282.241 629V637ZM239.999 604.193C244.798 623.049 261.885 637 282.241 637V629C265.631 629 251.67 617.617 247.752 602.22L239.999 604.193ZM240.233 606.851C241.35 607.01 242.481 607.126 243.623 607.198L244.128 599.214C243.194 599.155 242.27 599.06 241.358 598.931L240.233 606.851ZM206.828 626.137C222.716 626.137 236.614 617.634 244.225 604.949L237.366 600.833C231.14 611.208 219.791 618.137 206.828 618.137V626.137ZM185.032 620.303C191.447 624.014 198.895 626.137 206.828 626.137V618.137C200.339 618.137 194.268 616.404 189.037 613.379L185.032 620.303ZM167.241 626.137C175.174 626.137 182.622 624.014 189.037 620.303L185.032 613.379C179.801 616.404 173.73 618.137 167.241 618.137V626.137ZM142.402 618.371C149.45 623.267 158.017 626.137 167.241 626.137V618.137C159.7 618.137 152.718 615.796 146.966 611.8L142.402 618.371ZM142.414 619.149C143.251 619.149 144.083 619.126 144.91 619.079L144.458 611.092C143.782 611.13 143.1 611.149 142.414 611.149V619.149ZM136.233 618.714C138.254 619.001 140.318 619.149 142.414 619.149V611.149C140.695 611.149 139.008 611.028 137.358 610.794L136.233 618.714ZM102.828 638C118.716 638 132.613 629.497 140.225 616.812L133.366 612.696C127.14 623.071 115.791 630 102.828 630V638ZM81.0316 632.166C87.4466 635.877 94.8953 638 102.828 638V630C96.3391 630 90.2676 628.267 85.0374 625.242L81.0316 632.166ZM63.2414 638C71.1737 638 78.6224 635.877 85.0374 632.166L81.0316 625.242C75.8014 628.267 69.7298 630 63.2414 630V638ZM24.1766 613.765C31.2996 628.119 46.1129 638 63.2414 638V630C49.2674 630 37.1672 621.946 31.3428 610.209L24.1766 613.765ZM22.4138 616.345C24.4063 616.345 26.3696 616.211 28.2949 615.951L27.2246 608.023C25.6531 608.235 24.0473 608.345 22.4138 608.345V616.345ZM5.9312 613.119C11.0212 615.2 16.5888 616.345 22.4138 616.345V608.345C17.6445 608.345 13.1039 607.409 8.9582 605.714L5.9312 613.119ZM-15.7237 621.976C-6.04191 621.66 2.84723 618.182 9.93408 612.548L4.95532 606.286C-0.833004 610.888 -8.0801 613.722 -15.9853 613.981L-15.7237 621.976ZM-54.5862 653.345C-33.6126 653.345 -16.1073 638.535 -11.9408 618.805L-19.7682 617.152C-23.1694 633.258 -37.4709 645.345 -54.5862 645.345V653.345ZM-80.2029 645.026C-73.0116 650.258 -64.1536 653.345 -54.5862 653.345V645.345C-62.4064 645.345 -69.6268 642.827 -75.4965 638.557L-80.2029 645.026ZM-107.368 659C-94.4516 659 -82.8436 653.377 -74.868 644.458L-80.8314 639.125C-87.3536 646.419 -96.8231 651 -107.368 651V659ZM-150.954 615.414C-150.954 639.486 -131.44 659 -107.368 659V651C-127.022 651 -142.954 635.068 -142.954 615.414H-150.954ZM-149.581 604.523C-150.478 608.009 -150.954 611.659 -150.954 615.414H-142.954C-142.954 612.337 -142.564 609.356 -141.834 606.517L-149.581 604.523ZM-171.586 619.149C-160.696 619.149 -150.73 615.15 -143.091 608.546L-148.324 602.494C-154.564 607.89 -162.689 611.149 -171.586 611.149V619.149ZM-177.767 618.714C-175.746 619.001 -173.682 619.149 -171.586 619.149V611.149C-173.305 611.149 -174.992 611.028 -176.642 610.794L-177.767 618.714ZM-211.172 638C-195.284 638 -181.386 629.497 -173.775 616.812L-180.634 612.696C-186.86 623.071 -198.209 630 -211.172 630V638ZM-232.968 632.166C-226.553 635.877 -219.105 638 -211.172 638V630C-217.661 630 -223.732 628.267 -228.963 625.242L-232.968 632.166ZM-250.759 638C-242.826 638 -235.378 635.877 -228.963 632.166L-232.968 625.242C-238.199 628.267 -244.27 630 -250.759 630V638ZM-294.345 594.414C-294.345 618.486 -274.831 638 -250.759 638V630C-270.412 630 -286.345 614.067 -286.345 594.414L-294.345 594.414ZM-286.026 568.797C-291.258 575.988 -294.345 584.846 -294.345 594.414H-286.345C-286.345 586.594 -283.827 579.373 -279.557 573.503L-286.026 568.797ZM-300 541.632C-300 554.548 -294.377 566.156 -285.458 574.132L-280.125 568.169C-287.419 561.646 -292 552.177 -292 541.632H-300ZM-291.59 515.89C-296.877 523.104 -300 532.009 -300 541.632H-292C-292 533.766 -289.453 526.507 -285.137 520.619L-291.59 515.89ZM-300.345 494.414C-300.345 504.266 -297.071 513.364 -291.555 520.666L-285.172 515.843C-289.676 509.882 -292.345 502.466 -292.345 494.414H-300.345ZM-292.026 468.797C-297.258 475.988 -300.345 484.846 -300.345 494.414H-292.345C-292.345 486.594 -289.827 479.373 -285.557 473.503L-292.026 468.797ZM-306 441.632C-306 454.548 -300.377 466.156 -291.458 474.132L-286.125 468.169C-293.419 461.646 -298 452.177 -298 441.632H-306ZM-292.415 410.015C-300.778 417.952 -306 429.185 -306 441.632H-298C-298 431.469 -293.745 422.307 -286.908 415.817L-292.415 410.015ZM-318.345 376.231C-318.345 394.505 -307.101 410.142 -291.169 416.621L-288.155 409.211C-301.176 403.915 -310.345 391.139 -310.345 376.231H-318.345ZM-316.604 363.999C-317.738 367.885 -318.345 371.99 -318.345 376.231H-310.345C-310.345 372.757 -309.848 369.405 -308.925 366.241L-316.604 363.999ZM-324 342.3C-324 351.651 -321.05 360.326 -316.031 367.429L-309.498 362.812C-313.594 357.015 -316 349.944 -316 342.3H-324ZM-287.155 299.232C-308.027 302.475 -324 320.519 -324 342.3H-316C-316 324.523 -302.962 309.784 -285.927 307.137L-287.155 299.232ZM-294.345 286.231C-294.345 292.903 -292.843 299.236 -290.154 304.9L-282.927 301.47C-285.117 296.855 -286.345 291.692 -286.345 286.231H-294.345ZM-292.628 274.082C-293.747 277.943 -294.345 282.021 -294.345 286.231H-286.345C-286.345 282.781 -285.855 279.453 -284.944 276.308L-292.628 274.082ZM-325.345 236.231C-325.345 257.666 -309.875 275.481 -289.492 279.132L-288.081 271.258C-304.718 268.277 -317.345 253.724 -317.345 236.231H-325.345ZM-323.604 223.999C-324.738 227.885 -325.345 231.99 -325.345 236.231H-317.345C-317.345 232.757 -316.848 229.405 -315.925 226.241L-323.604 223.999ZM-331 202.3C-331 211.651 -328.05 220.326 -323.031 227.429L-316.498 222.812C-320.594 217.015 -323 209.944 -323 202.3H-331ZM-308.702 164.258C-321.999 171.713 -331 185.953 -331 202.3H-323C-323 188.963 -315.665 177.333 -304.789 171.236L-308.702 164.258ZM-314.345 151.231C-314.345 157.714 -312.927 163.877 -310.38 169.417L-303.111 166.076C-305.186 161.563 -306.345 156.538 -306.345 151.231H-314.345ZM-312.604 138.999C-313.738 142.885 -314.345 146.99 -314.345 151.231H-306.345C-306.345 147.757 -305.848 144.405 -304.925 141.241L-312.604 138.999ZM-320 117.3C-320 126.651 -317.05 135.326 -312.031 142.429L-305.498 137.812C-309.594 132.015 -312 124.944 -312 117.3H-320ZM-276.414 73.7136C-300.486 73.7136 -320 93.2278 -320 117.3H-312C-312 97.6461 -296.068 81.7136 -276.414 81.7136V73.7136ZM-270.233 74.149C-272.254 73.8619 -274.318 73.7136 -276.414 73.7136V81.7136C-274.695 81.7136 -273.008 81.8351 -271.358 82.0695L-270.233 74.149ZM-236.828 54.863C-252.716 54.863 -266.614 63.3663 -274.225 76.051L-267.366 80.1674C-261.14 69.792 -249.791 62.863 -236.828 62.863V54.863ZM-215.032 60.6965C-221.447 56.9857 -228.895 54.863 -236.828 54.863V62.863C-230.339 62.863 -224.268 64.5959 -219.037 67.6214L-215.032 60.6965ZM-197.241 54.863C-205.174 54.863 -212.622 56.9857 -219.037 60.6965L-215.032 67.6214C-209.801 64.5959 -203.73 62.863 -197.241 62.863V54.863ZM-172.402 62.6294C-179.45 57.7333 -188.017 54.863 -197.241 54.863V62.863C-189.7 62.863 -182.718 65.2044 -176.966 69.1997L-172.402 62.6294ZM-172.414 61.8506C-173.251 61.8506 -174.083 61.8742 -174.91 61.9209L-174.458 69.9082C-173.782 69.87 -173.1 69.8506 -172.414 69.8506V61.8506ZM-166.233 62.286C-168.254 61.9988 -170.318 61.8506 -172.414 61.8506V69.8506C-170.695 69.8506 -169.008 69.9721 -167.358 70.2064L-166.233 62.286ZM-132.828 43C-148.716 43 -162.614 51.5033 -170.225 64.188L-163.366 68.3044C-157.14 57.9289 -145.791 51 -132.828 51V43ZM-111.032 48.8335C-117.447 45.1226 -124.895 43 -132.828 43V51C-126.339 51 -120.268 52.7329 -115.037 55.7584L-111.032 48.8335ZM-93.2414 43C-101.174 43 -108.622 45.1226 -115.037 48.8335L-111.032 55.7584C-105.801 52.7329 -99.7298 51 -93.2414 51V43ZM-54.1766 67.2351C-61.2996 52.8807 -76.1129 43 -93.2414 43V51C-79.2674 51 -67.1671 59.0538 -61.3428 70.7911L-54.1766 67.2351ZM-52.4138 64.6552C-54.4063 64.6552 -56.3696 64.7892 -58.2948 65.0491L-57.2246 72.9772C-55.6531 72.765 -54.0473 72.6552 -52.4138 72.6552V64.6552ZM-35.9312 67.8806C-41.0212 65.8 -46.5888 64.6552 -52.4138 64.6552V72.6552C-47.6446 72.6552 -43.1039 73.5912 -38.9582 75.2859L-35.9312 67.8806ZM-12.8276 59C-23.0683 59 -32.494 62.5367 -39.9341 68.4523L-34.9553 74.7142C-28.8797 69.8836 -21.1959 67 -12.8276 67V59ZM14.279 68.4523C6.83882 62.5367 -2.58688 59.0001 -12.8276 59L-12.8276 67C-4.45926 67.0001 3.22454 69.8836 9.3002 74.7142L14.279 68.4523ZM26.7586 64.6552C20.9337 64.6552 15.3661 65.8 10.2761 67.8806L13.3031 75.2859C17.4488 73.5912 21.9894 72.6552 26.7586 72.6552V64.6552ZM59.0549 78.9714C51.086 70.1835 39.5651 64.6552 26.7586 64.6552V72.6552C37.2142 72.6552 46.6123 77.1592 53.1286 84.3453L59.0549 78.9714ZM81.2029 85.974C74.1514 80.8441 65.4971 77.7757 56.1418 77.6586L56.0417 85.658C63.686 85.7537 70.7405 88.2557 76.4965 92.4432L81.2029 85.974ZM108.368 72C95.4516 72 83.8436 77.6232 75.868 86.5423L81.8314 91.8749C88.3536 84.5813 97.823 80 108.368 80V72ZM115.211 72.5347C112.979 72.1825 110.694 72 108.368 72V80C110.274 80 112.143 80.1496 113.964 80.4369L115.211 72.5347ZM141.586 61.8506C130.099 61.8506 119.642 66.2996 111.859 73.5611L117.316 79.4106C123.677 73.4763 132.204 69.8506 141.586 69.8506V61.8506ZM147.767 62.286C145.746 61.9988 143.682 61.8506 141.586 61.8506V69.8506C143.305 69.8506 144.992 69.9721 146.642 70.2064L147.767 62.286ZM181.172 43C165.284 43 151.387 51.5033 143.775 64.188L150.634 68.3044C156.86 57.9289 168.209 51 181.172 51V43ZM202.968 48.8335C196.553 45.1226 189.105 43 181.172 43V51C187.661 51 193.732 52.7329 198.963 55.7583L202.968 48.8335ZM220.759 43C212.826 43 205.378 45.1226 198.963 48.8335L202.968 55.7584C208.199 52.7329 214.27 51 220.759 51V43ZM263.001 75.8072C258.202 56.9508 241.115 43 220.759 43V51C237.369 51 251.33 62.3834 255.248 77.7801L263.001 75.8072ZM262.767 73.149C261.65 72.9902 260.519 72.8739 259.377 72.8017L258.872 80.7857C259.806 80.8448 260.73 80.9399 261.642 81.0695L262.767 73.149ZM296.172 53.863C280.284 53.863 266.387 62.3663 258.775 75.051L265.634 79.1674C271.86 68.792 283.209 61.863 296.172 61.863V53.863ZM317.968 59.6965C311.553 55.9856 304.105 53.863 296.172 53.863V61.863C302.661 61.863 308.732 63.5959 313.963 66.6214L317.968 59.6965ZM335.759 53.863C327.826 53.863 320.378 55.9857 313.963 59.6965L317.968 66.6214C323.199 63.5959 329.27 61.863 335.759 61.863V53.863ZM360.598 61.6294C353.55 56.7333 344.983 53.863 335.759 53.863V61.863C343.3 61.863 350.282 64.2044 356.034 68.1997L360.598 61.6294ZM360.586 60.8506C359.749 60.8506 358.917 60.8742 358.09 60.9209L358.542 68.9082C359.218 68.87 359.9 68.8506 360.586 68.8506V60.8506ZM366.767 61.286C364.746 60.9988 362.682 60.8506 360.586 60.8506V68.8506C362.305 68.8506 363.992 68.9721 365.642 69.2064L366.767 61.286ZM400.172 42C384.284 42 370.387 50.5033 362.775 63.188L369.634 67.3044C375.86 56.9289 387.209 50 400.172 50V42ZM421.968 47.8335C415.553 44.1226 408.105 42 400.172 42V50C406.661 50 412.732 51.7329 417.963 54.7583L421.968 47.8335ZM439.759 42C431.826 42 424.378 44.1226 417.963 47.8335L421.968 54.7583C427.199 51.7329 433.27 50 439.759 50V42ZM478.823 66.2351C471.7 51.8807 456.887 42 439.759 42V50C453.733 50 465.833 58.0538 471.657 69.7911L478.823 66.2351ZM480.586 63.6552C478.594 63.6552 476.63 63.7892 474.705 64.0491L475.775 71.9772C477.347 71.765 478.953 71.6552 480.586 71.6552V63.6552ZM497.069 66.8806C491.979 64.8 486.411 63.6552 480.586 63.6552V71.6552C485.355 71.6552 489.896 72.5912 494.042 74.2859L497.069 66.8806ZM520.172 58C509.932 58 500.506 61.5367 493.066 67.4523L498.045 73.7142C504.12 68.8836 511.804 66 520.172 66V58ZM547.279 67.4523C539.839 61.5367 530.413 58.0001 520.172 58L520.172 66C528.541 66.0001 536.225 68.8836 542.3 73.7142L547.279 67.4523ZM559.759 63.6552C553.934 63.6552 548.366 64.8 543.276 66.8806L546.303 74.2859C550.449 72.5912 554.989 71.6552 559.759 71.6552V63.6552ZM592.055 77.9714C584.086 69.1835 572.565 63.6552 559.759 63.6552V71.6552C570.214 71.6552 579.612 76.1592 586.129 83.3453L592.055 77.9714ZM614.203 84.974C607.151 79.8441 598.497 76.7757 589.142 76.6586L589.042 84.658C596.686 84.7537 603.74 87.2557 609.497 91.4432L614.203 84.974ZM641.368 71C628.452 71 616.844 76.6232 608.868 85.5423L614.831 90.8749C621.354 83.5813 630.823 79 641.368 79V71ZM648.211 71.5347C645.979 71.1825 643.694 71 641.368 71V79C643.274 79 645.143 79.1496 646.964 79.4369L648.211 71.5347ZM674.586 60.8506C663.099 60.8506 652.642 65.2996 644.859 72.5611L650.316 78.4106C656.677 72.4763 665.204 68.8506 674.586 68.8506V60.8506ZM680.767 61.286C678.746 60.9988 676.682 60.8506 674.586 60.8506V68.8506C676.305 68.8506 677.992 68.9721 679.642 69.2064L680.767 61.286ZM714.172 42C698.284 42 684.387 50.5033 676.775 63.188L683.634 67.3044C689.86 56.9289 701.209 50 714.172 50V42ZM735.968 47.8335C729.553 44.1226 722.105 42 714.172 42V50C720.661 50 726.732 51.7329 731.963 54.7584L735.968 47.8335ZM753.759 42C745.826 42 738.378 44.1226 731.963 47.8335L735.969 54.7583C741.199 51.7329 747.27 50 753.759 50V42ZM795.658 73.5405C790.431 55.3307 773.657 42 753.759 42V50C769.994 50 783.7 60.8758 787.968 75.7475L795.658 73.5405ZM815.586 62.7136C805.768 62.7136 796.698 65.9647 789.409 71.4474L794.218 77.8406C800.168 73.3648 807.562 70.7136 815.586 70.7136V62.7136ZM821.767 63.149C819.746 62.8619 817.682 62.7136 815.586 62.7136V70.7136C817.305 70.7136 818.992 70.8351 820.642 71.0695L821.767 63.149ZM855.172 43.863C839.284 43.863 825.386 52.3663 817.775 65.051L824.634 69.1674C830.86 58.792 842.209 51.863 855.172 51.863V43.863ZM876.968 49.6965C870.553 45.9856 863.105 43.863 855.172 43.863V51.863C861.661 51.863 867.732 53.5959 872.963 56.6214L876.968 49.6965ZM894.759 43.863C886.826 43.863 879.378 45.9856 872.963 49.6966L876.969 56.6214C882.199 53.5959 888.27 51.863 894.759 51.863V43.863ZM919.598 51.6294C912.55 46.7333 903.983 43.863 894.759 43.863V51.863C902.3 51.863 909.282 54.2044 915.034 58.1997L919.598 51.6294ZM919.586 50.8506C918.749 50.8506 917.917 50.8742 917.09 50.9209L917.542 58.9082C918.218 58.87 918.9 58.8506 919.586 58.8506V50.8506ZM925.767 51.286C923.746 50.9988 921.682 50.8506 919.586 50.8506V58.8506C921.305 58.8506 922.992 58.9721 924.642 59.2064L925.767 51.286ZM959.172 32C943.284 32 929.386 40.5033 921.775 53.188L928.634 57.3044C934.86 46.9289 946.209 40 959.172 40V32ZM980.968 37.8335C974.553 34.1226 967.105 32 959.172 32V40C965.661 40 971.732 41.7329 976.963 44.7584L980.968 37.8335ZM998.759 32C990.826 32 983.378 34.1226 976.963 37.8335L980.969 44.7583C986.199 41.7329 992.27 40 998.759 40V32ZM1037.82 56.2351C1030.7 41.8807 1015.89 32 998.759 32V40C1012.73 40 1024.83 48.0538 1030.66 59.7911L1037.82 56.2351ZM1039.59 53.6552C1037.59 53.6552 1035.63 53.7892 1033.71 54.0491L1034.78 61.9772C1036.35 61.765 1037.95 61.6552 1039.59 61.6552V53.6552ZM1056.07 56.8806C1050.98 54.8 1045.41 53.6552 1039.59 53.6552L1039.59 61.6552C1044.36 61.6552 1048.9 62.5912 1053.04 64.2859L1056.07 56.8806ZM1079.17 48C1068.93 48 1059.51 51.5367 1052.07 57.4523L1057.04 63.7142C1063.12 58.8836 1070.8 56 1079.17 56V48ZM1106.28 57.4523C1098.84 51.5367 1089.41 48.0001 1079.17 48L1079.17 56C1087.54 56.0001 1095.22 58.8836 1101.3 63.7142L1106.28 57.4523ZM1118.76 53.6552C1112.93 53.6552 1107.37 54.8 1102.28 56.8806L1105.3 64.2859C1109.45 62.5912 1113.99 61.6552 1118.76 61.6552V53.6552ZM1151.05 67.9713C1143.09 59.1835 1131.57 53.6552 1118.76 53.6552V61.6552C1129.21 61.6552 1138.61 66.1592 1145.13 73.3453L1151.05 67.9713ZM1173.2 74.974C1166.15 69.8441 1157.5 66.7757 1148.14 66.6586L1148.04 74.658C1155.69 74.7537 1162.74 77.2557 1168.5 81.4432L1173.2 74.974ZM1200.37 61C1187.45 61 1175.84 66.6232 1167.87 75.5422L1173.83 80.8749C1180.35 73.5813 1189.82 69 1200.37 69V61ZM1207.21 61.5347C1204.98 61.1825 1202.69 61 1200.37 61V69C1202.27 69 1204.14 69.1496 1205.96 69.4369L1207.21 61.5347ZM1233.59 50.8506C1222.1 50.8506 1211.64 55.2996 1203.86 62.561L1209.32 68.4106C1215.68 62.4763 1224.2 58.8506 1233.59 58.8506V50.8506ZM1239.77 51.286C1237.75 50.9988 1235.68 50.8506 1233.59 50.8506V58.8506C1235.3 58.8506 1236.99 58.9721 1238.64 59.2064L1239.77 51.286ZM1273.17 32C1257.28 32 1243.39 40.5033 1235.77 53.188L1242.63 57.3044C1248.86 46.9289 1260.21 40 1273.17 40V32ZM1294.97 37.8335C1288.55 34.1226 1281.1 32 1273.17 32V40C1279.66 40 1285.73 41.7329 1290.96 44.7584L1294.97 37.8335ZM1312.76 32C1304.83 32 1297.38 34.1226 1290.96 37.8335L1294.97 44.7583C1300.2 41.7329 1306.27 40 1312.76 40V32ZM1355 64.8072C1350.2 45.9508 1333.11 32 1312.76 32V40C1329.37 40 1343.33 51.3834 1347.25 66.7801L1355 64.8072ZM1354.77 62.149C1353.65 61.9902 1352.52 61.8739 1351.38 61.8017L1350.87 69.7857C1351.81 69.8448 1352.73 69.9399 1353.64 70.0695L1354.77 62.149ZM1388.17 42.863C1372.28 42.863 1358.39 51.3663 1350.77 64.051L1357.63 68.1674C1363.86 57.792 1375.21 50.863 1388.17 50.863V42.863ZM1409.97 48.6965C1403.55 44.9856 1396.1 42.863 1388.17 42.863V50.863C1394.66 50.863 1400.73 52.5959 1405.96 55.6214L1409.97 48.6965ZM1427.76 42.863C1419.83 42.863 1412.38 44.9856 1405.96 48.6966L1409.97 55.6214C1415.2 52.5959 1421.27 50.863 1427.76 50.863V42.863ZM1452.6 50.6294C1445.55 45.7333 1436.98 42.863 1427.76 42.863V50.863C1435.3 50.863 1442.28 53.2044 1448.03 57.1997L1452.6 50.6294ZM1452.59 49.8506C1451.75 49.8506 1450.92 49.8742 1450.09 49.9209L1450.54 57.9082C1451.22 57.87 1451.9 57.8506 1452.59 57.8506V49.8506ZM1458.77 50.286C1456.75 49.9988 1454.68 49.8506 1452.59 49.8506V57.8506C1454.3 57.8506 1455.99 57.9721 1457.64 58.2064L1458.77 50.286ZM1492.17 31C1476.28 31 1462.39 39.5033 1454.77 52.188L1461.63 56.3044C1467.86 45.9289 1479.21 39 1492.17 39V31ZM1513.97 36.8335C1507.55 33.1226 1500.1 31 1492.17 31V39C1498.66 39 1504.73 40.7329 1509.96 43.7584L1513.97 36.8335ZM1531.76 31C1523.83 31 1516.38 33.1226 1509.96 36.8335L1513.97 43.7583C1519.2 40.7329 1525.27 39 1531.76 39V31ZM1570.82 55.2351C1563.7 40.8807 1548.89 31 1531.76 31V39C1545.73 39 1557.83 47.0538 1563.66 58.7911L1570.82 55.2351ZM1572.59 52.6552C1570.59 52.6552 1568.63 52.7892 1566.71 53.0491L1567.78 60.9772C1569.35 60.765 1570.95 60.6552 1572.59 60.6552V52.6552ZM1589.07 55.8806C1583.98 53.8 1578.41 52.6552 1572.59 52.6552L1572.59 60.6552C1577.36 60.6552 1581.9 61.5912 1586.04 63.2859L1589.07 55.8806ZM1612.17 47C1601.93 47 1592.51 50.5367 1585.07 56.4523L1590.04 62.7142C1596.12 57.8836 1603.8 55 1612.17 55V47ZM1639.28 56.4523C1631.84 50.5367 1622.41 47.0001 1612.17 47L1612.17 55C1620.54 55.0001 1628.22 57.8836 1634.3 62.7142L1639.28 56.4523ZM1651.76 52.6552C1645.93 52.6552 1640.37 53.8 1635.28 55.8806L1638.3 63.2859C1642.45 61.5912 1646.99 60.6552 1651.76 60.6552V52.6552ZM1684.05 66.9713C1676.09 58.1835 1664.57 52.6552 1651.76 52.6552V60.6552C1662.21 60.6552 1671.61 65.1592 1678.13 72.3453L1684.05 66.9713ZM1706.2 73.974C1699.15 68.8441 1690.5 65.7757 1681.14 65.6586L1681.04 73.658C1688.69 73.7537 1695.74 76.2557 1701.5 80.4432L1706.2 73.974ZM1733.37 60C1720.45 60 1708.84 65.6232 1700.87 74.5422L1706.83 79.8749C1713.35 72.5813 1722.82 68 1733.37 68V60ZM1740.21 60.5347C1737.98 60.1825 1735.69 60 1733.37 60V68C1735.27 68 1737.14 68.1496 1738.96 68.4369L1740.21 60.5347ZM1766.59 49.8506C1755.1 49.8506 1744.64 54.2996 1736.86 61.561L1742.32 67.4106C1748.68 61.4763 1757.2 57.8506 1766.59 57.8506V49.8506ZM1772.77 50.286C1770.75 49.9988 1768.68 49.8506 1766.59 49.8506V57.8506C1768.3 57.8506 1769.99 57.9721 1771.64 58.2064L1772.77 50.286ZM1806.17 31C1790.28 31 1776.39 39.5033 1768.77 52.188L1775.63 56.3044C1781.86 45.9289 1793.21 39 1806.17 39V31ZM1827.97 36.8335C1821.55 33.1226 1814.1 31 1806.17 31V39C1812.66 39 1818.73 40.7329 1823.96 43.7583L1827.97 36.8335ZM1845.76 31C1837.83 31 1830.38 33.1226 1823.96 36.8335L1827.97 43.7583C1833.2 40.7329 1839.27 39 1845.76 39V31ZM1889.34 74.5862C1889.34 50.5142 1869.83 31 1845.76 31V39C1865.41 39 1881.34 54.9325 1881.34 74.5862H1889.34ZM1881.03 100.203C1886.26 93.0115 1889.34 84.1535 1889.34 74.5862H1881.34C1881.34 82.4064 1878.83 89.6269 1874.56 95.4966L1881.03 100.203ZM1895 127.368C1895 114.452 1889.38 102.844 1880.46 94.868L1875.13 100.831C1882.42 107.354 1887 116.823 1887 127.368H1895ZM1876.66 162.899C1887.75 155.005 1895 142.033 1895 127.368H1887C1887 139.335 1881.1 149.924 1872.03 156.381L1876.66 162.899ZM1876.63 171.735C1877.74 167.892 1878.34 163.835 1878.34 159.645L1870.34 159.635C1870.34 163.067 1869.85 166.379 1868.94 169.509L1876.63 171.735ZM1909.34 209.586C1909.34 188.151 1893.88 170.337 1873.49 166.685L1872.08 174.559C1888.72 177.54 1901.34 192.093 1901.34 209.586H1909.34ZM1901.03 235.203C1906.26 228.012 1909.34 219.154 1909.34 209.586H1901.34C1901.34 217.406 1898.83 224.627 1894.56 230.497L1901.03 235.203ZM1915 262.368C1915 249.452 1909.38 237.844 1900.46 229.868L1895.13 235.831C1902.42 242.354 1907 251.823 1907 262.368H1915ZM1882.33 304.575C1901.12 299.73 1915 282.675 1915 262.368H1907C1907 278.938 1895.67 292.872 1880.33 296.829L1882.33 304.575ZM1877.03 325.203C1882.03 318.321 1885.08 309.911 1885.33 300.813L1877.33 300.591C1877.13 308.023 1874.64 314.878 1870.56 320.497L1877.03 325.203ZM1891 352.368C1891 339.452 1885.38 327.844 1876.46 319.868L1871.13 325.831C1878.42 332.354 1883 341.823 1883 352.368H1891ZM1877.42 383.985C1885.78 376.048 1891 364.815 1891 352.368H1883C1883 362.531 1878.74 371.693 1871.91 378.183L1877.42 383.985ZM1903.34 417.769C1903.34 399.495 1892.1 383.858 1876.17 377.379L1873.15 384.789C1886.18 390.085 1895.34 402.861 1895.34 417.769H1903.34ZM1901.6 430.001C1902.74 426.115 1903.34 422.009 1903.34 417.769H1895.34C1895.34 421.243 1894.85 424.595 1893.92 427.759L1901.6 430.001ZM1909 451.7C1909 442.349 1906.05 433.674 1901.03 426.571L1894.5 431.188C1898.59 436.985 1901 444.056 1901 451.7H1909ZM1889.63 487.945C1901.3 480.132 1909 466.816 1909 451.7H1901C1901 464.035 1894.73 474.906 1885.18 481.296L1889.63 487.945ZM1909.34 517.769C1909.34 502.49 1901.48 489.05 1889.6 481.273L1885.22 487.968C1894.94 494.329 1901.34 505.302 1901.34 517.769H1909.34ZM1907.6 530.001C1908.74 526.115 1909.34 522.009 1909.34 517.769H1901.34C1901.34 521.243 1900.85 524.595 1899.92 527.759L1907.6 530.001ZM1915 551.7C1915 542.349 1912.05 533.674 1907.03 526.571L1900.5 531.188C1904.59 536.985 1907 544.056 1907 551.7H1915ZM1871.41 595.286C1895.49 595.286 1915 575.772 1915 551.7H1907C1907 571.354 1891.07 587.286 1871.41 587.286V595.286ZM1865.23 594.851C1867.25 595.138 1869.32 595.286 1871.41 595.286V587.286C1869.7 587.286 1868.01 587.165 1866.36 586.931L1865.23 594.851ZM1831.83 614.137C1847.72 614.137 1861.61 605.634 1869.23 592.949L1862.37 588.833C1856.14 599.208 1844.79 606.137 1831.83 606.137V614.137ZM1810.03 608.303C1816.45 612.014 1823.9 614.137 1831.83 614.137V606.137C1825.34 606.137 1819.27 604.404 1814.04 601.379L1810.03 608.303ZM1792.24 614.137C1800.17 614.137 1807.62 612.014 1814.04 608.303L1810.03 601.379C1804.8 604.404 1798.73 606.137 1792.24 606.137V614.137ZM1767.4 606.371C1774.45 611.267 1783.02 614.137 1792.24 614.137V606.137C1784.7 606.137 1777.72 603.796 1771.97 599.8L1767.4 606.371ZM1767.41 607.149C1768.25 607.149 1769.08 607.126 1769.91 607.079L1769.46 599.092C1768.78 599.13 1768.1 599.149 1767.41 599.149V607.149ZM1761.23 606.714C1763.25 607.001 1765.32 607.149 1767.41 607.149V599.149C1765.7 599.149 1764.01 599.028 1762.36 598.794L1761.23 606.714ZM1727.83 626C1743.72 626 1757.61 617.497 1765.23 604.812L1758.37 600.696C1752.14 611.071 1740.79 618 1727.83 618V626ZM1706.03 620.166C1712.45 623.877 1719.9 626 1727.83 626V618C1721.34 618 1715.27 616.267 1710.04 613.242L1706.03 620.166ZM1688.24 626C1696.17 626 1703.62 623.877 1710.04 620.166L1706.03 613.242C1700.8 616.267 1694.73 618 1688.24 618V626ZM1649.18 601.765C1656.3 616.119 1671.11 626 1688.24 626V618C1674.27 618 1662.17 609.946 1656.34 598.209L1649.18 601.765ZM1647.41 604.345C1649.41 604.345 1651.37 604.211 1653.29 603.951L1652.22 596.023C1650.65 596.235 1649.05 596.345 1647.41 596.345V604.345ZM1630.93 601.119C1636.02 603.2 1641.59 604.345 1647.41 604.345V596.345C1642.64 596.345 1638.1 595.409 1633.96 593.714L1630.93 601.119ZM1609.28 609.976C1618.96 609.66 1627.85 606.182 1634.93 600.548L1629.96 594.286C1624.17 598.888 1616.92 601.722 1609.01 601.981L1609.28 609.976ZM785.416 394.985C786.546 393.912 787.619 392.779 788.629 391.591L782.535 386.408C781.709 387.379 780.832 388.306 779.908 389.183L785.416 394.985ZM802.615 402.596C797.905 396.333 791.543 391.377 784.169 388.379L781.155 395.789C787.169 398.235 792.369 402.282 796.221 407.404L802.615 402.596ZM799.585 399.015C798.454 400.088 797.381 401.221 796.371 402.409L802.465 407.592C803.291 406.621 804.168 405.694 805.092 404.817L799.585 399.015ZM782.385 391.404C787.095 397.667 793.457 402.623 800.831 405.621L803.845 398.211C797.831 395.765 792.631 391.718 788.779 386.596L782.385 391.404ZM797.631 498.945C798.297 498.498 798.951 498.034 799.592 497.553L794.782 491.159C794.26 491.553 793.726 491.932 793.181 492.297L797.631 498.945ZM800.804 494.586C799.772 493.769 798.701 492.997 797.596 492.273L793.216 498.968C794.118 499.558 794.993 500.189 795.836 500.857L800.804 494.586ZM793.342 495.46C793.704 496.72 794.121 497.957 794.59 499.168L802.049 496.276C801.667 495.288 801.327 494.28 801.032 493.252L793.342 495.46Z" fill="black" mask="url(#path-1-inside-1_27_9896)"/>
<ellipse cx="198.393" cy="48.6666" rx="35.2572" ry="38.9469" transform="rotate(-11.0719 198.393 48.6666)" fill="url(#paint0_linear_27_9896)"/>
<circle cx="183.06" cy="42.8944" r="9.01929" transform="rotate(-11.0719 183.06 42.8944)" fill="white"/>
<circle cx="183.383" cy="42.4132" r="3.68971" transform="rotate(-11.0719 183.383 42.4132)" fill="black"/>
<circle cx="210.419" cy="37.5407" r="9.01929" transform="rotate(-11.0719 210.419 37.5407)" fill="white"/>
<circle cx="210.742" cy="37.0597" r="3.68971" transform="rotate(-11.0719 210.742 37.0597)" fill="black"/>
<path d="M202.953 73.477C201.602 73.7416 200.393 73.851 199.328 73.8055C198.266 73.7727 197.35 73.6377 196.582 73.4004C196.084 73.244 195.638 73.017 195.246 72.7195C194.856 72.4348 194.609 72.0286 194.506 71.5007C194.438 71.1531 194.474 70.8252 194.614 70.5171C194.754 70.2089 194.92 69.9626 195.111 69.7781C195.635 69.9964 196.171 70.1723 196.718 70.3058C197.256 70.4547 197.816 70.5522 198.4 70.5984C198.986 70.6574 199.602 70.6638 200.248 70.6176C200.897 70.5843 201.595 70.4946 202.341 70.3485C203.088 70.2023 203.768 70.0225 204.381 69.8089C204.997 69.6082 205.565 69.37 206.086 69.0943C206.609 68.8315 207.092 68.5299 207.533 68.1895C207.99 67.8595 208.42 67.4947 208.823 67.095C209.07 67.1938 209.316 67.3595 209.562 67.592C209.808 67.8246 209.965 68.1147 210.033 68.4623C210.136 68.9902 210.061 69.4594 209.807 69.8701C209.556 70.2935 209.229 70.6717 208.826 71.0045C208.204 71.5139 207.407 71.984 206.435 72.4148C205.466 72.8584 204.305 73.2125 202.953 73.477Z" fill="black"/>
<ellipse cx="228.94" cy="16.2053" rx="16.3987" ry="9.01929" transform="rotate(3.92807 228.94 16.2053)" fill="black"/>
<ellipse cx="157.324" cy="30.2194" rx="16.3987" ry="9.01929" transform="rotate(153.928 157.324 30.2194)" fill="black"/>
<ellipse cx="393.396" cy="51.7453" rx="35.2572" ry="38.9469" transform="rotate(5.44556 393.396 51.7453)" fill="url(#paint1_linear_27_9896)"/>
<circle cx="380.337" cy="41.8521" r="9.01929" transform="rotate(5.44556 380.337 41.8521)" fill="white"/>
<circle cx="380.785" cy="41.4828" r="3.68971" transform="rotate(5.44556 380.785 41.4828)" fill="black"/>
<circle cx="408.089" cy="44.4977" r="9.01929" transform="rotate(5.44556 408.089 44.4977)" fill="white"/>
<circle cx="408.537" cy="44.1285" r="3.68971" transform="rotate(5.44556 408.537 44.1285)" fill="black"/>
<path d="M390.715 76.8286C389.344 76.6979 388.154 76.4593 387.146 76.1128C386.137 75.7793 385.298 75.3896 384.629 74.9437C384.195 74.652 383.833 74.3077 383.541 73.9109C383.248 73.5272 383.127 73.0676 383.178 72.5321C383.212 72.1795 383.34 71.8754 383.562 71.6198C383.784 71.3643 384.013 71.1752 384.248 71.0527C384.689 71.411 385.152 71.7319 385.639 72.0156C386.112 72.311 386.621 72.5639 387.168 72.7741C387.713 72.9974 388.302 73.1788 388.935 73.3181C389.566 73.4705 390.26 73.5829 391.018 73.6551C391.775 73.7273 392.478 73.7482 393.127 73.7178C393.774 73.7004 394.387 73.6336 394.965 73.5174C395.541 73.4142 396.089 73.2622 396.609 73.0614C397.141 72.8748 397.657 72.6473 398.157 72.3787C398.365 72.5435 398.554 72.7723 398.724 73.0653C398.894 73.3582 398.962 73.681 398.928 74.0336C398.877 74.569 398.672 74.9975 398.312 75.319C397.95 75.6536 397.529 75.9231 397.048 76.1277C396.307 76.4392 395.409 76.6633 394.355 76.8C393.3 76.9498 392.087 76.9593 390.715 76.8286Z" fill="black"/>
<ellipse cx="431.912" cy="29.3085" rx="16.3987" ry="9.01929" transform="rotate(20.4456 431.912 29.3085)" fill="black"/>
<ellipse cx="359.267" cy="22.3833" rx="16.3987" ry="9.01929" transform="rotate(170.446 359.267 22.3833)" fill="black"/>
<ellipse cx="701.398" cy="60.7218" rx="35.2572" ry="38.9469" transform="rotate(0.53227 701.398 60.7218)" fill="url(#paint2_linear_27_9896)"/>
<circle cx="687.539" cy="51.9834" r="9.01929" transform="rotate(0.53227 687.539 51.9834)" fill="white"/>
<circle cx="687.953" cy="51.5772" r="3.68971" transform="rotate(0.53227 687.953 51.5772)" fill="black"/>
<circle cx="715.416" cy="52.2424" r="9.01929" transform="rotate(0.53227 715.416 52.2424)" fill="white"/>
<circle cx="715.83" cy="51.8363" r="3.68971" transform="rotate(0.53227 715.83 51.8363)" fill="black"/>
<path d="M700.875 85.9426C699.497 85.9298 698.291 85.7939 697.257 85.535C696.223 85.2893 695.354 84.9729 694.649 84.5859C694.192 84.3324 693.801 84.0204 693.477 83.6501C693.152 83.2928 692.992 82.8453 692.997 82.3074C693.001 81.9532 693.102 81.6393 693.301 81.3656C693.501 81.092 693.712 80.884 693.937 80.7418C694.406 81.061 694.896 81.3411 695.405 81.582C695.901 81.8359 696.431 82.0441 696.993 82.2068C697.556 82.3826 698.158 82.5128 698.8 82.5975C699.442 82.6953 700.143 82.7477 700.904 82.7548C701.665 82.7619 702.367 82.7225 703.011 82.6366C703.655 82.5639 704.259 82.4448 704.825 82.2795C705.39 82.1274 705.924 81.929 706.424 81.6844C706.938 81.453 707.433 81.1821 707.908 80.8716C708.13 81.018 708.338 81.2298 708.532 81.5071C708.726 81.7844 708.821 82.1002 708.818 82.4544C708.813 82.9923 708.645 83.4368 708.314 83.7879C707.982 84.1522 707.586 84.4568 707.125 84.7018C706.413 85.0756 705.537 85.3758 704.499 85.6023C703.46 85.8419 702.252 85.9554 700.875 85.9426Z" fill="black"/>
<ellipse cx="737.85" cy="35.0687" rx="16.3987" ry="9.01929" transform="rotate(15.5323 737.85 35.0687)" fill="black"/>
<ellipse cx="664.879" cy="34.3908" rx="16.3987" ry="9.01929" transform="rotate(165.532 664.879 34.3908)" fill="black"/>
<ellipse cx="952.393" cy="54.6666" rx="35.2572" ry="38.9469" transform="rotate(-11.0719 952.393 54.6666)" fill="url(#paint3_linear_27_9896)"/>
<circle cx="937.06" cy="48.8944" r="9.01929" transform="rotate(-11.0719 937.06 48.8944)" fill="white"/>
<circle cx="937.383" cy="48.4132" r="3.68971" transform="rotate(-11.0719 937.383 48.4132)" fill="black"/>
<circle cx="964.419" cy="43.5407" r="9.01929" transform="rotate(-11.0719 964.419 43.5407)" fill="white"/>
<circle cx="964.742" cy="43.0597" r="3.68971" transform="rotate(-11.0719 964.742 43.0597)" fill="black"/>
<path d="M956.953 79.477C955.602 79.7416 954.393 79.851 953.328 79.8055C952.266 79.7727 951.35 79.6377 950.582 79.4004C950.084 79.244 949.638 79.017 949.246 78.7195C948.856 78.4348 948.609 78.0286 948.506 77.5007C948.438 77.1531 948.474 76.8252 948.614 76.5171C948.754 76.2089 948.92 75.9626 949.111 75.7781C949.635 75.9964 950.171 76.1723 950.718 76.3058C951.256 76.4547 951.816 76.5522 952.4 76.5984C952.986 76.6574 953.602 76.6638 954.248 76.6176C954.897 76.5843 955.595 76.4946 956.341 76.3485C957.088 76.2023 957.768 76.0225 958.381 75.8089C958.997 75.6082 959.565 75.37 960.086 75.0943C960.609 74.8315 961.092 74.5299 961.533 74.1895C961.99 73.8595 962.42 73.4947 962.823 73.095C963.07 73.1938 963.316 73.3595 963.562 73.592C963.808 73.8246 963.965 74.1147 964.033 74.4623C964.136 74.9902 964.061 75.4594 963.807 75.8701C963.556 76.2935 963.229 76.6717 962.826 77.0045C962.204 77.5139 961.407 77.984 960.435 78.4148C959.466 78.8584 958.305 79.2125 956.953 79.477Z" fill="black"/>
<ellipse cx="982.94" cy="22.2053" rx="16.3987" ry="9.01929" transform="rotate(3.92807 982.94 22.2053)" fill="black"/>
<ellipse cx="911.324" cy="36.2194" rx="16.3987" ry="9.01929" transform="rotate(153.928 911.324 36.2194)" fill="black"/>
<ellipse cx="1409.39" cy="49.6666" rx="35.2572" ry="38.9469" transform="rotate(-11.0719 1409.39 49.6666)" fill="url(#paint4_linear_27_9896)"/>
<circle cx="1394.06" cy="43.8944" r="9.01929" transform="rotate(-11.0719 1394.06 43.8944)" fill="white"/>
<circle cx="1394.38" cy="43.4132" r="3.68971" transform="rotate(-11.0719 1394.38 43.4132)" fill="black"/>
<circle cx="1421.42" cy="38.5407" r="9.01929" transform="rotate(-11.0719 1421.42 38.5407)" fill="white"/>
<circle cx="1421.74" cy="38.0597" r="3.68971" transform="rotate(-11.0719 1421.74 38.0597)" fill="black"/>
<path d="M1413.95 74.477C1412.6 74.7416 1411.39 74.851 1410.33 74.8055C1409.27 74.7727 1408.35 74.6377 1407.58 74.4004C1407.08 74.244 1406.64 74.017 1406.25 73.7195C1405.86 73.4348 1405.61 73.0286 1405.51 72.5007C1405.44 72.1531 1405.47 71.8252 1405.61 71.5171C1405.75 71.2089 1405.92 70.9626 1406.11 70.7781C1406.64 70.9964 1407.17 71.1723 1407.72 71.3058C1408.26 71.4547 1408.82 71.5522 1409.4 71.5984C1409.99 71.6574 1410.6 71.6638 1411.25 71.6176C1411.9 71.5843 1412.59 71.4946 1413.34 71.3485C1414.09 71.2023 1414.77 71.0225 1415.38 70.8089C1416 70.6082 1416.57 70.37 1417.09 70.0943C1417.61 69.8315 1418.09 69.5299 1418.53 69.1895C1418.99 68.8595 1419.42 68.4947 1419.82 68.095C1420.07 68.1938 1420.32 68.3595 1420.56 68.592C1420.81 68.8246 1420.96 69.1147 1421.03 69.4623C1421.14 69.9902 1421.06 70.4594 1420.81 70.8701C1420.56 71.2935 1420.23 71.6717 1419.83 72.0045C1419.2 72.5139 1418.41 72.984 1417.44 73.4148C1416.47 73.8584 1415.31 74.2125 1413.95 74.477Z" fill="black"/>
<ellipse cx="1439.94" cy="17.2053" rx="16.3987" ry="9.01929" transform="rotate(3.92807 1439.94 17.2053)" fill="black"/>
<ellipse cx="1368.32" cy="31.2194" rx="16.3987" ry="9.01929" transform="rotate(153.928 1368.32 31.2194)" fill="black"/>
<ellipse cx="1634.39" cy="69.791" rx="35.2572" ry="38.9469" transform="rotate(15.1662 1634.39 69.791)" fill="url(#paint5_linear_27_9896)"/>
<circle cx="1623.19" cy="57.8349" r="9.01929" transform="rotate(15.1662 1623.19 57.8349)" fill="white"/>
<circle cx="1623.69" cy="57.5464" r="3.68971" transform="rotate(15.1662 1623.69 57.5464)" fill="black"/>
<circle cx="1650.09" cy="65.1283" r="9.01929" transform="rotate(15.1662 1650.09 65.1283)" fill="white"/>
<circle cx="1650.6" cy="64.8399" r="3.68971" transform="rotate(15.1662 1650.6 64.8399)" fill="black"/>
<path d="M1627.51 94.0615C1626.18 93.7011 1625.05 93.265 1624.11 92.7533C1623.17 92.2543 1622.41 91.7285 1621.83 91.1759C1621.45 90.8152 1621.15 90.4147 1620.93 89.9744C1620.71 89.5467 1620.67 89.0733 1620.81 88.5541C1620.9 88.2122 1621.08 87.9341 1621.34 87.7197C1621.6 87.5053 1621.86 87.3576 1622.11 87.2766C1622.48 87.7041 1622.89 88.0987 1623.32 88.4605C1623.74 88.8315 1624.2 89.1667 1624.7 89.4663C1625.2 89.7785 1625.75 90.0566 1626.35 90.3008C1626.94 90.5576 1627.61 90.7855 1628.34 90.9846C1629.08 91.1837 1629.77 91.323 1630.41 91.4025C1631.05 91.4947 1631.67 91.5323 1632.26 91.5153C1632.84 91.5109 1633.41 91.4537 1633.96 91.3435C1634.51 91.2494 1635.06 91.1122 1635.6 90.9319C1635.77 91.1295 1635.92 91.387 1636.04 91.7044C1636.16 92.0218 1636.17 92.3514 1636.08 92.6933C1635.94 93.2125 1635.66 93.6001 1635.25 93.8561C1634.84 94.1249 1634.38 94.3195 1633.87 94.4399C1633.09 94.6218 1632.16 94.6911 1631.1 94.6479C1630.04 94.6173 1628.84 94.4218 1627.51 94.0615Z" fill="black"/>
<ellipse cx="1676.14" cy="54.1795" rx="16.3987" ry="9.01929" transform="rotate(30.1662 1676.14 54.1795)" fill="black"/>
<ellipse cx="1605.71" cy="35.0881" rx="16.3987" ry="9.01929" transform="rotate(-179.834 1605.71 35.0881)" fill="black"/>
<defs>
<linearGradient id="paint0_linear_27_9896" x1="198.393" y1="9.71969" x2="198.393" y2="87.6136" gradientUnits="userSpaceOnUse">
<stop/>
<stop offset="1" stop-color="#585858"/>
</linearGradient>
<linearGradient id="paint1_linear_27_9896" x1="393.396" y1="12.7984" x2="393.396" y2="90.6923" gradientUnits="userSpaceOnUse">
<stop/>
<stop offset="1" stop-color="#585858"/>
</linearGradient>
<linearGradient id="paint2_linear_27_9896" x1="701.398" y1="21.7749" x2="701.398" y2="99.6688" gradientUnits="userSpaceOnUse">
<stop/>
<stop offset="1" stop-color="#585858"/>
</linearGradient>
<linearGradient id="paint3_linear_27_9896" x1="952.393" y1="15.7197" x2="952.393" y2="93.6136" gradientUnits="userSpaceOnUse">
<stop/>
<stop offset="1" stop-color="#585858"/>
</linearGradient>
<linearGradient id="paint4_linear_27_9896" x1="1409.39" y1="10.7197" x2="1409.39" y2="88.6136" gradientUnits="userSpaceOnUse">
<stop/>
<stop offset="1" stop-color="#585858"/>
</linearGradient>
<linearGradient id="paint5_linear_27_9896" x1="1634.39" y1="30.8441" x2="1634.39" y2="108.738" gradientUnits="userSpaceOnUse">
<stop/>
<stop offset="1" stop-color="#585858"/>
</linearGradient>
</defs>
</svg>
