<svg width="1728" height="138" viewBox="0 0 1728 138" fill="none" xmlns="http://www.w3.org/2000/svg">
<mask id="path-1-inside-1_27_9893" fill="white">
<path fill-rule="evenodd" clip-rule="evenodd" d="M1611.15 605.978C1607.36 623.896 1591.46 637.345 1572.41 637.345C1563.72 637.345 1555.68 634.542 1549.15 629.791C1541.9 637.898 1531.36 643 1519.63 643C1497.77 643 1480.05 625.277 1480.05 603.414C1480.05 599.998 1480.48 596.682 1481.29 593.52C1474.35 599.52 1465.31 603.149 1455.41 603.149C1453.51 603.149 1451.63 603.015 1449.8 602.754C1442.88 614.284 1430.25 622 1415.83 622C1408.62 622 1401.86 620.072 1396.03 616.704C1390.21 620.072 1383.45 622 1376.24 622C1357.76 622 1342.23 609.333 1337.88 592.206C1336.84 592.141 1335.81 592.035 1334.8 591.891C1327.88 603.421 1315.25 611.137 1300.83 611.137C1293.62 611.137 1286.86 609.209 1281.03 605.841C1275.21 609.209 1268.45 611.137 1261.24 611.137C1252.86 611.137 1245.08 608.531 1238.68 604.085C1237.93 604.128 1237.18 604.149 1236.41 604.149C1234.51 604.149 1232.63 604.015 1230.8 603.754C1223.88 615.284 1211.25 623 1196.83 623C1189.62 623 1182.86 621.072 1177.03 617.704C1171.21 621.072 1164.45 623 1157.24 623C1141.69 623 1128.23 614.033 1121.76 600.987C1120.01 601.223 1118.23 601.345 1116.41 601.345C1111.12 601.345 1106.06 600.304 1101.44 598.417C1095.01 603.535 1086.94 606.691 1078.15 606.978C1074.36 624.896 1058.46 638.345 1039.41 638.345C1030.72 638.345 1022.68 635.542 1016.15 630.791C1008.9 638.898 998.363 644 986.632 644C964.769 644 947.046 626.277 947.046 604.414C947.046 600.998 947.479 597.682 948.292 594.52C941.353 600.52 932.307 604.149 922.414 604.149C920.507 604.149 918.631 604.015 916.796 603.754C909.877 615.284 897.253 623 882.828 623C875.617 623 868.857 621.072 863.034 617.704C857.212 621.072 850.452 623 843.241 623C825.174 623 809.934 610.897 805.187 594.356C798.567 599.335 790.335 602.286 781.414 602.286C779.507 602.286 777.631 602.151 775.796 601.891C768.876 613.421 756.253 621.137 741.828 621.137C734.617 621.137 727.857 619.209 722.034 615.841C716.212 619.209 709.452 621.137 702.241 621.137C693.858 621.137 686.084 618.531 679.684 614.085C678.933 614.128 678.176 614.149 677.414 614.149C675.507 614.149 673.631 614.015 671.796 613.754C664.877 625.284 652.253 633 637.828 633C630.617 633 623.857 631.072 618.034 627.704C612.212 631.072 605.452 633 598.241 633C582.69 633 569.233 624.033 562.76 610.987C561.011 611.223 559.227 611.345 557.414 611.345C552.117 611.345 547.063 610.304 542.445 608.417C536.007 613.535 527.939 616.691 519.146 616.978C515.362 634.897 499.458 648.345 480.414 648.345C471.72 648.345 463.681 645.542 457.15 640.791C449.901 648.898 439.363 654 427.632 654C405.769 654 388.046 636.277 388.046 614.414C388.046 610.998 388.479 607.682 389.292 604.52C382.353 610.52 373.307 614.149 363.414 614.149C361.507 614.149 359.631 614.015 357.796 613.754C350.877 625.284 338.253 633 323.828 633C316.617 633 309.857 631.072 304.034 627.704C298.212 631.072 291.452 633 284.241 633C265.758 633 250.234 620.333 245.876 603.206C244.838 603.141 243.81 603.035 242.796 602.891C235.877 614.421 223.253 622.137 208.828 622.137C201.617 622.137 194.857 620.209 189.034 616.841C183.212 620.209 176.452 622.137 169.241 622.137C160.858 622.137 153.084 619.531 146.684 615.085C145.933 615.128 145.176 615.149 144.414 615.149C142.507 615.149 140.631 615.015 138.796 614.754C131.877 626.284 119.253 634 104.828 634C97.6172 634 90.8571 632.072 85.0345 628.704C79.2119 632.072 72.4518 634 65.2414 634C49.6902 634 36.2334 625.033 29.7597 611.987C28.0114 612.223 26.2268 612.345 24.4138 612.345C19.1167 612.345 14.0626 611.304 9.4447 609.417C3.00711 614.535 -5.061 617.691 -13.8545 617.978C-17.6384 635.896 -33.5418 649.345 -52.5862 649.345C-61.28 649.345 -69.3192 646.542 -75.8497 641.791C-83.0986 649.898 -93.6373 655 -105.368 655C-127.231 655 -144.954 637.277 -144.954 615.414C-144.954 611.998 -144.521 608.682 -143.708 605.52C-150.647 611.52 -159.693 615.149 -169.586 615.149C-171.493 615.149 -173.369 615.015 -175.204 614.754C-182.123 626.284 -194.747 634 -209.172 634C-216.383 634 -223.143 632.072 -228.966 628.704C-234.788 632.072 -241.548 634 -248.759 634C-270.621 634 -288.345 616.277 -288.345 594.414C-288.345 585.72 -285.542 577.681 -280.791 571.15C-288.898 563.901 -294 553.363 -294 541.632C-294 532.888 -291.165 524.806 -286.363 518.255C-291.374 511.623 -294.345 503.366 -294.345 494.414C-294.345 485.72 -291.542 477.681 -286.791 471.15C-294.898 463.901 -300 453.363 -300 441.632C-300 430.327 -295.261 420.129 -287.662 412.916C-302.138 407.029 -312.345 392.822 -312.345 376.231C-312.345 372.374 -311.793 368.645 -310.764 365.12C-315.322 358.671 -318 350.798 -318 342.3C-318 322.521 -303.494 306.13 -284.541 303.185C-286.98 298.046 -288.345 292.298 -288.345 286.231C-288.345 282.401 -287.801 278.698 -286.786 275.195C-305.297 271.879 -319.345 255.695 -319.345 236.231C-319.345 232.374 -318.793 228.645 -317.764 225.12C-322.322 218.671 -325 210.798 -325 202.3C-325 187.458 -316.832 174.523 -304.745 167.747C-307.056 162.72 -308.345 157.126 -308.345 151.231C-308.345 147.374 -307.793 143.645 -306.764 140.12C-311.322 133.671 -314 125.798 -314 117.3C-314 95.437 -296.277 77.7136 -274.414 77.7136C-272.507 77.7136 -270.631 77.8485 -268.796 78.1092C-261.877 66.5791 -249.253 58.863 -234.828 58.863C-227.617 58.863 -220.857 60.7908 -215.034 64.159C-209.212 60.7908 -202.452 58.863 -195.241 58.863C-186.858 58.863 -179.084 61.4688 -172.684 65.9146C-171.933 65.8721 -171.176 65.8506 -170.414 65.8506C-168.507 65.8506 -166.631 65.9855 -164.796 66.2462C-157.877 54.7161 -145.253 47 -130.828 47C-123.617 47 -116.857 48.9277 -111.034 52.2959C-105.212 48.9277 -98.4518 47 -91.2414 47C-75.6902 47 -62.2334 55.9673 -55.7597 69.0131C-54.0114 68.7771 -52.2268 68.6552 -50.4138 68.6552C-45.1167 68.6552 -40.0626 69.6956 -35.4447 71.5833C-28.6868 66.2101 -20.1321 63 -10.8276 63C-1.52307 63.0001 7.03168 66.2101 13.7896 71.5833C18.4075 69.6956 23.4615 68.6552 28.7586 68.6552C40.3897 68.6552 50.8492 73.6714 58.0917 81.6583C66.5915 81.7647 74.446 84.5499 80.8497 89.2086C88.0986 81.1023 98.6373 76 110.368 76C112.484 76 114.561 76.166 116.588 76.4858C123.66 69.888 133.151 65.8506 143.586 65.8506C145.493 65.8506 147.369 65.9855 149.204 66.2462C156.123 54.7161 168.747 47 183.172 47C190.383 47 197.143 48.9277 202.966 52.2959C208.788 48.9277 215.548 47 222.759 47C241.242 47 256.766 59.6671 261.124 76.7937C262.162 76.8594 263.19 76.965 264.204 77.1092C271.123 65.5791 283.747 57.863 298.172 57.863C305.383 57.863 312.143 59.7908 317.966 63.159C323.788 59.7908 330.548 57.863 337.759 57.863C346.142 57.863 353.916 60.4688 360.316 64.9146C361.067 64.8721 361.824 64.8506 362.586 64.8506C364.493 64.8506 366.369 64.9855 368.204 65.2462C375.123 53.7161 387.747 46 402.172 46C409.383 46 416.143 47.9277 421.966 51.2959C427.788 47.9277 434.548 46 441.759 46C457.31 46 470.767 54.9673 477.24 68.0131C478.989 67.7771 480.773 67.6552 482.586 67.6552C487.883 67.6552 492.937 68.6956 497.555 70.5833C504.313 65.2101 512.868 62 522.172 62C531.477 62.0001 540.032 65.2101 546.79 70.5833C551.407 68.6956 556.462 67.6552 561.759 67.6552C573.39 67.6552 583.849 72.6714 591.092 80.6583C599.592 80.7647 607.446 83.5499 613.85 88.2086C621.099 80.1023 631.637 75 643.368 75C645.484 75 647.561 75.166 649.588 75.4858C656.66 68.888 666.151 64.8506 676.586 64.8506C678.493 64.8506 680.369 64.9855 682.204 65.2462C689.123 53.7161 701.747 46 716.172 46C723.383 46 730.143 47.9277 735.966 51.2959C741.788 47.9277 748.548 46 755.759 46C773.826 46 789.066 58.1033 793.813 74.644C800.433 69.6647 808.665 66.7136 817.586 66.7136C819.493 66.7136 821.369 66.8485 823.204 67.1092C830.123 55.5791 842.747 47.863 857.172 47.863C864.383 47.863 871.143 49.7908 876.966 53.159C882.788 49.7908 889.548 47.863 896.759 47.863C905.142 47.863 912.916 50.4688 919.316 54.9146C920.067 54.8721 920.824 54.8506 921.586 54.8506C923.493 54.8506 925.369 54.9855 927.204 55.2462C934.123 43.7161 946.747 36 961.172 36C968.383 36 975.143 37.9277 980.966 41.2959C986.788 37.9277 993.548 36 1000.76 36C1016.31 36 1029.77 44.9673 1036.24 58.0131C1037.99 57.7771 1039.77 57.6552 1041.59 57.6552C1046.88 57.6552 1051.94 58.6956 1056.56 60.5833C1063.31 55.2101 1071.87 52 1081.17 52C1090.48 52.0001 1099.03 55.2101 1105.79 60.5833C1110.41 58.6956 1115.46 57.6552 1120.76 57.6552C1132.39 57.6552 1142.85 62.6714 1150.09 70.6583C1158.59 70.7647 1166.45 73.5499 1172.85 78.2086C1180.1 70.1023 1190.64 65 1202.37 65C1204.48 65 1206.56 65.166 1208.59 65.4858C1215.66 58.888 1225.15 54.8506 1235.59 54.8506C1237.49 54.8506 1239.37 54.9855 1241.2 55.2462C1248.12 43.7161 1260.75 36 1275.17 36C1282.38 36 1289.14 37.9277 1294.97 41.2959C1300.79 37.9277 1307.55 36 1314.76 36C1333.24 36 1348.77 48.6671 1353.12 65.7937C1354.16 65.8594 1355.19 65.9651 1356.2 66.1092C1363.12 54.5791 1375.75 46.863 1390.17 46.863C1397.38 46.863 1404.14 48.7908 1409.97 52.159C1415.79 48.7908 1422.55 46.863 1429.76 46.863C1438.14 46.863 1445.92 49.4688 1452.32 53.9146C1453.07 53.8721 1453.82 53.8506 1454.59 53.8506C1456.49 53.8506 1458.37 53.9855 1460.2 54.2462C1467.12 42.7161 1479.75 35 1494.17 35C1501.38 35 1508.14 36.9277 1513.97 40.2959C1519.79 36.9277 1526.55 35 1533.76 35C1549.31 35 1562.77 43.9673 1569.24 57.0131C1570.99 56.7771 1572.77 56.6552 1574.59 56.6552C1579.88 56.6552 1584.94 57.6956 1589.56 59.5833C1596.31 54.2101 1604.87 51 1614.17 51C1623.48 51.0001 1632.03 54.2101 1638.79 59.5833C1643.41 57.6956 1648.46 56.6552 1653.76 56.6552C1665.39 56.6552 1675.85 61.6714 1683.09 69.6583C1691.59 69.7647 1699.45 72.5499 1705.85 77.2086C1713.1 69.1023 1723.64 64 1735.37 64C1737.48 64 1739.56 64.166 1741.59 64.4858C1748.66 57.888 1758.15 53.8506 1768.59 53.8506C1770.49 53.8506 1772.37 53.9855 1774.2 54.2462C1781.12 42.7161 1793.75 35 1808.17 35C1815.38 35 1822.14 36.9277 1827.97 40.2959C1833.79 36.9277 1840.55 35 1847.76 35C1869.62 35 1887.34 52.7233 1887.34 74.5862C1887.34 83.28 1884.54 91.3192 1879.79 97.8497C1887.9 105.099 1893 115.637 1893 127.368C1893 140.684 1886.43 152.464 1876.34 159.64C1876.34 163.451 1875.8 167.135 1874.79 170.622C1893.3 173.938 1907.34 190.122 1907.34 209.586C1907.34 218.28 1904.54 226.319 1899.79 232.85C1907.9 240.099 1913 250.637 1913 262.368C1913 280.807 1900.39 296.301 1883.33 300.702C1883.1 308.967 1880.34 316.599 1875.79 322.85C1883.9 330.099 1889 340.637 1889 352.368C1889 363.673 1884.26 373.871 1876.66 381.084C1891.14 386.971 1901.34 401.178 1901.34 417.769C1901.34 421.626 1900.79 425.355 1899.76 428.88C1904.32 435.329 1907 443.202 1907 451.7C1907 465.425 1900.01 477.519 1889.41 484.621C1900.21 491.689 1907.34 503.896 1907.34 517.769C1907.34 521.626 1906.79 525.355 1905.76 528.88C1910.32 535.329 1913 543.202 1913 551.7C1913 573.563 1895.28 591.286 1873.41 591.286C1871.51 591.286 1869.63 591.151 1867.8 590.891C1860.88 602.421 1848.25 610.137 1833.83 610.137C1826.62 610.137 1819.86 608.209 1814.03 604.841C1808.21 608.209 1801.45 610.137 1794.24 610.137C1785.86 610.137 1778.08 607.531 1771.68 603.085C1770.93 603.128 1770.18 603.149 1769.41 603.149C1767.51 603.149 1765.63 603.015 1763.8 602.754C1756.88 614.284 1744.25 622 1729.83 622C1722.62 622 1715.86 620.072 1710.03 616.704C1704.21 620.072 1697.45 622 1690.24 622C1674.69 622 1661.23 613.033 1654.76 599.987C1653.01 600.223 1651.23 600.345 1649.41 600.345C1644.12 600.345 1639.06 599.304 1634.44 597.417C1628.01 602.535 1619.94 605.691 1611.15 605.978ZM787.582 389C786.664 390.079 785.689 391.109 784.662 392.084C791.356 394.806 797.137 399.307 801.418 405C802.336 403.921 803.311 402.891 804.338 401.916C797.644 399.194 791.863 394.693 787.582 389ZM799.187 494.356C798.605 494.793 798.011 495.215 797.406 495.621C798.41 496.278 799.382 496.979 800.32 497.722C799.894 496.623 799.515 495.5 799.187 494.356Z"/>
</mask>
<path fill-rule="evenodd" clip-rule="evenodd" d="M1611.15 605.978C1607.36 623.896 1591.46 637.345 1572.41 637.345C1563.72 637.345 1555.68 634.542 1549.15 629.791C1541.9 637.898 1531.36 643 1519.63 643C1497.77 643 1480.05 625.277 1480.05 603.414C1480.05 599.998 1480.48 596.682 1481.29 593.52C1474.35 599.52 1465.31 603.149 1455.41 603.149C1453.51 603.149 1451.63 603.015 1449.8 602.754C1442.88 614.284 1430.25 622 1415.83 622C1408.62 622 1401.86 620.072 1396.03 616.704C1390.21 620.072 1383.45 622 1376.24 622C1357.76 622 1342.23 609.333 1337.88 592.206C1336.84 592.141 1335.81 592.035 1334.8 591.891C1327.88 603.421 1315.25 611.137 1300.83 611.137C1293.62 611.137 1286.86 609.209 1281.03 605.841C1275.21 609.209 1268.45 611.137 1261.24 611.137C1252.86 611.137 1245.08 608.531 1238.68 604.085C1237.93 604.128 1237.18 604.149 1236.41 604.149C1234.51 604.149 1232.63 604.015 1230.8 603.754C1223.88 615.284 1211.25 623 1196.83 623C1189.62 623 1182.86 621.072 1177.03 617.704C1171.21 621.072 1164.45 623 1157.24 623C1141.69 623 1128.23 614.033 1121.76 600.987C1120.01 601.223 1118.23 601.345 1116.41 601.345C1111.12 601.345 1106.06 600.304 1101.44 598.417C1095.01 603.535 1086.94 606.691 1078.15 606.978C1074.36 624.896 1058.46 638.345 1039.41 638.345C1030.72 638.345 1022.68 635.542 1016.15 630.791C1008.9 638.898 998.363 644 986.632 644C964.769 644 947.046 626.277 947.046 604.414C947.046 600.998 947.479 597.682 948.292 594.52C941.353 600.52 932.307 604.149 922.414 604.149C920.507 604.149 918.631 604.015 916.796 603.754C909.877 615.284 897.253 623 882.828 623C875.617 623 868.857 621.072 863.034 617.704C857.212 621.072 850.452 623 843.241 623C825.174 623 809.934 610.897 805.187 594.356C798.567 599.335 790.335 602.286 781.414 602.286C779.507 602.286 777.631 602.151 775.796 601.891C768.876 613.421 756.253 621.137 741.828 621.137C734.617 621.137 727.857 619.209 722.034 615.841C716.212 619.209 709.452 621.137 702.241 621.137C693.858 621.137 686.084 618.531 679.684 614.085C678.933 614.128 678.176 614.149 677.414 614.149C675.507 614.149 673.631 614.015 671.796 613.754C664.877 625.284 652.253 633 637.828 633C630.617 633 623.857 631.072 618.034 627.704C612.212 631.072 605.452 633 598.241 633C582.69 633 569.233 624.033 562.76 610.987C561.011 611.223 559.227 611.345 557.414 611.345C552.117 611.345 547.063 610.304 542.445 608.417C536.007 613.535 527.939 616.691 519.146 616.978C515.362 634.897 499.458 648.345 480.414 648.345C471.72 648.345 463.681 645.542 457.15 640.791C449.901 648.898 439.363 654 427.632 654C405.769 654 388.046 636.277 388.046 614.414C388.046 610.998 388.479 607.682 389.292 604.52C382.353 610.52 373.307 614.149 363.414 614.149C361.507 614.149 359.631 614.015 357.796 613.754C350.877 625.284 338.253 633 323.828 633C316.617 633 309.857 631.072 304.034 627.704C298.212 631.072 291.452 633 284.241 633C265.758 633 250.234 620.333 245.876 603.206C244.838 603.141 243.81 603.035 242.796 602.891C235.877 614.421 223.253 622.137 208.828 622.137C201.617 622.137 194.857 620.209 189.034 616.841C183.212 620.209 176.452 622.137 169.241 622.137C160.858 622.137 153.084 619.531 146.684 615.085C145.933 615.128 145.176 615.149 144.414 615.149C142.507 615.149 140.631 615.015 138.796 614.754C131.877 626.284 119.253 634 104.828 634C97.6172 634 90.8571 632.072 85.0345 628.704C79.2119 632.072 72.4518 634 65.2414 634C49.6902 634 36.2334 625.033 29.7597 611.987C28.0114 612.223 26.2268 612.345 24.4138 612.345C19.1167 612.345 14.0626 611.304 9.4447 609.417C3.00711 614.535 -5.061 617.691 -13.8545 617.978C-17.6384 635.896 -33.5418 649.345 -52.5862 649.345C-61.28 649.345 -69.3192 646.542 -75.8497 641.791C-83.0986 649.898 -93.6373 655 -105.368 655C-127.231 655 -144.954 637.277 -144.954 615.414C-144.954 611.998 -144.521 608.682 -143.708 605.52C-150.647 611.52 -159.693 615.149 -169.586 615.149C-171.493 615.149 -173.369 615.015 -175.204 614.754C-182.123 626.284 -194.747 634 -209.172 634C-216.383 634 -223.143 632.072 -228.966 628.704C-234.788 632.072 -241.548 634 -248.759 634C-270.621 634 -288.345 616.277 -288.345 594.414C-288.345 585.72 -285.542 577.681 -280.791 571.15C-288.898 563.901 -294 553.363 -294 541.632C-294 532.888 -291.165 524.806 -286.363 518.255C-291.374 511.623 -294.345 503.366 -294.345 494.414C-294.345 485.72 -291.542 477.681 -286.791 471.15C-294.898 463.901 -300 453.363 -300 441.632C-300 430.327 -295.261 420.129 -287.662 412.916C-302.138 407.029 -312.345 392.822 -312.345 376.231C-312.345 372.374 -311.793 368.645 -310.764 365.12C-315.322 358.671 -318 350.798 -318 342.3C-318 322.521 -303.494 306.13 -284.541 303.185C-286.98 298.046 -288.345 292.298 -288.345 286.231C-288.345 282.401 -287.801 278.698 -286.786 275.195C-305.297 271.879 -319.345 255.695 -319.345 236.231C-319.345 232.374 -318.793 228.645 -317.764 225.12C-322.322 218.671 -325 210.798 -325 202.3C-325 187.458 -316.832 174.523 -304.745 167.747C-307.056 162.72 -308.345 157.126 -308.345 151.231C-308.345 147.374 -307.793 143.645 -306.764 140.12C-311.322 133.671 -314 125.798 -314 117.3C-314 95.437 -296.277 77.7136 -274.414 77.7136C-272.507 77.7136 -270.631 77.8485 -268.796 78.1092C-261.877 66.5791 -249.253 58.863 -234.828 58.863C-227.617 58.863 -220.857 60.7908 -215.034 64.159C-209.212 60.7908 -202.452 58.863 -195.241 58.863C-186.858 58.863 -179.084 61.4688 -172.684 65.9146C-171.933 65.8721 -171.176 65.8506 -170.414 65.8506C-168.507 65.8506 -166.631 65.9855 -164.796 66.2462C-157.877 54.7161 -145.253 47 -130.828 47C-123.617 47 -116.857 48.9277 -111.034 52.2959C-105.212 48.9277 -98.4518 47 -91.2414 47C-75.6902 47 -62.2334 55.9673 -55.7597 69.0131C-54.0114 68.7771 -52.2268 68.6552 -50.4138 68.6552C-45.1167 68.6552 -40.0626 69.6956 -35.4447 71.5833C-28.6868 66.2101 -20.1321 63 -10.8276 63C-1.52307 63.0001 7.03168 66.2101 13.7896 71.5833C18.4075 69.6956 23.4615 68.6552 28.7586 68.6552C40.3897 68.6552 50.8492 73.6714 58.0917 81.6583C66.5915 81.7647 74.446 84.5499 80.8497 89.2086C88.0986 81.1023 98.6373 76 110.368 76C112.484 76 114.561 76.166 116.588 76.4858C123.66 69.888 133.151 65.8506 143.586 65.8506C145.493 65.8506 147.369 65.9855 149.204 66.2462C156.123 54.7161 168.747 47 183.172 47C190.383 47 197.143 48.9277 202.966 52.2959C208.788 48.9277 215.548 47 222.759 47C241.242 47 256.766 59.6671 261.124 76.7937C262.162 76.8594 263.19 76.965 264.204 77.1092C271.123 65.5791 283.747 57.863 298.172 57.863C305.383 57.863 312.143 59.7908 317.966 63.159C323.788 59.7908 330.548 57.863 337.759 57.863C346.142 57.863 353.916 60.4688 360.316 64.9146C361.067 64.8721 361.824 64.8506 362.586 64.8506C364.493 64.8506 366.369 64.9855 368.204 65.2462C375.123 53.7161 387.747 46 402.172 46C409.383 46 416.143 47.9277 421.966 51.2959C427.788 47.9277 434.548 46 441.759 46C457.31 46 470.767 54.9673 477.24 68.0131C478.989 67.7771 480.773 67.6552 482.586 67.6552C487.883 67.6552 492.937 68.6956 497.555 70.5833C504.313 65.2101 512.868 62 522.172 62C531.477 62.0001 540.032 65.2101 546.79 70.5833C551.407 68.6956 556.462 67.6552 561.759 67.6552C573.39 67.6552 583.849 72.6714 591.092 80.6583C599.592 80.7647 607.446 83.5499 613.85 88.2086C621.099 80.1023 631.637 75 643.368 75C645.484 75 647.561 75.166 649.588 75.4858C656.66 68.888 666.151 64.8506 676.586 64.8506C678.493 64.8506 680.369 64.9855 682.204 65.2462C689.123 53.7161 701.747 46 716.172 46C723.383 46 730.143 47.9277 735.966 51.2959C741.788 47.9277 748.548 46 755.759 46C773.826 46 789.066 58.1033 793.813 74.644C800.433 69.6647 808.665 66.7136 817.586 66.7136C819.493 66.7136 821.369 66.8485 823.204 67.1092C830.123 55.5791 842.747 47.863 857.172 47.863C864.383 47.863 871.143 49.7908 876.966 53.159C882.788 49.7908 889.548 47.863 896.759 47.863C905.142 47.863 912.916 50.4688 919.316 54.9146C920.067 54.8721 920.824 54.8506 921.586 54.8506C923.493 54.8506 925.369 54.9855 927.204 55.2462C934.123 43.7161 946.747 36 961.172 36C968.383 36 975.143 37.9277 980.966 41.2959C986.788 37.9277 993.548 36 1000.76 36C1016.31 36 1029.77 44.9673 1036.24 58.0131C1037.99 57.7771 1039.77 57.6552 1041.59 57.6552C1046.88 57.6552 1051.94 58.6956 1056.56 60.5833C1063.31 55.2101 1071.87 52 1081.17 52C1090.48 52.0001 1099.03 55.2101 1105.79 60.5833C1110.41 58.6956 1115.46 57.6552 1120.76 57.6552C1132.39 57.6552 1142.85 62.6714 1150.09 70.6583C1158.59 70.7647 1166.45 73.5499 1172.85 78.2086C1180.1 70.1023 1190.64 65 1202.37 65C1204.48 65 1206.56 65.166 1208.59 65.4858C1215.66 58.888 1225.15 54.8506 1235.59 54.8506C1237.49 54.8506 1239.37 54.9855 1241.2 55.2462C1248.12 43.7161 1260.75 36 1275.17 36C1282.38 36 1289.14 37.9277 1294.97 41.2959C1300.79 37.9277 1307.55 36 1314.76 36C1333.24 36 1348.77 48.6671 1353.12 65.7937C1354.16 65.8594 1355.19 65.9651 1356.2 66.1092C1363.12 54.5791 1375.75 46.863 1390.17 46.863C1397.38 46.863 1404.14 48.7908 1409.97 52.159C1415.79 48.7908 1422.55 46.863 1429.76 46.863C1438.14 46.863 1445.92 49.4688 1452.32 53.9146C1453.07 53.8721 1453.82 53.8506 1454.59 53.8506C1456.49 53.8506 1458.37 53.9855 1460.2 54.2462C1467.12 42.7161 1479.75 35 1494.17 35C1501.38 35 1508.14 36.9277 1513.97 40.2959C1519.79 36.9277 1526.55 35 1533.76 35C1549.31 35 1562.77 43.9673 1569.24 57.0131C1570.99 56.7771 1572.77 56.6552 1574.59 56.6552C1579.88 56.6552 1584.94 57.6956 1589.56 59.5833C1596.31 54.2101 1604.87 51 1614.17 51C1623.48 51.0001 1632.03 54.2101 1638.79 59.5833C1643.41 57.6956 1648.46 56.6552 1653.76 56.6552C1665.39 56.6552 1675.85 61.6714 1683.09 69.6583C1691.59 69.7647 1699.45 72.5499 1705.85 77.2086C1713.1 69.1023 1723.64 64 1735.37 64C1737.48 64 1739.56 64.166 1741.59 64.4858C1748.66 57.888 1758.15 53.8506 1768.59 53.8506C1770.49 53.8506 1772.37 53.9855 1774.2 54.2462C1781.12 42.7161 1793.75 35 1808.17 35C1815.38 35 1822.14 36.9277 1827.97 40.2959C1833.79 36.9277 1840.55 35 1847.76 35C1869.62 35 1887.34 52.7233 1887.34 74.5862C1887.34 83.28 1884.54 91.3192 1879.79 97.8497C1887.9 105.099 1893 115.637 1893 127.368C1893 140.684 1886.43 152.464 1876.34 159.64C1876.34 163.451 1875.8 167.135 1874.79 170.622C1893.3 173.938 1907.34 190.122 1907.34 209.586C1907.34 218.28 1904.54 226.319 1899.79 232.85C1907.9 240.099 1913 250.637 1913 262.368C1913 280.807 1900.39 296.301 1883.33 300.702C1883.1 308.967 1880.34 316.599 1875.79 322.85C1883.9 330.099 1889 340.637 1889 352.368C1889 363.673 1884.26 373.871 1876.66 381.084C1891.14 386.971 1901.34 401.178 1901.34 417.769C1901.34 421.626 1900.79 425.355 1899.76 428.88C1904.32 435.329 1907 443.202 1907 451.7C1907 465.425 1900.01 477.519 1889.41 484.621C1900.21 491.689 1907.34 503.896 1907.34 517.769C1907.34 521.626 1906.79 525.355 1905.76 528.88C1910.32 535.329 1913 543.202 1913 551.7C1913 573.563 1895.28 591.286 1873.41 591.286C1871.51 591.286 1869.63 591.151 1867.8 590.891C1860.88 602.421 1848.25 610.137 1833.83 610.137C1826.62 610.137 1819.86 608.209 1814.03 604.841C1808.21 608.209 1801.45 610.137 1794.24 610.137C1785.86 610.137 1778.08 607.531 1771.68 603.085C1770.93 603.128 1770.18 603.149 1769.41 603.149C1767.51 603.149 1765.63 603.015 1763.8 602.754C1756.88 614.284 1744.25 622 1729.83 622C1722.62 622 1715.86 620.072 1710.03 616.704C1704.21 620.072 1697.45 622 1690.24 622C1674.69 622 1661.23 613.033 1654.76 599.987C1653.01 600.223 1651.23 600.345 1649.41 600.345C1644.12 600.345 1639.06 599.304 1634.44 597.417C1628.01 602.535 1619.94 605.691 1611.15 605.978ZM787.582 389C786.664 390.079 785.689 391.109 784.662 392.084C791.356 394.806 797.137 399.307 801.418 405C802.336 403.921 803.311 402.891 804.338 401.916C797.644 399.194 791.863 394.693 787.582 389ZM799.187 494.356C798.605 494.793 798.011 495.215 797.406 495.621C798.41 496.278 799.382 496.979 800.32 497.722C799.894 496.623 799.515 495.5 799.187 494.356Z" fill="#EFEFEF"/>
<path d="M1611.15 605.978L1611.01 601.981L1607.88 602.083L1607.23 605.152L1611.15 605.978ZM1549.15 629.791L1551.5 626.557L1548.58 624.429L1546.17 627.125L1549.15 629.791ZM1481.29 593.52L1485.17 594.517L1488.35 582.127L1478.68 590.494L1481.29 593.52ZM1449.8 602.754L1450.36 598.794L1447.73 598.42L1446.37 600.696L1449.8 602.754ZM1396.03 616.704L1398.04 613.242L1396.03 612.083L1394.03 613.242L1396.03 616.704ZM1337.88 592.206L1341.75 591.22L1341.03 588.398L1338.13 588.214L1337.88 592.206ZM1334.8 591.891L1335.36 587.931L1332.73 587.557L1331.37 589.833L1334.8 591.891ZM1281.03 605.841L1283.04 602.379L1281.03 601.22L1279.03 602.379L1281.03 605.841ZM1238.68 604.085L1240.97 600.8L1239.83 600.014L1238.46 600.092L1238.68 604.085ZM1230.8 603.754L1231.36 599.794L1228.73 599.42L1227.37 601.696L1230.8 603.754ZM1177.03 617.704L1179.04 614.242L1177.03 613.083L1175.03 614.242L1177.03 617.704ZM1121.76 600.987L1125.34 599.209L1124.07 596.639L1121.22 597.023L1121.76 600.987ZM1101.44 598.417L1102.96 594.714L1100.79 593.828L1098.96 595.286L1101.44 598.417ZM1078.15 606.978L1078.01 602.981L1074.88 603.083L1074.23 606.152L1078.15 606.978ZM1016.15 630.791L1018.5 627.557L1015.58 625.429L1013.17 628.125L1016.15 630.791ZM948.292 594.52L952.166 595.517L955.354 583.127L945.676 591.494L948.292 594.52ZM916.796 603.754L917.358 599.794L914.731 599.42L913.366 601.696L916.796 603.754ZM863.034 617.704L865.037 614.242L863.034 613.083L861.031 614.242L863.034 617.704ZM805.187 594.356L809.032 593.252L807.428 587.665L802.782 591.159L805.187 594.356ZM775.796 601.891L776.358 597.931L773.731 597.557L772.366 599.833L775.796 601.891ZM722.034 615.841L724.037 612.379L722.034 611.22L720.031 612.379L722.034 615.841ZM679.684 614.085L681.966 610.8L680.834 610.014L679.458 610.092L679.684 614.085ZM671.796 613.754L672.358 609.794L669.731 609.42L668.366 611.696L671.796 613.754ZM618.034 627.704L620.037 624.242L618.034 623.083L616.032 624.242L618.034 627.704ZM562.76 610.987L566.343 609.209L565.068 606.639L562.225 607.023L562.76 610.987ZM542.445 608.417L543.958 604.714L541.789 603.828L539.955 605.286L542.445 608.417ZM519.146 616.978L519.015 612.981L515.88 613.083L515.232 616.152L519.146 616.978ZM457.15 640.791L459.503 637.557L456.579 635.429L454.169 638.125L457.15 640.791ZM389.292 604.52L393.166 605.517L396.354 593.126L386.676 601.494L389.292 604.52ZM357.796 613.754L358.358 609.794L355.731 609.42L354.366 611.696L357.796 613.754ZM304.034 627.704L306.037 624.242L304.034 623.083L302.032 624.242L304.034 627.704ZM245.876 603.206L249.752 602.22L249.034 599.398L246.128 599.214L245.876 603.206ZM242.796 602.891L243.358 598.931L240.731 598.557L239.366 600.833L242.796 602.891ZM189.034 616.841L191.037 613.379L189.034 612.22L187.032 613.379L189.034 616.841ZM146.684 615.085L148.966 611.8L147.834 611.014L146.458 611.092L146.684 615.085ZM138.796 614.754L139.358 610.794L136.731 610.42L135.366 612.696L138.796 614.754ZM85.0345 628.704L87.0374 625.242L85.0345 624.083L83.0316 625.242L85.0345 628.704ZM29.7597 611.987L33.3428 610.209L32.0676 607.639L29.2246 608.023L29.7597 611.987ZM9.4447 609.417L10.9582 605.714L8.78934 604.828L6.95532 606.286L9.4447 609.417ZM-13.8545 617.978L-13.9853 613.981L-17.1201 614.083L-17.7682 617.152L-13.8545 617.978ZM-75.8497 641.791L-73.4965 638.557L-76.4209 636.429L-78.8314 639.125L-75.8497 641.791ZM-143.708 605.52L-139.834 606.517L-136.646 594.127L-146.324 602.494L-143.708 605.52ZM-175.204 614.754L-174.642 610.794L-177.269 610.42L-178.634 612.696L-175.204 614.754ZM-228.966 628.704L-226.963 625.242L-228.966 624.083L-230.968 625.242L-228.966 628.704ZM-288.345 594.414L-284.345 594.414V594.414H-288.345ZM-280.791 571.15L-277.557 573.503L-275.429 570.579L-278.125 568.169L-280.791 571.15ZM-286.363 518.255L-283.137 520.619L-281.377 518.218L-283.172 515.843L-286.363 518.255ZM-286.791 471.15L-283.557 473.503L-281.429 470.579L-284.125 468.169L-286.791 471.15ZM-287.662 412.916L-284.908 415.817L-280.409 411.547L-286.155 409.211L-287.662 412.916ZM-310.764 365.12L-306.925 366.241L-306.384 364.388L-307.498 362.812L-310.764 365.12ZM-284.541 303.185L-283.927 307.137L-278.628 306.314L-280.927 301.47L-284.541 303.185ZM-286.786 275.195L-282.944 276.308L-281.708 272.041L-286.081 271.258L-286.786 275.195ZM-317.764 225.12L-313.925 226.241L-313.384 224.388L-314.498 222.812L-317.764 225.12ZM-304.745 167.747L-302.789 171.236L-299.569 169.43L-301.111 166.076L-304.745 167.747ZM-306.764 140.12L-302.925 141.241L-302.384 139.388L-303.498 137.812L-306.764 140.12ZM-268.796 78.1092L-269.358 82.0695L-266.731 82.4427L-265.366 80.1674L-268.796 78.1092ZM-215.034 64.159L-217.037 67.6214L-215.034 68.78L-213.032 67.6214L-215.034 64.159ZM-172.684 65.9146L-174.966 69.1997L-173.834 69.986L-172.458 69.9082L-172.684 65.9146ZM-164.796 66.2462L-165.358 70.2064L-162.731 70.5797L-161.366 68.3044L-164.796 66.2462ZM-111.034 52.2959L-113.037 55.7584L-111.034 56.917L-109.032 55.7584L-111.034 52.2959ZM-55.7597 69.0131L-59.3428 70.7911L-58.0676 73.3609L-55.2246 72.9772L-55.7597 69.0131ZM-35.4447 71.5833L-36.9582 75.2859L-34.7894 76.1724L-32.9553 74.7142L-35.4447 71.5833ZM-10.8276 63L-10.8276 59H-10.8276V63ZM13.7896 71.5833L11.3002 74.7142L13.1342 76.1724L15.3031 75.2859L13.7896 71.5833ZM58.0917 81.6583L55.1286 84.3453L56.2992 85.6362L58.0417 85.658L58.0917 81.6583ZM80.8497 89.2086L78.4965 92.4432L81.4209 94.5706L83.8314 91.8749L80.8497 89.2086ZM116.588 76.4858L115.964 80.4369L117.89 80.7409L119.316 79.4106L116.588 76.4858ZM149.204 66.2462L148.642 70.2064L151.269 70.5797L152.634 68.3044L149.204 66.2462ZM202.966 52.2959L200.963 55.7583L202.966 56.917L204.968 55.7584L202.966 52.2959ZM261.124 76.7937L257.248 77.7801L257.966 80.6018L260.872 80.7857L261.124 76.7937ZM264.204 77.1092L263.642 81.0695L266.269 81.4427L267.634 79.1674L264.204 77.1092ZM317.966 63.159L315.963 66.6214L317.966 67.78L319.968 66.6214L317.966 63.159ZM360.316 64.9146L358.034 68.1997L359.166 68.986L360.542 68.9082L360.316 64.9146ZM368.204 65.2462L367.642 69.2064L370.269 69.5797L371.634 67.3044L368.204 65.2462ZM421.966 51.2959L419.963 54.7583L421.966 55.917L423.968 54.7583L421.966 51.2959ZM477.24 68.0131L473.657 69.7911L474.932 72.3609L477.775 71.9772L477.24 68.0131ZM497.555 70.5833L496.042 74.2859L498.211 75.1724L500.045 73.7142L497.555 70.5833ZM522.172 62L522.172 58H522.172V62ZM546.79 70.5833L544.3 73.7142L546.134 75.1724L548.303 74.2859L546.79 70.5833ZM591.092 80.6583L588.129 83.3453L589.299 84.6362L591.042 84.658L591.092 80.6583ZM613.85 88.2086L611.497 91.4432L614.421 93.5706L616.831 90.8749L613.85 88.2086ZM649.588 75.4858L648.964 79.4369L650.89 79.7409L652.316 78.4106L649.588 75.4858ZM682.204 65.2462L681.642 69.2064L684.269 69.5797L685.634 67.3044L682.204 65.2462ZM735.966 51.2959L733.963 54.7584L735.966 55.917L737.969 54.7583L735.966 51.2959ZM793.813 74.644L789.968 75.7475L791.572 81.335L796.218 77.8406L793.813 74.644ZM823.204 67.1092L822.642 71.0695L825.269 71.4427L826.634 69.1674L823.204 67.1092ZM876.966 53.159L874.963 56.6214L876.966 57.78L878.969 56.6214L876.966 53.159ZM919.316 54.9146L917.034 58.1997L918.166 58.986L919.542 58.9082L919.316 54.9146ZM927.204 55.2462L926.642 59.2064L929.269 59.5797L930.634 57.3044L927.204 55.2462ZM980.966 41.2959L978.963 44.7584L980.966 45.917L982.969 44.7583L980.966 41.2959ZM1036.24 58.0131L1032.66 59.7911L1033.93 62.3609L1036.78 61.9772L1036.24 58.0131ZM1041.59 57.6552L1041.59 53.6552H1041.59V57.6552ZM1056.56 60.5833L1055.04 64.2859L1057.21 65.1724L1059.04 63.7142L1056.56 60.5833ZM1081.17 52L1081.17 48H1081.17V52ZM1105.79 60.5833L1103.3 63.7142L1105.13 65.1724L1107.3 64.2859L1105.79 60.5833ZM1150.09 70.6583L1147.13 73.3453L1148.3 74.6362L1150.04 74.658L1150.09 70.6583ZM1172.85 78.2086L1170.5 81.4432L1173.42 83.5706L1175.83 80.8749L1172.85 78.2086ZM1208.59 65.4858L1207.96 69.4369L1209.89 69.7409L1211.32 68.4106L1208.59 65.4858ZM1241.2 55.2462L1240.64 59.2064L1243.27 59.5797L1244.63 57.3044L1241.2 55.2462ZM1294.97 41.2959L1292.96 44.7584L1294.97 45.917L1296.97 44.7583L1294.97 41.2959ZM1353.12 65.7937L1349.25 66.7801L1349.97 69.6018L1352.87 69.7857L1353.12 65.7937ZM1356.2 66.1092L1355.64 70.0695L1358.27 70.4427L1359.63 68.1674L1356.2 66.1092ZM1409.97 52.159L1407.96 55.6214L1409.97 56.78L1411.97 55.6214L1409.97 52.159ZM1452.32 53.9146L1450.03 57.1997L1451.17 57.986L1452.54 57.9082L1452.32 53.9146ZM1460.2 54.2462L1459.64 58.2064L1462.27 58.5797L1463.63 56.3044L1460.2 54.2462ZM1513.97 40.2959L1511.96 43.7584L1513.97 44.917L1515.97 43.7583L1513.97 40.2959ZM1569.24 57.0131L1565.66 58.7911L1566.93 61.3609L1569.78 60.9772L1569.24 57.0131ZM1574.59 56.6552L1574.59 52.6552H1574.59V56.6552ZM1589.56 59.5833L1588.04 63.2859L1590.21 64.1724L1592.04 62.7142L1589.56 59.5833ZM1614.17 51L1614.17 47H1614.17V51ZM1638.79 59.5833L1636.3 62.7142L1638.13 64.1724L1640.3 63.2859L1638.79 59.5833ZM1683.09 69.6583L1680.13 72.3453L1681.3 73.6362L1683.04 73.658L1683.09 69.6583ZM1705.85 77.2086L1703.5 80.4432L1706.42 82.5706L1708.83 79.8749L1705.85 77.2086ZM1741.59 64.4858L1740.96 68.4369L1742.89 68.7409L1744.32 67.4106L1741.59 64.4858ZM1774.2 54.2462L1773.64 58.2064L1776.27 58.5797L1777.63 56.3044L1774.2 54.2462ZM1827.97 40.2959L1825.96 43.7583L1827.97 44.917L1829.97 43.7583L1827.97 40.2959ZM1879.79 97.8497L1876.56 95.4966L1874.43 98.4209L1877.13 100.831L1879.79 97.8497ZM1876.34 159.64L1874.03 156.381L1872.35 157.575L1872.34 159.635L1876.34 159.64ZM1874.79 170.622L1870.94 169.509L1869.71 173.776L1874.08 174.559L1874.79 170.622ZM1899.79 232.85L1896.56 230.497L1894.43 233.421L1897.13 235.831L1899.79 232.85ZM1883.33 300.702L1882.33 296.829L1879.41 297.581L1879.33 300.591L1883.33 300.702ZM1875.79 322.85L1872.56 320.497L1870.43 323.421L1873.13 325.831L1875.79 322.85ZM1876.66 381.084L1873.91 378.183L1869.41 382.453L1875.15 384.789L1876.66 381.084ZM1899.76 428.88L1895.92 427.759L1895.38 429.612L1896.5 431.188L1899.76 428.88ZM1889.41 484.621L1887.18 481.296L1882.16 484.658L1887.22 487.968L1889.41 484.621ZM1905.76 528.88L1901.92 527.759L1901.38 529.612L1902.5 531.188L1905.76 528.88ZM1867.8 590.891L1868.36 586.931L1865.73 586.557L1864.37 588.833L1867.8 590.891ZM1814.03 604.841L1816.04 601.379L1814.03 600.22L1812.03 601.379L1814.03 604.841ZM1771.68 603.085L1773.97 599.8L1772.83 599.014L1771.46 599.092L1771.68 603.085ZM1763.8 602.754L1764.36 598.794L1761.73 598.42L1760.37 600.696L1763.8 602.754ZM1710.03 616.704L1712.04 613.242L1710.03 612.083L1708.03 613.242L1710.03 616.704ZM1654.76 599.987L1658.34 598.209L1657.07 595.639L1654.22 596.023L1654.76 599.987ZM1634.44 597.417L1635.96 593.714L1633.79 592.828L1631.96 594.286L1634.44 597.417ZM784.662 392.084L781.908 389.183L777.409 393.453L783.155 395.789L784.662 392.084ZM787.582 389L790.779 386.596L787.774 382.6L784.535 386.408L787.582 389ZM801.418 405L798.221 407.404L801.226 411.401L804.465 407.592L801.418 405ZM804.338 401.916L807.092 404.817L811.591 400.547L805.845 398.211L804.338 401.916ZM797.406 495.621L795.181 492.297L790.158 495.658L795.216 498.968L797.406 495.621ZM799.187 494.356L803.032 493.252L801.428 487.665L796.782 491.159L799.187 494.356ZM800.32 497.722L797.836 500.857L809.368 509.992L804.049 496.276L800.32 497.722ZM1572.41 641.345C1593.39 641.345 1610.89 626.535 1615.06 606.805L1607.23 605.152C1603.83 621.258 1589.53 633.345 1572.41 633.345V641.345ZM1546.8 633.026C1553.99 638.258 1562.85 641.345 1572.41 641.345V633.345C1564.59 633.345 1557.37 630.827 1551.5 626.557L1546.8 633.026ZM1519.63 647C1532.55 647 1544.16 641.377 1552.13 632.458L1546.17 627.125C1539.65 634.419 1530.18 639 1519.63 639V647ZM1476.05 603.414C1476.05 627.486 1495.56 647 1519.63 647V639C1499.98 639 1484.05 623.068 1484.05 603.414H1476.05ZM1477.42 592.524C1476.52 596.009 1476.05 599.658 1476.05 603.414H1484.05C1484.05 600.337 1484.44 597.356 1485.17 594.517L1477.42 592.524ZM1455.41 607.149C1466.3 607.149 1476.27 603.15 1483.91 596.546L1478.68 590.494C1472.44 595.89 1464.31 599.149 1455.41 599.149V607.149ZM1449.23 606.714C1451.25 607.001 1453.32 607.149 1455.41 607.149V599.149C1453.7 599.149 1452.01 599.028 1450.36 598.794L1449.23 606.714ZM1415.83 626C1431.72 626 1445.61 617.497 1453.23 604.812L1446.37 600.696C1440.14 611.071 1428.79 618 1415.83 618V626ZM1394.03 620.166C1400.45 623.877 1407.9 626 1415.83 626V618C1409.34 618 1403.27 616.267 1398.04 613.242L1394.03 620.166ZM1376.24 626C1384.17 626 1391.62 623.877 1398.04 620.166L1394.03 613.242C1388.8 616.267 1382.73 618 1376.24 618V626ZM1334 593.193C1338.8 612.049 1355.89 626 1376.24 626V618C1359.63 618 1345.67 606.617 1341.75 591.22L1334 593.193ZM1334.23 595.851C1335.35 596.01 1336.48 596.126 1337.62 596.198L1338.13 588.214C1337.19 588.155 1336.27 588.06 1335.36 587.931L1334.23 595.851ZM1300.83 615.137C1316.72 615.137 1330.61 606.634 1338.23 593.949L1331.37 589.833C1325.14 600.208 1313.79 607.137 1300.83 607.137V615.137ZM1279.03 609.303C1285.45 613.014 1292.9 615.137 1300.83 615.137V607.137C1294.34 607.137 1288.27 605.404 1283.04 602.379L1279.03 609.303ZM1261.24 615.137C1269.17 615.137 1276.62 613.014 1283.04 609.303L1279.03 602.379C1273.8 605.404 1267.73 607.137 1261.24 607.137V615.137ZM1236.4 607.371C1243.45 612.267 1252.02 615.137 1261.24 615.137V607.137C1253.7 607.137 1246.72 604.796 1240.97 600.8L1236.4 607.371ZM1236.41 608.149C1237.25 608.149 1238.08 608.126 1238.91 608.079L1238.46 600.092C1237.78 600.13 1237.1 600.149 1236.41 600.149V608.149ZM1230.23 607.714C1232.25 608.001 1234.32 608.149 1236.41 608.149V600.149C1234.7 600.149 1233.01 600.028 1231.36 599.794L1230.23 607.714ZM1196.83 627C1212.72 627 1226.61 618.497 1234.23 605.812L1227.37 601.696C1221.14 612.071 1209.79 619 1196.83 619V627ZM1175.03 621.166C1181.45 624.877 1188.9 627 1196.83 627V619C1190.34 619 1184.27 617.267 1179.04 614.242L1175.03 621.166ZM1157.24 627C1165.17 627 1172.62 624.877 1179.04 621.166L1175.03 614.242C1169.8 617.267 1163.73 619 1157.24 619V627ZM1118.18 602.765C1125.3 617.119 1140.11 627 1157.24 627V619C1143.27 619 1131.17 610.946 1125.34 599.209L1118.18 602.765ZM1116.41 605.345C1118.41 605.345 1120.37 605.211 1122.29 604.951L1121.22 597.023C1119.65 597.235 1118.05 597.345 1116.41 597.345V605.345ZM1099.93 602.119C1105.02 604.2 1110.59 605.345 1116.41 605.345V597.345C1111.64 597.345 1107.1 596.409 1102.96 594.714L1099.93 602.119ZM1078.28 610.976C1087.96 610.66 1096.85 607.182 1103.93 601.548L1098.96 595.286C1093.17 599.888 1085.92 602.722 1078.01 602.981L1078.28 610.976ZM1039.41 642.345C1060.39 642.345 1077.89 627.535 1082.06 607.805L1074.23 606.152C1070.83 622.258 1056.53 634.345 1039.41 634.345V642.345ZM1013.8 634.026C1020.99 639.258 1029.85 642.345 1039.41 642.345V634.345C1031.59 634.345 1024.37 631.827 1018.5 627.557L1013.8 634.026ZM986.632 648C999.548 648 1011.16 642.377 1019.13 633.458L1013.17 628.125C1006.65 635.419 997.177 640 986.632 640V648ZM943.046 604.414C943.046 628.486 962.56 648 986.632 648V640C966.978 640 951.046 624.068 951.046 604.414H943.046ZM944.419 593.524C943.522 597.009 943.046 600.658 943.046 604.414H951.046C951.046 601.337 951.436 598.356 952.166 595.517L944.419 593.524ZM922.414 608.149C933.304 608.149 943.27 604.15 950.909 597.546L945.676 591.494C939.436 596.89 931.311 600.149 922.414 600.149V608.149ZM916.233 607.714C918.254 608.001 920.318 608.149 922.414 608.149V600.149C920.695 600.149 919.008 600.028 917.358 599.794L916.233 607.714ZM882.828 627C898.716 627 912.614 618.497 920.225 605.812L913.366 601.696C907.14 612.071 895.791 619 882.828 619V627ZM861.032 621.166C867.447 624.877 874.895 627 882.828 627V619C876.339 619 870.268 617.267 865.037 614.242L861.032 621.166ZM843.241 627C851.174 627 858.622 624.877 865.037 621.166L861.031 614.242C855.801 617.267 849.73 619 843.241 619V627ZM801.342 595.459C806.569 613.669 823.343 627 843.241 627V619C827.006 619 813.3 608.124 809.032 593.252L801.342 595.459ZM781.414 606.286C791.232 606.286 800.302 603.035 807.591 597.553L802.782 591.159C796.832 595.635 789.438 598.286 781.414 598.286V606.286ZM775.233 605.851C777.254 606.138 779.318 606.286 781.414 606.286V598.286C779.695 598.286 778.008 598.165 776.358 597.931L775.233 605.851ZM741.828 625.137C757.716 625.137 771.613 616.634 779.225 603.949L772.366 599.833C766.139 610.208 754.791 617.137 741.828 617.137V625.137ZM720.032 619.303C726.447 623.014 733.895 625.137 741.828 625.137V617.137C735.339 617.137 729.268 615.404 724.037 612.379L720.032 619.303ZM702.241 625.137C710.174 625.137 717.622 623.014 724.037 619.303L720.031 612.379C714.801 615.404 708.73 617.137 702.241 617.137V625.137ZM677.402 617.371C684.45 622.267 693.017 625.137 702.241 625.137V617.137C694.7 617.137 687.718 614.796 681.966 610.8L677.402 617.371ZM677.414 618.149C678.251 618.149 679.083 618.126 679.91 618.079L679.458 610.092C678.782 610.13 678.1 610.149 677.414 610.149V618.149ZM671.233 617.714C673.254 618.001 675.318 618.149 677.414 618.149V610.149C675.695 610.149 674.008 610.028 672.358 609.794L671.233 617.714ZM637.828 637C653.716 637 667.614 628.497 675.225 615.812L668.366 611.696C662.14 622.071 650.791 629 637.828 629V637ZM616.032 631.166C622.447 634.877 629.895 637 637.828 637V629C631.339 629 625.268 627.267 620.037 624.242L616.032 631.166ZM598.241 637C606.174 637 613.622 634.877 620.037 631.166L616.032 624.242C610.801 627.267 604.73 629 598.241 629V637ZM559.177 612.765C566.3 627.119 581.113 637 598.241 637V629C584.267 629 572.167 620.946 566.343 609.209L559.177 612.765ZM557.414 615.345C559.406 615.345 561.37 615.211 563.295 614.951L562.225 607.023C560.653 607.235 559.047 607.345 557.414 607.345V615.345ZM540.931 612.119C546.021 614.2 551.589 615.345 557.414 615.345V607.345C552.645 607.345 548.104 606.409 543.958 604.714L540.931 612.119ZM519.276 620.976C528.958 620.66 537.847 617.182 544.934 611.548L539.955 605.286C534.167 609.888 526.92 612.722 519.015 612.981L519.276 620.976ZM480.414 652.345C501.387 652.345 518.893 637.535 523.059 617.805L515.232 616.152C511.831 632.258 497.529 644.345 480.414 644.345V652.345ZM454.797 644.026C461.988 649.258 470.846 652.345 480.414 652.345V644.345C472.594 644.345 465.373 641.827 459.503 637.557L454.797 644.026ZM427.632 658C440.548 658 452.156 652.377 460.132 643.458L454.169 638.125C447.646 645.419 438.177 650 427.632 650V658ZM384.046 614.414C384.046 638.486 403.56 658 427.632 658V650C407.978 650 392.046 634.068 392.046 614.414H384.046ZM385.419 603.523C384.522 607.009 384.046 610.659 384.046 614.414H392.046C392.046 611.337 392.436 608.356 393.166 605.517L385.419 603.523ZM363.414 618.149C374.304 618.149 384.27 614.15 391.909 607.546L386.676 601.494C380.436 606.89 372.311 610.149 363.414 610.149V618.149ZM357.233 617.714C359.254 618.001 361.318 618.149 363.414 618.149V610.149C361.695 610.149 360.008 610.028 358.358 609.794L357.233 617.714ZM323.828 637C339.716 637 353.614 628.497 361.225 615.812L354.366 611.696C348.14 622.071 336.791 629 323.828 629V637ZM302.032 631.166C308.447 634.877 315.895 637 323.828 637V629C317.339 629 311.268 627.267 306.037 624.242L302.032 631.166ZM284.241 637C292.174 637 299.622 634.877 306.037 631.166L302.032 624.242C296.801 627.267 290.73 629 284.241 629V637ZM241.999 604.193C246.798 623.049 263.885 637 284.241 637V629C267.631 629 253.67 617.617 249.752 602.22L241.999 604.193ZM242.233 606.851C243.35 607.01 244.481 607.126 245.623 607.198L246.128 599.214C245.194 599.155 244.27 599.06 243.358 598.931L242.233 606.851ZM208.828 626.137C224.716 626.137 238.614 617.634 246.225 604.949L239.366 600.833C233.14 611.208 221.791 618.137 208.828 618.137V626.137ZM187.032 620.303C193.447 624.014 200.895 626.137 208.828 626.137V618.137C202.339 618.137 196.268 616.404 191.037 613.379L187.032 620.303ZM169.241 626.137C177.174 626.137 184.622 624.014 191.037 620.303L187.032 613.379C181.801 616.404 175.73 618.137 169.241 618.137V626.137ZM144.402 618.371C151.45 623.267 160.017 626.137 169.241 626.137V618.137C161.7 618.137 154.718 615.796 148.966 611.8L144.402 618.371ZM144.414 619.149C145.251 619.149 146.083 619.126 146.91 619.079L146.458 611.092C145.782 611.13 145.1 611.149 144.414 611.149V619.149ZM138.233 618.714C140.254 619.001 142.318 619.149 144.414 619.149V611.149C142.695 611.149 141.008 611.028 139.358 610.794L138.233 618.714ZM104.828 638C120.716 638 134.613 629.497 142.225 616.812L135.366 612.696C129.14 623.071 117.791 630 104.828 630V638ZM83.0316 632.166C89.4466 635.877 96.8953 638 104.828 638V630C98.3391 630 92.2676 628.267 87.0374 625.242L83.0316 632.166ZM65.2414 638C73.1737 638 80.6224 635.877 87.0374 632.166L83.0316 625.242C77.8014 628.267 71.7298 630 65.2414 630V638ZM26.1766 613.765C33.2996 628.119 48.1129 638 65.2414 638V630C51.2674 630 39.1672 621.946 33.3428 610.209L26.1766 613.765ZM24.4138 616.345C26.4063 616.345 28.3696 616.211 30.2949 615.951L29.2246 608.023C27.6531 608.235 26.0473 608.345 24.4138 608.345V616.345ZM7.9312 613.119C13.0212 615.2 18.5888 616.345 24.4138 616.345V608.345C19.6445 608.345 15.1039 607.409 10.9582 605.714L7.9312 613.119ZM-13.7237 621.976C-4.04191 621.66 4.84723 618.182 11.9341 612.548L6.95532 606.286C1.167 610.888 -6.0801 613.722 -13.9853 613.981L-13.7237 621.976ZM-52.5862 653.345C-31.6126 653.345 -14.1073 638.535 -9.94084 618.805L-17.7682 617.152C-21.1694 633.258 -35.4709 645.345 -52.5862 645.345V653.345ZM-78.2029 645.026C-71.0116 650.258 -62.1536 653.345 -52.5862 653.345V645.345C-60.4064 645.345 -67.6268 642.827 -73.4965 638.557L-78.2029 645.026ZM-105.368 659C-92.4516 659 -80.8436 653.377 -72.868 644.458L-78.8314 639.125C-85.3536 646.419 -94.8231 651 -105.368 651V659ZM-148.954 615.414C-148.954 639.486 -129.44 659 -105.368 659V651C-125.022 651 -140.954 635.068 -140.954 615.414H-148.954ZM-147.581 604.523C-148.478 608.009 -148.954 611.659 -148.954 615.414H-140.954C-140.954 612.337 -140.564 609.356 -139.834 606.517L-147.581 604.523ZM-169.586 619.149C-158.696 619.149 -148.73 615.15 -141.091 608.546L-146.324 602.494C-152.564 607.89 -160.689 611.149 -169.586 611.149V619.149ZM-175.767 618.714C-173.746 619.001 -171.682 619.149 -169.586 619.149V611.149C-171.305 611.149 -172.992 611.028 -174.642 610.794L-175.767 618.714ZM-209.172 638C-193.284 638 -179.386 629.497 -171.775 616.812L-178.634 612.696C-184.86 623.071 -196.209 630 -209.172 630V638ZM-230.968 632.166C-224.553 635.877 -217.105 638 -209.172 638V630C-215.661 630 -221.732 628.267 -226.963 625.242L-230.968 632.166ZM-248.759 638C-240.826 638 -233.378 635.877 -226.963 632.166L-230.968 625.242C-236.199 628.267 -242.27 630 -248.759 630V638ZM-292.345 594.414C-292.345 618.486 -272.831 638 -248.759 638V630C-268.412 630 -284.345 614.067 -284.345 594.414L-292.345 594.414ZM-284.026 568.797C-289.258 575.988 -292.345 584.846 -292.345 594.414H-284.345C-284.345 586.594 -281.827 579.373 -277.557 573.503L-284.026 568.797ZM-298 541.632C-298 554.548 -292.377 566.156 -283.458 574.132L-278.125 568.169C-285.419 561.646 -290 552.177 -290 541.632H-298ZM-289.59 515.89C-294.877 523.104 -298 532.009 -298 541.632H-290C-290 533.766 -287.453 526.507 -283.137 520.619L-289.59 515.89ZM-298.345 494.414C-298.345 504.266 -295.071 513.364 -289.555 520.666L-283.172 515.843C-287.676 509.882 -290.345 502.466 -290.345 494.414H-298.345ZM-290.026 468.797C-295.258 475.988 -298.345 484.846 -298.345 494.414H-290.345C-290.345 486.594 -287.827 479.373 -283.557 473.503L-290.026 468.797ZM-304 441.632C-304 454.548 -298.377 466.156 -289.458 474.132L-284.125 468.169C-291.419 461.646 -296 452.177 -296 441.632H-304ZM-290.415 410.015C-298.778 417.952 -304 429.185 -304 441.632H-296C-296 431.469 -291.745 422.307 -284.908 415.817L-290.415 410.015ZM-316.345 376.231C-316.345 394.505 -305.101 410.142 -289.169 416.621L-286.155 409.211C-299.176 403.915 -308.345 391.139 -308.345 376.231H-316.345ZM-314.604 363.999C-315.738 367.885 -316.345 371.99 -316.345 376.231H-308.345C-308.345 372.757 -307.848 369.405 -306.925 366.241L-314.604 363.999ZM-322 342.3C-322 351.651 -319.05 360.326 -314.031 367.429L-307.498 362.812C-311.594 357.015 -314 349.944 -314 342.3H-322ZM-285.155 299.232C-306.027 302.475 -322 320.519 -322 342.3H-314C-314 324.523 -300.962 309.784 -283.927 307.137L-285.155 299.232ZM-292.345 286.231C-292.345 292.903 -290.843 299.236 -288.154 304.9L-280.927 301.47C-283.117 296.855 -284.345 291.692 -284.345 286.231H-292.345ZM-290.628 274.082C-291.747 277.943 -292.345 282.021 -292.345 286.231H-284.345C-284.345 282.781 -283.855 279.453 -282.944 276.308L-290.628 274.082ZM-323.345 236.231C-323.345 257.666 -307.875 275.481 -287.492 279.132L-286.081 271.258C-302.718 268.277 -315.345 253.724 -315.345 236.231H-323.345ZM-321.604 223.999C-322.738 227.885 -323.345 231.99 -323.345 236.231H-315.345C-315.345 232.757 -314.848 229.405 -313.925 226.241L-321.604 223.999ZM-329 202.3C-329 211.651 -326.05 220.326 -321.031 227.429L-314.498 222.812C-318.594 217.015 -321 209.944 -321 202.3H-329ZM-306.702 164.258C-319.999 171.713 -329 185.953 -329 202.3H-321C-321 188.963 -313.665 177.333 -302.789 171.236L-306.702 164.258ZM-312.345 151.231C-312.345 157.714 -310.927 163.877 -308.38 169.417L-301.111 166.076C-303.186 161.563 -304.345 156.538 -304.345 151.231H-312.345ZM-310.604 138.999C-311.738 142.885 -312.345 146.99 -312.345 151.231H-304.345C-304.345 147.757 -303.848 144.405 -302.925 141.241L-310.604 138.999ZM-318 117.3C-318 126.651 -315.05 135.326 -310.031 142.429L-303.498 137.812C-307.594 132.015 -310 124.944 -310 117.3H-318ZM-274.414 73.7136C-298.486 73.7136 -318 93.2278 -318 117.3H-310C-310 97.6461 -294.068 81.7136 -274.414 81.7136V73.7136ZM-268.233 74.149C-270.254 73.8619 -272.318 73.7136 -274.414 73.7136V81.7136C-272.695 81.7136 -271.008 81.8351 -269.358 82.0695L-268.233 74.149ZM-234.828 54.863C-250.716 54.863 -264.614 63.3663 -272.225 76.051L-265.366 80.1674C-259.14 69.792 -247.791 62.863 -234.828 62.863V54.863ZM-213.032 60.6965C-219.447 56.9857 -226.895 54.863 -234.828 54.863V62.863C-228.339 62.863 -222.268 64.5959 -217.037 67.6214L-213.032 60.6965ZM-195.241 54.863C-203.174 54.863 -210.622 56.9857 -217.037 60.6965L-213.032 67.6214C-207.801 64.5959 -201.73 62.863 -195.241 62.863V54.863ZM-170.402 62.6294C-177.45 57.7333 -186.017 54.863 -195.241 54.863V62.863C-187.7 62.863 -180.718 65.2044 -174.966 69.1997L-170.402 62.6294ZM-170.414 61.8506C-171.251 61.8506 -172.083 61.8742 -172.91 61.9209L-172.458 69.9082C-171.782 69.87 -171.1 69.8506 -170.414 69.8506V61.8506ZM-164.233 62.286C-166.254 61.9988 -168.318 61.8506 -170.414 61.8506V69.8506C-168.695 69.8506 -167.008 69.9721 -165.358 70.2064L-164.233 62.286ZM-130.828 43C-146.716 43 -160.614 51.5033 -168.225 64.188L-161.366 68.3044C-155.14 57.9289 -143.791 51 -130.828 51V43ZM-109.032 48.8335C-115.447 45.1226 -122.895 43 -130.828 43V51C-124.339 51 -118.268 52.7329 -113.037 55.7584L-109.032 48.8335ZM-91.2414 43C-99.1737 43 -106.622 45.1226 -113.037 48.8335L-109.032 55.7584C-103.801 52.7329 -97.7298 51 -91.2414 51V43ZM-52.1766 67.2351C-59.2996 52.8807 -74.1129 43 -91.2414 43V51C-77.2674 51 -65.1671 59.0538 -59.3428 70.7911L-52.1766 67.2351ZM-50.4138 64.6552C-52.4063 64.6552 -54.3696 64.7892 -56.2948 65.0491L-55.2246 72.9772C-53.6531 72.765 -52.0473 72.6552 -50.4138 72.6552V64.6552ZM-33.9312 67.8806C-39.0212 65.8 -44.5888 64.6552 -50.4138 64.6552V72.6552C-45.6446 72.6552 -41.1039 73.5912 -36.9582 75.2859L-33.9312 67.8806ZM-10.8276 59C-21.0683 59 -30.494 62.5367 -37.9341 68.4523L-32.9553 74.7142C-26.8797 69.8836 -19.1959 67 -10.8276 67V59ZM16.279 68.4523C8.83882 62.5367 -0.58688 59.0001 -10.8276 59L-10.8276 67C-2.45926 67.0001 5.22454 69.8836 11.3002 74.7142L16.279 68.4523ZM28.7586 64.6552C22.9337 64.6552 17.3661 65.8 12.2761 67.8806L15.3031 75.2859C19.4488 73.5912 23.9894 72.6552 28.7586 72.6552V64.6552ZM61.0549 78.9714C53.086 70.1835 41.5651 64.6552 28.7586 64.6552V72.6552C39.2142 72.6552 48.6123 77.1592 55.1286 84.3453L61.0549 78.9714ZM83.2029 85.974C76.1514 80.8441 67.4971 77.7757 58.1418 77.6586L58.0417 85.658C65.686 85.7537 72.7405 88.2557 78.4965 92.4432L83.2029 85.974ZM110.368 72C97.4516 72 85.8436 77.6232 77.868 86.5423L83.8314 91.8749C90.3536 84.5813 99.823 80 110.368 80V72ZM117.211 72.5347C114.979 72.1825 112.694 72 110.368 72V80C112.274 80 114.143 80.1496 115.964 80.4369L117.211 72.5347ZM143.586 61.8506C132.099 61.8506 121.642 66.2996 113.859 73.5611L119.316 79.4106C125.677 73.4763 134.204 69.8506 143.586 69.8506V61.8506ZM149.767 62.286C147.746 61.9988 145.682 61.8506 143.586 61.8506V69.8506C145.305 69.8506 146.992 69.9721 148.642 70.2064L149.767 62.286ZM183.172 43C167.284 43 153.387 51.5033 145.775 64.188L152.634 68.3044C158.86 57.9289 170.209 51 183.172 51V43ZM204.968 48.8335C198.553 45.1226 191.105 43 183.172 43V51C189.661 51 195.732 52.7329 200.963 55.7583L204.968 48.8335ZM222.759 43C214.826 43 207.378 45.1226 200.963 48.8335L204.968 55.7584C210.199 52.7329 216.27 51 222.759 51V43ZM265.001 75.8072C260.202 56.9508 243.115 43 222.759 43V51C239.369 51 253.33 62.3834 257.248 77.7801L265.001 75.8072ZM264.767 73.149C263.65 72.9902 262.519 72.8739 261.377 72.8017L260.872 80.7857C261.806 80.8448 262.73 80.9399 263.642 81.0695L264.767 73.149ZM298.172 53.863C282.284 53.863 268.387 62.3663 260.775 75.051L267.634 79.1674C273.86 68.792 285.209 61.863 298.172 61.863V53.863ZM319.968 59.6965C313.553 55.9856 306.105 53.863 298.172 53.863V61.863C304.661 61.863 310.732 63.5959 315.963 66.6214L319.968 59.6965ZM337.759 53.863C329.826 53.863 322.378 55.9857 315.963 59.6965L319.968 66.6214C325.199 63.5959 331.27 61.863 337.759 61.863V53.863ZM362.598 61.6294C355.55 56.7333 346.983 53.863 337.759 53.863V61.863C345.3 61.863 352.282 64.2044 358.034 68.1997L362.598 61.6294ZM362.586 60.8506C361.749 60.8506 360.917 60.8742 360.09 60.9209L360.542 68.9082C361.218 68.87 361.9 68.8506 362.586 68.8506V60.8506ZM368.767 61.286C366.746 60.9988 364.682 60.8506 362.586 60.8506V68.8506C364.305 68.8506 365.992 68.9721 367.642 69.2064L368.767 61.286ZM402.172 42C386.284 42 372.387 50.5033 364.775 63.188L371.634 67.3044C377.86 56.9289 389.209 50 402.172 50V42ZM423.968 47.8335C417.553 44.1226 410.105 42 402.172 42V50C408.661 50 414.732 51.7329 419.963 54.7583L423.968 47.8335ZM441.759 42C433.826 42 426.378 44.1226 419.963 47.8335L423.968 54.7583C429.199 51.7329 435.27 50 441.759 50V42ZM480.823 66.2351C473.7 51.8807 458.887 42 441.759 42V50C455.733 50 467.833 58.0538 473.657 69.7911L480.823 66.2351ZM482.586 63.6552C480.594 63.6552 478.63 63.7892 476.705 64.0491L477.775 71.9772C479.347 71.765 480.953 71.6552 482.586 71.6552V63.6552ZM499.069 66.8806C493.979 64.8 488.411 63.6552 482.586 63.6552V71.6552C487.355 71.6552 491.896 72.5912 496.042 74.2859L499.069 66.8806ZM522.172 58C511.932 58 502.506 61.5367 495.066 67.4523L500.045 73.7142C506.12 68.8836 513.804 66 522.172 66V58ZM549.279 67.4523C541.839 61.5367 532.413 58.0001 522.172 58L522.172 66C530.541 66.0001 538.225 68.8836 544.3 73.7142L549.279 67.4523ZM561.759 63.6552C555.934 63.6552 550.366 64.8 545.276 66.8806L548.303 74.2859C552.449 72.5912 556.989 71.6552 561.759 71.6552V63.6552ZM594.055 77.9714C586.086 69.1835 574.565 63.6552 561.759 63.6552V71.6552C572.214 71.6552 581.612 76.1592 588.129 83.3453L594.055 77.9714ZM616.203 84.974C609.151 79.8441 600.497 76.7757 591.142 76.6586L591.042 84.658C598.686 84.7537 605.74 87.2557 611.497 91.4432L616.203 84.974ZM643.368 71C630.452 71 618.844 76.6232 610.868 85.5423L616.831 90.8749C623.354 83.5813 632.823 79 643.368 79V71ZM650.211 71.5347C647.979 71.1825 645.694 71 643.368 71V79C645.274 79 647.143 79.1496 648.964 79.4369L650.211 71.5347ZM676.586 60.8506C665.099 60.8506 654.642 65.2996 646.859 72.5611L652.316 78.4106C658.677 72.4763 667.204 68.8506 676.586 68.8506V60.8506ZM682.767 61.286C680.746 60.9988 678.682 60.8506 676.586 60.8506V68.8506C678.305 68.8506 679.992 68.9721 681.642 69.2064L682.767 61.286ZM716.172 42C700.284 42 686.387 50.5033 678.775 63.188L685.634 67.3044C691.86 56.9289 703.209 50 716.172 50V42ZM737.968 47.8335C731.553 44.1226 724.105 42 716.172 42V50C722.661 50 728.732 51.7329 733.963 54.7584L737.968 47.8335ZM755.759 42C747.826 42 740.378 44.1226 733.963 47.8335L737.969 54.7583C743.199 51.7329 749.27 50 755.759 50V42ZM797.658 73.5405C792.431 55.3307 775.657 42 755.759 42V50C771.994 50 785.7 60.8758 789.968 75.7475L797.658 73.5405ZM817.586 62.7136C807.768 62.7136 798.698 65.9647 791.409 71.4474L796.218 77.8406C802.168 73.3648 809.562 70.7136 817.586 70.7136V62.7136ZM823.767 63.149C821.746 62.8619 819.682 62.7136 817.586 62.7136V70.7136C819.305 70.7136 820.992 70.8351 822.642 71.0695L823.767 63.149ZM857.172 43.863C841.284 43.863 827.386 52.3663 819.775 65.051L826.634 69.1674C832.86 58.792 844.209 51.863 857.172 51.863V43.863ZM878.968 49.6965C872.553 45.9856 865.105 43.863 857.172 43.863V51.863C863.661 51.863 869.732 53.5959 874.963 56.6214L878.968 49.6965ZM896.759 43.863C888.826 43.863 881.378 45.9856 874.963 49.6966L878.969 56.6214C884.199 53.5959 890.27 51.863 896.759 51.863V43.863ZM921.598 51.6294C914.55 46.7333 905.983 43.863 896.759 43.863V51.863C904.3 51.863 911.282 54.2044 917.034 58.1997L921.598 51.6294ZM921.586 50.8506C920.749 50.8506 919.917 50.8742 919.09 50.9209L919.542 58.9082C920.218 58.87 920.9 58.8506 921.586 58.8506V50.8506ZM927.767 51.286C925.746 50.9988 923.682 50.8506 921.586 50.8506V58.8506C923.305 58.8506 924.992 58.9721 926.642 59.2064L927.767 51.286ZM961.172 32C945.284 32 931.386 40.5033 923.775 53.188L930.634 57.3044C936.86 46.9289 948.209 40 961.172 40V32ZM982.968 37.8335C976.553 34.1226 969.105 32 961.172 32V40C967.661 40 973.732 41.7329 978.963 44.7584L982.968 37.8335ZM1000.76 32C992.826 32 985.378 34.1226 978.963 37.8335L982.969 44.7583C988.199 41.7329 994.27 40 1000.76 40V32ZM1039.82 56.2351C1032.7 41.8807 1017.89 32 1000.76 32V40C1014.73 40 1026.83 48.0538 1032.66 59.7911L1039.82 56.2351ZM1041.59 53.6552C1039.59 53.6552 1037.63 53.7892 1035.71 54.0491L1036.78 61.9772C1038.35 61.765 1039.95 61.6552 1041.59 61.6552V53.6552ZM1058.07 56.8806C1052.98 54.8 1047.41 53.6552 1041.59 53.6552L1041.59 61.6552C1046.36 61.6552 1050.9 62.5912 1055.04 64.2859L1058.07 56.8806ZM1081.17 48C1070.93 48 1061.51 51.5367 1054.07 57.4523L1059.04 63.7142C1065.12 58.8836 1072.8 56 1081.17 56V48ZM1108.28 57.4523C1100.84 51.5367 1091.41 48.0001 1081.17 48L1081.17 56C1089.54 56.0001 1097.22 58.8836 1103.3 63.7142L1108.28 57.4523ZM1120.76 53.6552C1114.93 53.6552 1109.37 54.8 1104.28 56.8806L1107.3 64.2859C1111.45 62.5912 1115.99 61.6552 1120.76 61.6552V53.6552ZM1153.05 67.9713C1145.09 59.1835 1133.57 53.6552 1120.76 53.6552V61.6552C1131.21 61.6552 1140.61 66.1592 1147.13 73.3453L1153.05 67.9713ZM1175.2 74.974C1168.15 69.8441 1159.5 66.7757 1150.14 66.6586L1150.04 74.658C1157.69 74.7537 1164.74 77.2557 1170.5 81.4432L1175.2 74.974ZM1202.37 61C1189.45 61 1177.84 66.6232 1169.87 75.5422L1175.83 80.8749C1182.35 73.5813 1191.82 69 1202.37 69V61ZM1209.21 61.5347C1206.98 61.1825 1204.69 61 1202.37 61V69C1204.27 69 1206.14 69.1496 1207.96 69.4369L1209.21 61.5347ZM1235.59 50.8506C1224.1 50.8506 1213.64 55.2996 1205.86 62.561L1211.32 68.4106C1217.68 62.4763 1226.2 58.8506 1235.59 58.8506V50.8506ZM1241.77 51.286C1239.75 50.9988 1237.68 50.8506 1235.59 50.8506V58.8506C1237.3 58.8506 1238.99 58.9721 1240.64 59.2064L1241.77 51.286ZM1275.17 32C1259.28 32 1245.39 40.5033 1237.77 53.188L1244.63 57.3044C1250.86 46.9289 1262.21 40 1275.17 40V32ZM1296.97 37.8335C1290.55 34.1226 1283.1 32 1275.17 32V40C1281.66 40 1287.73 41.7329 1292.96 44.7584L1296.97 37.8335ZM1314.76 32C1306.83 32 1299.38 34.1226 1292.96 37.8335L1296.97 44.7583C1302.2 41.7329 1308.27 40 1314.76 40V32ZM1357 64.8072C1352.2 45.9508 1335.11 32 1314.76 32V40C1331.37 40 1345.33 51.3834 1349.25 66.7801L1357 64.8072ZM1356.77 62.149C1355.65 61.9902 1354.52 61.8739 1353.38 61.8017L1352.87 69.7857C1353.81 69.8448 1354.73 69.9399 1355.64 70.0695L1356.77 62.149ZM1390.17 42.863C1374.28 42.863 1360.39 51.3663 1352.77 64.051L1359.63 68.1674C1365.86 57.792 1377.21 50.863 1390.17 50.863V42.863ZM1411.97 48.6965C1405.55 44.9856 1398.1 42.863 1390.17 42.863V50.863C1396.66 50.863 1402.73 52.5959 1407.96 55.6214L1411.97 48.6965ZM1429.76 42.863C1421.83 42.863 1414.38 44.9856 1407.96 48.6966L1411.97 55.6214C1417.2 52.5959 1423.27 50.863 1429.76 50.863V42.863ZM1454.6 50.6294C1447.55 45.7333 1438.98 42.863 1429.76 42.863V50.863C1437.3 50.863 1444.28 53.2044 1450.03 57.1997L1454.6 50.6294ZM1454.59 49.8506C1453.75 49.8506 1452.92 49.8742 1452.09 49.9209L1452.54 57.9082C1453.22 57.87 1453.9 57.8506 1454.59 57.8506V49.8506ZM1460.77 50.286C1458.75 49.9988 1456.68 49.8506 1454.59 49.8506V57.8506C1456.3 57.8506 1457.99 57.9721 1459.64 58.2064L1460.77 50.286ZM1494.17 31C1478.28 31 1464.39 39.5033 1456.77 52.188L1463.63 56.3044C1469.86 45.9289 1481.21 39 1494.17 39V31ZM1515.97 36.8335C1509.55 33.1226 1502.1 31 1494.17 31V39C1500.66 39 1506.73 40.7329 1511.96 43.7584L1515.97 36.8335ZM1533.76 31C1525.83 31 1518.38 33.1226 1511.96 36.8335L1515.97 43.7583C1521.2 40.7329 1527.27 39 1533.76 39V31ZM1572.82 55.2351C1565.7 40.8807 1550.89 31 1533.76 31V39C1547.73 39 1559.83 47.0538 1565.66 58.7911L1572.82 55.2351ZM1574.59 52.6552C1572.59 52.6552 1570.63 52.7892 1568.71 53.0491L1569.78 60.9772C1571.35 60.765 1572.95 60.6552 1574.59 60.6552V52.6552ZM1591.07 55.8806C1585.98 53.8 1580.41 52.6552 1574.59 52.6552L1574.59 60.6552C1579.36 60.6552 1583.9 61.5912 1588.04 63.2859L1591.07 55.8806ZM1614.17 47C1603.93 47 1594.51 50.5367 1587.07 56.4523L1592.04 62.7142C1598.12 57.8836 1605.8 55 1614.17 55V47ZM1641.28 56.4523C1633.84 50.5367 1624.41 47.0001 1614.17 47L1614.17 55C1622.54 55.0001 1630.22 57.8836 1636.3 62.7142L1641.28 56.4523ZM1653.76 52.6552C1647.93 52.6552 1642.37 53.8 1637.28 55.8806L1640.3 63.2859C1644.45 61.5912 1648.99 60.6552 1653.76 60.6552V52.6552ZM1686.05 66.9713C1678.09 58.1835 1666.57 52.6552 1653.76 52.6552V60.6552C1664.21 60.6552 1673.61 65.1592 1680.13 72.3453L1686.05 66.9713ZM1708.2 73.974C1701.15 68.8441 1692.5 65.7757 1683.14 65.6586L1683.04 73.658C1690.69 73.7537 1697.74 76.2557 1703.5 80.4432L1708.2 73.974ZM1735.37 60C1722.45 60 1710.84 65.6232 1702.87 74.5422L1708.83 79.8749C1715.35 72.5813 1724.82 68 1735.37 68V60ZM1742.21 60.5347C1739.98 60.1825 1737.69 60 1735.37 60V68C1737.27 68 1739.14 68.1496 1740.96 68.4369L1742.21 60.5347ZM1768.59 49.8506C1757.1 49.8506 1746.64 54.2996 1738.86 61.561L1744.32 67.4106C1750.68 61.4763 1759.2 57.8506 1768.59 57.8506V49.8506ZM1774.77 50.286C1772.75 49.9988 1770.68 49.8506 1768.59 49.8506V57.8506C1770.3 57.8506 1771.99 57.9721 1773.64 58.2064L1774.77 50.286ZM1808.17 31C1792.28 31 1778.39 39.5033 1770.77 52.188L1777.63 56.3044C1783.86 45.9289 1795.21 39 1808.17 39V31ZM1829.97 36.8335C1823.55 33.1226 1816.1 31 1808.17 31V39C1814.66 39 1820.73 40.7329 1825.96 43.7583L1829.97 36.8335ZM1847.76 31C1839.83 31 1832.38 33.1226 1825.96 36.8335L1829.97 43.7583C1835.2 40.7329 1841.27 39 1847.76 39V31ZM1891.34 74.5862C1891.34 50.5142 1871.83 31 1847.76 31V39C1867.41 39 1883.34 54.9325 1883.34 74.5862H1891.34ZM1883.03 100.203C1888.26 93.0115 1891.34 84.1535 1891.34 74.5862H1883.34C1883.34 82.4064 1880.83 89.6269 1876.56 95.4966L1883.03 100.203ZM1897 127.368C1897 114.452 1891.38 102.844 1882.46 94.868L1877.13 100.831C1884.42 107.354 1889 116.823 1889 127.368H1897ZM1878.66 162.899C1889.75 155.005 1897 142.033 1897 127.368H1889C1889 139.335 1883.1 149.924 1874.03 156.381L1878.66 162.899ZM1878.63 171.735C1879.74 167.892 1880.34 163.835 1880.34 159.645L1872.34 159.635C1872.34 163.067 1871.85 166.379 1870.94 169.509L1878.63 171.735ZM1911.34 209.586C1911.34 188.151 1895.88 170.337 1875.49 166.685L1874.08 174.559C1890.72 177.54 1903.34 192.093 1903.34 209.586H1911.34ZM1903.03 235.203C1908.26 228.012 1911.34 219.154 1911.34 209.586H1903.34C1903.34 217.406 1900.83 224.627 1896.56 230.497L1903.03 235.203ZM1917 262.368C1917 249.452 1911.38 237.844 1902.46 229.868L1897.13 235.831C1904.42 242.354 1909 251.823 1909 262.368H1917ZM1884.33 304.575C1903.12 299.73 1917 282.675 1917 262.368H1909C1909 278.938 1897.67 292.872 1882.33 296.829L1884.33 304.575ZM1879.03 325.203C1884.03 318.321 1887.08 309.911 1887.33 300.813L1879.33 300.591C1879.13 308.023 1876.64 314.878 1872.56 320.497L1879.03 325.203ZM1893 352.368C1893 339.452 1887.38 327.844 1878.46 319.868L1873.13 325.831C1880.42 332.354 1885 341.823 1885 352.368H1893ZM1879.42 383.985C1887.78 376.048 1893 364.815 1893 352.368H1885C1885 362.531 1880.74 371.693 1873.91 378.183L1879.42 383.985ZM1905.34 417.769C1905.34 399.495 1894.1 383.858 1878.17 377.379L1875.15 384.789C1888.18 390.085 1897.34 402.861 1897.34 417.769H1905.34ZM1903.6 430.001C1904.74 426.115 1905.34 422.009 1905.34 417.769H1897.34C1897.34 421.243 1896.85 424.595 1895.92 427.759L1903.6 430.001ZM1911 451.7C1911 442.349 1908.05 433.674 1903.03 426.571L1896.5 431.188C1900.59 436.985 1903 444.056 1903 451.7H1911ZM1891.63 487.945C1903.3 480.132 1911 466.816 1911 451.7H1903C1903 464.035 1896.73 474.906 1887.18 481.296L1891.63 487.945ZM1911.34 517.769C1911.34 502.49 1903.48 489.05 1891.6 481.273L1887.22 487.968C1896.94 494.329 1903.34 505.302 1903.34 517.769H1911.34ZM1909.6 530.001C1910.74 526.115 1911.34 522.009 1911.34 517.769H1903.34C1903.34 521.243 1902.85 524.595 1901.92 527.759L1909.6 530.001ZM1917 551.7C1917 542.349 1914.05 533.674 1909.03 526.571L1902.5 531.188C1906.59 536.985 1909 544.056 1909 551.7H1917ZM1873.41 595.286C1897.49 595.286 1917 575.772 1917 551.7H1909C1909 571.354 1893.07 587.286 1873.41 587.286V595.286ZM1867.23 594.851C1869.25 595.138 1871.32 595.286 1873.41 595.286V587.286C1871.7 587.286 1870.01 587.165 1868.36 586.931L1867.23 594.851ZM1833.83 614.137C1849.72 614.137 1863.61 605.634 1871.23 592.949L1864.37 588.833C1858.14 599.208 1846.79 606.137 1833.83 606.137V614.137ZM1812.03 608.303C1818.45 612.014 1825.9 614.137 1833.83 614.137V606.137C1827.34 606.137 1821.27 604.404 1816.04 601.379L1812.03 608.303ZM1794.24 614.137C1802.17 614.137 1809.62 612.014 1816.04 608.303L1812.03 601.379C1806.8 604.404 1800.73 606.137 1794.24 606.137V614.137ZM1769.4 606.371C1776.45 611.267 1785.02 614.137 1794.24 614.137V606.137C1786.7 606.137 1779.72 603.796 1773.97 599.8L1769.4 606.371ZM1769.41 607.149C1770.25 607.149 1771.08 607.126 1771.91 607.079L1771.46 599.092C1770.78 599.13 1770.1 599.149 1769.41 599.149V607.149ZM1763.23 606.714C1765.25 607.001 1767.32 607.149 1769.41 607.149V599.149C1767.7 599.149 1766.01 599.028 1764.36 598.794L1763.23 606.714ZM1729.83 626C1745.72 626 1759.61 617.497 1767.23 604.812L1760.37 600.696C1754.14 611.071 1742.79 618 1729.83 618V626ZM1708.03 620.166C1714.45 623.877 1721.9 626 1729.83 626V618C1723.34 618 1717.27 616.267 1712.04 613.242L1708.03 620.166ZM1690.24 626C1698.17 626 1705.62 623.877 1712.04 620.166L1708.03 613.242C1702.8 616.267 1696.73 618 1690.24 618V626ZM1651.18 601.765C1658.3 616.119 1673.11 626 1690.24 626V618C1676.27 618 1664.17 609.946 1658.34 598.209L1651.18 601.765ZM1649.41 604.345C1651.41 604.345 1653.37 604.211 1655.29 603.951L1654.22 596.023C1652.65 596.235 1651.05 596.345 1649.41 596.345V604.345ZM1632.93 601.119C1638.02 603.2 1643.59 604.345 1649.41 604.345V596.345C1644.64 596.345 1640.1 595.409 1635.96 593.714L1632.93 601.119ZM1611.28 609.976C1620.96 609.66 1629.85 606.182 1636.93 600.548L1631.96 594.286C1626.17 598.888 1618.92 601.722 1611.01 601.981L1611.28 609.976ZM787.416 394.985C788.546 393.912 789.619 392.779 790.629 391.591L784.535 386.408C783.709 387.379 782.832 388.306 781.908 389.183L787.416 394.985ZM804.615 402.596C799.905 396.333 793.543 391.377 786.169 388.379L783.155 395.789C789.169 398.235 794.369 402.282 798.221 407.404L804.615 402.596ZM801.585 399.015C800.454 400.088 799.381 401.221 798.371 402.409L804.465 407.592C805.291 406.621 806.168 405.694 807.092 404.817L801.585 399.015ZM784.385 391.404C789.095 397.667 795.457 402.623 802.831 405.621L805.845 398.211C799.831 395.765 794.631 391.718 790.779 386.596L784.385 391.404ZM799.631 498.945C800.297 498.498 800.951 498.034 801.592 497.553L796.782 491.159C796.26 491.553 795.726 491.932 795.181 492.297L799.631 498.945ZM802.804 494.586C801.772 493.769 800.701 492.997 799.596 492.273L795.216 498.968C796.118 499.558 796.993 500.189 797.836 500.857L802.804 494.586ZM795.342 495.46C795.704 496.72 796.121 497.957 796.59 499.168L804.049 496.276C803.667 495.288 803.327 494.28 803.032 493.252L795.342 495.46Z" fill="black" mask="url(#path-1-inside-1_27_9893)"/>
<path fill-rule="evenodd" clip-rule="evenodd" d="M169.553 61.0129C169.56 61.2234 169.568 61.4335 169.577 61.6432C170.517 61.4815 171.479 61.383 172.459 61.3523C178.492 61.1636 184.001 63.5826 187.903 67.5918C190.746 65.9585 194.021 64.9807 197.527 64.871C201.268 64.754 204.807 65.6396 207.887 67.2853C211.534 62.8548 216.999 59.9587 223.186 59.7651C229.533 59.5665 235.301 62.2546 239.227 66.6444C240.493 65.8052 241.857 65.1015 243.301 64.5545C243.489 62.6383 243.556 60.6834 243.494 58.6994C243.276 51.7259 241.488 45.2102 238.519 39.5546C239.642 39.9645 240.825 40.3193 242.057 40.6083C251.307 42.7792 259.773 40.4148 260.967 35.3272C262.161 30.2397 255.631 24.3555 246.38 22.1845C237.7 20.1474 229.71 22.1038 227.772 26.5564C221.416 21.58 213.607 18.7551 205.246 19.0167C197.065 19.2727 189.597 22.4444 183.629 27.6049C181.182 23.5372 173.281 22.2221 164.965 24.7319C155.868 27.4768 149.718 33.7578 151.228 38.7608C152.738 43.7638 161.336 45.5943 170.432 42.8493C171.389 42.5606 172.313 42.2328 173.199 41.8714C170.669 47.6338 169.338 54.1496 169.553 61.0129Z" fill="url(#paint0_linear_27_9893)"/>
<path fill-rule="evenodd" clip-rule="evenodd" d="M376.251 67.7362C376.286 67.944 376.322 68.1511 376.359 68.3577C377.269 68.0717 378.209 67.8454 379.176 67.6839C385.13 66.6899 390.913 68.3502 395.316 71.8014C397.915 69.8025 401.03 68.3954 404.49 67.8177C408.181 67.2013 411.807 67.6056 415.079 68.8245C418.101 63.9459 423.13 60.3448 429.235 59.3254C435.499 58.2796 441.574 60.1721 446.052 63.9972C447.194 62.9963 448.453 62.1163 449.81 61.381C449.74 59.457 449.545 57.5107 449.218 55.5528C448.069 48.6712 445.426 42.4531 441.727 37.2455C442.895 37.5015 444.115 37.6949 445.373 37.8166C454.831 38.7306 462.905 35.2549 463.408 30.0534C463.911 24.8518 456.652 19.8941 447.194 18.98C438.32 18.1222 430.663 21.1299 429.337 25.8018C422.373 21.7203 414.257 19.9653 406.005 21.343C397.932 22.691 390.955 26.8332 385.731 32.7457C382.762 29.0418 374.757 28.7953 366.851 32.395C358.203 36.3321 352.949 43.3793 355.114 48.1354C357.279 52.8914 366.045 53.5554 374.692 49.6183C375.602 49.2042 376.474 48.7557 377.304 48.2791C375.567 54.3281 375.12 60.9633 376.251 67.7362Z" fill="url(#paint1_linear_27_9893)"/>
<path fill-rule="evenodd" clip-rule="evenodd" d="M678.006 71.8822C678.041 72.09 678.077 72.2971 678.114 72.5037C679.024 72.2177 679.964 71.9914 680.931 71.8299C686.885 70.8359 692.668 72.4962 697.071 75.9474C699.67 73.9485 702.785 72.5414 706.245 71.9637C709.936 71.3473 713.562 71.7516 716.835 72.9705C719.856 68.0919 724.885 64.4908 730.99 63.4714C737.254 62.4256 743.329 64.3181 747.807 68.1432C748.949 67.1423 750.208 66.2623 751.565 65.527C751.495 63.603 751.3 61.6567 750.973 59.6988C749.824 52.8172 747.181 46.5991 743.482 41.3915C744.65 41.6475 745.87 41.8409 747.129 41.9626C756.586 42.8766 764.66 39.4009 765.163 34.1994C765.666 28.9978 758.407 24.0401 748.949 23.126C740.075 22.2682 732.418 25.2759 731.093 29.9478C724.129 25.8663 716.012 24.1113 707.76 25.489C699.687 26.837 692.711 30.9792 687.486 36.8917C684.517 33.1878 676.512 32.9413 668.606 36.541C659.958 40.4781 654.704 47.5253 656.869 52.2814C659.035 57.0374 667.8 57.7014 676.447 53.7643C677.357 53.3502 678.229 52.9017 679.059 52.4251C677.322 58.4741 676.875 65.1093 678.006 71.8822Z" fill="url(#paint2_linear_27_9893)"/>
<path fill-rule="evenodd" clip-rule="evenodd" d="M940.006 53.8822C940.041 54.09 940.077 54.2971 940.114 54.5037C941.024 54.2177 941.964 53.9914 942.931 53.8299C948.885 52.8359 954.668 54.4962 959.071 57.9474C961.67 55.9485 964.785 54.5414 968.245 53.9637C971.936 53.3473 975.562 53.7516 978.835 54.9705C981.856 50.0919 986.885 46.4908 992.99 45.4714C999.254 44.4256 1005.33 46.3181 1009.81 50.1432C1010.95 49.1423 1012.21 48.2623 1013.57 47.527C1013.5 45.603 1013.3 43.6567 1012.97 41.6988C1011.82 34.8172 1009.18 28.5991 1005.48 23.3915C1006.65 23.6475 1007.87 23.8409 1009.13 23.9626C1018.59 24.8766 1026.66 21.4009 1027.16 16.1994C1027.67 10.9978 1020.41 6.04005 1010.95 5.12597C1002.07 4.26821 994.418 7.27587 993.093 11.9478C986.129 7.86625 978.012 6.11127 969.76 7.48901C961.687 8.83697 954.711 12.9792 949.486 18.8917C946.517 15.1878 938.512 14.9413 930.606 18.541C921.958 22.4781 916.704 29.5253 918.869 34.2814C921.035 39.0374 929.8 39.7014 938.447 35.7643C939.357 35.3502 940.229 34.9017 941.059 34.4251C939.322 40.4741 938.875 47.1093 940.006 53.8822Z" fill="url(#paint3_linear_27_9893)"/>
<path fill-rule="evenodd" clip-rule="evenodd" d="M1375.01 62.8822C1375.04 63.09 1375.08 63.2971 1375.11 63.5037C1376.02 63.2177 1376.96 62.9914 1377.93 62.8299C1383.88 61.8359 1389.67 63.4962 1394.07 66.9474C1396.67 64.9485 1399.78 63.5414 1403.24 62.9637C1406.94 62.3473 1410.56 62.7516 1413.83 63.9705C1416.86 59.0919 1421.89 55.4908 1427.99 54.4714C1434.25 53.4256 1440.33 55.3181 1444.81 59.1432C1445.95 58.1423 1447.21 57.2623 1448.57 56.527C1448.5 54.603 1448.3 52.6567 1447.97 50.6988C1446.82 43.8172 1444.18 37.5991 1440.48 32.3915C1441.65 32.6475 1442.87 32.8409 1444.13 32.9626C1453.59 33.8766 1461.66 30.4009 1462.16 25.1994C1462.67 19.9978 1455.41 15.0401 1445.95 14.126C1437.07 13.2682 1429.42 16.2759 1428.09 20.9478C1421.13 16.8663 1413.01 15.1113 1404.76 16.489C1396.69 17.837 1389.71 21.9792 1384.49 27.8917C1381.52 24.1878 1373.51 23.9413 1365.61 27.541C1356.96 31.4781 1351.7 38.5253 1353.87 43.2814C1356.03 48.0374 1364.8 48.7014 1373.45 44.7643C1374.36 44.3502 1375.23 43.9017 1376.06 43.4251C1374.32 49.4741 1373.88 56.1093 1375.01 62.8822Z" fill="url(#paint4_linear_27_9893)"/>
<path fill-rule="evenodd" clip-rule="evenodd" d="M1609.33 68.3192C1609.3 68.5283 1609.28 68.7372 1609.26 68.946C1610.21 68.9269 1611.18 68.9737 1612.15 69.0903C1618.14 69.8079 1623.23 73.0253 1626.49 77.5742C1629.54 76.3855 1632.93 75.9096 1636.41 76.3267C1640.13 76.7716 1643.49 78.1778 1646.29 80.2665C1650.56 76.4327 1656.4 74.3885 1662.54 75.1244C1668.85 75.8794 1674.15 79.4016 1677.37 84.3303C1678.75 83.6904 1680.2 83.1991 1681.71 82.8747C1682.19 81.0084 1682.55 79.0855 1682.78 77.1147C1683.61 70.1873 1682.82 63.4772 1680.73 57.4404C1681.78 58.0141 1682.9 58.5422 1684.07 59.0125C1692.89 62.5454 1701.62 61.4768 1703.56 56.6256C1705.5 51.7745 1699.93 44.9779 1691.11 41.4449C1682.83 38.1298 1674.64 38.8664 1672.06 42.9782C1666.52 37.1055 1659.22 33.1419 1650.91 32.1473C1642.79 31.1742 1634.93 33.1906 1628.25 37.3984C1626.44 33.0099 1618.83 30.5254 1610.23 31.7602C1600.83 33.1108 1593.8 38.399 1594.55 43.5717C1595.29 48.7445 1603.52 51.843 1612.92 50.4925C1613.91 50.3504 1614.87 50.1648 1615.8 49.9404C1612.44 55.2584 1610.15 61.5012 1609.33 68.3192Z" fill="url(#paint5_linear_27_9893)"/>
<defs>
<linearGradient id="paint0_linear_27_9893" x1="206.054" y1="19" x2="206.054" y2="67.5918" gradientUnits="userSpaceOnUse">
<stop/>
<stop offset="0.756744" stop-color="#626262"/>
</linearGradient>
<linearGradient id="paint1_linear_27_9893" x1="406.804" y1="21.2183" x2="413.304" y2="69.3734" gradientUnits="userSpaceOnUse">
<stop/>
<stop offset="0.756744" stop-color="#626262"/>
</linearGradient>
<linearGradient id="paint2_linear_27_9893" x1="708.559" y1="25.3643" x2="715.059" y2="73.5194" gradientUnits="userSpaceOnUse">
<stop/>
<stop offset="0.756744" stop-color="#626262"/>
</linearGradient>
<linearGradient id="paint3_linear_27_9893" x1="970.559" y1="7.36432" x2="977.059" y2="55.5194" gradientUnits="userSpaceOnUse">
<stop/>
<stop offset="0.756744" stop-color="#626262"/>
</linearGradient>
<linearGradient id="paint4_linear_27_9893" x1="1405.56" y1="16.3643" x2="1412.06" y2="64.5194" gradientUnits="userSpaceOnUse">
<stop/>
<stop offset="0.756744" stop-color="#626262"/>
</linearGradient>
<linearGradient id="paint5_linear_27_9893" x1="1651.72" y1="32.252" x2="1644.43" y2="80.2948" gradientUnits="userSpaceOnUse">
<stop/>
<stop offset="0.756744" stop-color="#626262"/>
</linearGradient>
</defs>
</svg>
