<svg width="1728" height="118" viewBox="0 0 1728 118" fill="none" xmlns="http://www.w3.org/2000/svg">
<path fill-rule="evenodd" clip-rule="evenodd" d="M-339.175 2.00005L1854.34 2.00024C1854.32 5.77547 1853.77 9.42549 1852.76 12.8801C1857.32 19.3296 1860 27.2023 1860 35.7004C1860 57.5633 1842.28 75.2866 1820.41 75.2866C1818.51 75.2866 1816.63 75.1518 1814.8 74.891C1807.88 86.4211 1795.25 94.1372 1780.83 94.1372C1773.62 94.1372 1766.86 92.2095 1761.03 88.8413C1755.21 92.2095 1748.45 94.1372 1741.24 94.1372C1732.86 94.1372 1725.08 91.5314 1718.68 87.0857C1717.93 87.1281 1717.18 87.1497 1716.41 87.1497C1714.51 87.1497 1712.63 87.0148 1710.8 86.754C1703.88 98.2841 1691.25 106 1676.83 106C1669.62 106 1662.86 104.072 1657.03 100.704C1651.21 104.072 1644.45 106 1637.24 106C1621.69 106 1608.23 97.0329 1601.76 83.9871C1600.01 84.2231 1598.23 84.345 1596.41 84.345C1591.12 84.345 1586.06 83.3046 1581.44 81.417C1574.69 86.7901 1566.13 90.0002 1556.83 90.0002C1547.52 90.0002 1538.97 86.7901 1532.21 81.417C1527.59 83.3046 1522.54 84.345 1517.24 84.345C1505.61 84.345 1495.15 79.3289 1487.91 71.3419C1479.41 71.2355 1471.55 68.4503 1465.15 63.7916C1457.9 71.8979 1447.36 77.0002 1435.63 77.0002C1433.52 77.0002 1431.44 76.8342 1429.41 76.5144C1422.34 83.1122 1412.85 87.1496 1402.41 87.1496C1400.51 87.1496 1398.63 87.0148 1396.8 86.754C1389.88 98.2841 1377.25 106 1362.83 106C1355.62 106 1348.86 104.072 1343.03 100.704C1337.21 104.072 1330.45 106 1323.24 106C1304.76 106 1289.23 93.3331 1284.88 76.2065C1283.84 76.1408 1282.81 76.0351 1281.8 75.891C1274.88 87.4211 1262.25 95.1372 1247.83 95.1372C1240.62 95.1372 1233.86 93.2094 1228.03 89.8412C1222.21 93.2094 1215.45 95.1372 1208.24 95.1372C1199.86 95.1371 1192.08 92.5314 1185.68 88.0856C1184.93 88.1281 1184.18 88.1496 1183.41 88.1496C1181.51 88.1496 1179.63 88.0147 1177.8 87.754C1170.88 99.2841 1158.25 107 1143.83 107C1136.62 107 1129.86 105.072 1124.03 101.704C1118.21 105.072 1111.45 107 1104.24 107C1088.69 107 1075.23 98.0329 1068.76 84.9871C1067.01 85.2231 1065.23 85.345 1063.41 85.345C1058.12 85.345 1053.06 84.3045 1048.44 82.4169C1041.69 87.79 1033.13 91.0001 1023.83 91.0001C1014.52 91.0001 1005.97 87.79 999.21 82.4169C994.593 84.3045 989.538 85.3449 984.241 85.3449C972.61 85.3449 962.151 80.3288 954.908 72.3418C946.408 72.2355 938.554 69.4503 932.15 64.7916C924.901 72.8979 914.363 78.0002 902.632 78.0002C900.516 78.0002 898.439 77.8341 896.412 77.5143C889.34 84.1122 879.849 88.1496 869.414 88.1496C867.507 88.1496 865.631 88.0147 863.796 87.754C856.877 99.2841 844.253 107 829.828 107C822.617 107 815.857 105.072 810.034 101.704C804.212 105.072 797.452 107 790.241 107C772.174 107 756.934 94.8969 752.187 78.3562C745.567 83.3354 737.335 86.2865 728.414 86.2865C726.507 86.2865 724.631 86.1517 722.796 85.8909C715.877 97.421 703.253 105.137 688.828 105.137C681.617 105.137 674.857 103.209 669.034 99.8412C663.212 103.209 656.452 105.137 649.241 105.137C640.858 105.137 633.084 102.531 626.684 98.0856C625.933 98.128 625.176 98.1496 624.414 98.1496C622.507 98.1496 620.631 98.0147 618.796 97.7539C611.877 109.284 599.253 117 584.828 117C577.617 117 570.857 115.072 565.034 111.704C559.212 115.072 552.452 117 545.241 117C529.69 117 516.233 108.033 509.76 94.987C508.011 95.223 506.227 95.3449 504.414 95.3449C499.117 95.3449 494.063 94.3045 489.445 92.4169C482.687 97.79 474.132 101 464.828 101C455.523 101 446.968 97.79 440.21 92.4169C435.593 94.3045 430.538 95.3449 425.241 95.3449C413.61 95.3449 403.151 90.3288 395.908 82.3418C387.408 82.2354 379.554 79.4502 373.15 74.7915C365.901 82.8979 355.363 88.0001 343.632 88.0001C341.516 88.0001 339.439 87.8341 337.412 87.5143C330.34 94.1121 320.849 98.1495 310.414 98.1495C308.507 98.1495 306.631 98.0147 304.796 97.7539C297.876 109.284 285.253 117 270.828 117C263.617 117 256.857 115.072 251.034 111.704C245.212 115.072 238.452 117 231.241 117C212.758 117 197.234 104.333 192.876 87.2064C191.838 87.1407 190.81 87.035 189.796 86.8909C182.877 98.421 170.253 106.137 155.828 106.137C148.617 106.137 141.857 104.209 136.034 100.841C130.212 104.209 123.452 106.137 116.241 106.137C107.858 106.137 100.084 103.531 93.6838 99.0855C92.9326 99.128 92.1757 99.1495 91.4138 99.1495C89.5066 99.1495 87.6309 99.0146 85.7957 98.7539C78.8766 110.284 66.2532 118 51.8276 118C44.6172 118 37.8571 116.072 32.0345 112.704C26.2119 116.072 19.4518 118 12.2413 118C-3.30981 118 -16.7666 109.033 -23.2402 95.987C-24.9886 96.223 -26.7732 96.3449 -28.5862 96.3449C-33.8833 96.3449 -38.9374 95.3044 -43.5553 93.4168C-50.3131 98.7899 -58.8679 102 -68.1724 102C-77.4769 102 -86.0316 98.7899 -92.7895 93.4168C-97.4075 95.3044 -102.462 96.3449 -107.759 96.3449C-119.39 96.3449 -129.849 91.3287 -137.092 83.3417C-145.592 83.2354 -153.446 80.4502 -159.85 75.7915C-167.099 83.8978 -177.637 89.0001 -189.368 89.0001C-191.484 89.0001 -193.561 88.834 -195.588 88.5142C-202.66 95.1121 -212.151 99.1495 -222.586 99.1495C-224.493 99.1495 -226.369 99.0146 -228.204 98.7539C-235.124 110.284 -247.747 118 -262.172 118C-269.383 118 -276.143 116.072 -281.966 112.704C-287.788 116.072 -294.548 118 -301.759 118C-323.622 118 -341.345 100.277 -341.345 78.4138C-341.345 69.7201 -338.542 61.6809 -333.791 55.1504C-341.898 47.9015 -347 37.3627 -347 25.6322C-347 16.7741 -344.091 8.59558 -339.175 2.00005Z" fill="#BBD7E7"/>
<path fill-rule="evenodd" clip-rule="evenodd" d="M-273.175 -11.9999L1920.34 -11.9998C1920.32 -8.22453 1919.77 -4.57451 1918.76 -1.1199C1923.32 5.3296 1926 13.2023 1926 21.7004C1926 43.5633 1908.28 61.2866 1886.41 61.2866C1884.51 61.2866 1882.63 61.1518 1880.8 60.891C1873.88 72.4211 1861.25 80.1372 1846.83 80.1372C1839.62 80.1372 1832.86 78.2095 1827.03 74.8413C1821.21 78.2095 1814.45 80.1372 1807.24 80.1372C1798.86 80.1372 1791.08 77.5314 1784.68 73.0857C1783.93 73.1281 1783.18 73.1497 1782.41 73.1497C1780.51 73.1497 1778.63 73.0148 1776.8 72.754C1769.88 84.2841 1757.25 92.0002 1742.83 92.0002C1735.62 92.0002 1728.86 90.0725 1723.03 86.7043C1717.21 90.0725 1710.45 92.0002 1703.24 92.0002C1687.69 92.0002 1674.23 83.0329 1667.76 69.9871C1666.01 70.2231 1664.23 70.345 1662.41 70.345C1657.12 70.345 1652.06 69.3046 1647.44 67.417C1640.69 72.7901 1632.13 76.0002 1622.83 76.0002C1613.52 76.0002 1604.97 72.7901 1598.21 67.417C1593.59 69.3046 1588.54 70.345 1583.24 70.345C1571.61 70.345 1561.15 65.3289 1553.91 57.3419C1545.41 57.2355 1537.55 54.4503 1531.15 49.7916C1523.9 57.8979 1513.36 63.0002 1501.63 63.0002C1499.52 63.0002 1497.44 62.8342 1495.41 62.5144C1488.34 69.1122 1478.85 73.1496 1468.41 73.1496C1466.51 73.1496 1464.63 73.0148 1462.8 72.754C1455.88 84.2841 1443.25 92.0002 1428.83 92.0002C1421.62 92.0002 1414.86 90.0725 1409.03 86.7043C1403.21 90.0725 1396.45 92.0002 1389.24 92.0002C1370.76 92.0002 1355.23 79.3331 1350.88 62.2065C1349.84 62.1408 1348.81 62.0351 1347.8 61.891C1340.88 73.4211 1328.25 81.1372 1313.83 81.1372C1306.62 81.1372 1299.86 79.2094 1294.03 75.8412C1288.21 79.2094 1281.45 81.1372 1274.24 81.1372C1265.86 81.1371 1258.08 78.5314 1251.68 74.0856C1250.93 74.1281 1250.18 74.1496 1249.41 74.1496C1247.51 74.1496 1245.63 74.0147 1243.8 73.754C1236.88 85.2841 1224.25 93.0002 1209.83 93.0002C1202.62 93.0002 1195.86 91.0724 1190.03 87.7042C1184.21 91.0724 1177.45 93.0002 1170.24 93.0002C1154.69 93.0002 1141.23 84.0329 1134.76 70.9871C1133.01 71.2231 1131.23 71.345 1129.41 71.345C1124.12 71.345 1119.06 70.3045 1114.44 68.4169C1107.69 73.79 1099.13 77.0001 1089.83 77.0001C1080.52 77.0001 1071.97 73.79 1065.21 68.4169C1060.59 70.3045 1055.54 71.3449 1050.24 71.3449C1038.61 71.3449 1028.15 66.3288 1020.91 58.3418C1012.41 58.2355 1004.55 55.4503 998.15 50.7916C990.901 58.8979 980.363 64.0002 968.632 64.0002C966.516 64.0002 964.439 63.8341 962.412 63.5143C955.34 70.1122 945.849 74.1496 935.414 74.1496C933.507 74.1496 931.631 74.0147 929.796 73.754C922.877 85.2841 910.253 93.0002 895.828 93.0002C888.617 93.0002 881.857 91.0724 876.034 87.7042C870.212 91.0724 863.452 93.0002 856.241 93.0002C838.174 93.0001 822.934 80.8969 818.187 64.3562C811.567 69.3354 803.335 72.2865 794.414 72.2865C792.507 72.2865 790.631 72.1517 788.796 71.8909C781.877 83.421 769.253 91.1371 754.828 91.1371C747.617 91.1371 740.857 89.2094 735.034 85.8412C729.212 89.2094 722.452 91.1371 715.241 91.1371C706.858 91.1371 699.084 88.5313 692.684 84.0856C691.933 84.128 691.176 84.1496 690.414 84.1496C688.507 84.1496 686.631 84.0147 684.796 83.7539C677.877 95.284 665.253 103 650.828 103C643.617 103 636.857 101.072 631.035 97.7042C625.212 101.072 618.452 103 611.241 103C595.69 103 582.233 94.0329 575.76 80.987C574.011 81.223 572.227 81.3449 570.414 81.3449C565.117 81.3449 560.063 80.3045 555.445 78.4169C548.687 83.79 540.132 87.0001 530.828 87.0001C521.523 87.0001 512.968 83.79 506.21 78.4169C501.593 80.3045 496.538 81.3449 491.241 81.3449C479.61 81.3449 469.151 76.3288 461.908 68.3418C453.408 68.2354 445.554 65.4502 439.15 60.7915C431.901 68.8979 421.363 74.0001 409.632 74.0001C407.516 74.0001 405.439 73.8341 403.412 73.5143C396.34 80.1121 386.849 84.1495 376.414 84.1495C374.507 84.1495 372.631 84.0147 370.796 83.7539C363.876 95.284 351.253 103 336.828 103C329.617 103 322.857 101.072 317.035 97.7042C311.212 101.072 304.452 103 297.241 103C278.758 103 263.234 90.333 258.876 73.2064C257.838 73.1407 256.81 73.035 255.796 72.8909C248.877 84.421 236.253 92.1371 221.828 92.1371C214.617 92.1371 207.857 90.2093 202.034 86.8411C196.212 90.2093 189.452 92.1371 182.241 92.1371C173.858 92.1371 166.084 89.5313 159.684 85.0855C158.933 85.128 158.176 85.1495 157.414 85.1495C155.507 85.1495 153.631 85.0146 151.796 84.7539C144.877 96.284 132.253 104 117.828 104C110.617 104 103.857 102.072 98.0345 98.7042C92.2119 102.072 85.4518 104 78.2413 104C62.6902 104 49.2334 95.0328 42.7598 81.987C41.0114 82.223 39.2268 82.3449 37.4138 82.3449C32.1167 82.3449 27.0626 81.3044 22.4447 79.4168C15.6869 84.7899 7.13208 88 -2.17236 88C-11.4769 88 -20.0316 84.7899 -26.7895 79.4168C-31.4075 81.3044 -36.4615 82.3449 -41.7587 82.3449C-53.3896 82.3449 -63.8491 77.3287 -71.0918 69.3417C-79.5915 69.2354 -87.4459 66.4502 -93.8497 61.7915C-101.099 69.8978 -111.637 75.0001 -123.368 75.0001C-125.484 75.0001 -127.561 74.834 -129.588 74.5142C-136.66 81.1121 -146.151 85.1495 -156.586 85.1495C-158.493 85.1495 -160.369 85.0146 -162.204 84.7539C-169.124 96.284 -181.747 104 -196.172 104C-203.383 104 -210.143 102.072 -215.966 98.7041C-221.788 102.072 -228.548 104 -235.759 104C-257.622 104 -275.345 86.2767 -275.345 64.4138C-275.345 55.7201 -272.542 47.6809 -267.791 41.1504C-275.898 33.9015 -281 23.3627 -281 11.6322C-281 2.77414 -278.091 -5.40442 -273.175 -11.9999Z" fill="white"/>
</svg>
