<svg width="430" height="94" viewBox="0 0 430 94" fill="none" xmlns="http://www.w3.org/2000/svg">
<path fill-rule="evenodd" clip-rule="evenodd" d="M604 -10.9999L-42 -11V89.498C-37.5808 91.2025 -32.7789 92.137 -27.7587 92.137C-20.5482 92.137 -13.7881 90.2092 -7.96558 86.841C-2.14294 90.2092 4.61719 92.137 11.8276 92.137C26.2532 92.137 38.8766 84.4209 45.7957 72.8908C47.6309 73.1515 49.5066 73.2864 51.4138 73.2864C60.3351 73.2864 68.5671 70.3353 75.1869 65.356C79.9343 81.8967 95.1744 94 113.241 94C120.452 94 127.212 92.0723 133.034 88.7041C138.857 92.0723 145.617 94 152.828 94C167.253 94 179.877 86.2839 186.796 74.7538C188.631 75.0146 190.507 75.1494 192.414 75.1494C202.849 75.1494 212.34 71.1121 219.412 64.5142C221.439 64.834 223.516 65 225.632 65C237.363 65 247.901 59.8978 255.15 51.7914C261.554 56.4501 269.408 59.2353 277.908 59.3417C285.151 67.3287 295.61 72.3448 307.241 72.3448C312.538 72.3448 317.593 71.3044 322.21 69.4168C328.968 74.7899 337.523 78 346.828 78C356.132 78 364.687 74.7899 371.445 69.4168C376.063 71.3044 381.117 72.3448 386.414 72.3448C388.227 72.3448 390.011 72.2229 391.76 71.9869C398.233 85.0328 411.69 94 427.241 94C434.452 94 441.212 92.0723 447.034 88.7041C452.857 92.0723 459.617 94 466.828 94C481.253 94 493.877 86.2839 500.796 74.7539C502.631 75.0146 504.507 75.1495 506.414 75.1495C507.176 75.1495 507.933 75.128 508.684 75.0855C515.084 79.5312 522.858 82.137 531.241 82.137C538.452 82.137 545.212 80.2093 551.034 76.8411C556.857 80.2093 563.617 82.137 570.828 82.137C584.717 82.137 596.935 74.9843 604 64.1615V-10.9999Z" fill="#BBD7E7"/>
<path fill-rule="evenodd" clip-rule="evenodd" d="M645 -19.9999L-1 -20V80.498C3.4192 82.2025 8.22113 83.137 13.2413 83.137C20.4518 83.137 27.2119 81.2092 33.0344 77.841C38.8571 81.2092 45.6172 83.137 52.8276 83.137C67.2532 83.137 79.8766 75.4209 86.7957 63.8908C88.6309 64.1515 90.5066 64.2864 92.4138 64.2864C101.335 64.2864 109.567 61.3353 116.187 56.356C120.934 72.8967 136.174 85 154.241 85C161.452 85 168.212 83.0723 174.034 79.7041C179.857 83.0723 186.617 85 193.828 85C208.253 85 220.877 77.2839 227.796 65.7538C229.631 66.0146 231.507 66.1494 233.414 66.1494C243.849 66.1494 253.34 62.1121 260.412 55.5142C262.439 55.834 264.516 56 266.632 56C278.363 56 288.901 50.8978 296.15 42.7914C302.554 47.4501 310.408 50.2353 318.908 50.3417C326.151 58.3287 336.61 63.3448 348.241 63.3448C353.538 63.3448 358.593 62.3044 363.21 60.4168C369.968 65.7899 378.523 69 387.828 69C397.132 69 405.687 65.7899 412.445 60.4168C417.063 62.3044 422.117 63.3448 427.414 63.3448C429.227 63.3448 431.011 63.2229 432.76 62.9869C439.233 76.0328 452.69 85 468.241 85C475.452 85 482.212 83.0723 488.034 79.7041C493.857 83.0723 500.617 85 507.828 85C522.253 85 534.877 77.2839 541.796 65.7539C543.631 66.0146 545.507 66.1495 547.414 66.1495C548.176 66.1495 548.933 66.128 549.684 66.0855C556.084 70.5312 563.858 73.137 572.241 73.137C579.452 73.137 586.212 71.2093 592.034 67.8411C597.857 71.2093 604.617 73.137 611.828 73.137C625.717 73.137 637.935 65.9843 645 55.1615V-19.9999Z" fill="white"/>
</svg>
