<svg width="430" height="195" viewBox="0 0 430 195" fill="none" xmlns="http://www.w3.org/2000/svg">
<mask id="path-1-inside-1_29_6470" fill="white">
<path fill-rule="evenodd" clip-rule="evenodd" d="M188.362 507.363C203.977 507.363 217.017 496.336 220.119 481.645C227.329 481.409 233.945 478.821 239.223 474.625C243.01 476.172 247.154 477.026 251.497 477.026C252.983 477.026 254.447 476.926 255.88 476.732C261.188 487.429 272.222 494.781 284.973 494.781C290.885 494.781 296.428 493.201 301.202 490.439C305.976 493.201 311.519 494.781 317.431 494.781C329.259 494.781 339.609 488.455 345.283 479.001C346.787 479.215 348.325 479.325 349.889 479.325C350.514 479.325 351.134 479.307 351.75 479.273C356.998 482.918 363.373 485.054 370.246 485.054C376.158 485.054 381.701 483.474 386.475 480.712C391.249 483.474 396.792 485.054 402.704 485.054C414.532 485.054 424.883 478.728 430.556 469.274C432.061 469.488 433.599 469.598 435.162 469.598C453.089 469.598 467.621 455.066 467.621 437.14C467.621 430.172 465.425 423.717 461.688 418.429C462.531 415.539 462.984 412.482 462.984 409.319C462.984 397.943 457.132 387.935 448.275 382.139C456.974 376.316 462.701 366.4 462.701 355.146C462.701 348.179 460.505 341.723 456.768 336.435C457.612 333.545 458.064 330.488 458.064 327.325C458.064 313.722 449.695 302.073 437.826 297.246C444.057 291.331 447.942 282.97 447.942 273.7C447.942 264.082 443.759 255.441 437.112 249.497C440.84 244.373 443.105 238.115 443.293 231.338C457.284 227.729 467.621 215.025 467.621 199.906C467.621 190.288 463.437 181.647 456.79 175.703C460.686 170.349 462.984 163.757 462.984 156.629C462.984 140.669 451.465 127.4 436.288 124.68C437.116 121.822 437.562 118.8 437.566 115.676C445.831 109.792 451.222 100.133 451.222 89.2148C451.222 79.5966 447.038 70.9555 440.392 65.0118C444.287 59.6572 446.585 53.0656 446.585 45.9373C446.585 28.0111 432.053 13.4791 414.127 13.4791C408.215 13.4791 402.672 15.0597 397.898 17.8215C393.124 15.0597 387.581 13.4791 381.669 13.4791C369.841 13.4791 359.49 19.8058 353.817 29.2598C352.312 29.046 350.774 28.9354 349.211 28.9354C340.655 28.9354 332.872 32.2458 327.074 37.6556C325.412 37.3934 323.709 37.2572 321.974 37.2572C312.355 37.2572 303.714 41.4408 297.771 48.0875C292.52 44.2677 286.08 41.984 279.111 41.8968C273.172 35.3479 264.596 31.235 255.059 31.235C250.716 31.235 246.572 32.0881 242.786 33.6358C237.245 29.2301 230.23 26.5981 222.601 26.598C214.972 26.598 207.958 29.2301 202.417 33.6358C198.63 32.0881 194.486 31.235 190.143 31.235C188.656 31.235 187.193 31.3349 185.76 31.5285C180.452 20.8317 169.418 13.4791 156.667 13.4791C150.755 13.4791 145.212 15.0597 140.438 17.8215C135.664 15.0597 130.121 13.4791 124.209 13.4791C112.381 13.4791 102.03 19.8058 96.3573 29.2598C94.8525 29.046 93.3146 28.9354 91.7507 28.9354C91.126 28.9354 90.5055 28.953 89.8895 28.9879C84.6419 25.3426 78.2673 23.2061 71.3937 23.2061C65.4817 23.2061 59.9388 24.7867 55.1647 27.5484C50.3905 24.7867 44.8476 23.2061 38.9356 23.2061C27.1075 23.2061 16.7572 29.5328 11.084 38.9867C9.57923 38.7729 8.04125 38.6623 6.47744 38.6623C-11.4487 38.6623 -25.9807 53.1943 -25.9807 71.1205C-25.9807 78.0884 -23.7851 84.5435 -20.0479 89.8317C-20.8915 92.7219 -21.3438 95.779 -21.3438 98.9417C-21.3438 103.775 -20.2873 108.362 -18.3926 112.484C-28.3026 118.04 -35 128.645 -35 140.815C-35 147.783 -32.8044 154.238 -29.0672 159.526C-29.9108 162.416 -30.3631 165.474 -30.3631 168.636C-30.3631 184.596 -18.8445 197.865 -3.6671 200.584C-4.49915 203.457 -4.94511 206.493 -4.94511 209.633C-4.94511 214.607 -3.82608 219.321 -1.82603 223.534C-17.3667 225.949 -29.2605 239.388 -29.2605 255.606C-29.2605 262.574 -27.0648 269.029 -23.3277 274.317C-24.1712 277.207 -24.6236 280.265 -24.6236 283.427C-24.6236 297.031 -16.2549 308.68 -4.38506 313.507C-10.6161 319.421 -14.5016 327.783 -14.5016 337.052C-14.5016 346.67 -10.3181 355.311 -3.67141 361.255C-7.56685 366.61 -9.86474 373.201 -9.86474 380.33C-9.86474 387.67 -7.42845 394.44 -3.32041 399.878C-7.25725 405.249 -9.58199 411.876 -9.58199 419.046C-9.58199 428.664 -5.39845 437.305 1.2482 443.249C-2.64723 448.603 -4.94512 455.195 -4.94512 462.323C-4.94512 480.249 9.58688 494.781 27.513 494.781C33.4251 494.781 38.9679 493.201 43.7421 490.439C48.5163 493.201 54.0591 494.781 59.9712 494.781C71.7992 494.781 82.1496 488.455 87.8228 479.001C89.3275 479.215 90.8655 479.325 92.4293 479.325C100.541 479.325 107.958 476.349 113.648 471.43C112.981 474.023 112.626 476.741 112.626 479.542C112.626 497.468 127.158 512 145.084 512C154.702 512 163.344 507.816 169.287 501.17C174.642 505.065 181.233 507.363 188.362 507.363Z"/>
</mask>
<path fill-rule="evenodd" clip-rule="evenodd" d="M188.362 507.363C203.977 507.363 217.017 496.336 220.119 481.645C227.329 481.409 233.945 478.821 239.223 474.625C243.01 476.172 247.154 477.026 251.497 477.026C252.983 477.026 254.447 476.926 255.88 476.732C261.188 487.429 272.222 494.781 284.973 494.781C290.885 494.781 296.428 493.201 301.202 490.439C305.976 493.201 311.519 494.781 317.431 494.781C329.259 494.781 339.609 488.455 345.283 479.001C346.787 479.215 348.325 479.325 349.889 479.325C350.514 479.325 351.134 479.307 351.75 479.273C356.998 482.918 363.373 485.054 370.246 485.054C376.158 485.054 381.701 483.474 386.475 480.712C391.249 483.474 396.792 485.054 402.704 485.054C414.532 485.054 424.883 478.728 430.556 469.274C432.061 469.488 433.599 469.598 435.162 469.598C453.089 469.598 467.621 455.066 467.621 437.14C467.621 430.172 465.425 423.717 461.688 418.429C462.531 415.539 462.984 412.482 462.984 409.319C462.984 397.943 457.132 387.935 448.275 382.139C456.974 376.316 462.701 366.4 462.701 355.146C462.701 348.179 460.505 341.723 456.768 336.435C457.612 333.545 458.064 330.488 458.064 327.325C458.064 313.722 449.695 302.073 437.826 297.246C444.057 291.331 447.942 282.97 447.942 273.7C447.942 264.082 443.759 255.441 437.112 249.497C440.84 244.373 443.105 238.115 443.293 231.338C457.284 227.729 467.621 215.025 467.621 199.906C467.621 190.288 463.437 181.647 456.79 175.703C460.686 170.349 462.984 163.757 462.984 156.629C462.984 140.669 451.465 127.4 436.288 124.68C437.116 121.822 437.562 118.8 437.566 115.676C445.831 109.792 451.222 100.133 451.222 89.2148C451.222 79.5966 447.038 70.9555 440.392 65.0118C444.287 59.6572 446.585 53.0656 446.585 45.9373C446.585 28.0111 432.053 13.4791 414.127 13.4791C408.215 13.4791 402.672 15.0597 397.898 17.8215C393.124 15.0597 387.581 13.4791 381.669 13.4791C369.841 13.4791 359.49 19.8058 353.817 29.2598C352.312 29.046 350.774 28.9354 349.211 28.9354C340.655 28.9354 332.872 32.2458 327.074 37.6556C325.412 37.3934 323.709 37.2572 321.974 37.2572C312.355 37.2572 303.714 41.4408 297.771 48.0875C292.52 44.2677 286.08 41.984 279.111 41.8968C273.172 35.3479 264.596 31.235 255.059 31.235C250.716 31.235 246.572 32.0881 242.786 33.6358C237.245 29.2301 230.23 26.5981 222.601 26.598C214.972 26.598 207.958 29.2301 202.417 33.6358C198.63 32.0881 194.486 31.235 190.143 31.235C188.656 31.235 187.193 31.3349 185.76 31.5285C180.452 20.8317 169.418 13.4791 156.667 13.4791C150.755 13.4791 145.212 15.0597 140.438 17.8215C135.664 15.0597 130.121 13.4791 124.209 13.4791C112.381 13.4791 102.03 19.8058 96.3573 29.2598C94.8525 29.046 93.3146 28.9354 91.7507 28.9354C91.126 28.9354 90.5055 28.953 89.8895 28.9879C84.6419 25.3426 78.2673 23.2061 71.3937 23.2061C65.4817 23.2061 59.9388 24.7867 55.1647 27.5484C50.3905 24.7867 44.8476 23.2061 38.9356 23.2061C27.1075 23.2061 16.7572 29.5328 11.084 38.9867C9.57923 38.7729 8.04125 38.6623 6.47744 38.6623C-11.4487 38.6623 -25.9807 53.1943 -25.9807 71.1205C-25.9807 78.0884 -23.7851 84.5435 -20.0479 89.8317C-20.8915 92.7219 -21.3438 95.779 -21.3438 98.9417C-21.3438 103.775 -20.2873 108.362 -18.3926 112.484C-28.3026 118.04 -35 128.645 -35 140.815C-35 147.783 -32.8044 154.238 -29.0672 159.526C-29.9108 162.416 -30.3631 165.474 -30.3631 168.636C-30.3631 184.596 -18.8445 197.865 -3.6671 200.584C-4.49915 203.457 -4.94511 206.493 -4.94511 209.633C-4.94511 214.607 -3.82608 219.321 -1.82603 223.534C-17.3667 225.949 -29.2605 239.388 -29.2605 255.606C-29.2605 262.574 -27.0648 269.029 -23.3277 274.317C-24.1712 277.207 -24.6236 280.265 -24.6236 283.427C-24.6236 297.031 -16.2549 308.68 -4.38506 313.507C-10.6161 319.421 -14.5016 327.783 -14.5016 337.052C-14.5016 346.67 -10.3181 355.311 -3.67141 361.255C-7.56685 366.61 -9.86474 373.201 -9.86474 380.33C-9.86474 387.67 -7.42845 394.44 -3.32041 399.878C-7.25725 405.249 -9.58199 411.876 -9.58199 419.046C-9.58199 428.664 -5.39845 437.305 1.2482 443.249C-2.64723 448.603 -4.94512 455.195 -4.94512 462.323C-4.94512 480.249 9.58688 494.781 27.513 494.781C33.4251 494.781 38.9679 493.201 43.7421 490.439C48.5163 493.201 54.0591 494.781 59.9712 494.781C71.7992 494.781 82.1496 488.455 87.8228 479.001C89.3275 479.215 90.8655 479.325 92.4293 479.325C100.541 479.325 107.958 476.349 113.648 471.43C112.981 474.023 112.626 476.741 112.626 479.542C112.626 497.468 127.158 512 145.084 512C154.702 512 163.344 507.816 169.287 501.17C174.642 505.065 181.233 507.363 188.362 507.363Z" fill="#EFEFEF"/>
<path d="M220.119 481.645L219.956 476.647L216.037 476.776L215.227 480.612L220.119 481.645ZM239.223 474.625L241.115 469.996L238.404 468.888L236.111 470.711L239.223 474.625ZM255.88 476.732L260.359 474.51L258.765 471.297L255.211 471.777L255.88 476.732ZM301.202 490.439L303.706 486.111L301.202 484.663L298.698 486.111L301.202 490.439ZM345.283 479.001L345.986 474.05L342.702 473.584L340.995 476.428L345.283 479.001ZM351.75 479.273L354.603 475.166L353.188 474.183L351.468 474.281L351.75 479.273ZM386.475 480.712L388.979 476.384L386.475 474.936L383.972 476.384L386.475 480.712ZM430.556 469.274L431.259 464.323L427.975 463.857L426.269 466.701L430.556 469.274ZM461.688 418.429L456.888 417.028L456.212 419.344L457.605 421.314L461.688 418.429ZM448.275 382.139L445.494 377.984L439.215 382.186L445.537 386.323L448.275 382.139ZM456.768 336.435L451.968 335.034L451.293 337.351L452.685 339.321L456.768 336.435ZM437.826 297.246L434.383 293.619L428.76 298.957L435.942 301.878L437.826 297.246ZM437.112 249.497L433.069 246.556L430.409 250.211L433.779 253.225L437.112 249.497ZM443.293 231.338L442.044 226.496L438.399 227.436L438.295 231.199L443.293 231.338ZM456.79 175.703L452.747 172.762L450.088 176.417L453.457 179.43L456.79 175.703ZM436.288 124.68L431.485 123.289L429.94 128.623L435.406 129.602L436.288 124.68ZM437.566 115.676L434.666 111.602L432.569 113.095L432.566 115.669L437.566 115.676ZM440.392 65.0118L436.348 62.0704L433.689 65.7258L437.059 68.739L440.392 65.0118ZM397.898 17.8215L395.394 22.1495L397.898 23.5978L400.401 22.1495L397.898 17.8215ZM353.817 29.2598L353.114 34.2101L356.398 34.6766L358.104 31.8325L353.817 29.2598ZM327.074 37.6556L326.294 42.5944L328.702 42.9745L330.484 41.3115L327.074 37.6556ZM297.771 48.0875L294.829 52.1307L298.485 54.79L301.498 51.4204L297.771 48.0875ZM279.111 41.8968L275.407 45.2555L276.87 46.8691L279.048 46.8964L279.111 41.8968ZM255.059 31.235V36.235V31.235ZM242.786 33.6358L239.674 37.5495L241.966 39.3723L244.678 38.2641L242.786 33.6358ZM222.601 26.598V21.598V26.598ZM202.417 33.6358L200.525 38.2641L203.236 39.3722L205.528 37.5495L202.417 33.6358ZM185.76 31.5285L181.281 33.751L182.875 36.9633L186.429 36.4835L185.76 31.5285ZM140.438 17.8215L137.934 22.1495L140.438 23.5978L142.942 22.1495L140.438 17.8215ZM96.3573 29.2598L95.654 34.2101L98.9379 34.6766L100.645 31.8325L96.3573 29.2598ZM89.8895 28.9879L87.037 33.0943L88.4518 34.0771L90.1717 33.9799L89.8895 28.9879ZM55.1647 27.5484L52.661 31.8764L55.1647 33.3247L57.6683 31.8764L55.1647 27.5484ZM11.084 38.9867L10.3807 43.937L13.6646 44.4036L15.3713 41.5595L11.084 38.9867ZM-20.0479 89.8317L-15.2482 91.2325L-14.5722 88.9164L-15.9647 86.946L-20.0479 89.8317ZM-18.3926 112.484L-15.9473 116.845L-11.9222 114.588L-13.8496 110.395L-18.3926 112.484ZM-29.0672 159.526L-24.2675 160.927L-23.5915 158.611L-24.984 156.641L-29.0672 159.526ZM-3.6671 200.584L1.13543 201.976L2.68058 196.642L-2.78534 195.663L-3.6671 200.584ZM-1.82603 223.534L-1.05836 228.475L5.56526 227.446L2.69096 221.39L-1.82603 223.534ZM-23.3277 274.317L-18.5279 275.718L-17.8519 273.402L-19.2444 271.432L-23.3277 274.317ZM-4.38506 313.507L-0.942871 317.133L4.68045 311.796L-2.50157 308.875L-4.38506 313.507ZM-3.67141 361.255L0.371849 364.197L3.03112 360.541L-0.338493 357.528L-3.67141 361.255ZM-9.86474 380.33H-14.8647H-9.86474ZM-3.32041 399.878L0.712364 402.833L2.91199 399.832L0.668964 396.864L-3.32041 399.878ZM-9.58199 419.046H-4.58199H-9.58199ZM1.2482 443.249L5.29146 446.19L7.95073 442.535L4.58113 439.522L1.2482 443.249ZM-4.94512 462.323H0.054882H-4.94512ZM43.7421 490.439L46.2457 486.111L43.7421 484.663L41.2385 486.111L43.7421 490.439ZM87.8228 479.001L88.5261 474.05L85.2422 473.584L83.5355 476.428L87.8228 479.001ZM113.648 471.43L118.49 472.676L122.476 457.187L110.378 467.647L113.648 471.43ZM169.287 501.17L172.229 497.127L168.573 494.467L165.56 497.837L169.287 501.17ZM215.227 480.612C212.603 493.038 201.566 502.363 188.362 502.363V512.363C206.388 512.363 221.431 499.634 225.011 482.678L215.227 480.612ZM236.111 470.711C231.645 474.262 226.056 476.448 219.956 476.647L220.283 486.642C228.603 486.37 236.245 483.38 242.335 478.538L236.111 470.711ZM251.497 472.026C247.813 472.026 244.311 471.303 241.115 469.996L237.331 479.253C241.708 481.042 246.494 482.026 251.497 482.026V472.026ZM255.211 471.777C253.999 471.941 252.759 472.026 251.497 472.026V482.026C253.208 482.026 254.894 481.91 256.549 481.687L255.211 471.777ZM284.973 489.781C274.193 489.781 264.855 483.571 260.359 474.51L251.401 478.955C257.521 491.287 270.25 499.781 284.973 499.781V489.781ZM298.698 486.111C294.665 488.444 289.982 489.781 284.973 489.781V499.781C291.787 499.781 298.191 497.957 303.706 494.767L298.698 486.111ZM317.431 489.781C312.421 489.781 307.739 488.444 303.706 486.111L298.698 494.767C304.213 497.957 310.617 499.781 317.431 499.781V489.781ZM340.995 476.428C336.188 484.439 327.431 489.781 317.431 489.781V499.781C331.087 499.781 343.031 492.471 349.57 481.573L340.995 476.428ZM349.889 474.325C348.561 474.325 347.258 474.231 345.986 474.05L344.579 483.951C346.316 484.198 348.089 484.325 349.889 484.325V474.325ZM351.468 474.281C350.946 474.31 350.42 474.325 349.889 474.325V484.325C350.608 484.325 351.323 484.305 352.033 484.265L351.468 474.281ZM370.246 480.054C364.425 480.054 359.04 478.248 354.603 475.166L348.898 483.379C354.956 487.587 362.32 490.054 370.246 490.054V480.054ZM383.972 476.384C379.938 478.717 375.256 480.054 370.246 480.054V490.054C377.061 490.054 383.464 488.23 388.979 485.04L383.972 476.384ZM402.704 480.054C397.695 480.054 393.013 478.717 388.979 476.384L383.972 485.04C389.486 488.23 395.89 490.054 402.704 490.054V480.054ZM426.269 466.701C421.462 474.712 412.704 480.054 402.704 480.054V490.054C416.36 490.054 428.304 482.744 434.843 471.847L426.269 466.701ZM435.162 464.598C433.835 464.598 432.532 464.504 431.259 464.323L429.853 474.224C431.59 474.471 433.363 474.598 435.162 474.598V464.598ZM462.621 437.14C462.621 452.305 450.327 464.598 435.162 464.598V474.598C455.85 474.598 472.621 457.828 472.621 437.14H462.621ZM457.605 421.314C460.765 425.786 462.621 431.239 462.621 437.14H472.621C472.621 429.105 470.085 421.648 465.771 415.543L457.605 421.314ZM457.984 409.319C457.984 412.003 457.6 414.588 456.888 417.028L466.488 419.83C467.463 416.489 467.984 412.96 467.984 409.319H457.984ZM445.537 386.323C453.043 391.234 457.984 399.701 457.984 409.319H467.984C467.984 396.186 461.222 384.636 451.013 377.955L445.537 386.323ZM457.701 355.146C457.701 364.662 452.865 373.05 445.494 377.984L451.056 386.294C461.082 379.583 467.701 368.139 467.701 355.146H457.701ZM452.685 339.321C455.845 343.793 457.701 349.245 457.701 355.146H467.701C467.701 347.112 465.166 339.654 460.852 333.55L452.685 339.321ZM453.064 327.325C453.064 330.009 452.681 332.595 451.968 335.034L461.568 337.836C462.543 334.495 463.064 330.967 463.064 327.325H453.064ZM435.942 301.878C445.993 305.965 453.064 315.825 453.064 327.325H463.064C463.064 311.618 453.398 298.181 439.709 292.614L435.942 301.878ZM442.942 273.7C442.942 281.542 439.661 288.61 434.383 293.619L441.268 300.872C448.452 294.053 452.942 284.397 452.942 273.7H442.942ZM433.779 253.225C439.41 258.26 442.942 265.564 442.942 273.7H452.942C452.942 262.6 448.107 252.622 440.445 245.77L433.779 253.225ZM438.295 231.199C438.136 236.935 436.222 242.221 433.069 246.556L441.155 252.439C445.458 246.524 448.074 239.295 448.291 231.476L438.295 231.199ZM462.621 199.906C462.621 212.689 453.881 223.443 442.044 226.496L444.541 236.179C460.687 232.015 472.621 217.36 472.621 199.906H462.621ZM453.457 179.43C459.088 184.466 462.621 191.77 462.621 199.906H472.621C472.621 188.806 467.786 178.828 460.123 171.976L453.457 179.43ZM457.984 156.629C457.984 162.665 456.042 168.233 452.747 172.762L460.834 178.645C465.33 172.464 467.984 164.849 467.984 156.629H457.984ZM435.406 129.602C448.242 131.902 457.984 143.133 457.984 156.629H467.984C467.984 138.205 454.688 122.897 437.169 119.759L435.406 129.602ZM432.566 115.669C432.562 118.321 432.184 120.876 431.485 123.289L441.09 126.072C442.047 122.768 442.561 119.28 442.566 115.682L432.566 115.669ZM446.222 89.2148C446.222 98.4472 441.67 106.617 434.666 111.602L440.465 119.749C449.992 112.968 456.222 101.819 456.222 89.2148H446.222ZM437.059 68.739C442.69 73.7742 446.222 81.0787 446.222 89.2148H456.222C456.222 78.1144 451.387 68.1367 443.725 61.2847L437.059 68.739ZM441.585 45.9373C441.585 51.9737 439.643 57.5418 436.348 62.0704L444.435 67.9533C448.931 61.7727 451.585 54.1575 451.585 45.9373H441.585ZM414.127 18.4791C429.292 18.4791 441.585 30.7726 441.585 45.9373H451.585C451.585 25.2497 434.814 8.47913 414.127 8.47913V18.4791ZM400.401 22.1495C404.435 19.8161 409.117 18.4791 414.127 18.4791V8.47913C407.312 8.47913 400.909 10.3033 395.394 13.4934L400.401 22.1495ZM381.669 18.4791C386.678 18.4791 391.361 19.8161 395.394 22.1495L400.401 13.4934C394.887 10.3033 388.483 8.47913 381.669 8.47913V18.4791ZM358.104 31.8325C362.911 23.8219 371.669 18.4791 381.669 18.4791V8.47913C368.013 8.47913 356.069 15.7898 349.53 26.687L358.104 31.8325ZM349.211 33.9354C350.538 33.9354 351.841 34.0293 353.114 34.2101L354.52 24.3095C352.783 24.0627 351.01 23.9354 349.211 23.9354V33.9354ZM330.484 41.3115C335.394 36.7312 341.97 33.9354 349.211 33.9354V23.9354C339.339 23.9354 330.35 27.7604 323.663 33.9996L330.484 41.3115ZM321.974 42.2572C323.447 42.2572 324.89 42.3728 326.294 42.5944L327.853 32.7167C325.935 32.414 323.971 32.2572 321.974 32.2572V42.2572ZM301.498 51.4204C306.533 45.7896 313.837 42.2572 321.974 42.2572V32.2572C310.873 32.2572 300.895 37.092 294.043 44.7545L301.498 51.4204ZM279.048 46.8964C284.948 46.9702 290.388 48.8999 294.829 52.1307L300.712 44.0442C294.652 39.6354 287.212 36.9978 279.173 36.8972L279.048 46.8964ZM255.059 36.235C263.127 36.235 270.376 39.7078 275.407 45.2555L282.815 38.5381C275.968 30.9881 266.065 26.235 255.059 26.235V36.235ZM244.678 38.2641C247.874 36.9576 251.376 36.235 255.059 36.235V26.235C250.056 26.235 245.27 27.2186 240.894 29.0075L244.678 38.2641ZM222.601 31.598C229.06 31.598 234.986 33.8219 239.674 37.5495L245.897 29.7221C239.504 24.6384 231.401 21.5981 222.601 21.598V31.598ZM205.528 37.5495C210.217 33.8219 216.142 31.598 222.601 31.598V21.598C213.802 21.598 205.699 24.6384 199.305 29.7221L205.528 37.5495ZM190.143 36.235C193.826 36.235 197.329 36.9576 200.525 38.2641L204.308 29.0075C199.932 27.2186 195.146 26.235 190.143 26.235V36.235ZM186.429 36.4835C187.641 36.3198 188.881 36.235 190.143 36.235V26.235C188.432 26.235 186.745 26.35 185.091 26.5734L186.429 36.4835ZM156.667 18.4791C167.447 18.4791 176.785 24.6899 181.281 33.751L190.239 29.3059C184.119 16.9735 171.39 8.47913 156.667 8.47913V18.4791ZM142.942 22.1495C146.975 19.8161 151.657 18.4791 156.667 18.4791V8.47913C149.853 8.47913 143.449 10.3033 137.934 13.4934L142.942 22.1495ZM124.209 18.4791C129.219 18.4791 133.901 19.8161 137.934 22.1495L142.942 13.4934C137.427 10.3033 131.023 8.47913 124.209 8.47913V18.4791ZM100.645 31.8325C105.452 23.8219 114.209 18.4791 124.209 18.4791V8.47913C110.553 8.47913 98.6093 15.7898 92.07 26.687L100.645 31.8325ZM91.7507 33.9354C93.0785 33.9354 94.3815 34.0293 95.654 34.2101L97.0606 24.3095C95.3236 24.0627 93.5506 23.9354 91.7507 23.9354V33.9354ZM90.1717 33.9799C90.6938 33.9504 91.2202 33.9354 91.7507 33.9354V23.9354C91.0318 23.9354 90.3172 23.9557 89.6073 23.9958L90.1717 33.9799ZM71.3937 28.2061C77.2152 28.2061 82.5998 30.0121 87.037 33.0943L92.742 24.8814C86.684 20.6732 79.3195 18.2061 71.3937 18.2061V28.2061ZM57.6683 31.8764C61.7019 29.5431 66.3841 28.2061 71.3937 28.2061V18.2061C64.5793 18.2061 58.1757 20.0303 52.661 23.2204L57.6683 31.8764ZM38.9356 28.2061C43.9452 28.2061 48.6274 29.5431 52.661 31.8764L57.6683 23.2204C52.1536 20.0303 45.75 18.2061 38.9356 18.2061V28.2061ZM15.3713 41.5595C20.1784 33.5488 28.9355 28.2061 38.9356 28.2061V18.2061C25.2795 18.2061 13.336 25.5167 6.79668 36.4139L15.3713 41.5595ZM6.47744 43.6623C7.80521 43.6623 9.10818 43.7562 10.3807 43.937L11.7873 34.0364C10.0503 33.7896 8.27728 33.6623 6.47744 33.6623V43.6623ZM-20.9807 71.1205C-20.9807 55.9557 -8.68727 43.6623 6.47744 43.6623V33.6623C-14.2101 33.6623 -30.9807 50.4329 -30.9807 71.1205H-20.9807ZM-15.9647 86.946C-19.1249 82.4742 -20.9807 77.0215 -20.9807 71.1205H-30.9807C-30.9807 79.1553 -28.4453 86.6128 -24.1312 92.7173L-15.9647 86.946ZM-16.3438 98.9417C-16.3438 96.2579 -15.9603 93.6724 -15.2482 91.2325L-24.8477 88.4308C-25.8227 91.7715 -26.3438 95.3001 -26.3438 98.9417H-16.3438ZM-13.8496 110.395C-15.4493 106.915 -16.3438 103.04 -16.3438 98.9417H-26.3438C-26.3438 104.511 -25.1253 109.809 -22.9355 114.572L-13.8496 110.395ZM-30 140.815C-30 130.527 -24.3437 121.553 -15.9473 116.845L-20.8378 108.122C-32.2615 114.527 -40 126.764 -40 140.815H-30ZM-24.984 156.641C-28.1442 152.169 -30 146.716 -30 140.815H-40C-40 148.85 -37.4646 156.307 -33.1505 162.412L-24.984 156.641ZM-25.3631 168.636C-25.3631 165.952 -24.9796 163.367 -24.2675 160.927L-33.867 158.125C-34.842 161.466 -35.3631 164.995 -35.3631 168.636H-25.3631ZM-2.78534 195.663C-15.6214 193.363 -25.3631 182.132 -25.3631 168.636H-35.3631C-35.3631 187.06 -22.0675 202.367 -4.54886 205.506L-2.78534 195.663ZM0.0548935 209.633C0.0548935 206.968 0.433037 204.4 1.13543 201.976L-8.46964 199.193C-9.43133 202.513 -9.94511 206.017 -9.94511 209.633H0.0548935ZM2.69096 221.39C1.00221 217.832 0.0548935 213.85 0.0548935 209.633H-9.94511C-9.94511 215.365 -8.65438 220.809 -6.34303 225.678L2.69096 221.39ZM-24.2605 255.606C-24.2605 241.891 -14.2008 230.517 -1.05836 228.475L-2.5937 218.594C-20.5325 221.381 -34.2605 236.886 -34.2605 255.606H-24.2605ZM-19.2444 271.432C-22.4046 266.96 -24.2605 261.507 -24.2605 255.606H-34.2605C-34.2605 263.641 -31.725 271.098 -27.4109 277.203L-19.2444 271.432ZM-19.6236 283.427C-19.6236 280.744 -19.24 278.158 -18.5279 275.718L-28.1274 272.916C-29.1024 276.257 -29.6236 279.786 -29.6236 283.427H-19.6236ZM-2.50157 308.875C-12.5522 304.788 -19.6236 294.927 -19.6236 283.427H-29.6236C-29.6236 299.134 -19.9576 312.572 -6.26855 318.138L-2.50157 308.875ZM-9.50159 337.052C-9.50159 329.21 -6.22076 322.143 -0.942871 317.133L-7.82725 309.88C-15.0115 316.699 -19.5016 326.355 -19.5016 337.052H-9.50159ZM-0.338493 357.528C-5.96927 352.493 -9.50159 345.188 -9.50159 337.052H-19.5016C-19.5016 348.152 -14.6668 358.13 -7.00432 364.982L-0.338493 357.528ZM-4.86474 380.33C-4.86474 374.293 -2.92269 368.725 0.371849 364.197L-7.71467 358.314C-12.211 364.494 -14.8647 372.109 -14.8647 380.33H-4.86474ZM0.668964 396.864C-2.80598 392.264 -4.86474 386.545 -4.86474 380.33H-14.8647C-14.8647 388.795 -12.0509 396.617 -7.30979 402.892L0.668964 396.864ZM-4.58199 419.046C-4.58199 412.974 -2.6173 407.376 0.712364 402.833L-7.35319 396.922C-11.8972 403.122 -14.582 410.777 -14.582 419.046H-4.58199ZM4.58113 439.522C-1.04967 434.486 -4.58199 427.182 -4.58199 419.046H-14.582C-14.582 430.146 -9.74724 440.124 -2.08472 446.976L4.58113 439.522ZM0.054882 462.323C0.054882 456.287 1.99693 450.719 5.29146 446.19L-2.79505 440.307C-7.29139 446.488 -9.94512 454.103 -9.94512 462.323H0.054882ZM27.513 489.781C12.3483 489.781 0.054882 477.488 0.054882 462.323H-9.94512C-9.94512 483.011 6.82546 499.781 27.513 499.781V489.781ZM41.2385 486.111C37.2048 488.444 32.5227 489.781 27.513 489.781V499.781C34.3275 499.781 40.731 497.957 46.2457 494.767L41.2385 486.111ZM59.9712 489.781C54.9615 489.781 50.2794 488.444 46.2457 486.111L41.2385 494.767C46.7532 497.957 53.1567 499.781 59.9712 499.781V489.781ZM83.5355 476.428C78.7284 484.439 69.9712 489.781 59.9712 489.781V499.781C73.6272 499.781 85.5708 492.471 92.1101 481.573L83.5355 476.428ZM92.4293 474.325C91.1015 474.325 89.7986 474.231 88.5261 474.05L87.1194 483.951C88.8565 484.198 90.6295 484.325 92.4293 484.325V474.325ZM110.378 467.647C105.562 471.811 99.2954 474.325 92.4293 474.325V484.325C101.787 484.325 110.355 480.887 116.918 475.212L110.378 467.647ZM117.626 479.542C117.626 477.165 117.927 474.865 118.49 472.676L108.806 470.184C108.035 473.18 107.626 476.317 107.626 479.542H117.626ZM145.084 507C129.92 507 117.626 494.707 117.626 479.542H107.626C107.626 500.229 124.397 517 145.084 517V507ZM165.56 497.837C160.525 503.468 153.22 507 145.084 507V517C156.185 517 166.162 512.165 173.014 504.503L165.56 497.837ZM188.362 502.363C182.325 502.363 176.757 500.421 172.229 497.127L166.346 505.213C172.526 509.709 180.142 512.363 188.362 512.363V502.363Z" fill="black" mask="url(#path-1-inside-1_29_6470)"/>
<mask id="path-3-inside-2_29_6470" fill="white">
<path fill-rule="evenodd" clip-rule="evenodd" d="M239.725 141.744C241.681 143.477 243.976 144.583 246.364 145.075C246.358 146.085 246.459 147.095 246.664 148.086C245.104 148.882 243.664 149.977 242.432 151.367C237.152 157.324 237.7 166.434 243.658 171.715C249.616 176.995 258.726 176.447 264.006 170.489C267.143 166.95 268.223 162.298 267.334 157.998C268.894 157.202 270.334 156.107 271.565 154.717C276.846 148.759 276.297 139.649 270.339 134.369C268.384 132.635 266.089 131.53 263.701 131.038C263.722 127.031 262.081 123.036 258.847 120.17C255.529 117.229 251.233 116.096 247.166 116.699C246.422 114.22 245.001 111.91 242.922 110.067C236.965 104.787 227.854 105.336 222.574 111.293C217.293 117.251 217.842 126.361 223.8 131.641C227.118 134.582 231.414 135.715 235.482 135.112C236.225 137.591 237.646 139.901 239.725 141.744Z"/>
</mask>
<path fill-rule="evenodd" clip-rule="evenodd" d="M239.725 141.744C241.681 143.477 243.976 144.583 246.364 145.075C246.358 146.085 246.459 147.095 246.664 148.086C245.104 148.882 243.664 149.977 242.432 151.367C237.152 157.324 237.7 166.434 243.658 171.715C249.616 176.995 258.726 176.447 264.006 170.489C267.143 166.95 268.223 162.298 267.334 157.998C268.894 157.202 270.334 156.107 271.565 154.717C276.846 148.759 276.297 139.649 270.339 134.369C268.384 132.635 266.089 131.53 263.701 131.038C263.722 127.031 262.081 123.036 258.847 120.17C255.529 117.229 251.233 116.096 247.166 116.699C246.422 114.22 245.001 111.91 242.922 110.067C236.965 104.787 227.854 105.336 222.574 111.293C217.293 117.251 217.842 126.361 223.8 131.641C227.118 134.582 231.414 135.715 235.482 135.112C236.225 137.591 237.646 139.901 239.725 141.744Z" fill="#EFEFEF"/>
<path d="M246.364 145.075L251.364 145.101L251.385 141.004L247.373 140.177L246.364 145.075ZM246.664 148.086L248.936 152.54L252.332 150.807L251.56 147.073L246.664 148.086ZM267.334 157.998L265.062 153.544L261.665 155.276L262.437 159.01L267.334 157.998ZM263.701 131.038L258.701 131.012L258.679 135.109L262.692 135.935L263.701 131.038ZM247.166 116.699L242.376 118.136L243.619 122.279L247.899 121.645L247.166 116.699ZM235.482 135.112L240.271 133.676L239.028 129.532L234.749 130.166L235.482 135.112ZM247.373 140.177C245.819 139.857 244.325 139.14 243.041 138.002L236.408 145.486C239.036 147.815 242.133 149.308 245.355 149.972L247.373 140.177ZM251.56 147.073C251.426 146.425 251.36 145.763 251.364 145.101L241.364 145.048C241.357 146.407 241.492 147.765 241.767 149.098L251.56 147.073ZM246.174 154.683C246.984 153.769 247.924 153.056 248.936 152.54L244.392 143.632C242.284 144.707 240.343 146.185 238.69 148.05L246.174 154.683ZM246.975 167.973C243.083 164.524 242.725 158.574 246.174 154.683L238.69 148.05C231.578 156.074 232.317 168.344 240.341 175.457L246.975 167.973ZM260.265 167.172C256.816 171.063 250.866 171.422 246.975 167.973L240.341 175.457C248.366 182.569 260.636 181.83 267.748 173.805L260.265 167.172ZM262.437 159.01C263.021 161.833 262.311 164.863 260.265 167.172L267.748 173.805C271.975 169.036 273.425 162.763 272.23 156.985L262.437 159.01ZM267.824 151.4C267.013 152.315 266.074 153.027 265.062 153.544L269.606 162.452C271.713 161.376 273.654 159.898 275.307 158.033L267.824 151.4ZM267.023 138.11C270.914 141.559 271.272 147.509 267.824 151.4L275.307 158.033C282.419 150.009 281.68 137.739 273.656 130.627L267.023 138.11ZM262.692 135.935C264.245 136.255 265.739 136.973 267.023 138.11L273.656 130.627C271.028 128.298 267.932 126.805 264.71 126.141L262.692 135.935ZM255.531 123.911C257.643 125.783 258.714 128.384 258.701 131.012L268.701 131.064C268.729 125.679 266.52 120.289 262.164 116.428L255.531 123.911ZM247.899 121.645C250.567 121.249 253.365 121.992 255.531 123.911L262.164 116.428C257.694 112.466 251.899 110.943 246.433 111.753L247.899 121.645ZM239.606 113.809C240.969 115.018 241.892 116.521 242.376 118.136L251.955 115.262C250.952 111.918 249.033 108.803 246.239 106.325L239.606 113.809ZM226.316 114.61C229.764 110.719 235.715 110.36 239.606 113.809L246.239 106.325C238.215 99.2133 225.944 99.9525 218.832 107.977L226.316 114.61ZM227.116 127.9C223.225 124.451 222.867 118.501 226.316 114.61L218.832 107.977C211.72 116.001 212.459 128.271 220.483 135.383L227.116 127.9ZM234.749 130.166C232.08 130.562 229.282 129.82 227.116 127.9L220.483 135.383C224.953 139.345 230.748 140.868 236.215 140.058L234.749 130.166ZM243.041 138.002C241.678 136.793 240.755 135.29 240.271 133.676L230.692 136.549C231.695 139.893 233.614 143.009 236.408 145.486L243.041 138.002Z" fill="black" mask="url(#path-3-inside-2_29_6470)"/>
<rect x="213.332" y="104.563" width="69.0696" height="33.0333" transform="rotate(41.5522 213.332 104.563)" fill="#EFEFEF"/>
<mask id="path-6-inside-3_29_6470" fill="white">
<path fill-rule="evenodd" clip-rule="evenodd" d="M43.0351 156.386C40.7721 155.08 38.302 154.457 35.8639 154.453C35.6668 153.462 35.3662 152.493 34.967 151.563C36.3359 150.471 37.5274 149.109 38.4559 147.501C42.4363 140.607 40.0742 131.791 33.1798 127.81C26.2854 123.83 17.4696 126.192 13.4892 133.087C11.1246 137.182 10.9983 141.956 12.7308 145.991C11.3619 147.083 10.1703 148.445 9.24185 150.053C5.26139 156.947 7.62357 165.763 14.5179 169.743C16.781 171.05 19.251 171.673 21.6891 171.677C22.471 175.607 24.878 179.192 28.6206 181.353C32.4605 183.57 36.8963 183.82 40.7609 182.414C41.986 184.694 43.8402 186.673 46.2465 188.062C53.1408 192.042 61.9566 189.68 65.9371 182.786C69.9175 175.891 67.5553 167.076 60.661 163.095C56.8211 160.878 52.3853 160.629 48.5207 162.034C47.2956 159.754 45.4414 157.776 43.0351 156.386Z"/>
</mask>
<path fill-rule="evenodd" clip-rule="evenodd" d="M43.0351 156.386C40.7721 155.08 38.302 154.457 35.8639 154.453C35.6668 153.462 35.3662 152.493 34.967 151.563C36.3359 150.471 37.5274 149.109 38.4559 147.501C42.4363 140.607 40.0742 131.791 33.1798 127.81C26.2854 123.83 17.4696 126.192 13.4892 133.087C11.1246 137.182 10.9983 141.956 12.7308 145.991C11.3619 147.083 10.1703 148.445 9.24185 150.053C5.26139 156.947 7.62357 165.763 14.5179 169.743C16.781 171.05 19.251 171.673 21.6891 171.677C22.471 175.607 24.878 179.192 28.6206 181.353C32.4605 183.57 36.8963 183.82 40.7609 182.414C41.986 184.694 43.8402 186.673 46.2465 188.062C53.1408 192.042 61.9566 189.68 65.9371 182.786C69.9175 175.891 67.5553 167.076 60.661 163.095C56.8211 160.878 52.3853 160.629 48.5207 162.034C47.2956 159.754 45.4414 157.776 43.0351 156.386Z" fill="#EFEFEF"/>
<path d="M35.8639 154.453L30.9601 155.429L31.7595 159.446L35.8561 159.453L35.8639 154.453ZM34.967 151.563L31.8489 147.654L28.8683 150.032L30.3725 153.535L34.967 151.563ZM12.7308 145.991L15.8488 149.9L18.8294 147.522L17.3252 144.019L12.7308 145.991ZM21.6891 171.677L26.593 170.701L25.7936 166.683L21.697 166.677L21.6891 171.677ZM40.7609 182.414L45.1653 180.048L43.1177 176.237L39.0522 177.715L40.7609 182.414ZM48.5207 162.034L44.1163 164.401L46.1639 168.211L50.2294 166.733L48.5207 162.034ZM35.8561 159.453C37.4425 159.455 39.0499 159.859 40.5351 160.717L45.5351 152.056C42.4943 150.301 39.1616 149.458 35.8718 149.453L35.8561 159.453ZM30.3725 153.535C30.6339 154.144 30.8308 154.779 30.9601 155.429L40.7678 153.477C40.5027 152.145 40.0986 150.841 39.5614 149.59L30.3725 153.535ZM34.1258 145.001C33.5148 146.059 32.7372 146.945 31.8489 147.654L38.085 155.471C39.9345 153.996 41.5401 152.159 42.786 150.001L34.1258 145.001ZM30.6798 132.141C35.1827 134.74 36.7255 140.498 34.1258 145.001L42.786 150.001C48.1472 140.715 44.9656 128.841 35.6798 123.48L30.6798 132.141ZM17.8193 135.587C20.4191 131.084 26.1769 129.541 30.6798 132.141L35.6798 123.48C26.394 118.119 14.5202 121.301 9.15906 130.587L17.8193 135.587ZM17.3252 144.019C16.1881 141.37 16.2766 138.259 17.8193 135.587L9.15906 130.587C5.97258 136.106 5.80848 142.542 8.13633 147.964L17.3252 144.019ZM13.572 152.553C14.183 151.495 14.9605 150.608 15.8488 149.9L9.61273 142.082C7.76327 143.558 6.15768 145.395 4.91173 147.553L13.572 152.553ZM17.0179 165.413C12.515 162.814 10.9722 157.056 13.572 152.553L4.91173 147.553C-0.449445 156.839 2.73211 168.712 12.0179 174.074L17.0179 165.413ZM21.697 166.677C20.1105 166.675 18.5032 166.271 17.0179 165.413L12.0179 174.074C15.0587 175.829 18.3915 176.672 21.6813 176.677L21.697 166.677ZM31.1206 177.023C28.6769 175.612 27.1059 173.279 26.593 170.701L16.7853 172.653C17.8361 177.935 21.0791 182.773 26.1206 185.683L31.1206 177.023ZM39.0522 177.715C36.5167 178.637 33.6272 178.47 31.1206 177.023L26.1206 185.683C31.2937 188.67 37.2759 189.002 42.4695 187.113L39.0522 177.715ZM48.7465 183.732C47.1681 182.82 45.9632 181.533 45.1653 180.048L36.3564 184.781C38.0088 187.856 40.5123 190.525 43.7465 192.392L48.7465 183.732ZM61.6069 180.286C59.0072 184.789 53.2494 186.332 48.7465 183.732L43.7465 192.392C53.0323 197.753 64.906 194.572 70.2672 185.286L61.6069 180.286ZM58.161 167.425C62.6639 170.025 64.2067 175.783 61.6069 180.286L70.2672 185.286C75.6284 176 72.4468 164.126 63.161 158.765L58.161 167.425ZM50.2294 166.733C52.7649 165.811 55.6544 165.978 58.161 167.425L63.161 158.765C57.9879 155.778 52.0057 155.447 46.8121 157.335L50.2294 166.733ZM40.5351 160.717C42.1135 161.628 43.3184 162.916 44.1163 164.401L52.9252 159.667C51.2728 156.592 48.7693 153.924 45.5351 152.056L40.5351 160.717Z" fill="black" mask="url(#path-6-inside-3_29_6470)"/>
<rect x="78.9991" y="188.17" width="69.0696" height="33.0333" transform="rotate(-150 78.9991 188.17)" fill="#EFEFEF"/>
<ellipse cx="86.6881" cy="40.9469" rx="35.2572" ry="38.9469" fill="url(#paint0_linear_29_6470)"/>
<circle cx="72.7492" cy="32.3377" r="9.01929" fill="white"/>
<circle cx="73.1592" cy="31.9276" r="3.68971" fill="black"/>
<circle cx="100.627" cy="32.3377" r="9.01929" fill="white"/>
<circle cx="101.037" cy="31.9276" r="3.68971" fill="black"/>
<path d="M86.3995 66.1715C85.022 66.1715 83.8151 66.0468 82.7787 65.7976C81.7423 65.5614 80.8699 65.2532 80.1614 64.8727C79.7023 64.6234 79.3087 64.3151 78.9807 63.9478C78.6528 63.5936 78.4888 63.1476 78.4888 62.6097C78.4888 62.2555 78.5872 61.9406 78.7839 61.6651C78.9807 61.3896 79.1906 61.1797 79.4137 61.0354C79.8859 61.3503 80.3779 61.6258 80.8895 61.8619C81.3881 62.1112 81.9194 62.3145 82.4835 62.4719C83.0476 62.6425 83.6511 62.7671 84.2939 62.8458C84.9367 62.9377 85.6386 62.9836 86.3995 62.9836C87.1604 62.9836 87.8623 62.9377 88.5051 62.8458C89.1479 62.7671 89.7514 62.6425 90.3155 62.4719C90.8796 62.3145 91.411 62.1112 91.9095 61.8619C92.4211 61.6258 92.9131 61.3503 93.3854 61.0354C93.6084 61.1797 93.8183 61.3896 94.0151 61.6651C94.2119 61.9406 94.3103 62.2555 94.3103 62.6097C94.3103 63.1476 94.1463 63.5936 93.8183 63.9478C93.4903 64.3151 93.0967 64.6234 92.6376 64.8727C91.9292 65.2532 91.0567 65.5614 90.0203 65.7976C88.9839 66.0468 87.777 66.1715 86.3995 66.1715Z" fill="black"/>
<ellipse cx="122.901" cy="14.9563" rx="16.3987" ry="9.01929" transform="rotate(15 122.901 14.9563)" fill="black"/>
<ellipse cx="49.9268" cy="14.9563" rx="16.3987" ry="9.01929" transform="rotate(165 49.9268 14.9563)" fill="black"/>
<ellipse cx="297.544" cy="51.9762" rx="35.2572" ry="38.9469" transform="rotate(15 297.544 51.9762)" fill="url(#paint1_linear_29_6470)"/>
<circle cx="286.308" cy="40.0526" r="9.01929" transform="rotate(15 286.308 40.0526)" fill="white"/>
<circle cx="286.81" cy="39.7626" r="3.68971" transform="rotate(15 286.81 39.7626)" fill="black"/>
<circle cx="313.236" cy="47.2678" r="9.01929" transform="rotate(15 313.236 47.2678)" fill="white"/>
<circle cx="313.738" cy="46.9779" r="3.68971" transform="rotate(15 313.738 46.9779)" fill="black"/>
<path d="M290.736 76.2665C289.406 75.9099 288.272 75.4772 287.336 74.9682C286.396 74.4718 285.633 73.9482 285.047 73.3974C284.668 73.0378 284.368 72.6381 284.146 72.1984C283.921 71.7714 283.878 71.2981 284.017 70.7786C284.109 70.4364 284.285 70.1578 284.547 69.9426C284.808 69.7274 285.065 69.579 285.318 69.4973C285.693 69.9237 286.096 70.3171 286.53 70.6776C286.947 71.0474 287.407 71.3814 287.911 71.6794C288.412 71.9902 288.963 72.2667 289.563 72.5091C290.16 72.7642 290.826 72.9902 291.561 73.1872C292.296 73.3841 292.986 73.5214 293.631 73.5991C294.272 73.6894 294.887 73.7252 295.476 73.7065C296.062 73.7004 296.628 73.6415 297.174 73.5298C297.729 73.4341 298.276 73.2953 298.814 73.1135C298.992 73.3106 299.14 73.5677 299.259 73.8847C299.378 74.2017 299.391 74.5313 299.299 74.8735C299.16 75.393 298.886 75.7814 298.478 76.0387C298.066 76.3086 297.606 76.5045 297.098 76.6265C296.315 76.8106 295.393 76.8826 294.331 76.8424C293.265 76.815 292.067 76.623 290.736 76.2665Z" fill="black"/>
<ellipse cx="339.25" cy="36.2436" rx="16.3987" ry="9.01929" transform="rotate(30 339.25 36.2436)" fill="black"/>
<ellipse cx="268.762" cy="17.3566" rx="16.3987" ry="9.01929" transform="rotate(180 268.762 17.3566)" fill="black"/>
<ellipse cx="156.3" cy="146.923" rx="35.2572" ry="38.9469" transform="rotate(-11.0719 156.3 146.923)" fill="url(#paint2_linear_29_6470)"/>
<circle cx="140.968" cy="141.151" r="9.01929" transform="rotate(-11.0719 140.968 141.151)" fill="white"/>
<circle cx="141.291" cy="140.67" r="3.68971" transform="rotate(-11.0719 141.291 140.67)" fill="black"/>
<circle cx="168.326" cy="135.797" r="9.01929" transform="rotate(-11.0719 168.326 135.797)" fill="white"/>
<circle cx="168.65" cy="135.316" r="3.68971" transform="rotate(-11.0719 168.65 135.316)" fill="black"/>
<path d="M160.861 171.734C159.509 171.998 158.301 172.108 157.236 172.062C156.174 172.029 155.258 171.894 154.49 171.657C153.991 171.5 153.546 171.274 153.153 170.976C152.764 170.691 152.517 170.285 152.414 169.757C152.346 169.41 152.382 169.082 152.522 168.774C152.662 168.465 152.828 168.219 153.019 168.035C153.543 168.253 154.079 168.429 154.626 168.562C155.163 168.711 155.724 168.809 156.308 168.855C156.894 168.914 157.51 168.92 158.156 168.874C158.805 168.841 159.502 168.751 160.249 168.605C160.996 168.459 161.676 168.279 162.289 168.065C162.905 167.865 163.473 167.627 163.994 167.351C164.517 167.088 165 166.786 165.441 166.446C165.898 166.116 166.328 165.751 166.731 165.352C166.977 165.45 167.224 165.616 167.47 165.849C167.716 166.081 167.873 166.371 167.941 166.719C168.044 167.247 167.969 167.716 167.715 168.127C167.464 168.55 167.137 168.928 166.734 169.261C166.112 169.77 165.315 170.241 164.343 170.671C163.374 171.115 162.213 171.469 160.861 171.734Z" fill="black"/>
<ellipse cx="186.848" cy="114.462" rx="16.3987" ry="9.01929" transform="rotate(3.92807 186.848 114.462)" fill="black"/>
<ellipse cx="115.232" cy="128.476" rx="16.3987" ry="9.01929" transform="rotate(153.928 115.232 128.476)" fill="black"/>
<ellipse cx="357.316" cy="152.644" rx="35.2572" ry="38.9469" transform="rotate(30 357.316 152.644)" fill="url(#paint3_linear_29_6470)"/>
<circle cx="349.549" cy="138.219" r="9.01929" transform="rotate(30 349.549 138.219)" fill="white"/>
<circle cx="350.109" cy="138.069" r="3.68971" transform="rotate(30 350.109 138.069)" fill="black"/>
<circle cx="373.692" cy="152.158" r="9.01929" transform="rotate(30 373.692 152.158)" fill="white"/>
<circle cx="374.252" cy="152.008" r="3.68971" transform="rotate(30 374.252 152.008)" fill="black"/>
<path d="M344.454 174.345C343.261 173.656 342.278 172.945 341.505 172.211C340.725 171.488 340.124 170.785 339.701 170.101C339.428 169.656 339.241 169.192 339.141 168.71C339.034 168.239 339.115 167.771 339.384 167.305C339.561 166.998 339.804 166.775 340.112 166.634C340.42 166.494 340.707 166.417 340.972 166.404C341.223 166.913 341.512 167.397 341.837 167.858C342.144 168.323 342.502 168.765 342.912 169.183C343.315 169.613 343.776 170.022 344.293 170.412C344.804 170.813 345.389 171.204 346.048 171.584C346.707 171.965 347.337 172.276 347.94 172.518C348.536 172.771 349.121 172.965 349.695 173.099C350.262 173.245 350.824 173.334 351.38 173.368C351.941 173.419 352.505 173.426 353.072 173.39C353.193 173.626 353.27 173.913 353.302 174.25C353.335 174.587 353.263 174.909 353.086 175.216C352.817 175.681 352.452 175.986 351.99 176.129C351.523 176.283 351.028 176.353 350.505 176.339C349.702 176.314 348.792 176.145 347.776 175.831C346.754 175.529 345.647 175.034 344.454 174.345Z" fill="black"/>
<ellipse cx="401.673" cy="148.242" rx="16.3987" ry="9.01929" transform="rotate(45 401.673 148.242)" fill="black"/>
<ellipse cx="338.475" cy="111.755" rx="16.3987" ry="9.01929" transform="rotate(-165 338.475 111.755)" fill="black"/>
<defs>
<linearGradient id="paint0_linear_29_6470" x1="86.6881" y1="2" x2="86.6881" y2="79.8939" gradientUnits="userSpaceOnUse">
<stop/>
<stop offset="1" stop-color="#585858"/>
</linearGradient>
<linearGradient id="paint1_linear_29_6470" x1="297.544" y1="13.0292" x2="297.544" y2="90.9231" gradientUnits="userSpaceOnUse">
<stop/>
<stop offset="1" stop-color="#585858"/>
</linearGradient>
<linearGradient id="paint2_linear_29_6470" x1="156.3" y1="107.976" x2="156.3" y2="185.87" gradientUnits="userSpaceOnUse">
<stop/>
<stop offset="1" stop-color="#585858"/>
</linearGradient>
<linearGradient id="paint3_linear_29_6470" x1="357.316" y1="113.697" x2="357.316" y2="191.591" gradientUnits="userSpaceOnUse">
<stop/>
<stop offset="1" stop-color="#585858"/>
</linearGradient>
</defs>
</svg>
