<svg width="430" height="94" viewBox="0 0 430 94" fill="none" xmlns="http://www.w3.org/2000/svg">
<path fill-rule="evenodd" clip-rule="evenodd" d="M604 -10.9998L-42 -10.9999V89.4981C-37.5808 91.2026 -32.7789 92.1371 -27.7587 92.1371C-20.5482 92.1371 -13.7881 90.2094 -7.96558 86.8412C-2.14294 90.2094 4.61719 92.1371 11.8276 92.1371C26.2532 92.1371 38.8766 84.421 45.7957 72.8909C47.6309 73.1517 49.5066 73.2865 51.4138 73.2865C60.3351 73.2865 68.5671 70.3354 75.1869 65.3561C79.9343 81.8969 95.1744 94.0002 113.241 94.0002C120.452 94.0002 127.212 92.0724 133.034 88.7042C138.857 92.0724 145.617 94.0002 152.828 94.0002C167.253 94.0002 179.877 86.284 186.796 74.754C188.631 75.0147 190.507 75.1496 192.414 75.1496C202.849 75.1496 212.34 71.1122 219.412 64.5143C221.439 64.8341 223.516 65.0002 225.632 65.0002C237.363 65.0002 247.901 59.8979 255.15 51.7916C261.554 56.4503 269.408 59.2355 277.908 59.3418C285.151 67.3288 295.61 72.3449 307.241 72.3449C312.538 72.3449 317.593 71.3045 322.21 69.4169C328.968 74.79 337.523 78.0001 346.828 78.0001C356.132 78.0001 364.687 74.79 371.445 69.4169C376.063 71.3045 381.117 72.345 386.414 72.345C388.227 72.345 390.011 72.2231 391.76 71.9871C398.233 85.0329 411.69 94.0002 427.241 94.0002C434.452 94.0002 441.212 92.0724 447.034 88.7042C452.857 92.0724 459.617 94.0002 466.828 94.0002C481.253 94.0002 493.877 86.2841 500.796 74.754C502.631 75.0147 504.507 75.1496 506.414 75.1496C507.176 75.1496 507.933 75.1281 508.684 75.0856C515.084 79.5314 522.858 82.1371 531.241 82.1372C538.452 82.1372 545.212 80.2094 551.034 76.8412C556.857 80.2094 563.617 82.1372 570.828 82.1372C584.717 82.1372 596.935 74.9844 604 64.1616V-10.9998Z" fill="#2F2F2F"/>
<path fill-rule="evenodd" clip-rule="evenodd" d="M645 -19.9998L-1 -19.9999V80.4981C3.4192 82.2026 8.22113 83.1371 13.2413 83.1371C20.4518 83.1371 27.2119 81.2094 33.0344 77.8412C38.8571 81.2094 45.6172 83.1371 52.8276 83.1371C67.2532 83.1371 79.8766 75.421 86.7957 63.8909C88.6309 64.1517 90.5066 64.2865 92.4138 64.2865C101.335 64.2865 109.567 61.3354 116.187 56.3561C120.934 72.8969 136.174 85.0002 154.241 85.0002C161.452 85.0002 168.212 83.0724 174.034 79.7042C179.857 83.0724 186.617 85.0002 193.828 85.0002C208.253 85.0002 220.877 77.284 227.796 65.754C229.631 66.0147 231.507 66.1496 233.414 66.1496C243.849 66.1496 253.34 62.1122 260.412 55.5143C262.439 55.8341 264.516 56.0002 266.632 56.0002C278.363 56.0002 288.901 50.8979 296.15 42.7916C302.554 47.4503 310.408 50.2355 318.908 50.3418C326.151 58.3288 336.61 63.3449 348.241 63.3449C353.538 63.3449 358.593 62.3045 363.21 60.4169C369.968 65.79 378.523 69.0001 387.828 69.0001C397.132 69.0001 405.687 65.79 412.445 60.4169C417.063 62.3045 422.117 63.345 427.414 63.345C429.227 63.345 431.011 63.2231 432.76 62.9871C439.233 76.0329 452.69 85.0002 468.241 85.0002C475.452 85.0002 482.212 83.0724 488.034 79.7042C493.857 83.0724 500.617 85.0002 507.828 85.0002C522.253 85.0002 534.877 77.2841 541.796 65.754C543.631 66.0147 545.507 66.1496 547.414 66.1496C548.176 66.1496 548.933 66.1281 549.684 66.0856C556.084 70.5314 563.858 73.1371 572.241 73.1372C579.452 73.1372 586.212 71.2094 592.034 67.8412C597.857 71.2094 604.617 73.1372 611.828 73.1372C625.717 73.1372 637.935 65.9844 645 55.1616V-19.9998Z" fill="#494949"/>
</svg>
