<svg width="430" height="192" viewBox="0 0 430 192" fill="none" xmlns="http://www.w3.org/2000/svg">
<mask id="path-1-inside-1_27_1804" fill="white">
<path fill-rule="evenodd" clip-rule="evenodd" d="M186.159 508.284C202.04 508.284 215.302 497.07 218.457 482.128C225.79 481.889 232.517 479.257 237.885 474.989C241.736 476.563 245.951 477.431 250.368 477.431C251.88 477.431 253.368 477.329 254.826 477.132C260.224 488.011 271.445 495.488 284.413 495.488C290.426 495.488 296.063 493.881 300.918 491.072C305.773 493.881 311.41 495.488 317.423 495.488C329.452 495.488 339.978 489.054 345.748 479.44C347.278 479.657 348.843 479.769 350.433 479.769C351.068 479.769 351.699 479.751 352.326 479.716C357.663 483.423 364.146 485.596 371.136 485.596C377.149 485.596 382.786 483.989 387.641 481.18C392.496 483.989 398.134 485.596 404.146 485.596C416.175 485.596 426.702 479.162 432.471 469.547C434.002 469.765 435.566 469.877 437.156 469.877C455.387 469.877 470.166 455.098 470.166 436.867C470.166 429.781 467.933 423.216 464.133 417.838C464.99 414.898 465.45 411.789 465.45 408.573C465.45 397.004 459.499 386.825 450.491 380.931C459.338 375.009 465.163 364.925 465.163 353.479C465.163 346.393 462.93 339.828 459.129 334.45C459.987 331.511 460.447 328.402 460.447 325.185C460.447 311.35 451.936 299.503 439.865 294.594C446.202 288.579 450.153 280.076 450.153 270.649C450.153 260.867 445.898 252.079 439.139 246.034C442.93 240.822 445.234 234.458 445.425 227.566C459.654 223.896 470.166 210.975 470.166 195.6C470.166 185.818 465.911 177.03 459.152 170.985C463.113 165.54 465.45 158.836 465.45 151.586C465.45 135.355 453.736 121.86 438.301 119.095C439.143 116.188 439.596 113.115 439.6 109.937C448.006 103.954 453.489 94.1304 453.489 83.0265C453.489 73.2447 449.234 64.4567 442.474 58.412C446.436 52.9664 448.773 46.2627 448.773 39.0131C448.773 20.7822 433.994 6.00314 415.763 6.00314C409.75 6.00314 404.113 7.61063 399.258 10.4193C394.403 7.61063 388.765 6.00314 382.753 6.00314C370.724 6.00314 360.197 12.4374 354.428 22.0521C352.897 21.8347 351.333 21.7222 349.743 21.7222C341.042 21.7222 333.127 25.0889 327.23 30.5906C325.54 30.324 323.807 30.1855 322.043 30.1855C312.261 30.1855 303.473 34.4402 297.428 41.1999C292.088 37.3151 285.539 34.9926 278.451 34.9039C272.412 28.2438 263.69 24.0609 253.991 24.0609C249.574 24.0609 245.359 24.9285 241.509 26.5025C235.873 22.0219 228.74 19.3451 220.981 19.3451C213.222 19.3451 206.088 22.0219 200.453 26.5025C196.602 24.9285 192.388 24.0609 187.971 24.0609C186.459 24.0609 184.971 24.1625 183.513 24.3593C178.115 13.4807 166.894 6.00314 153.926 6.00314C147.913 6.00314 142.276 7.61063 137.421 10.4193C132.565 7.61063 126.928 6.00314 120.916 6.00314C108.887 6.00314 98.3603 12.4374 92.5906 22.0521C91.0603 21.8347 89.4962 21.7222 87.9058 21.7222C87.2704 21.7222 86.6393 21.7401 86.0129 21.7756C80.676 18.0683 74.1931 15.8954 67.2026 15.8954C61.1901 15.8954 55.553 17.5029 50.6976 20.3116C45.8423 17.5029 40.2052 15.8954 34.1926 15.8954C22.1635 15.8954 11.6371 22.3297 5.8675 31.9444C4.33716 31.727 2.77304 31.6145 1.18264 31.6145C-17.0483 31.6145 -31.8274 46.3936 -31.8274 64.6245C-31.8274 71.7109 -29.5944 78.2757 -25.7937 83.6538C-26.6516 86.5932 -27.1116 89.7023 -27.1116 92.9188C-27.1116 97.8345 -26.0372 102.499 -24.1102 106.691C-34.1887 112.342 -41 123.127 -41 135.504C-41 142.59 -38.767 149.155 -34.9664 154.533C-35.8242 157.473 -36.2843 160.582 -36.2843 163.798C-36.2843 180.029 -24.5698 193.524 -9.13439 196.29C-9.98058 199.211 -10.4341 202.298 -10.4341 205.492C-10.4341 210.551 -9.29607 215.344 -7.26201 219.63C-23.0669 222.085 -35.1629 235.753 -35.1629 252.247C-35.1629 259.333 -32.9299 265.898 -29.1292 271.276C-29.9871 274.215 -30.4472 277.324 -30.4472 280.541C-30.4472 294.376 -21.9362 306.223 -9.86456 311.132C-16.2016 317.147 -20.1531 325.651 -20.1531 335.078C-20.1531 344.859 -15.8984 353.647 -9.13876 359.692C-13.1004 365.138 -15.4374 371.841 -15.4374 379.091C-15.4374 386.556 -12.9597 393.441 -8.7818 398.971C-12.7856 404.434 -15.1498 411.173 -15.1498 418.465C-15.1498 428.247 -10.8952 437.035 -4.13551 443.08C-8.09718 448.525 -10.4341 455.229 -10.4341 462.478C-10.4341 480.709 4.34496 495.488 22.5759 495.488C28.5884 495.488 34.2255 493.881 39.0809 491.072C43.9362 493.881 49.5733 495.488 55.5859 495.488C67.615 495.488 78.1414 489.054 83.911 479.44C85.4413 479.657 87.0055 479.769 88.5959 479.769C96.8458 479.769 104.389 476.743 110.175 471.74C109.497 474.377 109.136 477.141 109.136 479.99C109.136 498.221 123.915 513 142.146 513C151.928 513 160.716 508.745 166.76 501.986C172.206 505.947 178.91 508.284 186.159 508.284Z"/>
</mask>
<path fill-rule="evenodd" clip-rule="evenodd" d="M186.159 508.284C202.04 508.284 215.302 497.07 218.457 482.128C225.79 481.889 232.517 479.257 237.885 474.989C241.736 476.563 245.951 477.431 250.368 477.431C251.88 477.431 253.368 477.329 254.826 477.132C260.224 488.011 271.445 495.488 284.413 495.488C290.426 495.488 296.063 493.881 300.918 491.072C305.773 493.881 311.41 495.488 317.423 495.488C329.452 495.488 339.978 489.054 345.748 479.44C347.278 479.657 348.843 479.769 350.433 479.769C351.068 479.769 351.699 479.751 352.326 479.716C357.663 483.423 364.146 485.596 371.136 485.596C377.149 485.596 382.786 483.989 387.641 481.18C392.496 483.989 398.134 485.596 404.146 485.596C416.175 485.596 426.702 479.162 432.471 469.547C434.002 469.765 435.566 469.877 437.156 469.877C455.387 469.877 470.166 455.098 470.166 436.867C470.166 429.781 467.933 423.216 464.133 417.838C464.99 414.898 465.45 411.789 465.45 408.573C465.45 397.004 459.499 386.825 450.491 380.931C459.338 375.009 465.163 364.925 465.163 353.479C465.163 346.393 462.93 339.828 459.129 334.45C459.987 331.511 460.447 328.402 460.447 325.185C460.447 311.35 451.936 299.503 439.865 294.594C446.202 288.579 450.153 280.076 450.153 270.649C450.153 260.867 445.898 252.079 439.139 246.034C442.93 240.822 445.234 234.458 445.425 227.566C459.654 223.896 470.166 210.975 470.166 195.6C470.166 185.818 465.911 177.03 459.152 170.985C463.113 165.54 465.45 158.836 465.45 151.586C465.45 135.355 453.736 121.86 438.301 119.095C439.143 116.188 439.596 113.115 439.6 109.937C448.006 103.954 453.489 94.1304 453.489 83.0265C453.489 73.2447 449.234 64.4567 442.474 58.412C446.436 52.9664 448.773 46.2627 448.773 39.0131C448.773 20.7822 433.994 6.00314 415.763 6.00314C409.75 6.00314 404.113 7.61063 399.258 10.4193C394.403 7.61063 388.765 6.00314 382.753 6.00314C370.724 6.00314 360.197 12.4374 354.428 22.0521C352.897 21.8347 351.333 21.7222 349.743 21.7222C341.042 21.7222 333.127 25.0889 327.23 30.5906C325.54 30.324 323.807 30.1855 322.043 30.1855C312.261 30.1855 303.473 34.4402 297.428 41.1999C292.088 37.3151 285.539 34.9926 278.451 34.9039C272.412 28.2438 263.69 24.0609 253.991 24.0609C249.574 24.0609 245.359 24.9285 241.509 26.5025C235.873 22.0219 228.74 19.3451 220.981 19.3451C213.222 19.3451 206.088 22.0219 200.453 26.5025C196.602 24.9285 192.388 24.0609 187.971 24.0609C186.459 24.0609 184.971 24.1625 183.513 24.3593C178.115 13.4807 166.894 6.00314 153.926 6.00314C147.913 6.00314 142.276 7.61063 137.421 10.4193C132.565 7.61063 126.928 6.00314 120.916 6.00314C108.887 6.00314 98.3603 12.4374 92.5906 22.0521C91.0603 21.8347 89.4962 21.7222 87.9058 21.7222C87.2704 21.7222 86.6393 21.7401 86.0129 21.7756C80.676 18.0683 74.1931 15.8954 67.2026 15.8954C61.1901 15.8954 55.553 17.5029 50.6976 20.3116C45.8423 17.5029 40.2052 15.8954 34.1926 15.8954C22.1635 15.8954 11.6371 22.3297 5.8675 31.9444C4.33716 31.727 2.77304 31.6145 1.18264 31.6145C-17.0483 31.6145 -31.8274 46.3936 -31.8274 64.6245C-31.8274 71.7109 -29.5944 78.2757 -25.7937 83.6538C-26.6516 86.5932 -27.1116 89.7023 -27.1116 92.9188C-27.1116 97.8345 -26.0372 102.499 -24.1102 106.691C-34.1887 112.342 -41 123.127 -41 135.504C-41 142.59 -38.767 149.155 -34.9664 154.533C-35.8242 157.473 -36.2843 160.582 -36.2843 163.798C-36.2843 180.029 -24.5698 193.524 -9.13439 196.29C-9.98058 199.211 -10.4341 202.298 -10.4341 205.492C-10.4341 210.551 -9.29607 215.344 -7.26201 219.63C-23.0669 222.085 -35.1629 235.753 -35.1629 252.247C-35.1629 259.333 -32.9299 265.898 -29.1292 271.276C-29.9871 274.215 -30.4472 277.324 -30.4472 280.541C-30.4472 294.376 -21.9362 306.223 -9.86456 311.132C-16.2016 317.147 -20.1531 325.651 -20.1531 335.078C-20.1531 344.859 -15.8984 353.647 -9.13876 359.692C-13.1004 365.138 -15.4374 371.841 -15.4374 379.091C-15.4374 386.556 -12.9597 393.441 -8.7818 398.971C-12.7856 404.434 -15.1498 411.173 -15.1498 418.465C-15.1498 428.247 -10.8952 437.035 -4.13551 443.08C-8.09718 448.525 -10.4341 455.229 -10.4341 462.478C-10.4341 480.709 4.34496 495.488 22.5759 495.488C28.5884 495.488 34.2255 493.881 39.0809 491.072C43.9362 493.881 49.5733 495.488 55.5859 495.488C67.615 495.488 78.1414 489.054 83.911 479.44C85.4413 479.657 87.0055 479.769 88.5959 479.769C96.8458 479.769 104.389 476.743 110.175 471.74C109.497 474.377 109.136 477.141 109.136 479.99C109.136 498.221 123.915 513 142.146 513C151.928 513 160.716 508.745 166.76 501.986C172.206 505.947 178.91 508.284 186.159 508.284Z" fill="#EFEFEF"/>
<path d="M218.457 482.129L218.293 477.131L214.375 477.259L213.565 481.095L218.457 482.129ZM237.885 474.989L239.777 470.361L237.066 469.253L234.774 471.075L237.885 474.989ZM254.826 477.132L259.305 474.91L257.711 471.698L254.157 472.177L254.826 477.132ZM300.918 491.072L303.422 486.744L300.918 485.296L298.414 486.744L300.918 491.072ZM345.748 479.44L346.451 474.489L343.168 474.023L341.461 476.867L345.748 479.44ZM352.326 479.716L355.178 475.61L353.764 474.627L352.044 474.724L352.326 479.716ZM387.641 481.18L390.145 476.852L387.641 475.404L385.138 476.852L387.641 481.18ZM432.471 469.547L433.175 464.597L429.891 464.13L428.184 466.974L432.471 469.547ZM464.133 417.838L459.333 416.437L458.657 418.753L460.049 420.723L464.133 417.838ZM450.491 380.931L447.71 376.776L441.432 380.978L447.754 385.115L450.491 380.931ZM459.129 334.45L454.329 333.049L453.654 335.365L455.046 337.336L459.129 334.45ZM439.865 294.594L436.422 290.968L430.799 296.306L437.981 299.226L439.865 294.594ZM439.139 246.034L435.096 243.093L432.436 246.748L435.806 249.761L439.139 246.034ZM445.425 227.566L444.176 222.724L440.531 223.664L440.426 227.427L445.425 227.566ZM459.152 170.985L455.109 168.044L452.449 171.699L455.819 174.713L459.152 170.985ZM438.301 119.095L433.498 117.704L431.953 123.037L437.419 124.017L438.301 119.095ZM439.6 109.937L436.701 105.864L434.604 107.357L434.6 109.931L439.6 109.937ZM442.474 58.4121L438.431 55.4706L435.772 59.126L439.141 62.1392L442.474 58.4121ZM399.258 10.4193L396.754 14.7474L399.258 16.1956L401.762 14.7474L399.258 10.4193ZM354.428 22.0521L353.724 27.0024L357.008 27.469L358.715 24.6249L354.428 22.0521ZM327.23 30.5907L326.45 35.5295L328.858 35.9095L330.64 34.2466L327.23 30.5907ZM297.428 41.1999L294.487 45.2432L298.142 47.9024L301.156 44.5328L297.428 41.1999ZM278.451 34.904L274.747 38.2627L276.21 39.8763L278.389 39.9036L278.451 34.904ZM253.991 24.0609L253.991 29.0609H253.991V24.0609ZM241.509 26.5025L238.397 30.4162L240.689 32.239L243.4 31.1308L241.509 26.5025ZM220.981 19.3451L220.981 24.3451L220.981 19.3451ZM200.453 26.5025L198.561 31.1308L201.272 32.239L203.565 30.4162L200.453 26.5025ZM183.513 24.3594L179.034 26.5819L180.628 29.7942L184.182 29.3144L183.513 24.3594ZM137.421 10.4193L134.917 14.7474L137.421 16.1956L139.924 14.7474L137.421 10.4193ZM92.5906 22.0521L91.8873 27.0024L95.1712 27.469L96.8779 24.6249L92.5906 22.0521ZM86.0129 21.7756L83.1603 25.8821L84.5751 26.8649L86.2951 26.7676L86.0129 21.7756ZM50.6976 20.3116L48.194 24.6397L50.6976 26.0879L53.2013 24.6397L50.6976 20.3116ZM5.8675 31.9444L5.16419 36.8947L8.4481 37.3613L10.1548 34.5172L5.8675 31.9444ZM-25.7937 83.6539L-20.994 85.0547L-20.318 82.7386L-21.7105 80.7682L-25.7937 83.6539ZM-24.1102 106.691L-21.665 111.052L-17.6398 108.795L-19.5672 104.603L-24.1102 106.691ZM-34.9664 154.533L-30.1666 155.934L-29.4906 153.618L-30.8831 151.648L-34.9664 154.533ZM-9.13439 196.29L-4.33185 197.681L-2.78671 192.347L-8.25263 191.368L-9.13439 196.29ZM-7.26201 219.63L-6.49434 224.57L0.129279 223.541L-2.74502 217.486L-7.26201 219.63ZM-29.1292 271.276L-24.3295 272.677L-23.6535 270.361L-25.0459 268.39L-29.1292 271.276ZM-9.86456 311.132L-6.42237 314.758L-0.799047 309.421L-7.98107 306.5L-9.86456 311.132ZM-9.13876 359.692L-5.09551 362.633L-2.43623 358.978L-5.80585 355.965L-9.13876 359.692ZM-15.4374 379.091L-20.4374 379.091V379.091H-15.4374ZM-8.7818 398.971L-4.74903 401.927L-2.5494 398.926L-4.79242 395.957L-8.7818 398.971ZM-4.13551 443.08L-0.0922564 446.021L2.56703 442.366L-0.802588 439.352L-4.13551 443.08ZM-10.4341 462.478L-15.4341 462.478V462.478H-10.4341ZM39.0809 491.072L41.5845 486.744L39.0809 485.296L36.5773 486.744L39.0809 491.072ZM83.911 479.44L84.6143 474.489L81.3304 474.023L79.6237 476.867L83.911 479.44ZM110.175 471.74L115.018 472.986L119.003 457.498L106.905 467.958L110.175 471.74ZM166.76 501.986L169.702 497.942L166.047 495.283L163.033 498.653L166.76 501.986ZM213.565 481.095C210.888 493.772 199.629 503.284 186.159 503.284V513.284C204.452 513.284 219.715 500.368 223.349 483.162L213.565 481.095ZM234.774 471.075C230.217 474.698 224.516 476.928 218.293 477.131L218.62 487.126C227.063 486.85 234.817 483.816 240.997 478.903L234.774 471.075ZM250.368 472.431C246.611 472.431 243.038 471.694 239.777 470.361L235.994 479.617C240.435 481.433 245.291 482.431 250.368 482.431V472.431ZM254.157 472.177C252.92 472.344 251.655 472.431 250.368 472.431V482.431C252.104 482.431 253.816 482.314 255.495 482.087L254.157 472.177ZM284.413 490.489C273.417 490.489 263.891 484.153 259.305 474.91L250.347 479.355C256.557 491.869 269.474 500.489 284.413 500.489V490.489ZM298.414 486.744C294.3 489.125 289.523 490.489 284.413 490.489V500.489C291.328 500.489 297.826 498.637 303.422 495.4L298.414 486.744ZM317.423 490.489C312.313 490.489 307.536 489.125 303.422 486.744L298.414 495.4C304.01 498.637 310.508 500.489 317.423 500.489V490.489ZM341.461 476.867C336.557 485.038 327.624 490.489 317.423 490.489V500.489C331.28 500.489 343.4 493.07 350.035 482.012L341.461 476.867ZM350.433 474.769C349.079 474.769 347.75 474.674 346.451 474.489L345.045 484.39C346.807 484.64 348.607 484.769 350.433 484.769V474.769ZM352.044 474.724C351.511 474.754 350.974 474.769 350.433 474.769V484.769C351.162 484.769 351.888 484.749 352.608 484.708L352.044 474.724ZM371.136 480.596C365.198 480.596 359.705 478.754 355.178 475.61L349.473 483.823C355.621 488.093 363.094 490.596 371.136 490.596V480.596ZM385.138 476.852C381.023 479.232 376.246 480.596 371.136 480.596V490.596C378.051 490.596 384.549 488.745 390.145 485.508L385.138 476.852ZM404.146 480.596C399.036 480.596 394.26 479.232 390.145 476.852L385.138 485.508C390.733 488.745 397.231 490.596 404.146 490.596V480.596ZM428.184 466.974C423.28 475.146 414.347 480.596 404.146 480.596V490.596C418.003 490.596 430.123 483.178 436.759 472.12L428.184 466.974ZM437.156 464.877C435.802 464.877 434.473 464.781 433.175 464.597L431.768 474.498C433.531 474.748 435.33 474.877 437.156 474.877V464.877ZM465.166 436.867C465.166 452.337 452.626 464.877 437.156 464.877V474.877C458.148 474.877 475.166 457.859 475.166 436.867H465.166ZM460.049 420.723C463.273 425.285 465.166 430.848 465.166 436.867H475.166C475.166 428.714 472.593 421.147 468.216 414.952L460.049 420.723ZM460.45 408.573C460.45 411.31 460.059 413.948 459.333 416.437L468.932 419.239C469.922 415.849 470.45 412.268 470.45 408.573H460.45ZM447.754 385.115C455.41 390.125 460.45 398.762 460.45 408.573H470.45C470.45 395.247 463.589 383.526 453.229 376.747L447.754 385.115ZM460.163 353.48C460.163 363.186 455.23 371.743 447.71 376.776L453.273 385.086C463.447 378.276 470.163 366.663 470.163 353.48H460.163ZM455.046 337.336C458.27 341.898 460.163 347.46 460.163 353.48H470.163C470.163 345.326 467.59 337.759 463.213 331.565L455.046 337.336ZM455.447 325.185C455.447 327.923 455.056 330.56 454.329 333.049L463.929 335.851C464.918 332.461 465.447 328.881 465.447 325.185H455.447ZM437.981 299.226C448.234 303.395 455.447 313.454 455.447 325.185H465.447C465.447 309.247 455.639 295.612 441.748 289.963L437.981 299.226ZM445.153 270.649C445.153 278.648 441.806 285.858 436.422 290.968L443.307 298.221C450.597 291.301 455.153 281.503 455.153 270.649H445.153ZM435.806 249.761C441.55 254.898 445.153 262.349 445.153 270.649H455.153C455.153 259.385 450.247 249.26 442.472 242.307L435.806 249.761ZM440.426 227.427C440.265 233.278 438.313 238.671 435.096 243.093L443.182 248.976C447.548 242.974 450.203 235.638 450.423 227.704L440.426 227.427ZM465.166 195.6C465.166 208.64 456.251 219.61 444.176 222.724L446.673 232.407C463.057 228.182 475.166 213.311 475.166 195.6H465.166ZM455.819 174.713C461.563 179.849 465.166 187.3 465.166 195.6H475.166C475.166 184.336 470.26 174.211 462.485 167.258L455.819 174.713ZM460.45 151.586C460.45 157.744 458.469 163.424 455.109 168.044L463.195 173.927C467.758 167.655 470.45 159.928 470.45 151.586H460.45ZM437.419 124.017C450.513 126.363 460.45 137.819 460.45 151.586H470.45C470.45 132.892 456.959 117.358 439.182 114.173L437.419 124.017ZM434.6 109.931C434.597 112.635 434.211 115.242 433.498 117.704L443.103 120.486C444.074 117.134 444.595 113.595 444.6 109.944L434.6 109.931ZM448.489 83.0265C448.489 92.4446 443.845 100.778 436.701 105.864L442.5 114.011C452.167 107.129 458.489 95.8163 458.489 83.0265H448.489ZM439.141 62.1392C444.885 67.2754 448.489 74.7269 448.489 83.0265H458.489C458.489 71.7626 453.583 61.638 445.807 54.6849L439.141 62.1392ZM443.773 39.0132C443.773 45.1708 441.792 50.851 438.431 55.4706L446.518 61.3535C451.08 55.0819 453.773 47.3546 453.773 39.0132H443.773ZM415.763 11.0032C431.232 11.0032 443.773 23.5437 443.773 39.0132H453.773C453.773 18.0208 436.755 1.00317 415.763 1.00317V11.0032ZM401.762 14.7474C405.876 12.3671 410.653 11.0032 415.763 11.0032V1.00317C408.848 1.00317 402.35 2.85427 396.754 6.09129L401.762 14.7474ZM382.753 11.0032C387.863 11.0032 392.639 12.3671 396.754 14.7474L401.762 6.0913C396.166 2.85426 389.668 1.00317 382.753 1.00317V11.0032ZM358.715 24.6249C363.619 16.4535 372.552 11.0032 382.753 11.0032V1.00317C368.896 1.00317 356.776 8.42144 350.14 19.4794L358.715 24.6249ZM349.743 26.7222C351.097 26.7222 352.426 26.818 353.724 27.0024L355.131 17.1018C353.368 16.8514 351.569 16.7222 349.743 16.7222V26.7222ZM330.64 34.2466C335.648 29.5743 342.357 26.7222 349.743 26.7222V16.7222C339.726 16.7222 330.605 20.6035 323.819 26.9347L330.64 34.2466ZM322.043 35.1855C323.546 35.1855 325.017 35.3034 326.45 35.5295L328.009 25.6518C326.062 25.3446 324.069 25.1855 322.043 25.1855V35.1855ZM301.156 44.5328C306.292 38.789 313.743 35.1855 322.043 35.1855V25.1855C310.779 25.1855 300.654 30.0914 293.701 37.867L301.156 44.5328ZM278.389 39.9036C284.407 39.9789 289.957 41.9474 294.487 45.2432L300.37 37.1567C294.22 32.6829 286.671 30.0065 278.514 29.9044L278.389 39.9036ZM253.991 29.0609C262.22 29.0609 269.616 32.6036 274.747 38.2627L282.155 31.5453C275.208 23.884 265.159 19.0609 253.991 19.0609V29.0609ZM243.4 31.1308C246.661 29.798 250.234 29.0609 253.991 29.0609L253.991 19.0609C248.914 19.0609 244.058 20.059 239.617 21.8743L243.4 31.1308ZM220.981 24.3451C227.57 24.3451 233.614 26.6137 238.397 30.4162L244.62 22.5888C238.132 17.4302 229.91 14.3451 220.981 14.3451L220.981 24.3451ZM203.565 30.4162C208.347 26.6137 214.392 24.3451 220.981 24.3451L220.981 14.3451C212.052 14.3451 203.83 17.4302 197.341 22.5888L203.565 30.4162ZM187.971 29.0609C191.728 29.0609 195.301 29.798 198.561 31.1308L202.345 21.8743C197.904 20.059 193.048 19.0609 187.971 19.0609V29.0609ZM184.182 29.3144C185.419 29.1475 186.683 29.0609 187.971 29.0609V19.0609C186.235 19.0609 184.523 19.1777 182.844 19.4043L184.182 29.3144ZM153.926 11.0032C164.922 11.0032 174.448 17.339 179.034 26.5819L187.992 22.1369C181.782 9.62257 168.865 1.00317 153.926 1.00317V11.0032ZM139.924 14.7474C144.039 12.3671 148.816 11.0032 153.926 11.0032V1.00317C147.011 1.00317 140.513 2.85427 134.917 6.0913L139.924 14.7474ZM120.916 11.0032C126.026 11.0032 130.802 12.3671 134.917 14.7474L139.924 6.0913C134.329 2.85427 127.831 1.00317 120.916 1.00317V11.0032ZM96.8779 24.6249C101.781 16.4535 110.715 11.0032 120.916 11.0032V1.00317C107.059 1.00317 94.9391 8.42144 88.3033 19.4794L96.8779 24.6249ZM87.9058 26.7222C89.2601 26.7222 90.5892 26.818 91.8873 27.0024L93.2939 17.1018C91.5313 16.8514 89.7322 16.7222 87.9058 16.7222V26.7222ZM86.2951 26.7676C86.8276 26.7375 87.3646 26.7222 87.9058 26.7222V16.7222C87.1762 16.7222 86.451 16.7428 85.7306 16.7836L86.2951 26.7676ZM67.2026 20.8955C73.1409 20.8955 78.6339 22.7378 83.1603 25.8821L88.8654 17.6691C82.7181 13.3989 75.2452 10.8955 67.2026 10.8955V20.8955ZM53.2013 24.6397C57.3161 22.2594 62.0925 20.8955 67.2026 20.8955V10.8955C60.2877 10.8955 53.7899 12.7466 48.194 15.9836L53.2013 24.6397ZM34.1926 20.8955C39.3028 20.8955 44.0792 22.2594 48.194 24.6397L53.2013 15.9836C47.6054 12.7466 41.1076 10.8955 34.1926 10.8955V20.8955ZM10.1548 34.5172C15.0584 26.3458 23.9915 20.8955 34.1926 20.8955V10.8955C20.3355 10.8955 8.21593 18.3137 1.5802 29.3717L10.1548 34.5172ZM1.18264 36.6145C2.53701 36.6145 3.86612 36.7103 5.16419 36.8947L6.57081 26.9941C4.80821 26.7437 3.00907 26.6145 1.18264 26.6145V36.6145ZM-26.8274 64.6245C-26.8274 49.155 -14.2869 36.6145 1.18264 36.6145V26.6145C-19.8097 26.6145 -36.8274 43.6322 -36.8274 64.6245H-26.8274ZM-21.7105 80.7682C-24.9342 76.2065 -26.8274 70.644 -26.8274 64.6245H-36.8274C-36.8274 72.7778 -34.2546 80.3451 -29.877 86.5395L-21.7105 80.7682ZM-22.1116 92.9188C-22.1116 90.1813 -21.7204 87.5437 -20.994 85.0547L-30.5935 82.253C-31.5828 85.6428 -32.1116 89.2234 -32.1116 92.9188H-22.1116ZM-19.5672 104.603C-21.1992 101.053 -22.1116 97.0991 -22.1116 92.9188H-32.1116C-32.1116 98.5699 -30.8751 103.946 -28.6532 108.779L-19.5672 104.603ZM-36 135.504C-36 125.009 -30.2299 115.854 -21.665 111.052L-26.5555 102.33C-38.1476 108.829 -46 121.246 -46 135.504H-36ZM-30.8831 151.648C-34.1069 147.086 -36 141.524 -36 135.504H-46C-46 143.657 -43.4272 151.225 -39.0496 157.419L-30.8831 151.648ZM-31.2843 163.798C-31.2843 161.061 -30.893 158.423 -30.1666 155.934L-39.7661 153.132C-40.7555 156.522 -41.2843 160.103 -41.2843 163.798H-31.2843ZM-8.25263 191.368C-21.3468 189.022 -31.2843 177.566 -31.2843 163.798H-41.2843C-41.2843 182.493 -27.7929 198.026 -10.0161 201.211L-8.25263 191.368ZM-5.43412 205.492C-5.43412 202.774 -5.04839 200.154 -4.33185 197.681L-13.9369 194.898C-14.9128 198.267 -15.4341 201.823 -15.4341 205.492H-5.43412ZM-2.74502 217.486C-4.46778 213.856 -5.43412 209.794 -5.43412 205.492H-15.4341C-15.4341 211.308 -14.1244 216.832 -11.779 221.774L-2.74502 217.486ZM-30.1629 252.247C-30.1629 238.256 -19.901 226.653 -6.49434 224.57L-8.02968 214.689C-26.2327 217.517 -40.1629 233.251 -40.1629 252.247H-30.1629ZM-25.0459 268.39C-28.2697 263.829 -30.1629 258.266 -30.1629 252.247H-40.1629C-40.1629 260.4 -37.5901 267.967 -33.2125 274.162L-25.0459 268.39ZM-25.4472 280.541C-25.4472 277.803 -25.0559 275.166 -24.3295 272.677L-33.929 269.875C-34.9183 273.265 -35.4472 276.846 -35.4472 280.541H-25.4472ZM-7.98107 306.5C-18.2335 302.331 -25.4472 292.272 -25.4472 280.541H-35.4472C-35.4472 296.479 -25.6389 310.115 -11.7481 315.763L-7.98107 306.5ZM-15.1531 335.078C-15.1531 327.078 -11.8062 319.868 -6.42237 314.758L-13.3067 307.505C-20.597 314.425 -25.1531 324.223 -25.1531 335.078H-15.1531ZM-5.80585 355.965C-11.5497 350.829 -15.1531 343.377 -15.1531 335.078H-25.1531C-25.1531 346.341 -20.2472 356.466 -12.4717 363.419L-5.80585 355.965ZM-10.4374 379.091C-10.4374 372.933 -8.45626 367.253 -5.09551 362.633L-13.182 356.751C-17.7446 363.022 -20.4374 370.749 -20.4374 379.091L-10.4374 379.091ZM-4.79242 395.957C-8.33721 391.265 -10.4374 385.431 -10.4374 379.091H-20.4374C-20.4374 387.681 -17.5821 395.618 -12.7712 401.985L-4.79242 395.957ZM-10.1498 418.465C-10.1498 412.272 -8.14562 406.561 -4.74903 401.927L-12.8146 396.015C-17.4255 402.306 -20.1498 410.075 -20.1498 418.465H-10.1498ZM-0.802588 439.352C-6.54639 434.216 -10.1498 426.765 -10.1498 418.465H-20.1498C-20.1498 429.729 -15.244 439.854 -7.46842 446.807L-0.802588 439.352ZM-5.43412 462.478C-5.43412 456.321 -3.45301 450.641 -0.0922564 446.021L-8.17875 440.138C-12.7413 446.41 -15.4341 454.137 -15.4341 462.478L-5.43412 462.478ZM22.5759 490.489C7.10638 490.489 -5.43412 477.948 -5.43412 462.478H-15.4341C-15.4341 483.471 1.58353 500.489 22.5759 500.489V490.489ZM36.5773 486.744C32.4624 489.125 27.686 490.489 22.5759 490.489V500.489C29.4908 500.489 35.9887 498.637 41.5845 495.4L36.5773 486.744ZM55.5859 490.489C50.4757 490.489 45.6993 489.125 41.5845 486.744L36.5772 495.4C42.1731 498.637 48.6709 500.489 55.5859 500.489V490.489ZM79.6237 476.867C74.7202 485.038 65.787 490.489 55.5859 490.489V500.489C69.443 500.489 81.5626 493.07 88.1983 482.012L79.6237 476.867ZM88.5959 474.769C87.2415 474.769 85.9124 474.674 84.6143 474.489L83.2077 484.39C84.9703 484.64 86.7694 484.769 88.5959 484.769V474.769ZM106.905 467.958C101.992 472.205 95.5999 474.769 88.5959 474.769V484.769C98.0917 484.769 106.785 481.281 113.446 475.522L106.905 467.958ZM114.136 479.99C114.136 477.565 114.443 475.219 115.018 472.986L105.333 470.494C104.551 473.534 104.136 476.717 104.136 479.99H114.136ZM142.146 508C126.677 508 114.136 495.459 114.136 479.99H104.136C104.136 500.982 121.154 518 142.146 518V508ZM163.033 498.653C157.897 504.396 150.446 508 142.146 508V518C153.41 518 163.535 513.094 170.488 505.318L163.033 498.653ZM186.159 503.284C180.002 503.284 174.322 501.303 169.702 497.942L163.819 506.029C170.091 510.591 177.818 513.284 186.159 513.284V503.284Z" fill="black" mask="url(#path-1-inside-1_27_1804)"/>
<mask id="path-3-inside-2_27_1804" fill="white">
<path fill-rule="evenodd" clip-rule="evenodd" d="M239.413 136.449C241.402 138.212 243.736 139.336 246.164 139.836C246.159 140.864 246.261 141.89 246.47 142.898C244.883 143.708 243.419 144.822 242.166 146.235C236.796 152.294 237.354 161.559 243.413 166.929C249.472 172.3 258.737 171.741 264.107 165.682C267.297 162.083 268.395 157.352 267.491 152.979C269.077 152.17 270.542 151.056 271.795 149.642C277.165 143.583 276.607 134.318 270.548 128.948C268.559 127.185 266.225 126.061 263.796 125.561C263.818 121.486 262.149 117.423 258.86 114.508C255.486 111.517 251.117 110.365 246.98 110.978C246.224 108.457 244.779 106.108 242.664 104.233C236.605 98.8631 227.34 99.4213 221.97 105.48C216.6 111.539 217.158 120.804 223.217 126.174C226.591 129.165 230.96 130.317 235.097 129.704C235.854 132.226 237.298 134.574 239.413 136.449Z"/>
</mask>
<path fill-rule="evenodd" clip-rule="evenodd" d="M239.413 136.449C241.402 138.212 243.736 139.336 246.164 139.836C246.159 140.864 246.261 141.89 246.47 142.898C244.883 143.708 243.419 144.822 242.166 146.235C236.796 152.294 237.354 161.559 243.413 166.929C249.472 172.3 258.737 171.741 264.107 165.682C267.297 162.083 268.395 157.352 267.491 152.979C269.077 152.17 270.542 151.056 271.795 149.642C277.165 143.583 276.607 134.318 270.548 128.948C268.559 127.185 266.225 126.061 263.796 125.561C263.818 121.486 262.149 117.423 258.86 114.508C255.486 111.517 251.117 110.365 246.98 110.978C246.224 108.457 244.779 106.108 242.664 104.233C236.605 98.8631 227.34 99.4213 221.97 105.48C216.6 111.539 217.158 120.804 223.217 126.174C226.591 129.165 230.96 130.317 235.097 129.704C235.854 132.226 237.298 134.574 239.413 136.449Z" fill="#EFEFEF"/>
<path d="M246.164 139.836L251.164 139.862L251.186 135.766L247.173 134.939L246.164 139.836ZM246.47 142.898L248.742 147.352L252.138 145.62L251.366 141.886L246.47 142.898ZM267.491 152.979L265.219 148.525L261.822 150.258L262.595 153.991L267.491 152.979ZM263.796 125.561L258.796 125.535L258.775 129.631L262.787 130.458L263.796 125.561ZM246.98 110.978L242.191 112.414L243.434 116.558L247.713 115.924L246.98 110.978ZM235.097 129.704L239.886 128.268L238.643 124.124L234.364 124.758L235.097 129.704ZM247.173 134.939C245.579 134.61 244.046 133.874 242.729 132.707L236.096 140.191C238.757 142.549 241.893 144.061 245.155 144.733L247.173 134.939ZM251.366 141.886C251.228 141.22 251.161 140.541 251.164 139.862L241.165 139.81C241.157 141.186 241.294 142.561 241.573 143.911L251.366 141.886ZM245.908 149.551C246.739 148.613 247.703 147.882 248.742 147.352L244.197 138.445C242.063 139.533 240.098 141.03 238.424 142.918L245.908 149.551ZM246.729 163.187C242.737 159.649 242.369 153.544 245.908 149.551L238.424 142.918C231.222 151.044 231.971 163.469 240.096 170.671L246.729 163.187ZM260.365 162.366C256.827 166.358 250.722 166.726 246.729 163.187L240.096 170.671C248.222 177.873 260.647 177.124 267.849 168.999L260.365 162.366ZM262.595 153.991C263.193 156.887 262.465 159.997 260.365 162.366L267.849 168.999C272.129 164.17 273.597 157.818 272.387 151.966L262.595 153.991ZM268.053 146.326C267.221 147.264 266.258 147.995 265.219 148.525L269.763 157.433C271.897 156.344 273.862 154.847 275.536 152.959L268.053 146.326ZM267.231 132.69C271.224 136.228 271.591 142.333 268.053 146.326L275.536 152.959C282.738 144.833 281.99 132.408 273.864 125.206L267.231 132.69ZM262.787 130.458C264.382 130.786 265.915 131.523 267.231 132.69L273.864 125.206C271.203 122.848 268.068 121.336 264.805 120.664L262.787 130.458ZM255.544 118.249C257.711 120.17 258.81 122.838 258.796 125.535L268.796 125.587C268.825 120.134 266.588 114.676 262.177 110.766L255.544 118.249ZM247.713 115.924C250.451 115.518 253.321 116.28 255.544 118.249L262.177 110.766C257.65 106.754 251.783 105.211 246.247 106.032L247.713 115.924ZM239.348 107.975C240.747 109.215 241.694 110.758 242.191 112.414L251.769 109.541C250.753 106.155 248.811 103 245.981 100.492L239.348 107.975ZM225.712 108.797C229.25 104.804 235.355 104.437 239.348 107.975L245.981 100.492C237.855 93.2897 225.43 94.0383 218.228 102.164L225.712 108.797ZM226.533 122.433C222.541 118.894 222.173 112.789 225.712 108.797L218.228 102.164C211.026 110.289 211.775 122.714 219.9 129.916L226.533 122.433ZM234.364 124.758C231.626 125.164 228.756 124.403 226.533 122.433L219.9 129.916C224.427 133.928 230.295 135.471 235.83 134.65L234.364 124.758ZM242.729 132.707C241.33 131.467 240.383 129.924 239.886 128.268L230.308 131.141C231.324 134.527 233.266 137.682 236.096 140.191L242.729 132.707Z" fill="black" mask="url(#path-3-inside-2_27_1804)"/>
<rect x="213.623" y="99.6703" width="70.2439" height="33.5949" transform="rotate(41.5522 213.623 99.6703)" fill="#EFEFEF"/>
<mask id="path-6-inside-3_27_1804" fill="white">
<path fill-rule="evenodd" clip-rule="evenodd" d="M39.3789 151.34C37.0774 150.012 34.5653 149.378 32.0857 149.374C31.8852 148.366 31.5796 147.38 31.1735 146.435C32.5657 145.324 33.7775 143.939 34.7218 142.304C38.7699 135.292 36.3676 126.327 29.356 122.278C22.3444 118.23 13.3787 120.633 9.33059 127.644C6.92578 131.809 6.79735 136.664 8.55928 140.768C7.16712 141.879 5.95529 143.264 5.01103 144.899C0.962895 151.911 3.36524 160.876 10.3768 164.924C12.6783 166.253 15.1904 166.887 17.67 166.891C18.4651 170.887 20.9131 174.534 24.7193 176.732C28.6244 178.986 33.1357 179.24 37.0659 177.811C38.3119 180.13 40.1976 182.141 42.6448 183.554C49.6564 187.602 58.622 185.2 62.6702 178.189C66.7183 171.177 64.316 162.211 57.3044 158.163C53.3992 155.908 48.888 155.655 44.9577 157.084C43.7118 154.765 41.8261 152.753 39.3789 151.34Z"/>
</mask>
<path fill-rule="evenodd" clip-rule="evenodd" d="M39.3789 151.34C37.0774 150.012 34.5653 149.378 32.0857 149.374C31.8852 148.366 31.5796 147.38 31.1735 146.435C32.5657 145.324 33.7775 143.939 34.7218 142.304C38.7699 135.292 36.3676 126.327 29.356 122.278C22.3444 118.23 13.3787 120.633 9.33059 127.644C6.92578 131.809 6.79735 136.664 8.55928 140.768C7.16712 141.879 5.95529 143.264 5.01103 144.899C0.962895 151.911 3.36524 160.876 10.3768 164.924C12.6783 166.253 15.1904 166.887 17.67 166.891C18.4651 170.887 20.9131 174.534 24.7193 176.732C28.6244 178.986 33.1357 179.24 37.0659 177.811C38.3119 180.13 40.1976 182.141 42.6448 183.554C49.6564 187.602 58.622 185.2 62.6702 178.189C66.7183 171.177 64.316 162.211 57.3044 158.163C53.3992 155.908 48.888 155.655 44.9577 157.084C43.7118 154.765 41.8261 152.753 39.3789 151.34Z" fill="#EFEFEF"/>
<path d="M32.0857 149.374L27.1819 150.35L27.9813 154.367L32.0779 154.374L32.0857 149.374ZM31.1735 146.435L28.0555 142.526L25.0749 144.904L26.5791 148.407L31.1735 146.435ZM8.55928 140.768L11.6773 144.677L14.6579 142.299L13.1537 138.796L8.55928 140.768ZM17.67 166.891L22.5738 165.915L21.7744 161.897L17.6778 161.891L17.67 166.891ZM37.0659 177.811L41.4704 175.444L39.4228 171.633L35.3573 173.112L37.0659 177.811ZM44.9577 157.084L40.5533 159.451L42.6009 163.261L46.6664 161.783L44.9577 157.084ZM32.0779 154.374C33.7058 154.376 35.3551 154.791 36.8789 155.67L41.8789 147.01C38.7996 145.232 35.4248 144.379 32.0936 144.374L32.0779 154.374ZM26.5791 148.407C26.8472 149.032 27.0493 149.683 27.1819 150.35L36.9896 148.398C36.7211 147.049 36.3119 145.729 35.768 144.462L26.5791 148.407ZM30.3916 139.804C29.7649 140.889 28.9671 141.799 28.0555 142.526L34.2916 150.343C36.1643 148.849 37.7902 146.989 39.0519 144.804L30.3916 139.804ZM26.856 126.609C31.4761 129.276 33.0591 135.184 30.3916 139.804L39.0519 144.804C44.4807 135.401 41.259 123.377 31.856 117.948L26.856 126.609ZM13.6607 130.144C16.3281 125.524 22.2359 123.941 26.856 126.609L31.856 117.948C22.4529 112.519 10.4293 115.741 5.00047 125.144L13.6607 130.144ZM13.1537 138.796C11.9872 136.078 12.0778 132.886 13.6607 130.144L5.00047 125.144C1.77378 130.733 1.60754 137.25 3.96483 142.741L13.1537 138.796ZM9.34116 147.399C9.96793 146.313 10.7657 145.404 11.6773 144.677L5.44123 136.86C3.5685 138.353 1.94265 140.214 0.680905 142.399L9.34116 147.399ZM12.8768 160.594C8.2567 157.927 6.67373 152.019 9.34116 147.399L0.680905 142.399C-4.74794 151.802 -1.52622 163.826 7.87682 169.255L12.8768 160.594ZM17.6778 161.891C16.0499 161.888 14.4006 161.474 12.8768 160.594L7.87682 169.255C10.9561 171.032 14.3309 171.886 17.6621 171.891L17.6778 161.891ZM27.2193 172.401C24.712 170.954 23.1 168.56 22.5738 165.915L12.7661 167.867C13.8302 173.215 17.1142 178.114 22.2193 181.062L27.2193 172.401ZM35.3573 173.112C32.7561 174.058 29.7911 173.886 27.2193 172.401L22.2193 181.062C27.4576 184.086 33.5153 184.422 38.7746 182.51L35.3573 173.112ZM45.1448 179.224C43.5255 178.289 42.2891 176.968 41.4704 175.444L32.6615 180.177C34.3347 183.291 36.8697 185.994 40.1448 187.884L45.1448 179.224ZM58.34 175.689C55.6726 180.309 49.7649 181.892 45.1448 179.224L40.1448 187.884C49.5478 193.313 61.5714 190.092 67.0003 180.689L58.34 175.689ZM54.8044 162.493C59.4245 165.161 61.0075 171.068 58.34 175.689L67.0003 180.689C72.4291 171.285 69.2074 159.262 59.8044 153.833L54.8044 162.493ZM46.6664 161.783C49.2676 160.837 52.2325 161.008 54.8044 162.493L59.8044 153.833C54.566 150.809 48.5084 150.473 43.2491 152.385L46.6664 161.783ZM36.8789 155.67C38.4982 156.605 39.7346 157.927 40.5533 159.451L49.3621 154.717C47.6889 151.603 45.154 148.901 41.8789 147.01L36.8789 155.67Z" fill="black" mask="url(#path-6-inside-3_27_1804)"/>
<rect x="72.8524" y="181.63" width="70.2439" height="33.5949" transform="rotate(-150 72.8524 181.63)" fill="#EFEFEF"/>
<path fill-rule="evenodd" clip-rule="evenodd" d="M59.4709 35.0336C59.4764 35.2091 59.4831 35.3844 59.491 35.5593C60.2745 35.4244 61.0768 35.3423 61.8941 35.3167C66.9247 35.1593 71.5185 37.1764 74.7725 40.5196C77.1434 39.1577 79.874 38.3423 82.7978 38.2508C85.9171 38.1532 88.8685 38.8917 91.4367 40.264C94.4779 36.5695 99.0354 34.1545 104.194 33.9931C109.487 33.8275 114.296 36.069 117.57 39.7296C118.626 39.0298 119.764 38.443 120.968 37.9868C121.124 36.389 121.18 34.7588 121.128 33.1044C120.947 27.2894 119.456 21.856 116.98 17.14C117.916 17.4818 118.903 17.7777 119.93 18.0186C127.643 19.8289 134.703 17.8573 135.699 13.6149C136.695 9.37249 131.249 4.46579 123.535 2.65549C116.297 0.956753 109.634 2.58817 108.018 6.30113C102.718 2.15143 96.2066 -0.204233 89.2342 0.0139261C82.4124 0.227369 76.1848 2.87218 71.2081 7.17546C69.1678 3.78352 62.58 2.68688 55.6448 4.7797C48.0596 7.06868 42.9311 12.3062 44.19 16.4781C45.449 20.65 52.6186 22.1764 60.2038 19.8874C61.0016 19.6466 61.7721 19.3733 62.511 19.072C60.4011 23.8771 59.2919 29.3104 59.4709 35.0336Z" fill="url(#paint0_linear_27_1804)"/>
<path fill-rule="evenodd" clip-rule="evenodd" d="M273.38 45.3566C273.386 45.5538 273.394 45.7506 273.403 45.9471C274.283 45.7956 275.184 45.7033 276.102 45.6746C281.754 45.4978 286.914 47.7638 290.57 51.5196C293.233 49.9896 296.301 49.0736 299.585 48.9709C303.09 48.8612 306.405 49.6908 309.29 51.2324C312.707 47.082 317.827 44.369 323.622 44.1876C329.568 44.0016 334.971 46.5198 338.649 50.632C339.834 49.8459 341.113 49.1867 342.465 48.6743C342.641 46.8793 342.704 45.0479 342.646 43.1893C342.441 36.6567 340.767 30.5529 337.985 25.2549C339.037 25.6389 340.146 25.9713 341.299 26.242C349.965 28.2757 357.896 26.0608 359.015 21.2949C360.133 16.5289 354.015 11.0168 345.35 8.98309C337.219 7.07472 329.733 8.90747 327.918 13.0786C321.964 8.41689 314.649 5.77055 306.816 6.01563C299.152 6.25541 292.156 9.22658 286.566 14.0609C284.273 10.2504 276.873 9.01843 269.082 11.3695C260.561 13.9409 254.799 19.8248 256.213 24.5114C257.628 29.1981 265.682 30.9128 274.203 28.3414C275.099 28.071 275.965 27.7639 276.795 27.4254C274.425 32.8234 273.179 38.9272 273.38 45.3566Z" fill="url(#paint1_linear_27_1804)"/>
<path fill-rule="evenodd" clip-rule="evenodd" d="M104.762 132.221C104.768 132.423 104.776 132.624 104.785 132.825C105.684 132.67 106.605 132.576 107.544 132.546C113.319 132.366 118.593 134.681 122.329 138.52C125.051 136.956 128.186 136.02 131.543 135.915C135.124 135.803 138.512 136.651 141.461 138.226C144.952 133.985 150.185 131.212 156.107 131.027C162.184 130.837 167.705 133.41 171.464 137.613C172.676 136.809 173.983 136.136 175.365 135.612C175.545 133.777 175.609 131.906 175.549 130.006C175.34 123.33 173.629 117.092 170.786 111.678C171.862 112.07 172.994 112.41 174.173 112.687C183.029 114.765 191.134 112.501 192.278 107.631C193.421 102.76 187.168 97.127 178.313 95.0486C170.003 93.0983 162.353 94.9713 160.498 99.2341C154.413 94.47 146.937 91.7655 138.932 92.016C131.1 92.261 123.951 95.2975 118.237 100.238C115.894 96.3438 108.331 95.0847 100.369 97.4875C91.6607 100.115 85.7728 106.128 87.2182 110.918C88.6635 115.708 96.8948 117.46 105.603 114.832C106.519 114.556 107.404 114.242 108.252 113.896C105.83 119.413 104.556 125.651 104.762 132.221Z" fill="url(#paint2_linear_27_1804)"/>
<path fill-rule="evenodd" clip-rule="evenodd" d="M332.476 148.278C332.506 148.451 332.536 148.623 332.568 148.796C333.326 148.554 334.109 148.362 334.915 148.224C339.876 147.375 344.704 148.74 348.387 151.603C350.548 149.928 353.14 148.744 356.024 148.25C359.1 147.724 362.125 148.049 364.857 149.054C367.361 144.976 371.542 141.956 376.629 141.086C381.849 140.192 386.921 141.75 390.668 144.924C391.617 144.086 392.664 143.348 393.793 142.73C393.728 141.126 393.559 139.504 393.28 137.872C392.298 132.138 390.073 126.962 386.971 122.632C387.946 122.841 388.964 122.998 390.014 123.096C397.903 123.826 404.625 120.9 405.026 116.561C405.428 112.222 399.358 108.112 391.469 107.382C384.066 106.697 377.691 109.231 376.602 113.131C370.781 109.751 364.007 108.315 357.131 109.491C350.403 110.643 344.6 114.12 340.263 119.068C337.775 115.99 331.099 115.811 324.518 118.839C317.321 122.152 312.963 128.046 314.784 132.004C316.606 135.963 323.918 136.487 331.115 133.175C331.872 132.827 332.598 132.45 333.288 132.049C331.86 137.099 331.51 142.634 332.476 148.278Z" fill="url(#paint3_linear_27_1804)"/>
<defs>
<linearGradient id="paint0_linear_27_1804" x1="89.9083" y1="0" x2="89.9083" y2="40.5197" gradientUnits="userSpaceOnUse">
<stop/>
<stop offset="0.756744" stop-color="#626262"/>
</linearGradient>
<linearGradient id="paint1_linear_27_1804" x1="307.573" y1="6" x2="307.573" y2="51.5196" gradientUnits="userSpaceOnUse">
<stop/>
<stop offset="0.756744" stop-color="#626262"/>
</linearGradient>
<linearGradient id="paint2_linear_27_1804" x1="139.706" y1="92" x2="139.706" y2="138.52" gradientUnits="userSpaceOnUse">
<stop/>
<stop offset="0.756744" stop-color="#626262"/>
</linearGradient>
<linearGradient id="paint3_linear_27_1804" x1="357.796" y1="109.385" x2="363.379" y2="149.518" gradientUnits="userSpaceOnUse">
<stop/>
<stop offset="0.756744" stop-color="#626262"/>
</linearGradient>
</defs>
</svg>
