<svg width="284" height="286" viewBox="0 0 284 286" fill="none" xmlns="http://www.w3.org/2000/svg">
<g filter="url(#filter0_d_40_32687)">
<path d="M151.055 179.197C152.344 174.193 159.45 174.193 160.739 179.197L171.956 222.744C172.771 225.909 170.382 228.992 167.114 228.992H144.68C141.412 228.992 139.023 225.909 139.838 222.744L151.055 179.197Z" fill="black"/>
<path d="M151.055 179.197C152.344 174.193 159.45 174.193 160.739 179.197L171.956 222.744C172.771 225.909 170.382 228.992 167.114 228.992H144.68C141.412 228.992 139.023 225.909 139.838 222.744L151.055 179.197Z" fill="black"/>
<path d="M151.055 179.197C152.344 174.193 159.45 174.193 160.739 179.197L171.956 222.744C172.771 225.909 170.382 228.992 167.114 228.992H144.68C141.412 228.992 139.023 225.909 139.838 222.744L151.055 179.197Z" fill="black"/>
<path d="M114.472 179.197C115.761 174.193 122.867 174.193 124.156 179.197L135.374 222.744C136.189 225.909 133.799 228.992 130.532 228.992H108.097C104.83 228.992 102.44 225.909 103.255 222.744L114.472 179.197Z" fill="black"/>
<path d="M114.472 179.197C115.761 174.193 122.867 174.193 124.156 179.197L135.374 222.744C136.189 225.909 133.799 228.992 130.532 228.992H108.097C104.83 228.992 102.44 225.909 103.255 222.744L114.472 179.197Z" fill="black"/>
<path d="M114.472 179.197C115.761 174.193 122.867 174.193 124.156 179.197L135.374 222.744C136.189 225.909 133.799 228.992 130.532 228.992H108.097C104.83 228.992 102.44 225.909 103.255 222.744L114.472 179.197Z" fill="black"/>
<mask id="path-3-inside-1_40_32687" fill="white">
<path fill-rule="evenodd" clip-rule="evenodd" d="M32.3725 135.28C35.5385 123.464 42.2749 113.559 51.1098 106.414C42.7324 93.6101 39.6359 77.429 43.9077 61.4863C51.8693 31.7731 82.4108 14.14 112.124 22.1016C119.323 24.0306 125.813 27.2851 131.402 31.5322C142.543 26.6907 155.339 25.4432 167.984 28.8316C180.63 32.22 191.087 39.6981 198.315 49.4615C205.278 48.5778 212.526 49.0043 219.725 50.9333C249.438 58.8949 267.071 89.4364 259.11 119.15C257.705 124.392 255.598 129.258 252.916 133.674C256.761 144.1 257.534 155.774 254.439 167.324C246.478 197.037 215.936 214.67 186.223 206.709C183.631 206.014 181.131 205.148 178.731 204.125C165.129 217.275 145.163 223.165 125.558 217.912C115.758 215.286 107.273 210.205 100.586 203.507C91.4462 205.964 81.5567 206.122 71.7572 203.496C42.044 195.535 24.4109 164.993 32.3725 135.28Z"/>
</mask>
<path fill-rule="evenodd" clip-rule="evenodd" d="M32.3725 135.28C35.5385 123.464 42.2749 113.559 51.1098 106.414C42.7324 93.6101 39.6359 77.429 43.9077 61.4863C51.8693 31.7731 82.4108 14.14 112.124 22.1016C119.323 24.0306 125.813 27.2851 131.402 31.5322C142.543 26.6907 155.339 25.4432 167.984 28.8316C180.63 32.22 191.087 39.6981 198.315 49.4615C205.278 48.5778 212.526 49.0043 219.725 50.9333C249.438 58.8949 267.071 89.4364 259.11 119.15C257.705 124.392 255.598 129.258 252.916 133.674C256.761 144.1 257.534 155.774 254.439 167.324C246.478 197.037 215.936 214.67 186.223 206.709C183.631 206.014 181.131 205.148 178.731 204.125C165.129 217.275 145.163 223.165 125.558 217.912C115.758 215.286 107.273 210.205 100.586 203.507C91.4462 205.964 81.5567 206.122 71.7572 203.496C42.044 195.535 24.4109 164.993 32.3725 135.28Z" fill="#949494"/>
<path d="M51.1098 106.414L52.9963 108.746L55.1052 107.041L53.6202 104.771L51.1098 106.414ZM131.402 31.5322L129.587 33.9208L130.986 34.984L132.597 34.2837L131.402 31.5322ZM198.315 49.4615L195.904 51.2465L196.949 52.6589L198.693 52.4376L198.315 49.4615ZM252.916 133.674L250.352 132.117L249.6 133.355L250.101 134.713L252.916 133.674ZM178.731 204.125L179.908 201.365L178.077 200.585L176.646 201.968L178.731 204.125ZM100.586 203.507L102.709 201.387L101.483 200.159L99.8072 200.609L100.586 203.507ZM49.2233 104.081C39.9118 111.612 32.8103 122.055 29.4748 134.503L35.2703 136.056C38.2667 124.874 44.6379 115.506 52.9963 108.746L49.2233 104.081ZM41.0099 60.7099C36.5079 77.5115 39.7743 94.5684 48.5994 108.056L53.6202 104.771C45.6905 92.6518 42.7638 77.3465 46.8055 62.2628L41.0099 60.7099ZM112.9 19.2039C81.5869 10.8134 49.4004 29.3963 41.0099 60.7099L46.8055 62.2628C54.3383 34.15 83.2348 17.4666 111.348 24.9994L112.9 19.2039ZM133.217 29.1437C127.324 24.6651 120.482 21.2353 112.9 19.2039L111.348 24.9994C118.164 26.826 124.303 29.9052 129.587 33.9208L133.217 29.1437ZM168.761 25.9338C155.437 22.3637 141.947 23.6787 130.206 28.7808L132.597 34.2837C143.139 29.7027 155.24 28.5228 167.208 31.7294L168.761 25.9338ZM200.726 47.6765C193.109 37.3877 182.084 29.5039 168.761 25.9338L167.208 31.7294C179.175 34.936 189.065 42.0085 195.904 51.2465L200.726 47.6765ZM198.693 52.4376C205.277 51.6021 212.132 52.0045 218.949 53.8311L220.502 48.0355C212.92 46.004 205.28 45.5535 197.937 46.4854L198.693 52.4376ZM218.949 53.8311C247.061 61.3639 263.745 90.2603 256.212 118.373L262.008 119.926C270.398 88.6125 251.815 56.426 220.502 48.0355L218.949 53.8311ZM256.212 118.373C254.882 123.338 252.887 127.942 250.352 132.117L255.48 135.232C258.308 130.575 260.529 125.446 262.008 119.926L256.212 118.373ZM257.337 168.1C260.597 155.932 259.784 143.624 255.73 132.636L250.101 134.713C253.739 144.575 254.47 155.616 251.541 166.547L257.337 168.1ZM185.446 209.606C216.76 217.997 248.946 199.414 257.337 168.1L251.541 166.547C244.009 194.66 215.112 211.344 186.999 203.811L185.446 209.606ZM177.555 206.885C180.084 207.963 182.717 208.875 185.446 209.606L186.999 203.811C184.544 203.153 182.177 202.333 179.908 201.365L177.555 206.885ZM124.781 220.81C145.446 226.347 166.488 220.134 180.817 206.282L176.646 201.968C163.77 214.417 144.88 219.984 126.334 215.014L124.781 220.81ZM98.463 205.626C105.512 212.687 114.459 218.044 124.781 220.81L126.334 215.014C117.058 212.529 109.033 207.722 102.709 201.387L98.463 205.626ZM70.9808 206.394C81.3032 209.16 91.7294 208.994 101.365 206.404L99.8072 200.609C91.163 202.933 81.8101 203.084 72.5337 200.598L70.9808 206.394ZM29.4748 134.503C21.0843 165.817 39.6672 198.004 70.9808 206.394L72.5337 200.598C44.4209 193.066 27.7375 164.169 35.2703 136.056L29.4748 134.503Z" fill="black" mask="url(#path-3-inside-1_40_32687)"/>
</g>
<ellipse cx="141.512" cy="124.082" rx="49.9147" ry="55.1384" fill="url(#paint0_linear_40_32687)"/>
<circle cx="121.778" cy="111.894" r="12.7689" fill="white"/>
<circle cx="122.358" cy="111.313" r="5.22364" fill="black"/>
<circle cx="161.245" cy="111.894" r="12.7689" fill="white"/>
<circle cx="161.825" cy="111.313" r="5.22364" fill="black"/>
<path d="M141.103 159.793C139.153 159.793 137.444 159.617 135.977 159.264C134.51 158.929 133.274 158.493 132.272 157.954C131.622 157.601 131.064 157.165 130.6 156.645C130.136 156.143 129.904 155.512 129.904 154.75C129.904 154.249 130.043 153.803 130.321 153.413C130.6 153.023 130.897 152.726 131.213 152.522C131.882 152.967 132.578 153.358 133.302 153.692C134.008 154.045 134.76 154.333 135.559 154.555C136.358 154.797 137.212 154.973 138.122 155.085C139.032 155.215 140.026 155.28 141.103 155.28C142.18 155.28 143.174 155.215 144.084 155.085C144.994 154.973 145.848 154.797 146.647 154.555C147.446 154.333 148.198 154.045 148.904 153.692C149.628 153.358 150.324 152.967 150.993 152.522C151.309 152.726 151.606 153.023 151.885 153.413C152.163 153.803 152.302 154.249 152.302 154.75C152.302 155.512 152.07 156.143 151.606 156.645C151.142 157.165 150.584 157.601 149.934 157.954C148.931 158.493 147.696 158.929 146.229 159.264C144.762 159.617 143.053 159.793 141.103 159.793Z" fill="black"/>
<ellipse cx="192.779" cy="87.2862" rx="23.2162" ry="12.7689" transform="rotate(15 192.779 87.2862)" fill="black"/>
<ellipse cx="89.4672" cy="87.2866" rx="23.2162" ry="12.7689" transform="rotate(165 89.4672 87.2866)" fill="black"/>
<defs>
<filter id="filter0_d_40_32687" x="26.4608" y="20.1899" width="238.561" height="216.802" filterUnits="userSpaceOnUse" color-interpolation-filters="sRGB">
<feFlood flood-opacity="0" result="BackgroundImageFix"/>
<feColorMatrix in="SourceAlpha" type="matrix" values="0 0 0 0 0 0 0 0 0 0 0 0 0 0 0 0 0 0 127 0" result="hardAlpha"/>
<feOffset dy="4"/>
<feGaussianBlur stdDeviation="2"/>
<feComposite in2="hardAlpha" operator="out"/>
<feColorMatrix type="matrix" values="0 0 0 0 0 0 0 0 0 0 0 0 0 0 0 0 0 0 0.25 0"/>
<feBlend mode="normal" in2="BackgroundImageFix" result="effect1_dropShadow_40_32687"/>
<feBlend mode="normal" in="SourceGraphic" in2="effect1_dropShadow_40_32687" result="shape"/>
</filter>
<linearGradient id="paint0_linear_40_32687" x1="141.512" y1="68.9436" x2="141.512" y2="179.22" gradientUnits="userSpaceOnUse">
<stop/>
<stop offset="1" stop-color="#585858"/>
</linearGradient>
</defs>
</svg>
