<svg width="144" height="43" viewBox="0 0 144 43" fill="none" xmlns="http://www.w3.org/2000/svg">
<g clip-path="url(#clip0_36_32644)">
<path d="M93.0552 15L96.4903 15L108.795 19.5234L109 19.834L109.205 19.5234L121.51 15L124.996 15L142.53 21H136.121L123.612 16.4648L123.407 16.1543L123.202 16.4648L110.897 21H107.103L94.8496 16.4648L94.6445 16.1543L94.4395 16.4648L81.9297 21H75.521L93.0552 15Z" fill="white"/>
</g>
<g clip-path="url(#clip1_36_32644)">
<path d="M49.0552 37L52.4903 37L64.7949 41.5234L65 41.834L65.2051 41.5234L77.5099 37L80.9963 37L98.5304 43H92.1215L79.6116 38.4648L79.4069 38.1543L79.2017 38.4648L66.897 43H63.103L50.8496 38.4648L50.6445 38.1543L50.4395 38.4648L37.9297 43H31.521L49.0552 37Z" fill="white"/>
</g>
<g clip-path="url(#clip2_36_32644)">
<path d="M19.0552 0L22.4903 3.432e-08L34.7949 4.52344L35 4.83398L35.2051 4.52344L47.5099 2.84295e-07L50.9963 3.1913e-07L68.5304 6H62.1215L49.6116 1.46484L49.4069 1.1543L49.2017 1.46484L36.897 6H33.103L20.8496 1.46484L20.6445 1.1543L20.4395 1.46484L7.92968 6H1.521L19.0552 0Z" fill="white"/>
</g>
<defs>
<clipPath id="clip0_36_32644">
<rect width="70" height="6" fill="white" transform="translate(74 15)"/>
</clipPath>
<clipPath id="clip1_36_32644">
<rect width="70" height="6" fill="white" transform="translate(30 37)"/>
</clipPath>
<clipPath id="clip2_36_32644">
<rect width="70" height="6" fill="white"/>
</clipPath>
</defs>
</svg>
