<svg width="7897" height="130" viewBox="0 0 7897 130" fill="none" xmlns="http://www.w3.org/2000/svg">
<g clip-path="url(#clip0_864_21551)">
<path fill-rule="evenodd" clip-rule="evenodd" d="M5631.82 13.9998L7825.34 14C7825.32 17.7752 7824.77 21.4252 7823.76 24.8799C7828.32 31.3294 7831 39.2021 7831 47.7002C7831 69.563 7813.28 87.2864 7791.41 87.2864C7789.51 87.2864 7787.63 87.1515 7785.8 86.8908C7778.88 98.4209 7766.25 106.137 7751.83 106.137C7744.62 106.137 7737.86 104.209 7732.03 100.841C7726.21 104.209 7719.45 106.137 7712.24 106.137C7703.86 106.137 7696.08 103.531 7689.68 99.0854C7688.93 99.1279 7688.18 99.1494 7687.41 99.1494C7685.51 99.1494 7683.63 99.0145 7681.8 98.7538C7674.88 110.284 7662.25 118 7647.83 118C7640.62 118 7633.86 116.072 7628.03 112.704C7622.21 116.072 7615.45 118 7608.24 118C7592.69 118 7579.23 109.033 7572.76 95.9869C7571.01 96.2229 7569.23 96.3448 7567.41 96.3448C7562.12 96.3448 7557.06 95.3043 7552.44 93.4167C7545.69 98.7898 7537.13 102 7527.83 102C7518.52 102 7509.97 98.7898 7503.21 93.4167C7498.59 95.3043 7493.54 96.3448 7488.24 96.3448C7476.61 96.3447 7466.15 91.3286 7458.91 83.3416C7450.41 83.2353 7442.55 80.4501 7436.15 75.7914C7428.9 83.8977 7418.36 89 7406.63 89C7404.52 89 7402.44 88.8339 7400.41 88.5141C7393.34 95.112 7383.85 99.1494 7373.41 99.1494C7371.51 99.1494 7369.63 99.0145 7367.8 98.7538C7360.88 110.284 7348.25 118 7333.83 118C7326.62 118 7319.86 116.072 7314.03 112.704C7308.21 116.072 7301.45 118 7294.24 118C7275.76 118 7260.23 105.333 7255.88 88.2063C7254.84 88.1406 7253.81 88.0349 7252.8 87.8907C7245.88 99.4208 7233.25 107.137 7218.83 107.137C7211.62 107.137 7204.86 105.209 7199.03 101.841C7193.21 105.209 7186.45 107.137 7179.24 107.137C7170.86 107.137 7163.08 104.531 7156.68 100.085C7155.93 100.128 7155.18 100.149 7154.41 100.149C7152.51 100.149 7150.63 100.014 7148.8 99.7537C7141.88 111.284 7129.25 119 7114.83 119C7107.62 119 7100.86 117.072 7095.03 113.704C7089.21 117.072 7082.45 119 7075.24 119C7059.69 119 7046.23 110.033 7039.76 96.9868C7038.01 97.2228 7036.23 97.3447 7034.41 97.3447C7029.12 97.3447 7024.06 96.3043 7019.44 94.4167C7012.69 99.7898 7004.13 103 6994.83 103C6985.52 103 6976.97 99.7898 6970.21 94.4167C6965.59 96.3043 6960.54 97.3447 6955.24 97.3447C6943.61 97.3447 6933.15 92.3286 6925.91 84.3416C6917.41 84.2352 6909.55 81.45 6903.15 76.7913C6895.9 84.8977 6885.36 89.9999 6873.63 89.9999C6871.52 89.9999 6869.44 89.8339 6867.41 89.5141C6860.34 96.112 6850.85 100.149 6840.41 100.149C6838.51 100.149 6836.63 100.014 6834.8 99.7537C6827.88 111.284 6815.25 119 6800.83 119C6793.62 119 6786.86 117.072 6781.03 113.704C6775.21 117.072 6768.45 119 6761.24 119C6743.17 119 6727.93 106.897 6723.19 90.3559C6716.57 95.3352 6708.34 98.2863 6699.41 98.2863C6697.51 98.2863 6695.63 98.1514 6693.8 97.8907C6686.88 109.421 6674.25 117.137 6659.83 117.137C6652.62 117.137 6645.86 115.209 6640.03 111.841C6634.21 115.209 6627.45 117.137 6620.24 117.137C6611.86 117.137 6604.08 114.531 6597.68 110.085C6596.93 110.128 6596.18 110.149 6595.41 110.149C6593.51 110.149 6591.63 110.014 6589.8 109.754C6582.88 121.284 6570.25 129 6555.83 129C6548.62 129 6541.86 127.072 6536.03 123.704C6530.21 127.072 6523.45 129 6516.24 129C6500.69 129 6487.23 120.033 6480.76 106.987C6479.01 107.223 6477.23 107.345 6475.41 107.345C6470.12 107.345 6465.06 106.304 6460.44 104.417C6453.69 109.79 6445.13 113 6435.83 113C6426.52 113 6417.97 109.79 6411.21 104.417C6406.59 106.304 6401.54 107.345 6396.24 107.345C6384.61 107.345 6374.15 102.329 6366.91 94.3415C6358.41 94.2352 6350.55 91.45 6344.15 86.7913C6336.9 94.8976 6326.36 99.9999 6314.63 99.9999C6312.52 99.9999 6310.44 99.8338 6308.41 99.514C6301.34 106.112 6291.85 110.149 6281.41 110.149C6279.51 110.149 6277.63 110.014 6275.8 109.754C6268.88 121.284 6256.25 129 6241.83 129C6234.62 129 6227.86 127.072 6222.03 123.704C6216.21 127.072 6209.45 129 6202.24 129C6183.76 129 6168.23 116.333 6163.88 99.2062C6162.84 99.1405 6161.81 99.0348 6160.8 98.8906C6153.88 110.421 6141.25 118.137 6126.83 118.137C6119.62 118.137 6112.86 116.209 6107.03 112.841C6101.21 116.209 6094.45 118.137 6087.24 118.137C6078.86 118.137 6071.08 115.531 6064.68 111.085C6063.93 111.128 6063.18 111.149 6062.41 111.149C6060.51 111.149 6058.63 111.014 6056.8 110.754C6049.88 122.284 6037.25 130 6022.83 130C6015.62 130 6008.86 128.072 6003.03 124.704C5997.21 128.072 5990.45 130 5983.24 130C5967.69 130 5954.23 121.033 5947.76 107.987C5946.01 108.223 5944.23 108.345 5942.41 108.345C5937.12 108.345 5932.06 107.304 5927.44 105.417C5920.69 110.79 5912.13 114 5902.83 114C5893.52 114 5884.97 110.79 5878.21 105.417C5873.59 107.304 5868.54 108.345 5863.24 108.345C5851.61 108.345 5841.15 103.328 5833.91 95.3415C5825.41 95.2351 5817.55 92.4499 5811.15 87.7912C5803.9 95.8976 5793.36 101 5781.63 101C5779.52 101 5777.44 100.834 5775.41 100.514C5768.34 107.112 5758.85 111.149 5748.41 111.149C5746.51 111.149 5744.63 111.014 5742.8 110.754C5735.88 122.284 5723.25 130 5708.83 130C5701.62 130 5694.86 128.072 5689.03 124.704C5683.21 128.072 5676.45 130 5669.24 130C5647.38 130 5629.66 112.276 5629.66 90.4136C5629.66 81.7198 5632.46 73.6806 5637.21 67.1501C5629.1 59.9012 5624 49.3625 5624 37.632C5624 28.7739 5626.91 20.5953 5631.82 13.9998Z" fill="#2F2F2F"/>
<path fill-rule="evenodd" clip-rule="evenodd" d="M5697.82 -0.000192258L7891.34 -4.94448e-07C7891.32 3.77522 7890.77 7.42525 7889.76 10.8799C7894.32 17.3294 7897 25.2021 7897 33.7002C7897 55.563 7879.28 73.2864 7857.41 73.2864C7855.51 73.2864 7853.63 73.1515 7851.8 72.8908C7844.88 84.4209 7832.25 92.137 7817.83 92.137C7810.62 92.137 7803.86 90.2092 7798.03 86.841C7792.21 90.2092 7785.45 92.137 7778.24 92.137C7769.86 92.137 7762.08 89.5312 7755.68 85.0854C7754.93 85.1279 7754.18 85.1494 7753.41 85.1494C7751.51 85.1494 7749.63 85.0145 7747.8 84.7538C7740.88 96.2839 7728.25 104 7713.83 104C7706.62 104 7699.86 102.072 7694.03 98.7041C7688.21 102.072 7681.45 104 7674.24 104C7658.69 104 7645.23 95.0327 7638.76 81.9869C7637.01 82.2229 7635.23 82.3448 7633.41 82.3448C7628.12 82.3448 7623.06 81.3043 7618.44 79.4167C7611.69 84.7898 7603.13 87.9999 7593.83 87.9999C7584.52 87.9999 7575.97 84.7898 7569.21 79.4167C7564.59 81.3043 7559.54 82.3448 7554.24 82.3448C7542.61 82.3447 7532.15 77.3286 7524.91 69.3416C7516.41 69.2353 7508.55 66.4501 7502.15 61.7914C7494.9 69.8977 7484.36 75 7472.63 75C7470.52 75 7468.44 74.8339 7466.41 74.5141C7459.34 81.112 7449.85 85.1494 7439.41 85.1494C7437.51 85.1494 7435.63 85.0145 7433.8 84.7538C7426.88 96.2839 7414.25 104 7399.83 104C7392.62 104 7385.86 102.072 7380.03 98.704C7374.21 102.072 7367.45 104 7360.24 104C7341.76 104 7326.23 91.3328 7321.88 74.2063C7320.84 74.1406 7319.81 74.0349 7318.8 73.8907C7311.88 85.4208 7299.25 93.1369 7284.83 93.1369C7277.62 93.1369 7270.86 91.2092 7265.03 87.841C7259.21 91.2092 7252.45 93.1369 7245.24 93.1369C7236.86 93.1369 7229.08 90.5311 7222.68 86.0854C7221.93 86.1278 7221.18 86.1494 7220.41 86.1494C7218.51 86.1494 7216.63 86.0145 7214.8 85.7537C7207.88 97.2838 7195.25 105 7180.83 105C7173.62 105 7166.86 103.072 7161.03 99.704C7155.21 103.072 7148.45 105 7141.24 105C7125.69 105 7112.23 96.0327 7105.76 82.9868C7104.01 83.2228 7102.23 83.3447 7100.41 83.3447C7095.12 83.3447 7090.06 82.3043 7085.44 80.4167C7078.69 85.7898 7070.13 88.9999 7060.83 88.9999C7051.52 88.9999 7042.97 85.7898 7036.21 80.4167C7031.59 82.3043 7026.54 83.3447 7021.24 83.3447C7009.61 83.3447 6999.15 78.3286 6991.91 70.3416C6983.41 70.2352 6975.55 67.45 6969.15 62.7913C6961.9 70.8977 6951.36 75.9999 6939.63 75.9999C6937.52 75.9999 6935.44 75.8339 6933.41 75.5141C6926.34 82.112 6916.85 86.1493 6906.41 86.1493C6904.51 86.1493 6902.63 86.0145 6900.8 85.7537C6893.88 97.2838 6881.25 105 6866.83 105C6859.62 105 6852.86 103.072 6847.03 99.704C6841.21 103.072 6834.45 105 6827.24 105C6809.17 105 6793.93 92.8966 6789.19 76.3559C6782.57 81.3352 6774.34 84.2863 6765.41 84.2863C6763.51 84.2863 6761.63 84.1514 6759.8 83.8907C6752.88 95.4208 6740.25 103.137 6725.83 103.137C6718.62 103.137 6711.86 101.209 6706.03 97.8409C6700.21 101.209 6693.45 103.137 6686.24 103.137C6677.86 103.137 6670.08 100.531 6663.68 96.0853C6662.93 96.1278 6662.18 96.1493 6661.41 96.1493C6659.51 96.1493 6657.63 96.0144 6655.8 95.7537C6648.88 107.284 6636.25 115 6621.83 115C6614.62 115 6607.86 113.072 6602.03 109.704C6596.21 113.072 6589.45 115 6582.24 115C6566.69 115 6553.23 106.033 6546.76 92.9868C6545.01 93.2228 6543.23 93.3447 6541.41 93.3447C6536.12 93.3447 6531.06 92.3042 6526.44 90.4166C6519.69 95.7897 6511.13 98.9998 6501.83 98.9998C6492.52 98.9998 6483.97 95.7897 6477.21 90.4166C6472.59 92.3043 6467.54 93.3447 6462.24 93.3447C6450.61 93.3447 6440.15 88.3285 6432.91 80.3415C6424.41 80.2352 6416.55 77.45 6410.15 72.7913C6402.9 80.8976 6392.36 85.9999 6380.63 85.9999C6378.52 85.9999 6376.44 85.8338 6374.41 85.514C6367.34 92.1119 6357.85 96.1493 6347.41 96.1493C6345.51 96.1493 6343.63 96.0144 6341.8 95.7537C6334.88 107.284 6322.25 115 6307.83 115C6300.62 115 6293.86 113.072 6288.03 109.704C6282.21 113.072 6275.45 115 6268.24 115C6249.76 115 6234.23 102.333 6229.88 85.2062C6228.84 85.1405 6227.81 85.0348 6226.8 84.8906C6219.88 96.4207 6207.25 104.137 6192.83 104.137C6185.62 104.137 6178.86 102.209 6173.03 98.8409C6167.21 102.209 6160.45 104.137 6153.24 104.137C6144.86 104.137 6137.08 101.531 6130.68 97.0853C6129.93 97.1277 6129.18 97.1493 6128.41 97.1493C6126.51 97.1493 6124.63 97.0144 6122.8 96.7537C6115.88 108.284 6103.25 116 6088.83 116C6081.62 116 6074.86 114.072 6069.03 110.704C6063.21 114.072 6056.45 116 6049.24 116C6033.69 116 6020.23 107.033 6013.76 93.9867C6012.01 94.2227 6010.23 94.3446 6008.41 94.3446C6003.12 94.3446 5998.06 93.3042 5993.44 91.4166C5986.69 96.7897 5978.13 99.9998 5968.83 99.9998C5959.52 99.9998 5950.97 96.7897 5944.21 91.4166C5939.59 93.3042 5934.54 94.3446 5929.24 94.3446C5917.61 94.3446 5907.15 89.3285 5899.91 81.3415C5891.41 81.2351 5883.55 78.4499 5877.15 73.7912C5869.9 81.8976 5859.36 86.9998 5847.63 86.9998C5845.52 86.9998 5843.44 86.8338 5841.41 86.514C5834.34 93.1119 5824.85 97.1492 5814.41 97.1492C5812.51 97.1492 5810.63 97.0144 5808.8 96.7536C5801.88 108.284 5789.25 116 5774.83 116C5767.62 116 5760.86 114.072 5755.03 110.704C5749.21 114.072 5742.45 116 5735.24 116C5713.38 116 5695.66 98.2765 5695.66 76.4136C5695.66 67.7198 5698.46 59.6806 5703.21 53.1501C5695.1 45.9012 5690 35.3625 5690 23.632C5690 14.7739 5692.91 6.59533 5697.82 -0.000192258Z" fill="#494949"/>
</g>
<g clip-path="url(#clip1_864_21551)">
<path fill-rule="evenodd" clip-rule="evenodd" d="M3756.82 13.9998L5950.34 14C5950.32 17.7752 5949.77 21.4252 5948.76 24.8799C5953.32 31.3294 5956 39.2021 5956 47.7002C5956 69.563 5938.28 87.2864 5916.41 87.2864C5914.51 87.2864 5912.63 87.1515 5910.8 86.8908C5903.88 98.4209 5891.25 106.137 5876.83 106.137C5869.62 106.137 5862.86 104.209 5857.03 100.841C5851.21 104.209 5844.45 106.137 5837.24 106.137C5828.86 106.137 5821.08 103.531 5814.68 99.0854C5813.93 99.1279 5813.18 99.1494 5812.41 99.1494C5810.51 99.1494 5808.63 99.0145 5806.8 98.7538C5799.88 110.284 5787.25 118 5772.83 118C5765.62 118 5758.86 116.072 5753.03 112.704C5747.21 116.072 5740.45 118 5733.24 118C5717.69 118 5704.23 109.033 5697.76 95.9869C5696.01 96.2229 5694.23 96.3448 5692.41 96.3448C5687.12 96.3448 5682.06 95.3043 5677.44 93.4167C5670.69 98.7898 5662.13 102 5652.83 102C5643.52 102 5634.97 98.7898 5628.21 93.4167C5623.59 95.3043 5618.54 96.3448 5613.24 96.3448C5601.61 96.3447 5591.15 91.3286 5583.91 83.3416C5575.41 83.2353 5567.55 80.4501 5561.15 75.7914C5553.9 83.8977 5543.36 89 5531.63 89C5529.52 89 5527.44 88.8339 5525.41 88.5141C5518.34 95.112 5508.85 99.1494 5498.41 99.1494C5496.51 99.1494 5494.63 99.0145 5492.8 98.7538C5485.88 110.284 5473.25 118 5458.83 118C5451.62 118 5444.86 116.072 5439.03 112.704C5433.21 116.072 5426.45 118 5419.24 118C5400.76 118 5385.23 105.333 5380.88 88.2063C5379.84 88.1406 5378.81 88.0349 5377.8 87.8907C5370.88 99.4208 5358.25 107.137 5343.83 107.137C5336.62 107.137 5329.86 105.209 5324.03 101.841C5318.21 105.209 5311.45 107.137 5304.24 107.137C5295.86 107.137 5288.08 104.531 5281.68 100.085C5280.93 100.128 5280.18 100.149 5279.41 100.149C5277.51 100.149 5275.63 100.014 5273.8 99.7537C5266.88 111.284 5254.25 119 5239.83 119C5232.62 119 5225.86 117.072 5220.03 113.704C5214.21 117.072 5207.45 119 5200.24 119C5184.69 119 5171.23 110.033 5164.76 96.9868C5163.01 97.2228 5161.23 97.3447 5159.41 97.3447C5154.12 97.3447 5149.06 96.3043 5144.44 94.4167C5137.69 99.7898 5129.13 103 5119.83 103C5110.52 103 5101.97 99.7898 5095.21 94.4167C5090.59 96.3043 5085.54 97.3447 5080.24 97.3447C5068.61 97.3447 5058.15 92.3286 5050.91 84.3416C5042.41 84.2352 5034.55 81.45 5028.15 76.7913C5020.9 84.8977 5010.36 89.9999 4998.63 89.9999C4996.52 89.9999 4994.44 89.8339 4992.41 89.5141C4985.34 96.112 4975.85 100.149 4965.41 100.149C4963.51 100.149 4961.63 100.014 4959.8 99.7537C4952.88 111.284 4940.25 119 4925.83 119C4918.62 119 4911.86 117.072 4906.03 113.704C4900.21 117.072 4893.45 119 4886.24 119C4868.17 119 4852.93 106.897 4848.19 90.3559C4841.57 95.3352 4833.34 98.2863 4824.41 98.2863C4822.51 98.2863 4820.63 98.1514 4818.8 97.8907C4811.88 109.421 4799.25 117.137 4784.83 117.137C4777.62 117.137 4770.86 115.209 4765.03 111.841C4759.21 115.209 4752.45 117.137 4745.24 117.137C4736.86 117.137 4729.08 114.531 4722.68 110.085C4721.93 110.128 4721.18 110.149 4720.41 110.149C4718.51 110.149 4716.63 110.014 4714.8 109.754C4707.88 121.284 4695.25 129 4680.83 129C4673.62 129 4666.86 127.072 4661.03 123.704C4655.21 127.072 4648.45 129 4641.24 129C4625.69 129 4612.23 120.033 4605.76 106.987C4604.01 107.223 4602.23 107.345 4600.41 107.345C4595.12 107.345 4590.06 106.304 4585.44 104.417C4578.69 109.79 4570.13 113 4560.83 113C4551.52 113 4542.97 109.79 4536.21 104.417C4531.59 106.304 4526.54 107.345 4521.24 107.345C4509.61 107.345 4499.15 102.329 4491.91 94.3415C4483.41 94.2352 4475.55 91.45 4469.15 86.7913C4461.9 94.8976 4451.36 99.9999 4439.63 99.9999C4437.52 99.9999 4435.44 99.8338 4433.41 99.514C4426.34 106.112 4416.85 110.149 4406.41 110.149C4404.51 110.149 4402.63 110.014 4400.8 109.754C4393.88 121.284 4381.25 129 4366.83 129C4359.62 129 4352.86 127.072 4347.03 123.704C4341.21 127.072 4334.45 129 4327.24 129C4308.76 129 4293.23 116.333 4288.88 99.2062C4287.84 99.1405 4286.81 99.0348 4285.8 98.8906C4278.88 110.421 4266.25 118.137 4251.83 118.137C4244.62 118.137 4237.86 116.209 4232.03 112.841C4226.21 116.209 4219.45 118.137 4212.24 118.137C4203.86 118.137 4196.08 115.531 4189.68 111.085C4188.93 111.128 4188.18 111.149 4187.41 111.149C4185.51 111.149 4183.63 111.014 4181.8 110.754C4174.88 122.284 4162.25 130 4147.83 130C4140.62 130 4133.86 128.072 4128.03 124.704C4122.21 128.072 4115.45 130 4108.24 130C4092.69 130 4079.23 121.033 4072.76 107.987C4071.01 108.223 4069.23 108.345 4067.41 108.345C4062.12 108.345 4057.06 107.304 4052.44 105.417C4045.69 110.79 4037.13 114 4027.83 114C4018.52 114 4009.97 110.79 4003.21 105.417C3998.59 107.304 3993.54 108.345 3988.24 108.345C3976.61 108.345 3966.15 103.328 3958.91 95.3415C3950.41 95.2351 3942.55 92.4499 3936.15 87.7912C3928.9 95.8976 3918.36 101 3906.63 101C3904.52 101 3902.44 100.834 3900.41 100.514C3893.34 107.112 3883.85 111.149 3873.41 111.149C3871.51 111.149 3869.63 111.014 3867.8 110.754C3860.88 122.284 3848.25 130 3833.83 130C3826.62 130 3819.86 128.072 3814.03 124.704C3808.21 128.072 3801.45 130 3794.24 130C3772.38 130 3754.66 112.276 3754.66 90.4136C3754.66 81.7198 3757.46 73.6806 3762.21 67.1501C3754.1 59.9012 3749 49.3625 3749 37.632C3749 28.7739 3751.91 20.5953 3756.82 13.9998Z" fill="#2F2F2F"/>
<path fill-rule="evenodd" clip-rule="evenodd" d="M3822.82 -0.000192258L6016.34 -4.94448e-07C6016.32 3.77522 6015.77 7.42525 6014.76 10.8799C6019.32 17.3294 6022 25.2021 6022 33.7002C6022 55.563 6004.28 73.2864 5982.41 73.2864C5980.51 73.2864 5978.63 73.1515 5976.8 72.8908C5969.88 84.4209 5957.25 92.137 5942.83 92.137C5935.62 92.137 5928.86 90.2092 5923.03 86.841C5917.21 90.2092 5910.45 92.137 5903.24 92.137C5894.86 92.137 5887.08 89.5312 5880.68 85.0854C5879.93 85.1279 5879.18 85.1494 5878.41 85.1494C5876.51 85.1494 5874.63 85.0145 5872.8 84.7538C5865.88 96.2839 5853.25 104 5838.83 104C5831.62 104 5824.86 102.072 5819.03 98.7041C5813.21 102.072 5806.45 104 5799.24 104C5783.69 104 5770.23 95.0327 5763.76 81.9869C5762.01 82.2229 5760.23 82.3448 5758.41 82.3448C5753.12 82.3448 5748.06 81.3043 5743.44 79.4167C5736.69 84.7898 5728.13 87.9999 5718.83 87.9999C5709.52 87.9999 5700.97 84.7898 5694.21 79.4167C5689.59 81.3043 5684.54 82.3448 5679.24 82.3448C5667.61 82.3447 5657.15 77.3286 5649.91 69.3416C5641.41 69.2353 5633.55 66.4501 5627.15 61.7914C5619.9 69.8977 5609.36 75 5597.63 75C5595.52 75 5593.44 74.8339 5591.41 74.5141C5584.34 81.112 5574.85 85.1494 5564.41 85.1494C5562.51 85.1494 5560.63 85.0145 5558.8 84.7538C5551.88 96.2839 5539.25 104 5524.83 104C5517.62 104 5510.86 102.072 5505.03 98.704C5499.21 102.072 5492.45 104 5485.24 104C5466.76 104 5451.23 91.3328 5446.88 74.2063C5445.84 74.1406 5444.81 74.0349 5443.8 73.8907C5436.88 85.4208 5424.25 93.1369 5409.83 93.1369C5402.62 93.1369 5395.86 91.2092 5390.03 87.841C5384.21 91.2092 5377.45 93.1369 5370.24 93.1369C5361.86 93.1369 5354.08 90.5311 5347.68 86.0854C5346.93 86.1278 5346.18 86.1494 5345.41 86.1494C5343.51 86.1494 5341.63 86.0145 5339.8 85.7537C5332.88 97.2838 5320.25 105 5305.83 105C5298.62 105 5291.86 103.072 5286.03 99.704C5280.21 103.072 5273.45 105 5266.24 105C5250.69 105 5237.23 96.0327 5230.76 82.9868C5229.01 83.2228 5227.23 83.3447 5225.41 83.3447C5220.12 83.3447 5215.06 82.3043 5210.44 80.4167C5203.69 85.7898 5195.13 88.9999 5185.83 88.9999C5176.52 88.9999 5167.97 85.7898 5161.21 80.4167C5156.59 82.3043 5151.54 83.3447 5146.24 83.3447C5134.61 83.3447 5124.15 78.3286 5116.91 70.3416C5108.41 70.2352 5100.55 67.45 5094.15 62.7913C5086.9 70.8977 5076.36 75.9999 5064.63 75.9999C5062.52 75.9999 5060.44 75.8339 5058.41 75.5141C5051.34 82.112 5041.85 86.1493 5031.41 86.1493C5029.51 86.1493 5027.63 86.0145 5025.8 85.7537C5018.88 97.2838 5006.25 105 4991.83 105C4984.62 105 4977.86 103.072 4972.03 99.704C4966.21 103.072 4959.45 105 4952.24 105C4934.17 105 4918.93 92.8966 4914.19 76.3559C4907.57 81.3352 4899.34 84.2863 4890.41 84.2863C4888.51 84.2863 4886.63 84.1514 4884.8 83.8907C4877.88 95.4208 4865.25 103.137 4850.83 103.137C4843.62 103.137 4836.86 101.209 4831.03 97.8409C4825.21 101.209 4818.45 103.137 4811.24 103.137C4802.86 103.137 4795.08 100.531 4788.68 96.0853C4787.93 96.1278 4787.18 96.1493 4786.41 96.1493C4784.51 96.1493 4782.63 96.0144 4780.8 95.7537C4773.88 107.284 4761.25 115 4746.83 115C4739.62 115 4732.86 113.072 4727.03 109.704C4721.21 113.072 4714.45 115 4707.24 115C4691.69 115 4678.23 106.033 4671.76 92.9868C4670.01 93.2228 4668.23 93.3447 4666.41 93.3447C4661.12 93.3447 4656.06 92.3042 4651.44 90.4166C4644.69 95.7897 4636.13 98.9998 4626.83 98.9998C4617.52 98.9998 4608.97 95.7897 4602.21 90.4166C4597.59 92.3043 4592.54 93.3447 4587.24 93.3447C4575.61 93.3447 4565.15 88.3285 4557.91 80.3415C4549.41 80.2352 4541.55 77.45 4535.15 72.7913C4527.9 80.8976 4517.36 85.9999 4505.63 85.9999C4503.52 85.9999 4501.44 85.8338 4499.41 85.514C4492.34 92.1119 4482.85 96.1493 4472.41 96.1493C4470.51 96.1493 4468.63 96.0144 4466.8 95.7537C4459.88 107.284 4447.25 115 4432.83 115C4425.62 115 4418.86 113.072 4413.03 109.704C4407.21 113.072 4400.45 115 4393.24 115C4374.76 115 4359.23 102.333 4354.88 85.2062C4353.84 85.1405 4352.81 85.0348 4351.8 84.8906C4344.88 96.4207 4332.25 104.137 4317.83 104.137C4310.62 104.137 4303.86 102.209 4298.03 98.8409C4292.21 102.209 4285.45 104.137 4278.24 104.137C4269.86 104.137 4262.08 101.531 4255.68 97.0853C4254.93 97.1277 4254.18 97.1493 4253.41 97.1493C4251.51 97.1493 4249.63 97.0144 4247.8 96.7537C4240.88 108.284 4228.25 116 4213.83 116C4206.62 116 4199.86 114.072 4194.03 110.704C4188.21 114.072 4181.45 116 4174.24 116C4158.69 116 4145.23 107.033 4138.76 93.9867C4137.01 94.2227 4135.23 94.3446 4133.41 94.3446C4128.12 94.3446 4123.06 93.3042 4118.44 91.4166C4111.69 96.7897 4103.13 99.9998 4093.83 99.9998C4084.52 99.9998 4075.97 96.7897 4069.21 91.4166C4064.59 93.3042 4059.54 94.3446 4054.24 94.3446C4042.61 94.3446 4032.15 89.3285 4024.91 81.3415C4016.41 81.2351 4008.55 78.4499 4002.15 73.7912C3994.9 81.8976 3984.36 86.9998 3972.63 86.9998C3970.52 86.9998 3968.44 86.8338 3966.41 86.514C3959.34 93.1119 3949.85 97.1492 3939.41 97.1492C3937.51 97.1492 3935.63 97.0144 3933.8 96.7536C3926.88 108.284 3914.25 116 3899.83 116C3892.62 116 3885.86 114.072 3880.03 110.704C3874.21 114.072 3867.45 116 3860.24 116C3838.38 116 3820.66 98.2765 3820.66 76.4136C3820.66 67.7198 3823.46 59.6806 3828.21 53.1501C3820.1 45.9012 3815 35.3625 3815 23.632C3815 14.7739 3817.91 6.59533 3822.82 -0.000192258Z" fill="#494949"/>
</g>
<g clip-path="url(#clip2_864_21551)">
<path fill-rule="evenodd" clip-rule="evenodd" d="M1880.82 13.9998L4074.34 14C4074.32 17.7752 4073.77 21.4252 4072.76 24.8799C4077.32 31.3294 4080 39.2021 4080 47.7002C4080 69.563 4062.28 87.2864 4040.41 87.2864C4038.51 87.2864 4036.63 87.1515 4034.8 86.8908C4027.88 98.4209 4015.25 106.137 4000.83 106.137C3993.62 106.137 3986.86 104.209 3981.03 100.841C3975.21 104.209 3968.45 106.137 3961.24 106.137C3952.86 106.137 3945.08 103.531 3938.68 99.0854C3937.93 99.1279 3937.18 99.1494 3936.41 99.1494C3934.51 99.1494 3932.63 99.0145 3930.8 98.7538C3923.88 110.284 3911.25 118 3896.83 118C3889.62 118 3882.86 116.072 3877.03 112.704C3871.21 116.072 3864.45 118 3857.24 118C3841.69 118 3828.23 109.033 3821.76 95.9869C3820.01 96.2229 3818.23 96.3448 3816.41 96.3448C3811.12 96.3448 3806.06 95.3043 3801.44 93.4167C3794.69 98.7898 3786.13 102 3776.83 102C3767.52 102 3758.97 98.7898 3752.21 93.4167C3747.59 95.3043 3742.54 96.3448 3737.24 96.3448C3725.61 96.3447 3715.15 91.3286 3707.91 83.3416C3699.41 83.2353 3691.55 80.4501 3685.15 75.7914C3677.9 83.8977 3667.36 89 3655.63 89C3653.52 89 3651.44 88.8339 3649.41 88.5141C3642.34 95.112 3632.85 99.1494 3622.41 99.1494C3620.51 99.1494 3618.63 99.0145 3616.8 98.7538C3609.88 110.284 3597.25 118 3582.83 118C3575.62 118 3568.86 116.072 3563.03 112.704C3557.21 116.072 3550.45 118 3543.24 118C3524.76 118 3509.23 105.333 3504.88 88.2063C3503.84 88.1406 3502.81 88.0349 3501.8 87.8907C3494.88 99.4208 3482.25 107.137 3467.83 107.137C3460.62 107.137 3453.86 105.209 3448.03 101.841C3442.21 105.209 3435.45 107.137 3428.24 107.137C3419.86 107.137 3412.08 104.531 3405.68 100.085C3404.93 100.128 3404.18 100.149 3403.41 100.149C3401.51 100.149 3399.63 100.014 3397.8 99.7537C3390.88 111.284 3378.25 119 3363.83 119C3356.62 119 3349.86 117.072 3344.03 113.704C3338.21 117.072 3331.45 119 3324.24 119C3308.69 119 3295.23 110.033 3288.76 96.9868C3287.01 97.2228 3285.23 97.3447 3283.41 97.3447C3278.12 97.3447 3273.06 96.3043 3268.44 94.4167C3261.69 99.7898 3253.13 103 3243.83 103C3234.52 103 3225.97 99.7898 3219.21 94.4167C3214.59 96.3043 3209.54 97.3447 3204.24 97.3447C3192.61 97.3447 3182.15 92.3286 3174.91 84.3416C3166.41 84.2352 3158.55 81.45 3152.15 76.7913C3144.9 84.8977 3134.36 89.9999 3122.63 89.9999C3120.52 89.9999 3118.44 89.8339 3116.41 89.5141C3109.34 96.112 3099.85 100.149 3089.41 100.149C3087.51 100.149 3085.63 100.014 3083.8 99.7537C3076.88 111.284 3064.25 119 3049.83 119C3042.62 119 3035.86 117.072 3030.03 113.704C3024.21 117.072 3017.45 119 3010.24 119C2992.17 119 2976.93 106.897 2972.19 90.3559C2965.57 95.3352 2957.34 98.2863 2948.41 98.2863C2946.51 98.2863 2944.63 98.1514 2942.8 97.8907C2935.88 109.421 2923.25 117.137 2908.83 117.137C2901.62 117.137 2894.86 115.209 2889.03 111.841C2883.21 115.209 2876.45 117.137 2869.24 117.137C2860.86 117.137 2853.08 114.531 2846.68 110.085C2845.93 110.128 2845.18 110.149 2844.41 110.149C2842.51 110.149 2840.63 110.014 2838.8 109.754C2831.88 121.284 2819.25 129 2804.83 129C2797.62 129 2790.86 127.072 2785.03 123.704C2779.21 127.072 2772.45 129 2765.24 129C2749.69 129 2736.23 120.033 2729.76 106.987C2728.01 107.223 2726.23 107.345 2724.41 107.345C2719.12 107.345 2714.06 106.304 2709.44 104.417C2702.69 109.79 2694.13 113 2684.83 113C2675.52 113 2666.97 109.79 2660.21 104.417C2655.59 106.304 2650.54 107.345 2645.24 107.345C2633.61 107.345 2623.15 102.329 2615.91 94.3415C2607.41 94.2352 2599.55 91.45 2593.15 86.7913C2585.9 94.8976 2575.36 99.9999 2563.63 99.9999C2561.52 99.9999 2559.44 99.8338 2557.41 99.514C2550.34 106.112 2540.85 110.149 2530.41 110.149C2528.51 110.149 2526.63 110.014 2524.8 109.754C2517.88 121.284 2505.25 129 2490.83 129C2483.62 129 2476.86 127.072 2471.03 123.704C2465.21 127.072 2458.45 129 2451.24 129C2432.76 129 2417.23 116.333 2412.88 99.2062C2411.84 99.1405 2410.81 99.0348 2409.8 98.8906C2402.88 110.421 2390.25 118.137 2375.83 118.137C2368.62 118.137 2361.86 116.209 2356.03 112.841C2350.21 116.209 2343.45 118.137 2336.24 118.137C2327.86 118.137 2320.08 115.531 2313.68 111.085C2312.93 111.128 2312.18 111.149 2311.41 111.149C2309.51 111.149 2307.63 111.014 2305.8 110.754C2298.88 122.284 2286.25 130 2271.83 130C2264.62 130 2257.86 128.072 2252.03 124.704C2246.21 128.072 2239.45 130 2232.24 130C2216.69 130 2203.23 121.033 2196.76 107.987C2195.01 108.223 2193.23 108.345 2191.41 108.345C2186.12 108.345 2181.06 107.304 2176.44 105.417C2169.69 110.79 2161.13 114 2151.83 114C2142.52 114 2133.97 110.79 2127.21 105.417C2122.59 107.304 2117.54 108.345 2112.24 108.345C2100.61 108.345 2090.15 103.328 2082.91 95.3415C2074.41 95.2351 2066.55 92.4499 2060.15 87.7912C2052.9 95.8976 2042.36 101 2030.63 101C2028.52 101 2026.44 100.834 2024.41 100.514C2017.34 107.112 2007.85 111.149 1997.41 111.149C1995.51 111.149 1993.63 111.014 1991.8 110.754C1984.88 122.284 1972.25 130 1957.83 130C1950.62 130 1943.86 128.072 1938.03 124.704C1932.21 128.072 1925.45 130 1918.24 130C1896.38 130 1878.66 112.276 1878.66 90.4136C1878.66 81.7198 1881.46 73.6806 1886.21 67.1501C1878.1 59.9012 1873 49.3625 1873 37.632C1873 28.7739 1875.91 20.5953 1880.82 13.9998Z" fill="#2F2F2F"/>
<path fill-rule="evenodd" clip-rule="evenodd" d="M1946.82 -0.000192258L4140.34 -4.94448e-07C4140.32 3.77522 4139.77 7.42525 4138.76 10.8799C4143.32 17.3294 4146 25.2021 4146 33.7002C4146 55.563 4128.28 73.2864 4106.41 73.2864C4104.51 73.2864 4102.63 73.1515 4100.8 72.8908C4093.88 84.4209 4081.25 92.137 4066.83 92.137C4059.62 92.137 4052.86 90.2092 4047.03 86.841C4041.21 90.2092 4034.45 92.137 4027.24 92.137C4018.86 92.137 4011.08 89.5312 4004.68 85.0854C4003.93 85.1279 4003.18 85.1494 4002.41 85.1494C4000.51 85.1494 3998.63 85.0145 3996.8 84.7538C3989.88 96.2839 3977.25 104 3962.83 104C3955.62 104 3948.86 102.072 3943.03 98.7041C3937.21 102.072 3930.45 104 3923.24 104C3907.69 104 3894.23 95.0327 3887.76 81.9869C3886.01 82.2229 3884.23 82.3448 3882.41 82.3448C3877.12 82.3448 3872.06 81.3043 3867.44 79.4167C3860.69 84.7898 3852.13 87.9999 3842.83 87.9999C3833.52 87.9999 3824.97 84.7898 3818.21 79.4167C3813.59 81.3043 3808.54 82.3448 3803.24 82.3448C3791.61 82.3447 3781.15 77.3286 3773.91 69.3416C3765.41 69.2353 3757.55 66.4501 3751.15 61.7914C3743.9 69.8977 3733.36 75 3721.63 75C3719.52 75 3717.44 74.8339 3715.41 74.5141C3708.34 81.112 3698.85 85.1494 3688.41 85.1494C3686.51 85.1494 3684.63 85.0145 3682.8 84.7538C3675.88 96.2839 3663.25 104 3648.83 104C3641.62 104 3634.86 102.072 3629.03 98.704C3623.21 102.072 3616.45 104 3609.24 104C3590.76 104 3575.23 91.3328 3570.88 74.2063C3569.84 74.1406 3568.81 74.0349 3567.8 73.8907C3560.88 85.4208 3548.25 93.1369 3533.83 93.1369C3526.62 93.1369 3519.86 91.2092 3514.03 87.841C3508.21 91.2092 3501.45 93.1369 3494.24 93.1369C3485.86 93.1369 3478.08 90.5311 3471.68 86.0854C3470.93 86.1278 3470.18 86.1494 3469.41 86.1494C3467.51 86.1494 3465.63 86.0145 3463.8 85.7537C3456.88 97.2838 3444.25 105 3429.83 105C3422.62 105 3415.86 103.072 3410.03 99.704C3404.21 103.072 3397.45 105 3390.24 105C3374.69 105 3361.23 96.0327 3354.76 82.9868C3353.01 83.2228 3351.23 83.3447 3349.41 83.3447C3344.12 83.3447 3339.06 82.3043 3334.44 80.4167C3327.69 85.7898 3319.13 88.9999 3309.83 88.9999C3300.52 88.9999 3291.97 85.7898 3285.21 80.4167C3280.59 82.3043 3275.54 83.3447 3270.24 83.3447C3258.61 83.3447 3248.15 78.3286 3240.91 70.3416C3232.41 70.2352 3224.55 67.45 3218.15 62.7913C3210.9 70.8977 3200.36 75.9999 3188.63 75.9999C3186.52 75.9999 3184.44 75.8339 3182.41 75.5141C3175.34 82.112 3165.85 86.1493 3155.41 86.1493C3153.51 86.1493 3151.63 86.0145 3149.8 85.7537C3142.88 97.2838 3130.25 105 3115.83 105C3108.62 105 3101.86 103.072 3096.03 99.704C3090.21 103.072 3083.45 105 3076.24 105C3058.17 105 3042.93 92.8966 3038.19 76.3559C3031.57 81.3352 3023.34 84.2863 3014.41 84.2863C3012.51 84.2863 3010.63 84.1514 3008.8 83.8907C3001.88 95.4208 2989.25 103.137 2974.83 103.137C2967.62 103.137 2960.86 101.209 2955.03 97.8409C2949.21 101.209 2942.45 103.137 2935.24 103.137C2926.86 103.137 2919.08 100.531 2912.68 96.0853C2911.93 96.1278 2911.18 96.1493 2910.41 96.1493C2908.51 96.1493 2906.63 96.0144 2904.8 95.7537C2897.88 107.284 2885.25 115 2870.83 115C2863.62 115 2856.86 113.072 2851.03 109.704C2845.21 113.072 2838.45 115 2831.24 115C2815.69 115 2802.23 106.033 2795.76 92.9868C2794.01 93.2228 2792.23 93.3447 2790.41 93.3447C2785.12 93.3447 2780.06 92.3042 2775.44 90.4166C2768.69 95.7897 2760.13 98.9998 2750.83 98.9998C2741.52 98.9998 2732.97 95.7897 2726.21 90.4166C2721.59 92.3043 2716.54 93.3447 2711.24 93.3447C2699.61 93.3447 2689.15 88.3285 2681.91 80.3415C2673.41 80.2352 2665.55 77.45 2659.15 72.7913C2651.9 80.8976 2641.36 85.9999 2629.63 85.9999C2627.52 85.9999 2625.44 85.8338 2623.41 85.514C2616.34 92.1119 2606.85 96.1493 2596.41 96.1493C2594.51 96.1493 2592.63 96.0144 2590.8 95.7537C2583.88 107.284 2571.25 115 2556.83 115C2549.62 115 2542.86 113.072 2537.03 109.704C2531.21 113.072 2524.45 115 2517.24 115C2498.76 115 2483.23 102.333 2478.88 85.2062C2477.84 85.1405 2476.81 85.0348 2475.8 84.8906C2468.88 96.4207 2456.25 104.137 2441.83 104.137C2434.62 104.137 2427.86 102.209 2422.03 98.8409C2416.21 102.209 2409.45 104.137 2402.24 104.137C2393.86 104.137 2386.08 101.531 2379.68 97.0853C2378.93 97.1277 2378.18 97.1493 2377.41 97.1493C2375.51 97.1493 2373.63 97.0144 2371.8 96.7537C2364.88 108.284 2352.25 116 2337.83 116C2330.62 116 2323.86 114.072 2318.03 110.704C2312.21 114.072 2305.45 116 2298.24 116C2282.69 116 2269.23 107.033 2262.76 93.9867C2261.01 94.2227 2259.23 94.3446 2257.41 94.3446C2252.12 94.3446 2247.06 93.3042 2242.44 91.4166C2235.69 96.7897 2227.13 99.9998 2217.83 99.9998C2208.52 99.9998 2199.97 96.7897 2193.21 91.4166C2188.59 93.3042 2183.54 94.3446 2178.24 94.3446C2166.61 94.3446 2156.15 89.3285 2148.91 81.3415C2140.41 81.2351 2132.55 78.4499 2126.15 73.7912C2118.9 81.8976 2108.36 86.9998 2096.63 86.9998C2094.52 86.9998 2092.44 86.8338 2090.41 86.514C2083.34 93.1119 2073.85 97.1492 2063.41 97.1492C2061.51 97.1492 2059.63 97.0144 2057.8 96.7536C2050.88 108.284 2038.25 116 2023.83 116C2016.62 116 2009.86 114.072 2004.03 110.704C1998.21 114.072 1991.45 116 1984.24 116C1962.38 116 1944.66 98.2765 1944.66 76.4136C1944.66 67.7198 1947.46 59.6806 1952.21 53.1501C1944.1 45.9012 1939 35.3625 1939 23.632C1939 14.7739 1941.91 6.59533 1946.82 -0.000192258Z" fill="#494949"/>
</g>
<g clip-path="url(#clip3_864_21551)">
<path fill-rule="evenodd" clip-rule="evenodd" d="M7.82496 13.9998L2201.34 14C2201.32 17.7752 2200.77 21.4252 2199.76 24.8799C2204.32 31.3294 2207 39.2021 2207 47.7002C2207 69.563 2189.28 87.2864 2167.41 87.2864C2165.51 87.2864 2163.63 87.1515 2161.8 86.8908C2154.88 98.4209 2142.25 106.137 2127.83 106.137C2120.62 106.137 2113.86 104.209 2108.03 100.841C2102.21 104.209 2095.45 106.137 2088.24 106.137C2079.86 106.137 2072.08 103.531 2065.68 99.0854C2064.93 99.1279 2064.18 99.1494 2063.41 99.1494C2061.51 99.1494 2059.63 99.0145 2057.8 98.7538C2050.88 110.284 2038.25 118 2023.83 118C2016.62 118 2009.86 116.072 2004.03 112.704C1998.21 116.072 1991.45 118 1984.24 118C1968.69 118 1955.23 109.033 1948.76 95.9869C1947.01 96.2229 1945.23 96.3448 1943.41 96.3448C1938.12 96.3448 1933.06 95.3043 1928.44 93.4167C1921.69 98.7898 1913.13 102 1903.83 102C1894.52 102 1885.97 98.7898 1879.21 93.4167C1874.59 95.3043 1869.54 96.3448 1864.24 96.3448C1852.61 96.3447 1842.15 91.3286 1834.91 83.3416C1826.41 83.2353 1818.55 80.4501 1812.15 75.7914C1804.9 83.8977 1794.36 89 1782.63 89C1780.52 89 1778.44 88.8339 1776.41 88.5141C1769.34 95.112 1759.85 99.1494 1749.41 99.1494C1747.51 99.1494 1745.63 99.0145 1743.8 98.7538C1736.88 110.284 1724.25 118 1709.83 118C1702.62 118 1695.86 116.072 1690.03 112.704C1684.21 116.072 1677.45 118 1670.24 118C1651.76 118 1636.23 105.333 1631.88 88.2063C1630.84 88.1406 1629.81 88.0349 1628.8 87.8907C1621.88 99.4208 1609.25 107.137 1594.83 107.137C1587.62 107.137 1580.86 105.209 1575.03 101.841C1569.21 105.209 1562.45 107.137 1555.24 107.137C1546.86 107.137 1539.08 104.531 1532.68 100.085C1531.93 100.128 1531.18 100.149 1530.41 100.149C1528.51 100.149 1526.63 100.014 1524.8 99.7537C1517.88 111.284 1505.25 119 1490.83 119C1483.62 119 1476.86 117.072 1471.03 113.704C1465.21 117.072 1458.45 119 1451.24 119C1435.69 119 1422.23 110.033 1415.76 96.9868C1414.01 97.2228 1412.23 97.3447 1410.41 97.3447C1405.12 97.3447 1400.06 96.3043 1395.44 94.4167C1388.69 99.7898 1380.13 103 1370.83 103C1361.52 103 1352.97 99.7898 1346.21 94.4167C1341.59 96.3043 1336.54 97.3447 1331.24 97.3447C1319.61 97.3447 1309.15 92.3286 1301.91 84.3416C1293.41 84.2352 1285.55 81.45 1279.15 76.7913C1271.9 84.8977 1261.36 89.9999 1249.63 89.9999C1247.52 89.9999 1245.44 89.8339 1243.41 89.5141C1236.34 96.112 1226.85 100.149 1216.41 100.149C1214.51 100.149 1212.63 100.014 1210.8 99.7537C1203.88 111.284 1191.25 119 1176.83 119C1169.62 119 1162.86 117.072 1157.03 113.704C1151.21 117.072 1144.45 119 1137.24 119C1119.17 119 1103.93 106.897 1099.19 90.3559C1092.57 95.3352 1084.34 98.2863 1075.41 98.2863C1073.51 98.2863 1071.63 98.1514 1069.8 97.8907C1062.88 109.421 1050.25 117.137 1035.83 117.137C1028.62 117.137 1021.86 115.209 1016.03 111.841C1010.21 115.209 1003.45 117.137 996.241 117.137C987.858 117.137 980.084 114.531 973.684 110.085C972.933 110.128 972.176 110.149 971.414 110.149C969.507 110.149 967.631 110.014 965.796 109.754C958.877 121.284 946.253 129 931.828 129C924.617 129 917.857 127.072 912.035 123.704C906.212 127.072 899.452 129 892.241 129C876.69 129 863.233 120.033 856.76 106.987C855.011 107.223 853.227 107.345 851.414 107.345C846.117 107.345 841.063 106.304 836.445 104.417C829.687 109.79 821.132 113 811.828 113C802.523 113 793.968 109.79 787.21 104.417C782.593 106.304 777.538 107.345 772.241 107.345C760.61 107.345 750.151 102.329 742.908 94.3415C734.408 94.2352 726.554 91.45 720.15 86.7913C712.901 94.8976 702.363 99.9999 690.632 99.9999C688.516 99.9999 686.439 99.8338 684.412 99.514C677.34 106.112 667.849 110.149 657.414 110.149C655.507 110.149 653.631 110.014 651.796 109.754C644.876 121.284 632.253 129 617.828 129C610.617 129 603.857 127.072 598.035 123.704C592.212 127.072 585.452 129 578.241 129C559.758 129 544.234 116.333 539.876 99.2062C538.838 99.1405 537.81 99.0348 536.796 98.8906C529.877 110.421 517.253 118.137 502.828 118.137C495.617 118.137 488.857 116.209 483.034 112.841C477.212 116.209 470.452 118.137 463.241 118.137C454.858 118.137 447.084 115.531 440.684 111.085C439.933 111.128 439.176 111.149 438.414 111.149C436.507 111.149 434.631 111.014 432.796 110.754C425.877 122.284 413.253 130 398.828 130C391.617 130 384.857 128.072 379.034 124.704C373.212 128.072 366.452 130 359.241 130C343.69 130 330.233 121.033 323.76 107.987C322.011 108.223 320.227 108.345 318.414 108.345C313.117 108.345 308.063 107.304 303.445 105.417C296.687 110.79 288.132 114 278.828 114C269.523 114 260.968 110.79 254.21 105.417C249.593 107.304 244.538 108.345 239.241 108.345C227.61 108.345 217.151 103.328 209.908 95.3415C201.408 95.2351 193.554 92.4499 187.15 87.7912C179.901 95.8976 169.363 101 157.632 101C155.516 101 153.439 100.834 151.412 100.514C144.34 107.112 134.849 111.149 124.414 111.149C122.507 111.149 120.631 111.014 118.796 110.754C111.876 122.284 99.2532 130 84.8276 130C77.6172 130 70.8569 128.072 65.0344 124.704C59.2119 128.072 52.4517 130 45.2415 130C23.3784 130 5.65527 112.276 5.65528 90.4136C5.65528 81.7198 8.45777 73.6806 13.2085 67.1501C5.1023 59.9012 7.04954e-06 49.3625 8.07505e-06 37.632C8.84945e-06 28.7739 2.90943 20.5953 7.82496 13.9998Z" fill="#2F2F2F"/>
<path fill-rule="evenodd" clip-rule="evenodd" d="M73.825 -0.000192258L2267.34 -4.94448e-07C2267.32 3.77522 2266.77 7.42525 2265.76 10.8799C2270.32 17.3294 2273 25.2021 2273 33.7002C2273 55.563 2255.28 73.2864 2233.41 73.2864C2231.51 73.2864 2229.63 73.1515 2227.8 72.8908C2220.88 84.4209 2208.25 92.137 2193.83 92.137C2186.62 92.137 2179.86 90.2092 2174.03 86.841C2168.21 90.2092 2161.45 92.137 2154.24 92.137C2145.86 92.137 2138.08 89.5312 2131.68 85.0854C2130.93 85.1279 2130.18 85.1494 2129.41 85.1494C2127.51 85.1494 2125.63 85.0145 2123.8 84.7538C2116.88 96.2839 2104.25 104 2089.83 104C2082.62 104 2075.86 102.072 2070.03 98.7041C2064.21 102.072 2057.45 104 2050.24 104C2034.69 104 2021.23 95.0327 2014.76 81.9869C2013.01 82.2229 2011.23 82.3448 2009.41 82.3448C2004.12 82.3448 1999.06 81.3043 1994.44 79.4167C1987.69 84.7898 1979.13 87.9999 1969.83 87.9999C1960.52 87.9999 1951.97 84.7898 1945.21 79.4167C1940.59 81.3043 1935.54 82.3448 1930.24 82.3448C1918.61 82.3447 1908.15 77.3286 1900.91 69.3416C1892.41 69.2353 1884.55 66.4501 1878.15 61.7914C1870.9 69.8977 1860.36 75 1848.63 75C1846.52 75 1844.44 74.8339 1842.41 74.5141C1835.34 81.112 1825.85 85.1494 1815.41 85.1494C1813.51 85.1494 1811.63 85.0145 1809.8 84.7538C1802.88 96.2839 1790.25 104 1775.83 104C1768.62 104 1761.86 102.072 1756.03 98.704C1750.21 102.072 1743.45 104 1736.24 104C1717.76 104 1702.23 91.3328 1697.88 74.2063C1696.84 74.1406 1695.81 74.0349 1694.8 73.8907C1687.88 85.4208 1675.25 93.1369 1660.83 93.1369C1653.62 93.1369 1646.86 91.2092 1641.03 87.841C1635.21 91.2092 1628.45 93.1369 1621.24 93.1369C1612.86 93.1369 1605.08 90.5311 1598.68 86.0854C1597.93 86.1278 1597.18 86.1494 1596.41 86.1494C1594.51 86.1494 1592.63 86.0145 1590.8 85.7537C1583.88 97.2838 1571.25 105 1556.83 105C1549.62 105 1542.86 103.072 1537.03 99.704C1531.21 103.072 1524.45 105 1517.24 105C1501.69 105 1488.23 96.0327 1481.76 82.9868C1480.01 83.2228 1478.23 83.3447 1476.41 83.3447C1471.12 83.3447 1466.06 82.3043 1461.44 80.4167C1454.69 85.7898 1446.13 88.9999 1436.83 88.9999C1427.52 88.9999 1418.97 85.7898 1412.21 80.4167C1407.59 82.3043 1402.54 83.3447 1397.24 83.3447C1385.61 83.3447 1375.15 78.3286 1367.91 70.3416C1359.41 70.2352 1351.55 67.45 1345.15 62.7913C1337.9 70.8977 1327.36 75.9999 1315.63 75.9999C1313.52 75.9999 1311.44 75.8339 1309.41 75.5141C1302.34 82.112 1292.85 86.1493 1282.41 86.1493C1280.51 86.1493 1278.63 86.0145 1276.8 85.7537C1269.88 97.2838 1257.25 105 1242.83 105C1235.62 105 1228.86 103.072 1223.03 99.704C1217.21 103.072 1210.45 105 1203.24 105C1185.17 105 1169.93 92.8966 1165.19 76.3559C1158.57 81.3352 1150.34 84.2863 1141.41 84.2863C1139.51 84.2863 1137.63 84.1514 1135.8 83.8907C1128.88 95.4208 1116.25 103.137 1101.83 103.137C1094.62 103.137 1087.86 101.209 1082.03 97.8409C1076.21 101.209 1069.45 103.137 1062.24 103.137C1053.86 103.137 1046.08 100.531 1039.68 96.0853C1038.93 96.1278 1038.18 96.1493 1037.41 96.1493C1035.51 96.1493 1033.63 96.0144 1031.8 95.7537C1024.88 107.284 1012.25 115 997.828 115C990.617 115 983.857 113.072 978.034 109.704C972.212 113.072 965.452 115 958.241 115C942.69 115 929.233 106.033 922.76 92.9868C921.011 93.2228 919.227 93.3447 917.414 93.3447C912.117 93.3447 907.063 92.3042 902.445 90.4166C895.687 95.7897 887.132 98.9998 877.828 98.9998C868.523 98.9998 859.968 95.7897 853.21 90.4166C848.593 92.3043 843.538 93.3447 838.241 93.3447C826.61 93.3447 816.151 88.3285 808.908 80.3415C800.408 80.2352 792.554 77.45 786.15 72.7913C778.901 80.8976 768.363 85.9999 756.632 85.9999C754.516 85.9999 752.439 85.8338 750.412 85.514C743.34 92.1119 733.849 96.1493 723.414 96.1493C721.507 96.1493 719.631 96.0144 717.796 95.7537C710.876 107.284 698.253 115 683.828 115C676.617 115 669.857 113.072 664.035 109.704C658.212 113.072 651.452 115 644.241 115C625.758 115 610.234 102.333 605.876 85.2062C604.838 85.1405 603.81 85.0348 602.796 84.8906C595.877 96.4207 583.253 104.137 568.828 104.137C561.617 104.137 554.857 102.209 549.034 98.8409C543.212 102.209 536.452 104.137 529.241 104.137C520.858 104.137 513.084 101.531 506.684 97.0853C505.933 97.1277 505.176 97.1493 504.414 97.1493C502.507 97.1493 500.631 97.0144 498.796 96.7537C491.877 108.284 479.253 116 464.828 116C457.617 116 450.857 114.072 445.034 110.704C439.212 114.072 432.452 116 425.241 116C409.69 116 396.233 107.033 389.76 93.9867C388.011 94.2227 386.227 94.3446 384.414 94.3446C379.117 94.3446 374.063 93.3042 369.445 91.4166C362.687 96.7897 354.132 99.9998 344.828 99.9998C335.523 99.9998 326.968 96.7897 320.21 91.4166C315.593 93.3042 310.538 94.3446 305.241 94.3446C293.61 94.3446 283.151 89.3285 275.908 81.3415C267.408 81.2351 259.554 78.4499 253.15 73.7912C245.901 81.8976 235.363 86.9998 223.632 86.9998C221.516 86.9998 219.439 86.8338 217.412 86.514C210.34 93.1119 200.849 97.1492 190.414 97.1492C188.507 97.1492 186.631 97.0144 184.796 96.7536C177.876 108.284 165.253 116 150.828 116C143.617 116 136.857 114.072 131.034 110.704C125.212 114.072 118.452 116 111.241 116C89.3784 116 71.6553 98.2765 71.6553 76.4136C71.6553 67.7198 74.4578 59.6806 79.2085 53.1501C71.1023 45.9012 66 35.3625 66 23.632C66 14.7739 68.9094 6.59533 73.825 -0.000192258Z" fill="#494949"/>
</g>
<defs>
<clipPath id="clip0_864_21551">
<rect width="2273" height="130" fill="white" transform="translate(5624)"/>
</clipPath>
<clipPath id="clip1_864_21551">
<rect width="2273" height="130" fill="white" transform="translate(3749)"/>
</clipPath>
<clipPath id="clip2_864_21551">
<rect width="2273" height="130" fill="white" transform="translate(1873)"/>
</clipPath>
<clipPath id="clip3_864_21551">
<rect width="2273" height="130" fill="white"/>
</clipPath>
</defs>
</svg>
